G04*
G04 #@! TF.GenerationSoftware,Altium Limited,Altium Designer,26.1.1 (7)*
G04*
G04 Layer_Color=8421504*
%FSLAX25Y25*%
%MOIN*%
G70*
G04*
G04 #@! TF.SameCoordinates,03200FDD-A99C-4DC2-9D25-3EF49925F6DB*
G04*
G04*
G04 #@! TF.FilePolarity,Positive*
G04*
G01*
G75*
%ADD14R,0.04528X0.02362*%
%ADD15R,0.05512X0.03740*%
%ADD16R,0.04724X0.02362*%
%ADD17R,0.05709X0.03937*%
%ADD18R,0.02362X0.04724*%
%ADD19R,0.07284X0.02559*%
%ADD20R,0.05512X0.03937*%
%ADD21R,0.04724X0.02953*%
%ADD22R,0.03740X0.05512*%
%ADD23R,0.06693X0.04528*%
%ADD24R,0.04528X0.07087*%
%ADD25R,0.05512X0.02362*%
%ADD26R,0.04016X0.05787*%
%ADD27R,0.05787X0.04016*%
%ADD28R,0.05118X0.02756*%
%ADD29R,0.05787X0.03819*%
%ADD30R,0.03819X0.05787*%
%ADD31R,0.05807X0.01772*%
%ADD32R,0.07579X0.02559*%
%ADD33R,0.06693X0.05906*%
%ADD34R,0.04528X0.05709*%
G04:AMPARAMS|DCode=35|XSize=51.18mil|YSize=29.92mil|CornerRadius=3.74mil|HoleSize=0mil|Usage=FLASHONLY|Rotation=180.000|XOffset=0mil|YOffset=0mil|HoleType=Round|Shape=RoundedRectangle|*
%AMROUNDEDRECTD35*
21,1,0.05118,0.02244,0,0,180.0*
21,1,0.04370,0.02992,0,0,180.0*
1,1,0.00748,-0.02185,0.01122*
1,1,0.00748,0.02185,0.01122*
1,1,0.00748,0.02185,-0.01122*
1,1,0.00748,-0.02185,-0.01122*
%
%ADD35ROUNDEDRECTD35*%
%ADD36R,0.04528X0.05512*%
%ADD37R,0.10630X0.04528*%
D14*
X63831Y101221D02*
D03*
Y108780D02*
D03*
X55169Y105000D02*
D03*
D15*
X54000Y93240D02*
D03*
Y85760D02*
D03*
D16*
X109421Y46760D02*
D03*
Y50500D02*
D03*
Y54240D02*
D03*
X99579D02*
D03*
Y46760D02*
D03*
D17*
X63500Y93240D02*
D03*
Y85760D02*
D03*
D18*
X61240Y73421D02*
D03*
X57500D02*
D03*
X53760D02*
D03*
Y63579D02*
D03*
X57500D02*
D03*
X61240D02*
D03*
D19*
X140071Y80500D02*
D03*
Y85500D02*
D03*
Y75500D02*
D03*
Y70500D02*
D03*
X182000Y85500D02*
D03*
Y80500D02*
D03*
Y75500D02*
D03*
Y70500D02*
D03*
D20*
X120500Y51760D02*
D03*
Y59240D02*
D03*
X98000Y139740D02*
D03*
Y132260D02*
D03*
D21*
X95500Y172000D02*
D03*
X108886D02*
D03*
D22*
X62240Y121000D02*
D03*
X54760D02*
D03*
D23*
X211013Y84248D02*
D03*
Y72437D02*
D03*
D24*
X239291Y47500D02*
D03*
X250709D02*
D03*
X260291D02*
D03*
X271709D02*
D03*
X271709Y25500D02*
D03*
X260291D02*
D03*
X250709D02*
D03*
X239291D02*
D03*
D25*
X116028Y135760D02*
D03*
Y143240D02*
D03*
X106972Y139500D02*
D03*
D26*
X77689Y146500D02*
D03*
X71311D02*
D03*
X183811Y95000D02*
D03*
X190189D02*
D03*
D27*
X133500Y123189D02*
D03*
Y116811D02*
D03*
X190000Y124189D02*
D03*
Y117811D02*
D03*
X192753Y78090D02*
D03*
Y84468D02*
D03*
X129000Y67811D02*
D03*
Y74189D02*
D03*
D28*
X123500Y116260D02*
D03*
Y123740D02*
D03*
D29*
X199500Y124287D02*
D03*
Y117752D02*
D03*
X124500Y136732D02*
D03*
Y143268D02*
D03*
X202253Y78011D02*
D03*
Y84547D02*
D03*
X120500Y67732D02*
D03*
Y74268D02*
D03*
D30*
X108732Y128000D02*
D03*
X115268D02*
D03*
D31*
X62933Y136779D02*
D03*
Y134221D02*
D03*
X86067Y131661D02*
D03*
Y134221D02*
D03*
Y136779D02*
D03*
X62933Y139339D02*
D03*
Y131661D02*
D03*
X86067Y139339D02*
D03*
D32*
X142500Y118500D02*
D03*
Y133500D02*
D03*
Y128500D02*
D03*
Y123500D02*
D03*
X179602Y118500D02*
D03*
Y133500D02*
D03*
Y123500D02*
D03*
Y128500D02*
D03*
D33*
X26000Y99512D02*
D03*
Y138488D02*
D03*
D34*
X78957Y121000D02*
D03*
X86043D02*
D03*
D35*
X98000Y117957D02*
D03*
Y125004D02*
D03*
D36*
X180874Y106000D02*
D03*
X190126D02*
D03*
D37*
X231000Y84405D02*
D03*
Y72594D02*
D03*
M02*
