G04*
G04 #@! TF.GenerationSoftware,Altium Limited,Altium Designer,26.1.1 (7)*
G04*
G04 Layer_Physical_Order=1*
G04 Layer_Color=255*
%FSLAX25Y25*%
%MOIN*%
G70*
G04*
G04 #@! TF.SameCoordinates,7362D28E-EC93-4AAC-8203-6D5706C73221*
G04*
G04*
G04 #@! TF.FilePolarity,Positive*
G04*
G01*
G75*
%ADD14R,0.04528X0.02362*%
%ADD15R,0.05512X0.03740*%
%ADD16R,0.04724X0.02362*%
%ADD17R,0.05709X0.03937*%
%ADD18R,0.02362X0.04724*%
%ADD19R,0.07284X0.02559*%
%ADD20R,0.05512X0.03937*%
%ADD21R,0.04724X0.02953*%
%ADD22R,0.03740X0.05512*%
%ADD23R,0.06693X0.04528*%
%ADD24R,0.04528X0.07087*%
%ADD25R,0.05512X0.02362*%
%ADD26R,0.04016X0.05787*%
%ADD27R,0.05787X0.04016*%
%ADD28R,0.05118X0.02756*%
%ADD29R,0.05787X0.03819*%
%ADD30R,0.03819X0.05787*%
%ADD31R,0.05807X0.01772*%
%ADD32R,0.07579X0.02559*%
%ADD33R,0.06693X0.05906*%
%ADD34R,0.04528X0.05709*%
G04:AMPARAMS|DCode=35|XSize=51.18mil|YSize=29.92mil|CornerRadius=3.74mil|HoleSize=0mil|Usage=FLASHONLY|Rotation=180.000|XOffset=0mil|YOffset=0mil|HoleType=Round|Shape=RoundedRectangle|*
%AMROUNDEDRECTD35*
21,1,0.05118,0.02244,0,0,180.0*
21,1,0.04370,0.02992,0,0,180.0*
1,1,0.00748,-0.02185,0.01122*
1,1,0.00748,0.02185,0.01122*
1,1,0.00748,0.02185,-0.01122*
1,1,0.00748,-0.02185,-0.01122*
%
%ADD35ROUNDEDRECTD35*%
%ADD36R,0.04528X0.05512*%
%ADD37R,0.10630X0.04528*%
%ADD66C,0.00984*%
%ADD67C,0.00984*%
%ADD68C,0.00500*%
%ADD69C,0.06000*%
%ADD70C,0.03661*%
%ADD71C,0.11161*%
%ADD72C,0.02362*%
%ADD73C,0.01772*%
G36*
X183390Y134391D02*
X183419Y134307D01*
X183468Y134233D01*
X183537Y134169D01*
X183626Y134115D01*
X183734Y134071D01*
X183862Y134036D01*
X184010Y134012D01*
X184177Y133997D01*
X184364Y133992D01*
Y133008D01*
X184177Y133003D01*
X184010Y132988D01*
X183862Y132964D01*
X183734Y132929D01*
X183626Y132885D01*
X183537Y132831D01*
X183468Y132767D01*
X183419Y132693D01*
X183390Y132609D01*
X183380Y132516D01*
Y134484D01*
X183390Y134391D01*
D02*
G37*
G36*
X177217Y132232D02*
X177078Y132226D01*
X176938Y132205D01*
X176799Y132170D01*
X176660Y132121D01*
X176521Y132059D01*
X176382Y131982D01*
X176243Y131891D01*
X176103Y131787D01*
X175964Y131669D01*
X175825Y131536D01*
X175129Y132232D01*
X175261Y132372D01*
X175380Y132511D01*
X175484Y132650D01*
X175574Y132789D01*
X175651Y132928D01*
X175714Y133068D01*
X175762Y133207D01*
X175797Y133346D01*
X175818Y133485D01*
X175825Y133624D01*
X177217Y132232D01*
D02*
G37*
G36*
X180493Y127223D02*
X180409Y127193D01*
X180336Y127144D01*
X180272Y127075D01*
X180218Y126986D01*
X180173Y126878D01*
X180139Y126750D01*
X180114Y126603D01*
X180099Y126435D01*
X180095Y126248D01*
X179110D01*
X179105Y126435D01*
X179091Y126603D01*
X179066Y126750D01*
X179032Y126878D01*
X178987Y126986D01*
X178933Y127075D01*
X178869Y127144D01*
X178795Y127193D01*
X178712Y127223D01*
X178618Y127233D01*
X180587D01*
X180493Y127223D01*
D02*
G37*
G36*
X180099Y125565D02*
X180114Y125397D01*
X180139Y125250D01*
X180173Y125122D01*
X180218Y125014D01*
X180272Y124925D01*
X180336Y124856D01*
X180409Y124807D01*
X180493Y124777D01*
X180587Y124767D01*
X178618D01*
X178712Y124777D01*
X178795Y124807D01*
X178869Y124856D01*
X178933Y124925D01*
X178987Y125014D01*
X179032Y125122D01*
X179066Y125250D01*
X179091Y125397D01*
X179105Y125565D01*
X179110Y125752D01*
X180095D01*
X180099Y125565D01*
D02*
G37*
G36*
X196618Y122516D02*
X196608Y122609D01*
X196579Y122693D01*
X196530Y122767D01*
X196461Y122831D01*
X196372Y122885D01*
X196264Y122929D01*
X196136Y122964D01*
X195988Y122988D01*
X195821Y123003D01*
X195634Y123008D01*
Y123992D01*
X195821Y123997D01*
X195988Y124012D01*
X196136Y124036D01*
X196264Y124071D01*
X196372Y124115D01*
X196461Y124169D01*
X196530Y124233D01*
X196579Y124307D01*
X196608Y124391D01*
X196618Y124484D01*
Y122516D01*
D02*
G37*
G36*
X192892Y124391D02*
X192921Y124307D01*
X192970Y124233D01*
X193039Y124169D01*
X193128Y124115D01*
X193236Y124071D01*
X193364Y124036D01*
X193512Y124012D01*
X193679Y123997D01*
X193866Y123992D01*
Y123008D01*
X193679Y123003D01*
X193512Y122988D01*
X193364Y122964D01*
X193236Y122929D01*
X193128Y122885D01*
X193039Y122831D01*
X192970Y122767D01*
X192921Y122693D01*
X192892Y122609D01*
X192882Y122516D01*
Y124484D01*
X192892Y124391D01*
D02*
G37*
G36*
X187118Y122516D02*
X187109Y122609D01*
X187079Y122693D01*
X187030Y122767D01*
X186961Y122831D01*
X186872Y122885D01*
X186764Y122929D01*
X186636Y122964D01*
X186488Y122988D01*
X186321Y123003D01*
X186134Y123008D01*
Y123992D01*
X186321Y123997D01*
X186488Y124012D01*
X186636Y124036D01*
X186764Y124071D01*
X186872Y124115D01*
X186961Y124169D01*
X187030Y124233D01*
X187079Y124307D01*
X187109Y124391D01*
X187118Y124484D01*
Y122516D01*
D02*
G37*
G36*
X183390Y124391D02*
X183419Y124307D01*
X183468Y124233D01*
X183537Y124169D01*
X183626Y124115D01*
X183734Y124071D01*
X183862Y124036D01*
X184010Y124012D01*
X184177Y123997D01*
X184364Y123992D01*
Y123008D01*
X184177Y123003D01*
X184010Y122988D01*
X183862Y122964D01*
X183734Y122929D01*
X183626Y122885D01*
X183537Y122831D01*
X183468Y122767D01*
X183419Y122693D01*
X183390Y122609D01*
X183380Y122516D01*
Y124484D01*
X183390Y124391D01*
D02*
G37*
G36*
X202389Y123643D02*
X202410Y123503D01*
X202444Y123364D01*
X202493Y123225D01*
X202556Y123086D01*
X202632Y122947D01*
X202723Y122808D01*
X202827Y122668D01*
X202945Y122529D01*
X203078Y122390D01*
X202382Y121694D01*
X202242Y121826D01*
X202103Y121945D01*
X201964Y122049D01*
X201825Y122139D01*
X201686Y122216D01*
X201547Y122279D01*
X201407Y122327D01*
X201268Y122362D01*
X201129Y122383D01*
X200990Y122390D01*
X202382Y123782D01*
X202389Y123643D01*
D02*
G37*
G36*
X175964Y120331D02*
X176103Y120213D01*
X176243Y120109D01*
X176382Y120018D01*
X176521Y119941D01*
X176660Y119879D01*
X176799Y119830D01*
X176938Y119795D01*
X177078Y119774D01*
X177217Y119767D01*
X175825Y118376D01*
X175818Y118515D01*
X175797Y118654D01*
X175762Y118793D01*
X175714Y118932D01*
X175651Y119072D01*
X175574Y119211D01*
X175484Y119350D01*
X175380Y119489D01*
X175261Y119628D01*
X175129Y119767D01*
X175825Y120464D01*
X175964Y120331D01*
D02*
G37*
G36*
X196618Y117516D02*
X196608Y117609D01*
X196579Y117693D01*
X196530Y117767D01*
X196461Y117831D01*
X196372Y117885D01*
X196264Y117929D01*
X196136Y117964D01*
X195988Y117988D01*
X195821Y118003D01*
X195634Y118008D01*
Y118992D01*
X195821Y118997D01*
X195988Y119012D01*
X196136Y119036D01*
X196264Y119071D01*
X196372Y119115D01*
X196461Y119169D01*
X196530Y119233D01*
X196579Y119307D01*
X196608Y119391D01*
X196618Y119484D01*
Y117516D01*
D02*
G37*
G36*
X192892Y119391D02*
X192921Y119307D01*
X192970Y119233D01*
X193039Y119169D01*
X193128Y119115D01*
X193236Y119071D01*
X193364Y119036D01*
X193512Y119012D01*
X193679Y118997D01*
X193866Y118992D01*
Y118008D01*
X193679Y118003D01*
X193512Y117988D01*
X193364Y117964D01*
X193236Y117929D01*
X193128Y117885D01*
X193039Y117831D01*
X192970Y117767D01*
X192921Y117693D01*
X192892Y117609D01*
X192882Y117516D01*
Y119484D01*
X192892Y119391D01*
D02*
G37*
G36*
X187118Y117516D02*
X187109Y117609D01*
X187079Y117693D01*
X187030Y117767D01*
X186961Y117831D01*
X186872Y117885D01*
X186764Y117929D01*
X186636Y117964D01*
X186488Y117988D01*
X186321Y118003D01*
X186134Y118008D01*
Y118992D01*
X186321Y118997D01*
X186488Y119012D01*
X186636Y119036D01*
X186764Y119071D01*
X186872Y119115D01*
X186961Y119169D01*
X187030Y119233D01*
X187079Y119307D01*
X187109Y119391D01*
X187118Y119484D01*
Y117516D01*
D02*
G37*
G36*
X183390Y119391D02*
X183419Y119307D01*
X183468Y119233D01*
X183537Y119169D01*
X183626Y119115D01*
X183734Y119071D01*
X183862Y119036D01*
X184010Y119012D01*
X184177Y118997D01*
X184364Y118992D01*
Y118008D01*
X184177Y118003D01*
X184010Y117988D01*
X183862Y117964D01*
X183734Y117929D01*
X183626Y117885D01*
X183537Y117831D01*
X183468Y117767D01*
X183419Y117693D01*
X183390Y117609D01*
X183380Y117516D01*
Y119484D01*
X183390Y119391D01*
D02*
G37*
G36*
X197989Y115845D02*
X197906Y115815D01*
X197832Y115766D01*
X197768Y115697D01*
X197714Y115608D01*
X197669Y115500D01*
X197635Y115372D01*
X197610Y115225D01*
X197596Y115057D01*
X197591Y114870D01*
X196606D01*
X196618Y115855D01*
X198083D01*
X197989Y115845D01*
D02*
G37*
G36*
X193074Y108744D02*
X192941Y108605D01*
X192823Y108466D01*
X192719Y108326D01*
X192628Y108187D01*
X192552Y108048D01*
X192489Y107909D01*
X192440Y107770D01*
X192406Y107630D01*
X192385Y107491D01*
X192378Y107352D01*
X190986Y108744D01*
X191125Y108751D01*
X191264Y108772D01*
X191403Y108807D01*
X191543Y108855D01*
X191682Y108918D01*
X191821Y108994D01*
X191960Y109085D01*
X192099Y109189D01*
X192239Y109308D01*
X192378Y109440D01*
X193074Y108744D01*
D02*
G37*
G36*
X251244Y106056D02*
X251392Y105938D01*
X251546Y105833D01*
X251705Y105743D01*
X251870Y105666D01*
X252041Y105604D01*
X252218Y105555D01*
X252400Y105520D01*
X252589Y105499D01*
X252783Y105492D01*
Y104508D01*
X252589Y104501D01*
X252400Y104480D01*
X252218Y104445D01*
X252041Y104396D01*
X251870Y104334D01*
X251705Y104257D01*
X251546Y104167D01*
X251392Y104062D01*
X251244Y103944D01*
X251102Y103812D01*
X250203Y104304D01*
X250328Y104443D01*
X250425Y104582D01*
X250495Y104722D01*
X250537Y104861D01*
X250551Y105000D01*
X250537Y105139D01*
X250495Y105278D01*
X250425Y105418D01*
X250328Y105557D01*
X250203Y105696D01*
X251102Y106188D01*
X251244Y106056D01*
D02*
G37*
G36*
X181765Y103246D02*
X181681Y103217D01*
X181607Y103167D01*
X181543Y103099D01*
X181489Y103010D01*
X181445Y102902D01*
X181410Y102774D01*
X181386Y102626D01*
X181371Y102459D01*
X181366Y102272D01*
X180382D01*
X180377Y102459D01*
X180362Y102626D01*
X180338Y102774D01*
X180303Y102902D01*
X180259Y103010D01*
X180205Y103099D01*
X180141Y103167D01*
X180067Y103217D01*
X179983Y103246D01*
X179890Y103256D01*
X181858D01*
X181765Y103246D01*
D02*
G37*
G36*
X191017D02*
X190933Y103217D01*
X190859Y103167D01*
X190795Y103099D01*
X190741Y103010D01*
X190697Y102902D01*
X190662Y102774D01*
X190638Y102626D01*
X190623Y102459D01*
X190618Y102272D01*
X189634D01*
X189629Y102459D01*
X189614Y102626D01*
X189590Y102774D01*
X189555Y102902D01*
X189511Y103010D01*
X189457Y103099D01*
X189393Y103167D01*
X189319Y103217D01*
X189235Y103246D01*
X189142Y103256D01*
X191110D01*
X191017Y103246D01*
D02*
G37*
G36*
X287258Y114863D02*
X285721Y113121D01*
X285346Y112611D01*
X285038Y112136D01*
X284804Y111705D01*
X285038Y111273D01*
X285346Y110799D01*
X285721Y110289D01*
X286677Y109163D01*
X287907Y107895D01*
X280730D01*
X279328Y100857D01*
X278856Y101551D01*
X277946Y102719D01*
X277507Y103194D01*
X277079Y103595D01*
X276662Y103924D01*
X276256Y104179D01*
X275861Y104362D01*
X275477Y104471D01*
X275103Y104508D01*
X275300Y105492D01*
X275557Y105522D01*
X275880Y105613D01*
X276269Y105765D01*
X276725Y105976D01*
X277836Y106582D01*
X279213Y107430D01*
X280444Y108247D01*
X280742Y108546D01*
X282279Y110289D01*
X282654Y110799D01*
X282962Y111273D01*
X283196Y111705D01*
X282962Y112136D01*
X282654Y112611D01*
X282279Y113121D01*
X281323Y114247D01*
X280094Y115515D01*
X287907D01*
X287258Y114863D01*
D02*
G37*
G36*
X190623Y98679D02*
X190638Y98512D01*
X190662Y98364D01*
X190697Y98236D01*
X190741Y98128D01*
X190795Y98039D01*
X190859Y97970D01*
X190933Y97921D01*
X191017Y97891D01*
X191110Y97882D01*
X189142D01*
X189235Y97891D01*
X189319Y97921D01*
X189393Y97970D01*
X189457Y98039D01*
X189511Y98128D01*
X189555Y98236D01*
X189590Y98364D01*
X189614Y98512D01*
X189629Y98679D01*
X189634Y98866D01*
X190618D01*
X190623Y98679D01*
D02*
G37*
G36*
X181954Y98445D02*
X182094Y98327D01*
X182233Y98223D01*
X182372Y98132D01*
X182511Y98056D01*
X182650Y97993D01*
X182790Y97944D01*
X182929Y97909D01*
X183068Y97889D01*
X183207Y97882D01*
X181815Y96490D01*
X181808Y96629D01*
X181787Y96768D01*
X181753Y96907D01*
X181704Y97047D01*
X181641Y97186D01*
X181565Y97325D01*
X181474Y97464D01*
X181370Y97603D01*
X181251Y97742D01*
X181119Y97882D01*
X181815Y98578D01*
X181954Y98445D01*
D02*
G37*
G36*
X189564Y92109D02*
X189480Y92079D01*
X189407Y92030D01*
X189342Y91961D01*
X189288Y91872D01*
X189244Y91764D01*
X189210Y91636D01*
X189185Y91488D01*
X189170Y91321D01*
X189165Y91134D01*
X188181D01*
X188193Y92118D01*
X189657D01*
X189564Y92109D01*
D02*
G37*
G36*
X234660Y87396D02*
X234672Y87241D01*
X234694Y87104D01*
X234723Y86985D01*
X234761Y86885D01*
X234807Y86803D01*
X234861Y86739D01*
X234924Y86694D01*
X234996Y86666D01*
X235075Y86657D01*
X233252D01*
X233331Y86666D01*
X233403Y86694D01*
X233466Y86739D01*
X233520Y86803D01*
X233566Y86885D01*
X233604Y86985D01*
X233634Y87104D01*
X233655Y87241D01*
X233667Y87396D01*
X233671Y87569D01*
X234656D01*
X234660Y87396D01*
D02*
G37*
G36*
X199372Y84516D02*
X199362Y84609D01*
X199332Y84693D01*
X199283Y84767D01*
X199214Y84831D01*
X199126Y84885D01*
X199017Y84929D01*
X198889Y84964D01*
X198742Y84988D01*
X198574Y85003D01*
X198387Y85008D01*
Y85992D01*
X198574Y85997D01*
X198742Y86010D01*
X198889Y86033D01*
X199017Y86064D01*
X199126Y86105D01*
X199214Y86155D01*
X199283Y86214D01*
X199332Y86282D01*
X199362Y86358D01*
X199372Y86444D01*
Y84516D01*
D02*
G37*
G36*
X195645Y86374D02*
X195675Y86294D01*
X195724Y86223D01*
X195793Y86162D01*
X195881Y86110D01*
X195989Y86068D01*
X196117Y86035D01*
X196265Y86011D01*
X196432Y85997D01*
X196619Y85992D01*
Y85008D01*
X196432Y85003D01*
X196265Y84988D01*
X196117Y84964D01*
X195989Y84929D01*
X195881Y84885D01*
X195793Y84831D01*
X195724Y84767D01*
X195675Y84693D01*
X195645Y84609D01*
X195635Y84516D01*
Y86464D01*
X195645Y86374D01*
D02*
G37*
G36*
X189872Y84516D02*
X189862Y84609D01*
X189832Y84693D01*
X189783Y84767D01*
X189714Y84831D01*
X189626Y84885D01*
X189517Y84929D01*
X189389Y84964D01*
X189242Y84988D01*
X189075Y85003D01*
X188887Y85008D01*
Y85992D01*
X189075Y85997D01*
X189242Y86011D01*
X189389Y86035D01*
X189517Y86068D01*
X189626Y86110D01*
X189714Y86162D01*
X189783Y86223D01*
X189832Y86294D01*
X189862Y86374D01*
X189872Y86464D01*
Y84516D01*
D02*
G37*
G36*
X186326Y86768D02*
X186194Y86628D01*
X186075Y86489D01*
X185971Y86350D01*
X185880Y86211D01*
X185840Y86137D01*
X185876Y86115D01*
X185984Y86071D01*
X186112Y86036D01*
X186260Y86012D01*
X186427Y85997D01*
X186614Y85992D01*
Y85008D01*
X186427Y85003D01*
X186260Y84988D01*
X186112Y84964D01*
X185984Y84929D01*
X185876Y84885D01*
X185787Y84831D01*
X185718Y84767D01*
X185669Y84693D01*
X185640Y84609D01*
X185630Y84516D01*
Y85376D01*
X184238Y86768D01*
X184377Y86774D01*
X184516Y86795D01*
X184655Y86830D01*
X184795Y86879D01*
X184934Y86941D01*
X185073Y87018D01*
X185212Y87109D01*
X185351Y87213D01*
X185491Y87331D01*
X185630Y87463D01*
X186326Y86768D01*
D02*
G37*
G36*
X207679Y83562D02*
X207669Y83656D01*
X207639Y83740D01*
X207590Y83814D01*
X207521Y83877D01*
X207433Y83932D01*
X207324Y83976D01*
X207196Y84010D01*
X207049Y84035D01*
X206881Y84050D01*
X206695Y84055D01*
Y85039D01*
X206881Y85044D01*
X207049Y85059D01*
X207196Y85083D01*
X207324Y85118D01*
X207433Y85162D01*
X207521Y85216D01*
X207590Y85280D01*
X207639Y85354D01*
X207669Y85438D01*
X207679Y85531D01*
Y83562D01*
D02*
G37*
G36*
X205145Y85438D02*
X205174Y85354D01*
X205224Y85280D01*
X205293Y85216D01*
X205381Y85162D01*
X205489Y85118D01*
X205617Y85083D01*
X205765Y85059D01*
X205932Y85044D01*
X206119Y85039D01*
Y84055D01*
X205932Y84050D01*
X205765Y84035D01*
X205617Y84010D01*
X205489Y83976D01*
X205381Y83932D01*
X205293Y83877D01*
X205224Y83814D01*
X205174Y83740D01*
X205145Y83656D01*
X205135Y83562D01*
Y85531D01*
X205145Y85438D01*
D02*
G37*
G36*
X178509Y82331D02*
X178649Y82213D01*
X178788Y82109D01*
X178927Y82018D01*
X179066Y81941D01*
X179205Y81879D01*
X179345Y81830D01*
X179484Y81795D01*
X179623Y81774D01*
X179762Y81767D01*
X178370Y80376D01*
X178363Y80515D01*
X178342Y80654D01*
X178308Y80793D01*
X178259Y80932D01*
X178196Y81072D01*
X178120Y81211D01*
X178029Y81350D01*
X177925Y81489D01*
X177806Y81628D01*
X177674Y81767D01*
X178370Y82464D01*
X178509Y82331D01*
D02*
G37*
G36*
X199372Y77106D02*
X199362Y77199D01*
X199332Y77283D01*
X199283Y77357D01*
X199214Y77421D01*
X199126Y77475D01*
X199017Y77519D01*
X198889Y77554D01*
X198742Y77578D01*
X198574Y77593D01*
X198388Y77598D01*
Y78582D01*
X198574Y78587D01*
X198742Y78602D01*
X198889Y78627D01*
X199017Y78661D01*
X199126Y78705D01*
X199214Y78759D01*
X199283Y78823D01*
X199332Y78897D01*
X199362Y78981D01*
X199372Y79074D01*
Y77106D01*
D02*
G37*
G36*
X195645Y78981D02*
X195675Y78897D01*
X195724Y78823D01*
X195793Y78759D01*
X195881Y78705D01*
X195989Y78661D01*
X196117Y78627D01*
X196265Y78602D01*
X196432Y78587D01*
X196619Y78582D01*
Y77598D01*
X196432Y77593D01*
X196265Y77578D01*
X196117Y77554D01*
X195989Y77519D01*
X195881Y77475D01*
X195793Y77421D01*
X195724Y77357D01*
X195675Y77283D01*
X195645Y77199D01*
X195635Y77106D01*
Y79074D01*
X195645Y78981D01*
D02*
G37*
G36*
X205145Y78902D02*
X205174Y78818D01*
X205224Y78745D01*
X205293Y78681D01*
X205381Y78627D01*
X205489Y78582D01*
X205617Y78548D01*
X205765Y78523D01*
X205932Y78508D01*
X206119Y78503D01*
Y77519D01*
X205932Y77514D01*
X205765Y77500D01*
X205617Y77475D01*
X205489Y77441D01*
X205381Y77396D01*
X205293Y77342D01*
X205224Y77278D01*
X205174Y77204D01*
X205145Y77121D01*
X205135Y77027D01*
Y78996D01*
X205145Y78902D01*
D02*
G37*
G36*
X178370Y74516D02*
X178360Y74609D01*
X178331Y74693D01*
X178282Y74767D01*
X178213Y74831D01*
X178124Y74885D01*
X178016Y74929D01*
X177888Y74964D01*
X177740Y74988D01*
X177573Y75003D01*
X177386Y75008D01*
Y75992D01*
X177573Y75997D01*
X177740Y76012D01*
X177888Y76036D01*
X178016Y76071D01*
X178124Y76115D01*
X178213Y76169D01*
X178282Y76233D01*
X178331Y76307D01*
X178360Y76391D01*
X178370Y76484D01*
Y74516D01*
D02*
G37*
G36*
X225697Y71452D02*
X225687Y71546D01*
X225658Y71630D01*
X225608Y71703D01*
X225540Y71767D01*
X225451Y71822D01*
X225343Y71866D01*
X225215Y71900D01*
X225067Y71925D01*
X224900Y71940D01*
X224713Y71945D01*
Y72929D01*
X224900Y72934D01*
X225067Y72948D01*
X225215Y72973D01*
X225343Y73008D01*
X225451Y73052D01*
X225540Y73106D01*
X225608Y73170D01*
X225658Y73244D01*
X225687Y73327D01*
X225697Y73421D01*
Y71452D01*
D02*
G37*
G36*
X214357Y73327D02*
X214387Y73244D01*
X214436Y73170D01*
X214505Y73106D01*
X214594Y73052D01*
X214702Y73008D01*
X214830Y72973D01*
X214978Y72948D01*
X215145Y72934D01*
X215332Y72929D01*
Y71945D01*
X215145Y71940D01*
X214978Y71925D01*
X214830Y71900D01*
X214702Y71866D01*
X214594Y71822D01*
X214505Y71767D01*
X214436Y71703D01*
X214387Y71630D01*
X214357Y71546D01*
X214348Y71452D01*
Y73421D01*
X214357Y73327D01*
D02*
G37*
G36*
X209071Y70185D02*
X208931Y70178D01*
X208792Y70157D01*
X208653Y70122D01*
X208514Y70074D01*
X208375Y70011D01*
X208236Y69934D01*
X208096Y69844D01*
X207957Y69740D01*
X207818Y69621D01*
X207679Y69489D01*
X206983Y70185D01*
X207115Y70324D01*
X207233Y70463D01*
X207338Y70603D01*
X207428Y70742D01*
X207505Y70881D01*
X207567Y71020D01*
X207616Y71159D01*
X207651Y71298D01*
X207672Y71438D01*
X207679Y71577D01*
X209071Y70185D01*
D02*
G37*
G36*
X231733Y70333D02*
X231649Y70303D01*
X231575Y70254D01*
X231511Y70185D01*
X231457Y70097D01*
X231413Y69988D01*
X231379Y69861D01*
X231354Y69713D01*
X231339Y69546D01*
X231334Y69358D01*
X230350D01*
X230345Y69546D01*
X230330Y69713D01*
X230306Y69861D01*
X230271Y69988D01*
X230227Y70097D01*
X230173Y70185D01*
X230109Y70254D01*
X230035Y70303D01*
X229952Y70333D01*
X229858Y70343D01*
X231826D01*
X231733Y70333D01*
D02*
G37*
G36*
X237179Y51595D02*
X237318Y51477D01*
X237457Y51372D01*
X237596Y51282D01*
X237736Y51205D01*
X237875Y51143D01*
X238014Y51094D01*
X238153Y51059D01*
X238292Y51038D01*
X238431Y51031D01*
X237040Y49639D01*
X237033Y49779D01*
X237012Y49918D01*
X236977Y50057D01*
X236928Y50196D01*
X236866Y50335D01*
X236789Y50475D01*
X236699Y50614D01*
X236594Y50753D01*
X236476Y50892D01*
X236344Y51031D01*
X237040Y51727D01*
X237179Y51595D01*
D02*
G37*
G36*
X258040Y46516D02*
X258030Y46609D01*
X258000Y46693D01*
X257951Y46767D01*
X257882Y46831D01*
X257793Y46885D01*
X257685Y46929D01*
X257557Y46964D01*
X257410Y46988D01*
X257242Y47003D01*
X257055Y47008D01*
Y47992D01*
X257242Y47997D01*
X257410Y48012D01*
X257557Y48036D01*
X257685Y48071D01*
X257793Y48115D01*
X257882Y48169D01*
X257951Y48233D01*
X258000Y48307D01*
X258030Y48391D01*
X258040Y48484D01*
Y46516D01*
D02*
G37*
G36*
X252970Y48391D02*
X253000Y48307D01*
X253049Y48233D01*
X253118Y48169D01*
X253206Y48115D01*
X253315Y48071D01*
X253443Y48036D01*
X253590Y48012D01*
X253758Y47997D01*
X253945Y47992D01*
Y47008D01*
X253758Y47003D01*
X253590Y46988D01*
X253443Y46964D01*
X253315Y46929D01*
X253206Y46885D01*
X253118Y46831D01*
X253049Y46767D01*
X253000Y46693D01*
X252970Y46609D01*
X252960Y46516D01*
Y48484D01*
X252970Y48391D01*
D02*
G37*
G36*
X272599Y43959D02*
X272516Y43929D01*
X272442Y43880D01*
X272378Y43811D01*
X272324Y43723D01*
X272280Y43614D01*
X272245Y43486D01*
X272220Y43339D01*
X272206Y43172D01*
X272201Y42984D01*
X271217D01*
X271212Y43172D01*
X271197Y43339D01*
X271172Y43486D01*
X271138Y43614D01*
X271094Y43723D01*
X271039Y43811D01*
X270975Y43880D01*
X270902Y43929D01*
X270818Y43959D01*
X270724Y43969D01*
X272693D01*
X272599Y43959D01*
D02*
G37*
G36*
X272206Y29829D02*
X272220Y29661D01*
X272245Y29514D01*
X272280Y29386D01*
X272324Y29277D01*
X272378Y29189D01*
X272442Y29120D01*
X272516Y29071D01*
X272599Y29041D01*
X272693Y29031D01*
X270724D01*
X270818Y29041D01*
X270902Y29071D01*
X270975Y29120D01*
X271039Y29189D01*
X271094Y29277D01*
X271138Y29386D01*
X271172Y29514D01*
X271197Y29661D01*
X271212Y29829D01*
X271217Y30016D01*
X272201D01*
X272206Y29829D01*
D02*
G37*
G36*
X211015Y21594D02*
X210363Y22242D01*
X208621Y23779D01*
X208111Y24154D01*
X207636Y24462D01*
X207205Y24697D01*
X206773Y24462D01*
X206299Y24154D01*
X205789Y23779D01*
X204663Y22823D01*
X203395Y21594D01*
Y29406D01*
X204047Y28758D01*
X205789Y27221D01*
X206299Y26846D01*
X206773Y26538D01*
X207205Y26303D01*
X207636Y26538D01*
X208111Y26846D01*
X208621Y27221D01*
X209747Y28177D01*
X211015Y29406D01*
Y21594D01*
D02*
G37*
G36*
X237040Y24516D02*
X237030Y24609D01*
X237000Y24693D01*
X236951Y24767D01*
X236882Y24831D01*
X236793Y24885D01*
X236685Y24929D01*
X236557Y24964D01*
X236410Y24988D01*
X236242Y25003D01*
X236055Y25008D01*
Y25992D01*
X236242Y25997D01*
X236410Y26012D01*
X236557Y26036D01*
X236685Y26071D01*
X236793Y26115D01*
X236882Y26169D01*
X236951Y26233D01*
X237000Y26307D01*
X237030Y26391D01*
X237040Y26484D01*
Y24516D01*
D02*
G37*
G36*
X258040Y24516D02*
X258030Y24609D01*
X258000Y24693D01*
X257951Y24767D01*
X257882Y24831D01*
X257793Y24885D01*
X257685Y24929D01*
X257557Y24964D01*
X257410Y24988D01*
X257242Y25003D01*
X257055Y25008D01*
Y25992D01*
X257242Y25997D01*
X257410Y26012D01*
X257557Y26036D01*
X257685Y26071D01*
X257793Y26115D01*
X257882Y26169D01*
X257951Y26233D01*
X258000Y26307D01*
X258030Y26391D01*
X258040Y26484D01*
Y24516D01*
D02*
G37*
G36*
X252970Y26391D02*
X253000Y26307D01*
X253049Y26233D01*
X253118Y26169D01*
X253206Y26115D01*
X253315Y26071D01*
X253443Y26036D01*
X253590Y26012D01*
X253758Y25997D01*
X253945Y25992D01*
Y25008D01*
X253758Y25003D01*
X253590Y24988D01*
X253443Y24964D01*
X253315Y24929D01*
X253206Y24885D01*
X253118Y24831D01*
X253049Y24767D01*
X253000Y24693D01*
X252970Y24609D01*
X252960Y24516D01*
Y26484D01*
X252970Y26391D01*
D02*
G37*
G36*
X219637Y28758D02*
X221379Y27221D01*
X221889Y26846D01*
X222364Y26538D01*
X222803Y26299D01*
X223206Y26129D01*
X223575Y26026D01*
X223907Y25992D01*
Y25008D01*
X223575Y24974D01*
X223206Y24871D01*
X222803Y24701D01*
X222364Y24462D01*
X221889Y24154D01*
X221379Y23779D01*
X220253Y22823D01*
X218985Y21594D01*
Y29406D01*
X219637Y28758D01*
D02*
G37*
G36*
X121169Y195697D02*
Y176293D01*
X121331Y174651D01*
X121810Y173073D01*
X122588Y171618D01*
X123634Y170343D01*
X152170Y141807D01*
Y58778D01*
X123634Y30243D01*
X122588Y28967D01*
X121810Y27513D01*
X121331Y25934D01*
X121169Y24293D01*
Y945D01*
X21999Y803D01*
X20611D01*
X17856Y1165D01*
X15172Y1885D01*
X12605Y2948D01*
X10198Y4337D01*
X7994Y6029D01*
X6029Y7994D01*
X4337Y10198D01*
X2948Y12605D01*
X1885Y15172D01*
X1166Y17856D01*
X803Y20611D01*
X803Y22000D01*
X803Y174500D01*
Y175889D01*
X1166Y178644D01*
X1885Y181328D01*
X2948Y183895D01*
X4337Y186302D01*
X6029Y188506D01*
X7994Y190471D01*
X10198Y192163D01*
X12605Y193552D01*
X15172Y194615D01*
X17856Y195334D01*
X20611Y195697D01*
X22000Y195697D01*
X121169D01*
D02*
G37*
%LPC*%
G36*
X57008Y178081D02*
X56659D01*
Y172250D01*
X62490D01*
Y172599D01*
X62256Y173774D01*
X61798Y174880D01*
X61133Y175876D01*
X60286Y176723D01*
X59290Y177389D01*
X58183Y177847D01*
X57008Y178081D01*
D02*
G37*
G36*
X111748Y173976D02*
X109136D01*
Y172250D01*
X111748D01*
Y173976D01*
D02*
G37*
G36*
X108636D02*
X106024D01*
Y172250D01*
X108636D01*
Y173976D01*
D02*
G37*
G36*
X56159Y178081D02*
X55810D01*
X54636Y177847D01*
X53529Y177389D01*
X52533Y176723D01*
X51686Y175876D01*
X51021Y174880D01*
X50562Y173774D01*
X50329Y172599D01*
Y172250D01*
X56159D01*
Y178081D01*
D02*
G37*
G36*
X18246Y185579D02*
X16754D01*
X15289Y185287D01*
X13910Y184716D01*
X12669Y183887D01*
X11613Y182831D01*
X10784Y181590D01*
X10212Y180211D01*
X9921Y178746D01*
Y177254D01*
X10212Y175789D01*
X10784Y174410D01*
X11613Y173169D01*
X12669Y172113D01*
X13910Y171284D01*
X15289Y170712D01*
X16754Y170421D01*
X18246D01*
X19711Y170712D01*
X21090Y171284D01*
X22331Y172113D01*
X23387Y173169D01*
X24216Y174410D01*
X24788Y175789D01*
X25079Y177254D01*
Y178746D01*
X24788Y180211D01*
X24216Y181590D01*
X23387Y182831D01*
X22331Y183887D01*
X21090Y184716D01*
X19711Y185287D01*
X18246Y185579D01*
D02*
G37*
G36*
X111748Y171750D02*
X109136D01*
Y170024D01*
X111748D01*
Y171750D01*
D02*
G37*
G36*
X108636D02*
X106024D01*
Y170024D01*
X108636D01*
Y171750D01*
D02*
G37*
G36*
X72599Y178081D02*
X71401D01*
X70226Y177847D01*
X69120Y177389D01*
X68124Y176723D01*
X67277Y175876D01*
X66611Y174880D01*
X66153Y173774D01*
X65919Y172599D01*
Y171401D01*
X66153Y170226D01*
X66611Y169120D01*
X67048Y168466D01*
X67070Y168370D01*
X68184Y166813D01*
X69040Y165508D01*
X69645Y164452D01*
X69846Y164032D01*
X69984Y163682D01*
X70058Y163415D01*
X70084Y163183D01*
X70103Y163150D01*
Y153961D01*
X70180Y153574D01*
X70399Y153245D01*
X73289Y150356D01*
X73097Y149894D01*
X71561D01*
Y146750D01*
X73819D01*
Y149069D01*
X74278Y149272D01*
X74598Y149027D01*
X74605Y149009D01*
X74727Y148881D01*
X74825Y148765D01*
X74908Y148654D01*
X74978Y148547D01*
X75034Y148444D01*
X75079Y148346D01*
X75112Y148252D01*
X75134Y148162D01*
X75147Y148075D01*
X75153Y147963D01*
X75181Y147903D01*
Y143106D01*
X79593D01*
X79650Y143078D01*
X79680Y143076D01*
X79682Y143076D01*
X79694Y143072D01*
X79716Y143064D01*
X79746Y143048D01*
X79784Y143025D01*
X79823Y142997D01*
X79942Y142898D01*
X80006Y142836D01*
X80056Y142816D01*
X82023Y140850D01*
X81815Y140350D01*
X78927D01*
X78540Y140273D01*
X78212Y140054D01*
X70831Y132673D01*
X66869D01*
X66820Y132695D01*
X66646Y132698D01*
X66508Y132708D01*
X66397Y132722D01*
X66337Y132735D01*
Y135394D01*
Y137953D01*
Y139089D01*
X59530D01*
Y137949D01*
X59501Y137945D01*
X59222Y137926D01*
X59049Y137923D01*
X58999Y137901D01*
X55917D01*
X55882Y137920D01*
X55862Y137914D01*
X55843Y137923D01*
X55741Y137926D01*
X55664Y137933D01*
X55598Y137944D01*
X55541Y137959D01*
X55493Y137976D01*
X55452Y137994D01*
X55418Y138014D01*
X55388Y138035D01*
X55362Y138059D01*
X55319Y138107D01*
X55227Y138151D01*
X54952Y138425D01*
X54334Y138681D01*
X53666D01*
X53048Y138425D01*
X52575Y137952D01*
X52319Y137334D01*
Y136666D01*
X52575Y136048D01*
X52890Y135732D01*
X52683Y135232D01*
X31080D01*
X30442Y135871D01*
X30423Y135920D01*
X30301Y136048D01*
X30203Y136164D01*
X30119Y136275D01*
X30050Y136382D01*
X29993Y136485D01*
X29949Y136583D01*
X29916Y136677D01*
X29894Y136767D01*
X29881Y136854D01*
X29875Y136966D01*
X29846Y137027D01*
Y141941D01*
X22154D01*
Y135035D01*
X27855D01*
X27915Y135007D01*
X28028Y135001D01*
X28115Y134988D01*
X28205Y134966D01*
X28299Y134933D01*
X28397Y134889D01*
X28499Y134832D01*
X28607Y134763D01*
X28718Y134679D01*
X28833Y134581D01*
X28962Y134459D01*
X29011Y134440D01*
X29946Y133505D01*
X30274Y133286D01*
X30661Y133209D01*
X58997D01*
X59046Y133187D01*
X59220Y133184D01*
X59359Y133174D01*
X59469Y133160D01*
X59530Y133147D01*
Y130276D01*
X61842D01*
X61848Y130260D01*
X61867Y130190D01*
X61884Y130089D01*
X61896Y129959D01*
X61900Y129789D01*
X61922Y129741D01*
Y124791D01*
X61900Y124742D01*
X61896Y124572D01*
X61884Y124442D01*
X61867Y124341D01*
X61848Y124272D01*
X61842Y124256D01*
X59870D01*
Y117744D01*
X64610D01*
Y124256D01*
X64024D01*
X64018Y124272D01*
X63999Y124341D01*
X63982Y124442D01*
X63971Y124572D01*
X63966Y124742D01*
X63945Y124791D01*
Y129741D01*
X63966Y129789D01*
X63971Y129959D01*
X63982Y130089D01*
X63999Y130190D01*
X64018Y130260D01*
X64024Y130276D01*
X65710D01*
X65752Y130251D01*
X65789Y130261D01*
X65825Y130246D01*
X65895Y130276D01*
X66337D01*
Y130588D01*
X66389Y130599D01*
X66653Y130625D01*
X66820Y130628D01*
X66869Y130650D01*
X71250D01*
X71637Y130727D01*
X71965Y130946D01*
X79346Y138327D01*
X82131D01*
X82180Y138305D01*
X82354Y138302D01*
X82492Y138292D01*
X82603Y138278D01*
X82663Y138265D01*
Y135394D01*
Y132835D01*
Y130276D01*
X84976D01*
X84982Y130260D01*
X85001Y130190D01*
X85018Y130089D01*
X85029Y129959D01*
X85034Y129789D01*
X85055Y129741D01*
Y124889D01*
X85034Y124841D01*
X85029Y124671D01*
X85018Y124540D01*
X85001Y124440D01*
X84982Y124370D01*
X84976Y124354D01*
X83280D01*
Y117646D01*
X88807D01*
Y124354D01*
X87158D01*
X87152Y124370D01*
X87133Y124440D01*
X87116Y124540D01*
X87104Y124671D01*
X87100Y124841D01*
X87078Y124889D01*
Y129741D01*
X87100Y129789D01*
X87104Y129959D01*
X87116Y130089D01*
X87133Y130190D01*
X87152Y130260D01*
X87158Y130276D01*
X89470D01*
Y133147D01*
X89522Y133158D01*
X89787Y133184D01*
X89954Y133187D01*
X90003Y133209D01*
X94744D01*
Y129791D01*
X96909D01*
X96915Y129776D01*
X96934Y129706D01*
X96951Y129605D01*
X96962Y129475D01*
X96967Y129305D01*
X96988Y129256D01*
Y127542D01*
X96967Y127494D01*
X96962Y127323D01*
X96951Y127193D01*
X96934Y127093D01*
X96915Y127023D01*
X96913Y127017D01*
X95815D01*
X95474Y126949D01*
X95185Y126756D01*
X94992Y126467D01*
X94924Y126126D01*
Y123882D01*
X94992Y123541D01*
X95185Y123252D01*
X95474Y123059D01*
X95815Y122991D01*
X100185D01*
X100526Y123059D01*
X100815Y123252D01*
X101008Y123541D01*
X101076Y123882D01*
Y126126D01*
X101008Y126467D01*
X100815Y126756D01*
X100526Y126949D01*
X100185Y127017D01*
X99087D01*
X99085Y127023D01*
X99066Y127093D01*
X99049Y127193D01*
X99038Y127323D01*
X99033Y127494D01*
X99012Y127542D01*
Y129256D01*
X99033Y129305D01*
X99038Y129475D01*
X99049Y129605D01*
X99066Y129706D01*
X99085Y129776D01*
X99091Y129791D01*
X101256D01*
Y134728D01*
X96175D01*
X95967Y134936D01*
X95639Y135155D01*
X95252Y135232D01*
X90003D01*
X89954Y135254D01*
X89780Y135257D01*
X89641Y135267D01*
X89531Y135281D01*
X89470Y135294D01*
Y138265D01*
X89522Y138276D01*
X89787Y138302D01*
X89954Y138305D01*
X90003Y138327D01*
X94209D01*
X94258Y138305D01*
X94428Y138301D01*
X94558Y138289D01*
X94659Y138273D01*
X94728Y138254D01*
X94744Y138248D01*
Y137272D01*
X101256D01*
Y138409D01*
X101272Y138415D01*
X101341Y138434D01*
X101442Y138451D01*
X101572Y138462D01*
X101742Y138467D01*
X101791Y138488D01*
X103182D01*
X103230Y138467D01*
X103400Y138462D01*
X103530Y138451D01*
X103631Y138434D01*
X103701Y138415D01*
X103717Y138409D01*
Y137819D01*
X107641D01*
X107648Y137803D01*
X107666Y137733D01*
X107683Y137633D01*
X107695Y137503D01*
X107699Y137332D01*
X107721Y137284D01*
Y131929D01*
X107699Y131880D01*
X107695Y131710D01*
X107683Y131580D01*
X107666Y131479D01*
X107648Y131410D01*
X107641Y131394D01*
X106323D01*
Y124606D01*
X111142D01*
Y131394D01*
X109823D01*
X109817Y131410D01*
X109798Y131479D01*
X109781Y131580D01*
X109770Y131710D01*
X109765Y131880D01*
X109744Y131929D01*
Y137284D01*
X109765Y137332D01*
X109770Y137503D01*
X109781Y137633D01*
X109798Y137733D01*
X109817Y137803D01*
X109823Y137819D01*
X110228D01*
Y138260D01*
X110257Y138331D01*
X110246Y138359D01*
X110255Y138388D01*
X110228Y138436D01*
Y141181D01*
X103717D01*
Y140591D01*
X103701Y140585D01*
X103631Y140566D01*
X103530Y140549D01*
X103400Y140538D01*
X103230Y140533D01*
X103182Y140512D01*
X101791D01*
X101742Y140533D01*
X101572Y140538D01*
X101442Y140549D01*
X101341Y140566D01*
X101272Y140585D01*
X101256Y140591D01*
Y142209D01*
X94744D01*
Y140430D01*
X94728Y140423D01*
X94659Y140404D01*
X94558Y140388D01*
X94428Y140376D01*
X94258Y140372D01*
X94209Y140350D01*
X90003D01*
X89954Y140372D01*
X89780Y140375D01*
X89641Y140385D01*
X89531Y140399D01*
X89470Y140412D01*
Y140724D01*
X89029D01*
X88959Y140754D01*
X88923Y140739D01*
X88886Y140749D01*
X88844Y140724D01*
X84652D01*
X84590Y141035D01*
X84371Y141363D01*
X80792Y144941D01*
X80773Y144991D01*
X80651Y145119D01*
X80553Y145235D01*
X80470Y145346D01*
X80400Y145453D01*
X80344Y145556D01*
X80299Y145654D01*
X80266Y145748D01*
X80244Y145838D01*
X80231Y145925D01*
X80225Y146037D01*
X80197Y146098D01*
Y149894D01*
X77172D01*
X77112Y149922D01*
X77000Y149928D01*
X76913Y149941D01*
X76823Y149963D01*
X76729Y149996D01*
X76631Y150040D01*
X76528Y150097D01*
X76421Y150167D01*
X76309Y150250D01*
X76194Y150348D01*
X76066Y150470D01*
X76016Y150489D01*
X72126Y154380D01*
Y155541D01*
X72626Y155670D01*
X73400Y154897D01*
X74459Y154285D01*
X75640Y153969D01*
X76864D01*
X78045Y154285D01*
X79105Y154897D01*
X79969Y155762D01*
X80581Y156821D01*
X80898Y158003D01*
Y159226D01*
X80581Y160407D01*
X79969Y161467D01*
X79105Y162332D01*
X78045Y162943D01*
X76864Y163260D01*
X75640D01*
X74459Y162943D01*
X73400Y162332D01*
X72626Y161558D01*
X72126Y161687D01*
Y162975D01*
X72141Y162998D01*
X72136Y163016D01*
X72145Y163032D01*
X72176Y163351D01*
X72261Y163648D01*
X72411Y163978D01*
X72632Y164340D01*
X72928Y164729D01*
X73300Y165143D01*
X73742Y165575D01*
X74871Y166514D01*
X75545Y167009D01*
X75592Y167087D01*
X75876Y167277D01*
X76266Y167667D01*
X76362Y167705D01*
X77617Y168922D01*
X78715Y169854D01*
X79197Y170209D01*
X79641Y170496D01*
X80038Y170712D01*
X80385Y170859D01*
X80676Y170940D01*
X80963Y170969D01*
X80998Y170988D01*
X92103D01*
X92151Y170967D01*
X92321Y170962D01*
X92452Y170951D01*
X92552Y170934D01*
X92622Y170915D01*
X92638Y170909D01*
Y170024D01*
X98362D01*
Y173976D01*
X92638D01*
Y173091D01*
X92622Y173085D01*
X92552Y173066D01*
X92452Y173049D01*
X92321Y173038D01*
X92151Y173033D01*
X92103Y173012D01*
X80998D01*
X80963Y173030D01*
X80676Y173060D01*
X80385Y173141D01*
X80038Y173287D01*
X79641Y173504D01*
X79197Y173791D01*
X78720Y174143D01*
X77007Y175653D01*
X76367Y176290D01*
X76269Y176330D01*
X75876Y176723D01*
X74880Y177389D01*
X73774Y177847D01*
X72599Y178081D01*
D02*
G37*
G36*
X62490Y171750D02*
X56659D01*
Y165919D01*
X57008D01*
X58183Y166153D01*
X59290Y166611D01*
X60286Y167277D01*
X61133Y168124D01*
X61798Y169120D01*
X62256Y170226D01*
X62490Y171401D01*
Y171750D01*
D02*
G37*
G36*
X56159D02*
X50329D01*
Y171401D01*
X50562Y170226D01*
X51021Y169120D01*
X51686Y168124D01*
X52533Y167277D01*
X53529Y166611D01*
X54636Y166153D01*
X55810Y165919D01*
X56159D01*
Y171750D01*
D02*
G37*
G36*
X71061Y149894D02*
X68803D01*
Y146750D01*
X71061D01*
Y149894D01*
D02*
G37*
G36*
X127894Y145677D02*
X121106D01*
Y144331D01*
X121090Y144325D01*
X121021Y144306D01*
X120920Y144289D01*
X120790Y144278D01*
X120620Y144273D01*
X120571Y144252D01*
X119818D01*
X119770Y144273D01*
X119600Y144278D01*
X119470Y144289D01*
X119369Y144306D01*
X119299Y144325D01*
X119283Y144331D01*
Y144921D01*
X112772D01*
Y141559D01*
X119283D01*
Y142149D01*
X119299Y142156D01*
X119369Y142174D01*
X119470Y142191D01*
X119600Y142202D01*
X119770Y142207D01*
X119818Y142229D01*
X120571D01*
X120620Y142207D01*
X120790Y142202D01*
X120920Y142191D01*
X121021Y142174D01*
X121090Y142156D01*
X121106Y142149D01*
Y140858D01*
X125598D01*
X125628Y140838D01*
X125660Y140845D01*
X125688Y140831D01*
X125795Y140823D01*
X125879Y140805D01*
X125980Y140771D01*
X126099Y140718D01*
X126233Y140645D01*
X126381Y140549D01*
X126536Y140435D01*
X126898Y140124D01*
X127092Y139937D01*
X127176Y139807D01*
X127258Y139622D01*
X126985Y139142D01*
X124750D01*
Y136982D01*
X127894D01*
Y138459D01*
X128394Y138666D01*
X137615Y129444D01*
X137634Y129395D01*
X137756Y129267D01*
X137854Y129151D01*
X137938Y129040D01*
X138007Y128932D01*
X138064Y128830D01*
X138108Y128732D01*
X138141Y128638D01*
X138163Y128548D01*
X138177Y128461D01*
X138182Y128349D01*
X138211Y128288D01*
Y126720D01*
X141409D01*
X141415Y126705D01*
X141434Y126635D01*
X141451Y126534D01*
X141462Y126404D01*
X141467Y126234D01*
X141488Y126186D01*
Y125814D01*
X141467Y125766D01*
X141462Y125596D01*
X141451Y125466D01*
X141434Y125365D01*
X141415Y125295D01*
X141409Y125279D01*
X138211D01*
Y124711D01*
X138195Y124705D01*
X138125Y124686D01*
X138024Y124669D01*
X137894Y124658D01*
X137724Y124653D01*
X137676Y124632D01*
X137429D01*
X137380Y124653D01*
X137210Y124658D01*
X137080Y124669D01*
X136979Y124686D01*
X136909Y124705D01*
X136894Y124711D01*
Y125697D01*
X130106D01*
Y124711D01*
X130090Y124705D01*
X130021Y124686D01*
X129920Y124669D01*
X129790Y124658D01*
X129620Y124653D01*
X129571Y124632D01*
X127094D01*
X127046Y124653D01*
X126875Y124658D01*
X126745Y124669D01*
X126645Y124686D01*
X126575Y124705D01*
X126559Y124711D01*
Y125618D01*
X120441D01*
Y123853D01*
X120412Y123793D01*
X120407Y123681D01*
X120394Y123594D01*
X120371Y123504D01*
X120338Y123410D01*
X120294Y123312D01*
X120238Y123209D01*
X120168Y123102D01*
X120085Y122991D01*
X119986Y122875D01*
X119865Y122747D01*
X119845Y122697D01*
X113785Y116637D01*
X113565Y116308D01*
X113488Y115921D01*
Y72748D01*
X113565Y72361D01*
X113785Y72033D01*
X116511Y69307D01*
X116530Y69257D01*
X116652Y69129D01*
X116750Y69013D01*
X116833Y68902D01*
X116903Y68795D01*
X116960Y68692D01*
X117004Y68594D01*
X117037Y68500D01*
X117059Y68410D01*
X117072Y68323D01*
X117078Y68211D01*
X117106Y68151D01*
Y65323D01*
X119409D01*
X119415Y65307D01*
X119434Y65237D01*
X119451Y65137D01*
X119462Y65007D01*
X119467Y64836D01*
X119488Y64788D01*
Y62244D01*
X119467Y62195D01*
X119462Y62025D01*
X119451Y61895D01*
X119434Y61794D01*
X119415Y61724D01*
X119409Y61709D01*
X117244D01*
Y60331D01*
X117228Y60325D01*
X117159Y60306D01*
X117058Y60289D01*
X116928Y60278D01*
X116758Y60273D01*
X116709Y60252D01*
X108240D01*
X107853Y60175D01*
X107525Y59955D01*
X103785Y56215D01*
X103565Y55887D01*
X103488Y55500D01*
Y50919D01*
X101606Y49036D01*
X101556Y49017D01*
X101428Y48895D01*
X101313Y48797D01*
X101201Y48714D01*
X101094Y48644D01*
X100991Y48588D01*
X100893Y48543D01*
X100799Y48511D01*
X100709Y48488D01*
X100622Y48475D01*
X100510Y48469D01*
X100450Y48441D01*
X96716D01*
Y47851D01*
X96701Y47844D01*
X96631Y47826D01*
X96530Y47809D01*
X96400Y47798D01*
X96230Y47793D01*
X96182Y47771D01*
X95159D01*
X74942Y67988D01*
X75149Y68488D01*
X77680D01*
X92644Y53525D01*
X92972Y53306D01*
X93359Y53229D01*
X96182D01*
X96230Y53207D01*
X96400Y53202D01*
X96530Y53191D01*
X96631Y53174D01*
X96701Y53155D01*
X96716Y53149D01*
Y52559D01*
X102441D01*
Y55921D01*
X96716D01*
Y55331D01*
X96701Y55325D01*
X96631Y55306D01*
X96530Y55289D01*
X96400Y55278D01*
X96230Y55273D01*
X96182Y55252D01*
X93778D01*
X78814Y70215D01*
X78486Y70435D01*
X78099Y70512D01*
X63402D01*
X62921Y70559D01*
X62921Y71012D01*
Y74292D01*
X62950Y74353D01*
X62955Y74465D01*
X62968Y74552D01*
X62991Y74642D01*
X63024Y74736D01*
X63068Y74834D01*
X63124Y74936D01*
X63194Y75044D01*
X63278Y75155D01*
X63376Y75270D01*
X63498Y75399D01*
X63517Y75448D01*
X71910Y83842D01*
X71960Y83861D01*
X72036Y83934D01*
X72102Y83990D01*
X72165Y84039D01*
X72226Y84081D01*
X72284Y84116D01*
X72340Y84145D01*
X72393Y84168D01*
X72444Y84185D01*
X72494Y84198D01*
X72563Y84210D01*
X72598Y84232D01*
X72644D01*
X73261Y84488D01*
X73734Y84961D01*
X73990Y85579D01*
Y86248D01*
X73734Y86866D01*
X73261Y87339D01*
X72644Y87595D01*
X71975D01*
X71357Y87339D01*
X70884Y86866D01*
X70628Y86248D01*
Y85756D01*
X70604Y85676D01*
X70610Y85614D01*
X70610Y85584D01*
X70606Y85553D01*
X70598Y85519D01*
X70585Y85482D01*
X70565Y85439D01*
X70537Y85391D01*
X70500Y85338D01*
X70453Y85280D01*
X70383Y85206D01*
X70370Y85172D01*
X70338Y85152D01*
X70332Y85125D01*
X62086Y76879D01*
X62037Y76860D01*
X61908Y76738D01*
X61793Y76640D01*
X61681Y76556D01*
X61574Y76487D01*
X61471Y76430D01*
X61373Y76386D01*
X61279Y76353D01*
X61190Y76331D01*
X61103Y76318D01*
X60990Y76312D01*
X60930Y76284D01*
X59681D01*
X59559Y76284D01*
X59181D01*
X59059Y76284D01*
X57750D01*
Y73421D01*
X57250D01*
Y76284D01*
X55819D01*
X55819Y76284D01*
X55441D01*
Y76284D01*
X55319Y76284D01*
X54851D01*
X54844Y76299D01*
X54826Y76369D01*
X54809Y76470D01*
X54798Y76600D01*
X54793Y76770D01*
X54771Y76818D01*
Y82855D01*
X54793Y82903D01*
X54798Y83074D01*
X54809Y83204D01*
X54826Y83304D01*
X54844Y83374D01*
X54851Y83390D01*
X57256D01*
Y84669D01*
X57272Y84675D01*
X57341Y84694D01*
X57442Y84711D01*
X57572Y84722D01*
X57742Y84727D01*
X57791Y84748D01*
X59611D01*
X59659Y84727D01*
X59829Y84722D01*
X59960Y84711D01*
X60060Y84694D01*
X60130Y84675D01*
X60146Y84669D01*
Y83291D01*
X66854D01*
Y88228D01*
X60146D01*
Y86851D01*
X60130Y86844D01*
X60060Y86826D01*
X59960Y86809D01*
X59829Y86797D01*
X59659Y86793D01*
X59611Y86771D01*
X57791D01*
X57742Y86793D01*
X57572Y86797D01*
X57442Y86809D01*
X57341Y86826D01*
X57272Y86844D01*
X57256Y86851D01*
Y88130D01*
X50744D01*
Y83390D01*
X52669D01*
X52675Y83374D01*
X52694Y83304D01*
X52711Y83204D01*
X52722Y83074D01*
X52727Y82903D01*
X52748Y82855D01*
Y76818D01*
X52727Y76770D01*
X52722Y76600D01*
X52711Y76470D01*
X52694Y76369D01*
X52675Y76299D01*
X52669Y76284D01*
X52079D01*
Y70559D01*
X53425D01*
X53485Y70530D01*
X53597Y70525D01*
X53684Y70512D01*
X53774Y70489D01*
X53868Y70457D01*
X53966Y70412D01*
X54069Y70356D01*
X54176Y70286D01*
X54287Y70203D01*
X54403Y70105D01*
X54531Y69983D01*
X54581Y69964D01*
X55760Y68785D01*
X56088Y68565D01*
X56475Y68488D01*
X58351D01*
X58558Y67988D01*
X57785Y67215D01*
X57734Y67140D01*
X57474Y66879D01*
X57254Y66551D01*
X57232Y66441D01*
X55941D01*
X55819Y66441D01*
X55441D01*
X55319Y66441D01*
X52079D01*
Y64670D01*
X52063Y64663D01*
X51993Y64645D01*
X51893Y64628D01*
X51762Y64616D01*
X51592Y64612D01*
X51544Y64590D01*
X32571D01*
X32184Y64513D01*
X31856Y64294D01*
X31344Y63782D01*
X31306Y63771D01*
X31082Y63589D01*
X30819Y63441D01*
X30470Y63299D01*
X30036Y63171D01*
X29520Y63060D01*
X28933Y62971D01*
X26655Y62828D01*
X25751Y62826D01*
X25653Y62785D01*
X25098D01*
X23923Y62552D01*
X22817Y62093D01*
X21821Y61428D01*
X20974Y60581D01*
X20308Y59585D01*
X19850Y58478D01*
X19616Y57304D01*
Y56106D01*
X19850Y54931D01*
X20308Y53824D01*
X20974Y52829D01*
X21821Y51982D01*
X22817Y51316D01*
X23923Y50858D01*
X25098Y50624D01*
X26296D01*
X27470Y50858D01*
X28577Y51316D01*
X29573Y51982D01*
X30420Y52829D01*
X31086Y53824D01*
X31544Y54931D01*
X31778Y56106D01*
Y56658D01*
X31818Y56752D01*
X31846Y58500D01*
X31963Y59936D01*
X32052Y60527D01*
X32163Y61044D01*
X32291Y61478D01*
X32433Y61827D01*
X32581Y62090D01*
X32763Y62314D01*
X32774Y62352D01*
X32990Y62567D01*
X51544D01*
X51592Y62546D01*
X51762Y62541D01*
X51893Y62530D01*
X51993Y62513D01*
X52063Y62494D01*
X52079Y62488D01*
Y60716D01*
X55319D01*
X55441Y60716D01*
X55819D01*
X55941Y60716D01*
X59059D01*
X59181Y60716D01*
Y60716D01*
X59559D01*
Y60716D01*
X60930D01*
X60990Y60688D01*
X61103Y60682D01*
X61190Y60669D01*
X61279Y60647D01*
X61373Y60614D01*
X61471Y60570D01*
X61574Y60513D01*
X61682Y60444D01*
X61793Y60360D01*
X61908Y60262D01*
X62037Y60140D01*
X62086Y60121D01*
X80579Y41628D01*
Y34498D01*
X80560Y34463D01*
X80531Y34176D01*
X80450Y33885D01*
X80303Y33538D01*
X80087Y33141D01*
X79799Y32697D01*
X79448Y32219D01*
X77938Y30507D01*
X77301Y29867D01*
X77260Y29769D01*
X76867Y29376D01*
X76202Y28380D01*
X75744Y27274D01*
X75510Y26099D01*
Y24901D01*
X75744Y23726D01*
X76202Y22620D01*
X76867Y21624D01*
X77714Y20777D01*
X78710Y20111D01*
X79817Y19653D01*
X80992Y19419D01*
X82190D01*
X83364Y19653D01*
X84471Y20111D01*
X85467Y20777D01*
X86314Y21624D01*
X86979Y22620D01*
X87438Y23726D01*
X87671Y24901D01*
Y26099D01*
X87438Y27274D01*
X86979Y28380D01*
X86314Y29376D01*
X85923Y29766D01*
X85886Y29862D01*
X84669Y31117D01*
X83736Y32215D01*
X83382Y32697D01*
X83095Y33141D01*
X82878Y33538D01*
X82731Y33885D01*
X82651Y34176D01*
X82621Y34463D01*
X82602Y34498D01*
Y42047D01*
X82525Y42434D01*
X82306Y42763D01*
X63517Y61552D01*
X63498Y61601D01*
X63376Y61730D01*
X63278Y61845D01*
X63194Y61956D01*
X63124Y62064D01*
X63068Y62166D01*
X63024Y62264D01*
X62991Y62358D01*
X62968Y62448D01*
X62955Y62535D01*
X62950Y62647D01*
X62921Y62708D01*
Y66441D01*
X63402Y66488D01*
X73581D01*
X94025Y46045D01*
X94353Y45825D01*
X94740Y45748D01*
X96182D01*
X96230Y45727D01*
X96400Y45722D01*
X96530Y45711D01*
X96631Y45694D01*
X96701Y45675D01*
X96716Y45669D01*
Y45079D01*
X102441D01*
Y46450D01*
X102470Y46510D01*
X102475Y46622D01*
X102488Y46709D01*
X102511Y46799D01*
X102543Y46893D01*
X102588Y46991D01*
X102644Y47094D01*
X102714Y47201D01*
X102797Y47313D01*
X102895Y47428D01*
X103017Y47556D01*
X103036Y47606D01*
X105215Y49785D01*
X105435Y50113D01*
X105512Y50500D01*
Y55081D01*
X106059Y55629D01*
X106559Y55421D01*
Y54490D01*
X109171D01*
Y55921D01*
X107059D01*
X106852Y56421D01*
X108659Y58229D01*
X116709D01*
X116758Y58207D01*
X116928Y58202D01*
X117058Y58191D01*
X117159Y58174D01*
X117228Y58156D01*
X117244Y58149D01*
Y56772D01*
X123756D01*
Y61709D01*
X121591D01*
X121585Y61725D01*
X121566Y61794D01*
X121549Y61895D01*
X121538Y62025D01*
X121533Y62195D01*
X121512Y62244D01*
Y64788D01*
X121533Y64836D01*
X121538Y65007D01*
X121549Y65137D01*
X121566Y65237D01*
X121585Y65307D01*
X121591Y65323D01*
X123894D01*
Y66641D01*
X123909Y66648D01*
X123979Y66666D01*
X124080Y66683D01*
X124210Y66695D01*
X124380Y66699D01*
X124429Y66721D01*
X125071D01*
X125120Y66699D01*
X125290Y66695D01*
X125420Y66683D01*
X125521Y66666D01*
X125591Y66648D01*
X125606Y66641D01*
Y65303D01*
X132394D01*
Y66641D01*
X132410Y66648D01*
X132479Y66666D01*
X132580Y66683D01*
X132710Y66695D01*
X132880Y66699D01*
X132929Y66721D01*
X134941D01*
X135328Y66798D01*
X135656Y67017D01*
X136764Y68125D01*
X136814Y68144D01*
X136942Y68266D01*
X137057Y68364D01*
X137169Y68448D01*
X137276Y68517D01*
X137379Y68574D01*
X137477Y68618D01*
X137571Y68651D01*
X137661Y68673D01*
X137748Y68686D01*
X137860Y68692D01*
X137920Y68721D01*
X144213D01*
Y72280D01*
X135929D01*
Y70712D01*
X135901Y70651D01*
X135895Y70539D01*
X135882Y70452D01*
X135860Y70362D01*
X135827Y70268D01*
X135783Y70170D01*
X135726Y70068D01*
X135656Y69960D01*
X135573Y69849D01*
X135475Y69734D01*
X135353Y69605D01*
X135334Y69556D01*
X134522Y68744D01*
X132929D01*
X132880Y68765D01*
X132710Y68770D01*
X132580Y68781D01*
X132479Y68798D01*
X132410Y68817D01*
X132394Y68823D01*
Y70319D01*
X125606D01*
Y68823D01*
X125591Y68817D01*
X125521Y68798D01*
X125420Y68781D01*
X125290Y68770D01*
X125120Y68765D01*
X125071Y68744D01*
X124429D01*
X124380Y68765D01*
X124210Y68770D01*
X124080Y68781D01*
X123979Y68798D01*
X123909Y68817D01*
X123894Y68823D01*
Y70142D01*
X119097D01*
X119037Y70170D01*
X118925Y70176D01*
X118838Y70189D01*
X118748Y70211D01*
X118654Y70244D01*
X118556Y70288D01*
X118453Y70345D01*
X118346Y70415D01*
X118235Y70498D01*
X118119Y70596D01*
X117991Y70718D01*
X117941Y70737D01*
X117320Y71358D01*
X117527Y71858D01*
X120250D01*
Y74018D01*
X117106D01*
Y72279D01*
X116606Y72072D01*
X115512Y73167D01*
Y115502D01*
X121276Y121267D01*
X121326Y121286D01*
X121454Y121408D01*
X121569Y121506D01*
X121681Y121589D01*
X121788Y121659D01*
X121891Y121716D01*
X121989Y121760D01*
X122083Y121793D01*
X122173Y121815D01*
X122259Y121828D01*
X122372Y121834D01*
X122432Y121862D01*
X126559D01*
Y122529D01*
X126575Y122535D01*
X126645Y122554D01*
X126745Y122571D01*
X126875Y122582D01*
X127046Y122587D01*
X127094Y122608D01*
X129571D01*
X129620Y122587D01*
X129790Y122582D01*
X129920Y122571D01*
X130021Y122554D01*
X130090Y122535D01*
X130106Y122529D01*
Y120681D01*
X136894D01*
Y122529D01*
X136909Y122535D01*
X136979Y122554D01*
X137080Y122571D01*
X137210Y122582D01*
X137380Y122587D01*
X137429Y122608D01*
X137676D01*
X137724Y122587D01*
X137894Y122582D01*
X138024Y122571D01*
X138125Y122554D01*
X138195Y122535D01*
X138211Y122529D01*
Y121721D01*
X146789D01*
Y125279D01*
X143591D01*
X143585Y125295D01*
X143566Y125365D01*
X143549Y125466D01*
X143538Y125596D01*
X143533Y125766D01*
X143512Y125814D01*
Y126186D01*
X143533Y126234D01*
X143538Y126404D01*
X143549Y126534D01*
X143566Y126635D01*
X143585Y126705D01*
X143591Y126720D01*
X146789D01*
Y130280D01*
X140202D01*
X140142Y130308D01*
X140029Y130314D01*
X139942Y130327D01*
X139852Y130349D01*
X139759Y130382D01*
X139660Y130426D01*
X139558Y130483D01*
X139450Y130552D01*
X139339Y130636D01*
X139224Y130734D01*
X139095Y130856D01*
X139046Y130875D01*
X138700Y131220D01*
X138907Y131720D01*
X142250D01*
Y133250D01*
X138211D01*
Y132417D01*
X137711Y132210D01*
X128489Y141432D01*
X128470Y141481D01*
X128348Y141610D01*
X128250Y141725D01*
X128167Y141836D01*
X128097Y141944D01*
X128040Y142046D01*
X127996Y142144D01*
X127963Y142238D01*
X127941Y142328D01*
X127928Y142415D01*
X127922Y142527D01*
X127894Y142588D01*
Y145677D01*
D02*
G37*
G36*
X73819Y146250D02*
X71561D01*
Y143106D01*
X73819D01*
Y146250D01*
D02*
G37*
G36*
X71061D02*
X68803D01*
Y143106D01*
X71061D01*
Y146250D01*
D02*
G37*
G36*
X66337Y140724D02*
X63183D01*
Y139589D01*
X66337D01*
Y140724D01*
D02*
G37*
G36*
X62683D02*
X59530D01*
Y139589D01*
X62683D01*
Y140724D01*
D02*
G37*
G36*
X124250Y139142D02*
X121106D01*
Y136982D01*
X124250D01*
Y139142D01*
D02*
G37*
G36*
X119283Y137441D02*
X116278D01*
Y136010D01*
X119283D01*
Y137441D01*
D02*
G37*
G36*
X115778D02*
X112772D01*
Y136010D01*
X115778D01*
Y137441D01*
D02*
G37*
G36*
X127894Y136482D02*
X124750D01*
Y134323D01*
X127894D01*
Y136482D01*
D02*
G37*
G36*
X124250D02*
X121106D01*
Y134323D01*
X124250D01*
Y136482D01*
D02*
G37*
G36*
X119283Y135510D02*
X116278D01*
Y134079D01*
X119283D01*
Y135510D01*
D02*
G37*
G36*
X115778D02*
X112772D01*
Y134079D01*
X115778D01*
Y135510D01*
D02*
G37*
G36*
X146789Y135280D02*
X142750D01*
Y133750D01*
X146789D01*
Y135280D01*
D02*
G37*
G36*
X142250D02*
X138211D01*
Y133750D01*
X142250D01*
Y135280D01*
D02*
G37*
G36*
X146789Y133250D02*
X142750D01*
Y131720D01*
X146789D01*
Y133250D01*
D02*
G37*
G36*
X117677Y131394D02*
X115518D01*
Y128250D01*
X117677D01*
Y131394D01*
D02*
G37*
G36*
X115018D02*
X112858D01*
Y128250D01*
X115018D01*
Y131394D01*
D02*
G37*
G36*
X117677Y127750D02*
X115518D01*
Y124606D01*
X117677D01*
Y127750D01*
D02*
G37*
G36*
X115018D02*
X112858D01*
Y124606D01*
X115018D01*
Y127750D01*
D02*
G37*
G36*
X81721Y124354D02*
X79207D01*
Y121250D01*
X81721D01*
Y124354D01*
D02*
G37*
G36*
X78707D02*
X76193D01*
Y121250D01*
X78707D01*
Y124354D01*
D02*
G37*
G36*
X146789Y120280D02*
X142750D01*
Y118750D01*
X146789D01*
Y120280D01*
D02*
G37*
G36*
X142250D02*
X138211D01*
Y118750D01*
X142250D01*
Y120280D01*
D02*
G37*
G36*
X100185Y119970D02*
X98250D01*
Y118207D01*
X101076D01*
Y119079D01*
X101008Y119420D01*
X100815Y119709D01*
X100526Y119902D01*
X100185Y119970D01*
D02*
G37*
G36*
X97750D02*
X95815D01*
X95474Y119902D01*
X95185Y119709D01*
X94992Y119420D01*
X94924Y119079D01*
Y118207D01*
X97750D01*
Y119970D01*
D02*
G37*
G36*
X81721Y120750D02*
X79207D01*
Y117646D01*
X81721D01*
Y120750D01*
D02*
G37*
G36*
X78707D02*
X76193D01*
Y117646D01*
X78707D01*
Y120750D01*
D02*
G37*
G36*
X136894Y119319D02*
X133750D01*
Y117061D01*
X136894D01*
Y119319D01*
D02*
G37*
G36*
X133250D02*
X130106D01*
Y117061D01*
X133250D01*
Y119319D01*
D02*
G37*
G36*
X146789Y118250D02*
X142750D01*
Y116720D01*
X146789D01*
Y118250D01*
D02*
G37*
G36*
X142250D02*
X138211D01*
Y116720D01*
X142250D01*
Y118250D01*
D02*
G37*
G36*
X126559Y118138D02*
X123750D01*
Y116510D01*
X126559D01*
Y118138D01*
D02*
G37*
G36*
X123250D02*
X120441D01*
Y116510D01*
X123250D01*
Y118138D01*
D02*
G37*
G36*
X101076Y117707D02*
X98250D01*
Y115944D01*
X100185D01*
X100526Y116011D01*
X100815Y116205D01*
X101008Y116494D01*
X101076Y116835D01*
Y117707D01*
D02*
G37*
G36*
X97750D02*
X94924D01*
Y116835D01*
X94992Y116494D01*
X95185Y116205D01*
X95474Y116011D01*
X95815Y115944D01*
X97750D01*
Y117707D01*
D02*
G37*
G36*
X126559Y116010D02*
X123750D01*
Y114382D01*
X126559D01*
Y116010D01*
D02*
G37*
G36*
X123250D02*
X120441D01*
Y114382D01*
X123250D01*
Y116010D01*
D02*
G37*
G36*
X136894Y116561D02*
X133750D01*
Y114303D01*
X136894D01*
Y116561D01*
D02*
G37*
G36*
X133250D02*
X130106D01*
Y114303D01*
X133250D01*
Y116561D01*
D02*
G37*
G36*
X66594Y110461D02*
X64081D01*
Y109029D01*
X66594D01*
Y110461D01*
D02*
G37*
G36*
X63581D02*
X61067D01*
Y109029D01*
X63581D01*
Y110461D01*
D02*
G37*
G36*
X66594Y108529D02*
X64081D01*
Y107098D01*
X66594D01*
Y108529D01*
D02*
G37*
G36*
X63581D02*
X61067D01*
Y107098D01*
X63581D01*
Y108529D01*
D02*
G37*
G36*
X54334Y131681D02*
X53666D01*
X53048Y131425D01*
X52575Y130952D01*
X52319Y130334D01*
Y129666D01*
X52575Y129048D01*
X52743Y128880D01*
X52777Y128788D01*
X52823Y128738D01*
X52849Y128704D01*
X52873Y128667D01*
X52894Y128624D01*
X52914Y128576D01*
X52931Y128520D01*
X52946Y128457D01*
X52957Y128385D01*
X52964Y128306D01*
X52967Y128202D01*
X52988Y128154D01*
Y124791D01*
X52967Y124742D01*
X52962Y124572D01*
X52951Y124442D01*
X52934Y124341D01*
X52915Y124272D01*
X52909Y124256D01*
X52390D01*
Y117744D01*
X53669D01*
X53675Y117728D01*
X53694Y117659D01*
X53711Y117558D01*
X53722Y117428D01*
X53727Y117258D01*
X53748Y117209D01*
Y107216D01*
X53727Y107168D01*
X53722Y106997D01*
X53711Y106867D01*
X53694Y106766D01*
X53675Y106697D01*
X53669Y106681D01*
X52406D01*
Y103319D01*
X57933D01*
Y106681D01*
X55851D01*
X55844Y106697D01*
X55826Y106766D01*
X55809Y106867D01*
X55797Y106997D01*
X55793Y107168D01*
X55771Y107216D01*
Y117209D01*
X55793Y117258D01*
X55797Y117428D01*
X55809Y117558D01*
X55826Y117659D01*
X55844Y117728D01*
X55851Y117744D01*
X57130D01*
Y124256D01*
X55091D01*
X55085Y124272D01*
X55066Y124341D01*
X55049Y124442D01*
X55038Y124572D01*
X55033Y124742D01*
X55012Y124791D01*
Y128154D01*
X55033Y128202D01*
X55036Y128306D01*
X55043Y128385D01*
X55054Y128457D01*
X55069Y128520D01*
X55086Y128576D01*
X55106Y128624D01*
X55127Y128667D01*
X55151Y128704D01*
X55177Y128738D01*
X55223Y128788D01*
X55257Y128880D01*
X55425Y129048D01*
X55681Y129666D01*
Y130334D01*
X55425Y130952D01*
X54952Y131425D01*
X54334Y131681D01*
D02*
G37*
G36*
X29846Y102965D02*
X26250D01*
Y99762D01*
X29846D01*
Y102965D01*
D02*
G37*
G36*
X25750D02*
X22154D01*
Y99762D01*
X25750D01*
Y102965D01*
D02*
G37*
G36*
X29846Y99262D02*
X26250D01*
Y96059D01*
X29846D01*
Y99262D01*
D02*
G37*
G36*
X25750D02*
X22154D01*
Y96059D01*
X25750D01*
Y99262D01*
D02*
G37*
G36*
X57256Y95610D02*
X54250D01*
Y93490D01*
X57256D01*
Y95610D01*
D02*
G37*
G36*
X53750D02*
X50744D01*
Y93490D01*
X53750D01*
Y95610D01*
D02*
G37*
G36*
X57256Y92990D02*
X54250D01*
Y90870D01*
X57256D01*
Y92990D01*
D02*
G37*
G36*
X53750D02*
X50744D01*
Y90870D01*
X53750D01*
Y92990D01*
D02*
G37*
G36*
X66594Y102902D02*
X61067D01*
Y99539D01*
X62240D01*
X62246Y99524D01*
X62265Y99454D01*
X62282Y99353D01*
X62293Y99223D01*
X62298Y99053D01*
X62319Y99004D01*
Y96244D01*
X62298Y96195D01*
X62293Y96025D01*
X62282Y95895D01*
X62265Y95794D01*
X62246Y95724D01*
X62240Y95709D01*
X60146D01*
Y90772D01*
X66854D01*
Y95709D01*
X64422D01*
X64415Y95724D01*
X64397Y95794D01*
X64380Y95895D01*
X64368Y96025D01*
X64364Y96195D01*
X64342Y96244D01*
Y99004D01*
X64364Y99053D01*
X64368Y99223D01*
X64380Y99353D01*
X64397Y99454D01*
X64415Y99524D01*
X64422Y99539D01*
X66594D01*
Y102902D01*
D02*
G37*
G36*
X144213Y87279D02*
X140321D01*
Y85750D01*
X144213D01*
Y87279D01*
D02*
G37*
G36*
X139821D02*
X135929D01*
Y85750D01*
X139821D01*
Y87279D01*
D02*
G37*
G36*
X144213Y85250D02*
X140321D01*
Y83720D01*
X144213D01*
Y85250D01*
D02*
G37*
G36*
X139821D02*
X135929D01*
Y83720D01*
X139821D01*
Y85250D01*
D02*
G37*
G36*
X144213Y77280D02*
X140321D01*
Y75750D01*
X144213D01*
Y77280D01*
D02*
G37*
G36*
X139821D02*
X135929D01*
Y75750D01*
X139821D01*
Y77280D01*
D02*
G37*
G36*
X123894Y76677D02*
X120750D01*
Y74518D01*
X123894D01*
Y76677D01*
D02*
G37*
G36*
X120250D02*
X117106D01*
Y74518D01*
X120250D01*
Y76677D01*
D02*
G37*
G36*
X132394Y76697D02*
X129250D01*
Y74439D01*
X132394D01*
Y76697D01*
D02*
G37*
G36*
X128750D02*
X125606D01*
Y74439D01*
X128750D01*
Y76697D01*
D02*
G37*
G36*
X144213Y75250D02*
X140321D01*
Y73721D01*
X144213D01*
Y75250D01*
D02*
G37*
G36*
X139821D02*
X135929D01*
Y73721D01*
X139821D01*
Y75250D01*
D02*
G37*
G36*
X26296Y78376D02*
X25947D01*
Y72545D01*
X31778D01*
Y72894D01*
X31544Y74069D01*
X31086Y75176D01*
X30420Y76171D01*
X29573Y77018D01*
X28577Y77684D01*
X27470Y78142D01*
X26296Y78376D01*
D02*
G37*
G36*
X25447D02*
X25098D01*
X23923Y78142D01*
X22817Y77684D01*
X21821Y77018D01*
X20974Y76171D01*
X20308Y75176D01*
X19850Y74069D01*
X19616Y72894D01*
Y72545D01*
X25447D01*
Y78376D01*
D02*
G37*
G36*
X39694Y81193D02*
X38471D01*
X37290Y80876D01*
X36230Y80265D01*
X35365Y79400D01*
X34754Y78340D01*
X34437Y77159D01*
Y75936D01*
X34754Y74754D01*
X35365Y73695D01*
X36230Y72830D01*
X37290Y72218D01*
X38471Y71902D01*
X39694D01*
X40876Y72218D01*
X41935Y72830D01*
X42800Y73695D01*
X43412Y74754D01*
X43728Y75936D01*
Y77159D01*
X43412Y78340D01*
X42800Y79400D01*
X41935Y80265D01*
X40876Y80876D01*
X39694Y81193D01*
D02*
G37*
G36*
X123894Y74018D02*
X120750D01*
Y71858D01*
X123894D01*
Y74018D01*
D02*
G37*
G36*
X132394Y73939D02*
X129250D01*
Y71681D01*
X132394D01*
Y73939D01*
D02*
G37*
G36*
X128750D02*
X125606D01*
Y71681D01*
X128750D01*
Y73939D01*
D02*
G37*
G36*
X31778Y72045D02*
X25947D01*
Y66215D01*
X26296D01*
X27470Y66448D01*
X28577Y66907D01*
X29573Y67572D01*
X30420Y68419D01*
X31086Y69415D01*
X31544Y70522D01*
X31778Y71696D01*
Y72045D01*
D02*
G37*
G36*
X25447D02*
X19616D01*
Y71696D01*
X19850Y70522D01*
X20308Y69415D01*
X20974Y68419D01*
X21821Y67572D01*
X22817Y66907D01*
X23923Y66448D01*
X25098Y66215D01*
X25447D01*
Y72045D01*
D02*
G37*
G36*
X112284Y55921D02*
X109671D01*
Y54490D01*
X112284D01*
Y55921D01*
D02*
G37*
G36*
X124334Y87181D02*
X123666D01*
X123048Y86925D01*
X122575Y86452D01*
X122319Y85834D01*
Y85166D01*
X122575Y84548D01*
X123048Y84075D01*
X123666Y83819D01*
X123903D01*
X123992Y83778D01*
X124060Y83776D01*
X124102Y83770D01*
X124146Y83760D01*
X124191Y83745D01*
X124239Y83725D01*
X124291Y83698D01*
X124346Y83663D01*
X124404Y83621D01*
X124466Y83569D01*
X124540Y83498D01*
X124590Y83480D01*
X128285Y79785D01*
X128613Y79565D01*
X129000Y79488D01*
X135394D01*
X135443Y79467D01*
X135613Y79462D01*
X135743Y79451D01*
X135844Y79434D01*
X135913Y79415D01*
X135929Y79409D01*
Y78720D01*
X144213D01*
Y78720D01*
X144713Y78857D01*
X146988Y76581D01*
Y62419D01*
X137341Y52771D01*
X124291D01*
X124242Y52793D01*
X124072Y52798D01*
X123942Y52809D01*
X123841Y52826D01*
X123772Y52845D01*
X123756Y52851D01*
Y54228D01*
X117244D01*
Y51591D01*
X117228Y51585D01*
X117159Y51566D01*
X117058Y51549D01*
X116928Y51538D01*
X116758Y51533D01*
X116709Y51512D01*
X112818D01*
X112770Y51533D01*
X112600Y51538D01*
X112470Y51549D01*
X112369Y51566D01*
X112299Y51585D01*
X112284Y51591D01*
Y52059D01*
X112284Y52181D01*
Y52559D01*
X112284Y52681D01*
Y53990D01*
X109421D01*
X106559D01*
Y52681D01*
X106559Y52559D01*
Y52181D01*
X106559Y52059D01*
Y48941D01*
X106559Y48819D01*
Y48441D01*
X106559Y48319D01*
Y45079D01*
X112284D01*
Y48319D01*
X112284Y48441D01*
Y48819D01*
X112284Y48941D01*
Y49409D01*
X112299Y49415D01*
X112369Y49434D01*
X112470Y49451D01*
X112600Y49462D01*
X112770Y49467D01*
X112818Y49488D01*
X116715D01*
X116766Y49467D01*
X116942Y49465D01*
X117230Y49450D01*
X117244Y49448D01*
Y49291D01*
X117686D01*
X117756Y49262D01*
X117820Y49289D01*
X117889Y49279D01*
X117906Y49291D01*
X123756D01*
Y50669D01*
X123772Y50675D01*
X123841Y50694D01*
X123942Y50711D01*
X124072Y50722D01*
X124242Y50727D01*
X124291Y50748D01*
X137760D01*
X138147Y50825D01*
X138475Y51045D01*
X148715Y61285D01*
X148935Y61613D01*
X149012Y62000D01*
Y77000D01*
X148935Y77387D01*
X148715Y77715D01*
X145328Y81103D01*
X145000Y81322D01*
X144725Y81377D01*
X144625Y81421D01*
X144468Y81425D01*
X144347Y81434D01*
X144254Y81449D01*
X144213Y81459D01*
Y82279D01*
X135929D01*
Y81591D01*
X135913Y81585D01*
X135844Y81566D01*
X135743Y81549D01*
X135613Y81538D01*
X135443Y81533D01*
X135394Y81512D01*
X129419D01*
X126020Y84910D01*
X126002Y84960D01*
X125931Y85035D01*
X125879Y85096D01*
X125837Y85154D01*
X125802Y85209D01*
X125775Y85261D01*
X125755Y85309D01*
X125740Y85354D01*
X125730Y85398D01*
X125724Y85440D01*
X125722Y85508D01*
X125681Y85597D01*
Y85834D01*
X125425Y86452D01*
X124952Y86925D01*
X124334Y87181D01*
D02*
G37*
G36*
X62360Y43532D02*
X61136D01*
X59955Y43215D01*
X58895Y42603D01*
X58031Y41738D01*
X57419Y40679D01*
X57102Y39497D01*
Y38274D01*
X57419Y37093D01*
X58031Y36033D01*
X58895Y35168D01*
X59955Y34557D01*
X61136Y34240D01*
X62360D01*
X63541Y34557D01*
X64600Y35168D01*
X65465Y36033D01*
X66077Y37093D01*
X66394Y38274D01*
Y39497D01*
X66077Y40679D01*
X65465Y41738D01*
X64600Y42603D01*
X63541Y43215D01*
X62360Y43532D01*
D02*
G37*
G36*
X66599Y31581D02*
X66250D01*
Y25750D01*
X72081D01*
Y26099D01*
X71847Y27274D01*
X71389Y28380D01*
X70723Y29376D01*
X69876Y30223D01*
X68880Y30889D01*
X67774Y31347D01*
X66599Y31581D01*
D02*
G37*
G36*
X65750D02*
X65401D01*
X64226Y31347D01*
X63120Y30889D01*
X62124Y30223D01*
X61277Y29376D01*
X60611Y28380D01*
X60153Y27274D01*
X59919Y26099D01*
Y25750D01*
X65750D01*
Y31581D01*
D02*
G37*
G36*
X72081Y25250D02*
X66250D01*
Y19419D01*
X66599D01*
X67774Y19653D01*
X68880Y20111D01*
X69876Y20777D01*
X70723Y21624D01*
X71389Y22620D01*
X71847Y23726D01*
X72081Y24901D01*
Y25250D01*
D02*
G37*
G36*
X65750D02*
X59919D01*
Y24901D01*
X60153Y23726D01*
X60611Y22620D01*
X61277Y21624D01*
X62124Y20777D01*
X63120Y20111D01*
X64226Y19653D01*
X65401Y19419D01*
X65750D01*
Y25250D01*
D02*
G37*
G36*
X18246Y25579D02*
X16754D01*
X15289Y25288D01*
X13910Y24716D01*
X12669Y23887D01*
X11613Y22831D01*
X10784Y21590D01*
X10212Y20211D01*
X9921Y18746D01*
Y17254D01*
X10212Y15789D01*
X10784Y14410D01*
X11613Y13169D01*
X12669Y12113D01*
X13910Y11284D01*
X15289Y10712D01*
X16754Y10421D01*
X18246D01*
X19711Y10712D01*
X21090Y11284D01*
X22331Y12113D01*
X23387Y13169D01*
X24216Y14410D01*
X24788Y15789D01*
X25079Y17254D01*
Y18746D01*
X24788Y20211D01*
X24216Y21590D01*
X23387Y22831D01*
X22331Y23887D01*
X21090Y24716D01*
X19711Y25288D01*
X18246Y25579D01*
D02*
G37*
%LPD*%
G36*
X93150Y171016D02*
X93140Y171109D01*
X93110Y171193D01*
X93061Y171267D01*
X92992Y171331D01*
X92904Y171385D01*
X92795Y171429D01*
X92668Y171464D01*
X92520Y171488D01*
X92353Y171503D01*
X92165Y171508D01*
Y172492D01*
X92353Y172497D01*
X92520Y172512D01*
X92668Y172536D01*
X92795Y172571D01*
X92904Y172615D01*
X92992Y172669D01*
X93061Y172733D01*
X93110Y172807D01*
X93140Y172891D01*
X93150Y172984D01*
Y171016D01*
D02*
G37*
G36*
X76637Y175258D02*
X78379Y173721D01*
X78889Y173346D01*
X79364Y173038D01*
X79803Y172799D01*
X80206Y172629D01*
X80575Y172526D01*
X80907Y172492D01*
Y171508D01*
X80575Y171474D01*
X80206Y171371D01*
X79803Y171201D01*
X79364Y170962D01*
X78889Y170654D01*
X78379Y170279D01*
X77253Y169323D01*
X75985Y168094D01*
Y175907D01*
X76637Y175258D01*
D02*
G37*
G36*
X75224Y167445D02*
X74537Y166940D01*
X73379Y165977D01*
X72909Y165518D01*
X72511Y165074D01*
X72185Y164646D01*
X71932Y164233D01*
X71751Y163835D01*
X71643Y163452D01*
X71606Y163085D01*
X70622Y163244D01*
X70591Y163519D01*
X70498Y163854D01*
X70342Y164249D01*
X70124Y164703D01*
X69502Y165792D01*
X68631Y167119D01*
X67510Y168685D01*
X75224Y167445D01*
D02*
G37*
G36*
X75832Y149945D02*
X75972Y149827D01*
X76111Y149723D01*
X76250Y149632D01*
X76389Y149556D01*
X76528Y149493D01*
X76667Y149444D01*
X76807Y149409D01*
X76946Y149389D01*
X77085Y149382D01*
X75693Y147990D01*
X75686Y148129D01*
X75665Y148268D01*
X75630Y148407D01*
X75582Y148547D01*
X75519Y148686D01*
X75443Y148825D01*
X75352Y148964D01*
X75248Y149103D01*
X75129Y149242D01*
X74997Y149382D01*
X75693Y150078D01*
X75832Y149945D01*
D02*
G37*
G36*
X79692Y145871D02*
X79713Y145732D01*
X79747Y145593D01*
X79796Y145454D01*
X79859Y145314D01*
X79935Y145175D01*
X80026Y145036D01*
X80130Y144897D01*
X80249Y144757D01*
X80381Y144618D01*
Y143226D01*
X80303Y143301D01*
X80154Y143426D01*
X80081Y143477D01*
X80011Y143520D01*
X79942Y143556D01*
X79875Y143583D01*
X79810Y143603D01*
X79747Y143614D01*
X79685Y143618D01*
Y146010D01*
X79692Y145871D01*
D02*
G37*
G36*
X104228Y138516D02*
X104219Y138609D01*
X104189Y138693D01*
X104140Y138767D01*
X104071Y138831D01*
X103982Y138885D01*
X103874Y138929D01*
X103746Y138964D01*
X103599Y138988D01*
X103431Y139003D01*
X103244Y139008D01*
Y139992D01*
X103431Y139997D01*
X103599Y140012D01*
X103746Y140036D01*
X103874Y140071D01*
X103982Y140115D01*
X104071Y140169D01*
X104140Y140233D01*
X104189Y140307D01*
X104219Y140391D01*
X104228Y140484D01*
Y138516D01*
D02*
G37*
G36*
X100754Y140391D02*
X100783Y140307D01*
X100832Y140233D01*
X100901Y140169D01*
X100990Y140115D01*
X101098Y140071D01*
X101226Y140036D01*
X101374Y140012D01*
X101541Y139997D01*
X101728Y139992D01*
Y139008D01*
X101541Y139003D01*
X101374Y138988D01*
X101226Y138964D01*
X101098Y138929D01*
X100990Y138885D01*
X100901Y138831D01*
X100832Y138767D01*
X100783Y138693D01*
X100754Y138609D01*
X100744Y138516D01*
Y140484D01*
X100754Y140391D01*
D02*
G37*
G36*
X88968Y140140D02*
X88998Y140075D01*
X89047Y140018D01*
X89116Y139968D01*
X89205Y139926D01*
X89313Y139892D01*
X89441Y139865D01*
X89588Y139846D01*
X89756Y139834D01*
X89943Y139831D01*
Y138847D01*
X89756Y138843D01*
X89441Y138812D01*
X89313Y138785D01*
X89205Y138751D01*
X89116Y138709D01*
X89047Y138659D01*
X88998Y138602D01*
X88968Y138537D01*
X88959Y138465D01*
Y140212D01*
X88968Y140140D01*
D02*
G37*
G36*
X83175Y138465D02*
X83166Y138537D01*
X83136Y138602D01*
X83087Y138659D01*
X83018Y138709D01*
X82929Y138751D01*
X82821Y138785D01*
X82693Y138812D01*
X82546Y138831D01*
X82378Y138843D01*
X82191Y138847D01*
Y139831D01*
X82378Y139834D01*
X82693Y139865D01*
X82821Y139892D01*
X82929Y139926D01*
X83018Y139968D01*
X83087Y140018D01*
X83136Y140075D01*
X83166Y140140D01*
X83175Y140212D01*
Y138465D01*
D02*
G37*
G36*
X95256Y138354D02*
X95246Y138448D01*
X95217Y138531D01*
X95167Y138605D01*
X95099Y138669D01*
X95010Y138723D01*
X94902Y138768D01*
X94774Y138802D01*
X94626Y138827D01*
X94459Y138841D01*
X94272Y138847D01*
Y139831D01*
X94459Y139836D01*
X94626Y139850D01*
X94774Y139875D01*
X94902Y139909D01*
X95010Y139954D01*
X95099Y140008D01*
X95167Y140072D01*
X95217Y140146D01*
X95246Y140229D01*
X95256Y140323D01*
Y138354D01*
D02*
G37*
G36*
X109623Y138321D02*
X109539Y138292D01*
X109466Y138242D01*
X109402Y138173D01*
X109347Y138085D01*
X109303Y137977D01*
X109269Y137849D01*
X109244Y137701D01*
X109229Y137534D01*
X109224Y137347D01*
X108240D01*
X108235Y137534D01*
X108221Y137701D01*
X108196Y137849D01*
X108161Y137977D01*
X108117Y138085D01*
X108063Y138173D01*
X107999Y138242D01*
X107925Y138292D01*
X107842Y138321D01*
X107748Y138331D01*
X109716D01*
X109623Y138321D01*
D02*
G37*
G36*
X54979Y137675D02*
X55048Y137614D01*
X55122Y137559D01*
X55204Y137512D01*
X55291Y137472D01*
X55386Y137440D01*
X55486Y137415D01*
X55593Y137396D01*
X55707Y137385D01*
X55826Y137382D01*
X55725Y136398D01*
X55606Y136395D01*
X55492Y136386D01*
X55383Y136371D01*
X55279Y136350D01*
X55180Y136323D01*
X55087Y136290D01*
X54998Y136251D01*
X54914Y136206D01*
X54836Y136155D01*
X54763Y136098D01*
X54917Y137744D01*
X54979Y137675D01*
D02*
G37*
G36*
X60041Y135906D02*
X60032Y135999D01*
X60002Y136083D01*
X59953Y136157D01*
X59884Y136221D01*
X59795Y136275D01*
X59687Y136319D01*
X59559Y136353D01*
X59412Y136378D01*
X59244Y136393D01*
X59057Y136398D01*
Y137382D01*
X59244Y137385D01*
X59559Y137406D01*
X59687Y137425D01*
X59795Y137450D01*
X59884Y137480D01*
X59953Y137515D01*
X60002Y137556D01*
X60032Y137602D01*
X60041Y137653D01*
Y135906D01*
D02*
G37*
G36*
X86564D02*
X87051D01*
X86958Y135896D01*
X86874Y135866D01*
X86800Y135817D01*
X86736Y135748D01*
X86682Y135660D01*
X86638Y135551D01*
X86624Y135500D01*
X86638Y135449D01*
X86682Y135340D01*
X86736Y135252D01*
X86800Y135183D01*
X86874Y135134D01*
X86958Y135104D01*
X87051Y135094D01*
X86564D01*
X86559Y134922D01*
X85575D01*
X85570Y135094D01*
X85083D01*
X85176Y135104D01*
X85260Y135134D01*
X85334Y135183D01*
X85398Y135252D01*
X85452Y135340D01*
X85496Y135449D01*
X85510Y135500D01*
X85496Y135551D01*
X85452Y135660D01*
X85398Y135748D01*
X85334Y135817D01*
X85260Y135866D01*
X85176Y135896D01*
X85083Y135906D01*
X85570D01*
X85575Y136079D01*
X86559D01*
X86564Y135906D01*
D02*
G37*
G36*
X29341Y136800D02*
X29362Y136661D01*
X29397Y136522D01*
X29446Y136383D01*
X29508Y136243D01*
X29585Y136104D01*
X29675Y135965D01*
X29780Y135826D01*
X29898Y135687D01*
X30030Y135547D01*
X29334Y134852D01*
X29195Y134984D01*
X29056Y135102D01*
X28917Y135206D01*
X28778Y135297D01*
X28638Y135373D01*
X28499Y135436D01*
X28360Y135485D01*
X28221Y135520D01*
X28082Y135540D01*
X27942Y135547D01*
X29334Y136939D01*
X29341Y136800D01*
D02*
G37*
G36*
X88968Y135022D02*
X88998Y134957D01*
X89047Y134900D01*
X89116Y134850D01*
X89205Y134808D01*
X89313Y134774D01*
X89441Y134747D01*
X89588Y134728D01*
X89756Y134716D01*
X89943Y134713D01*
Y133728D01*
X89756Y133724D01*
X89441Y133694D01*
X89313Y133667D01*
X89205Y133633D01*
X89116Y133591D01*
X89047Y133541D01*
X88998Y133484D01*
X88968Y133419D01*
X88959Y133347D01*
Y135094D01*
X88968Y135022D01*
D02*
G37*
G36*
X60041Y133347D02*
X60032Y133419D01*
X60002Y133484D01*
X59953Y133541D01*
X59884Y133591D01*
X59795Y133633D01*
X59687Y133667D01*
X59559Y133694D01*
X59412Y133713D01*
X59244Y133724D01*
X59057Y133728D01*
Y134713D01*
X59244Y134716D01*
X59559Y134747D01*
X59687Y134774D01*
X59795Y134808D01*
X59884Y134850D01*
X59953Y134900D01*
X60002Y134957D01*
X60032Y135022D01*
X60041Y135094D01*
Y133347D01*
D02*
G37*
G36*
X109229Y131679D02*
X109244Y131512D01*
X109269Y131364D01*
X109303Y131236D01*
X109347Y131128D01*
X109402Y131039D01*
X109466Y130970D01*
X109539Y130921D01*
X109623Y130892D01*
X109716Y130882D01*
X107748D01*
X107842Y130892D01*
X107925Y130921D01*
X107999Y130970D01*
X108063Y131039D01*
X108117Y131128D01*
X108161Y131236D01*
X108196Y131364D01*
X108221Y131512D01*
X108235Y131679D01*
X108240Y131866D01*
X109224D01*
X109229Y131679D01*
D02*
G37*
G36*
X65834Y132463D02*
X65864Y132398D01*
X65913Y132341D01*
X65982Y132291D01*
X66071Y132249D01*
X66179Y132215D01*
X66307Y132188D01*
X66454Y132169D01*
X66622Y132157D01*
X66809Y132153D01*
Y131169D01*
X66622Y131166D01*
X66307Y131135D01*
X66179Y131108D01*
X66071Y131074D01*
X65982Y131032D01*
X65913Y130982D01*
X65864Y130925D01*
X65834Y130860D01*
X65825Y130788D01*
Y132535D01*
X65834Y132463D01*
D02*
G37*
G36*
X86958Y130778D02*
X86874Y130748D01*
X86800Y130699D01*
X86736Y130630D01*
X86682Y130542D01*
X86638Y130433D01*
X86603Y130305D01*
X86579Y130158D01*
X86564Y129990D01*
X86559Y129803D01*
X85575D01*
X85570Y129990D01*
X85555Y130158D01*
X85531Y130305D01*
X85496Y130433D01*
X85452Y130542D01*
X85398Y130630D01*
X85334Y130699D01*
X85260Y130748D01*
X85176Y130778D01*
X85083Y130788D01*
X87051D01*
X86958Y130778D01*
D02*
G37*
G36*
X63824D02*
X63740Y130748D01*
X63666Y130699D01*
X63602Y130630D01*
X63548Y130542D01*
X63504Y130433D01*
X63469Y130305D01*
X63445Y130158D01*
X63430Y129990D01*
X63425Y129803D01*
X62441D01*
X62436Y129990D01*
X62421Y130158D01*
X62397Y130305D01*
X62362Y130433D01*
X62318Y130542D01*
X62264Y130630D01*
X62200Y130699D01*
X62126Y130748D01*
X62042Y130778D01*
X61949Y130788D01*
X63917D01*
X63824Y130778D01*
D02*
G37*
G36*
X98891Y130294D02*
X98807Y130264D01*
X98733Y130215D01*
X98669Y130146D01*
X98615Y130057D01*
X98571Y129949D01*
X98536Y129821D01*
X98512Y129673D01*
X98497Y129506D01*
X98492Y129319D01*
X97508D01*
X97503Y129506D01*
X97488Y129673D01*
X97464Y129821D01*
X97429Y129949D01*
X97385Y130057D01*
X97331Y130146D01*
X97267Y130215D01*
X97193Y130264D01*
X97109Y130294D01*
X97016Y130303D01*
X98984D01*
X98891Y130294D01*
D02*
G37*
G36*
X98497Y127292D02*
X98512Y127125D01*
X98536Y126977D01*
X98571Y126849D01*
X98615Y126741D01*
X98669Y126653D01*
X98733Y126584D01*
X98807Y126534D01*
X98891Y126505D01*
X98984Y126495D01*
X97016D01*
X97109Y126505D01*
X97193Y126534D01*
X97267Y126584D01*
X97331Y126653D01*
X97385Y126741D01*
X97429Y126849D01*
X97464Y126977D01*
X97488Y127125D01*
X97503Y127292D01*
X97508Y127479D01*
X98492D01*
X98497Y127292D01*
D02*
G37*
G36*
X86564Y124640D02*
X86579Y124472D01*
X86603Y124325D01*
X86638Y124197D01*
X86682Y124088D01*
X86736Y124000D01*
X86800Y123931D01*
X86874Y123882D01*
X86958Y123852D01*
X87051Y123842D01*
X85083D01*
X85176Y123852D01*
X85260Y123882D01*
X85334Y123931D01*
X85398Y124000D01*
X85452Y124088D01*
X85496Y124197D01*
X85531Y124325D01*
X85555Y124472D01*
X85570Y124640D01*
X85575Y124827D01*
X86559D01*
X86564Y124640D01*
D02*
G37*
G36*
X63430Y124541D02*
X63445Y124374D01*
X63469Y124226D01*
X63504Y124098D01*
X63548Y123990D01*
X63602Y123901D01*
X63666Y123832D01*
X63740Y123783D01*
X63824Y123754D01*
X63917Y123744D01*
X61949D01*
X62042Y123754D01*
X62126Y123783D01*
X62200Y123832D01*
X62264Y123901D01*
X62318Y123990D01*
X62362Y124098D01*
X62397Y124226D01*
X62421Y124374D01*
X62436Y124541D01*
X62441Y124728D01*
X63425D01*
X63430Y124541D01*
D02*
G37*
G36*
X121618Y142256D02*
X121608Y142349D01*
X121579Y142433D01*
X121530Y142507D01*
X121461Y142571D01*
X121372Y142625D01*
X121264Y142669D01*
X121136Y142704D01*
X120988Y142728D01*
X120821Y142743D01*
X120634Y142748D01*
Y143732D01*
X120821Y143737D01*
X120988Y143752D01*
X121136Y143777D01*
X121264Y143811D01*
X121372Y143855D01*
X121461Y143909D01*
X121530Y143973D01*
X121579Y144047D01*
X121608Y144131D01*
X121618Y144224D01*
Y142256D01*
D02*
G37*
G36*
X118781Y144131D02*
X118811Y144047D01*
X118860Y143973D01*
X118929Y143909D01*
X119018Y143855D01*
X119126Y143811D01*
X119254Y143777D01*
X119401Y143752D01*
X119569Y143737D01*
X119756Y143732D01*
Y142748D01*
X119569Y142743D01*
X119401Y142728D01*
X119254Y142704D01*
X119126Y142669D01*
X119018Y142625D01*
X118929Y142571D01*
X118860Y142507D01*
X118811Y142433D01*
X118781Y142349D01*
X118772Y142256D01*
Y144224D01*
X118781Y144131D01*
D02*
G37*
G36*
X127389Y142361D02*
X127410Y142222D01*
X127444Y142083D01*
X127493Y141944D01*
X127556Y141804D01*
X127632Y141665D01*
X127723Y141526D01*
X127827Y141387D01*
X127945Y141248D01*
X128078Y141109D01*
X127468Y140326D01*
X127263Y140525D01*
X126873Y140859D01*
X126688Y140995D01*
X126511Y141109D01*
X126340Y141203D01*
X126177Y141276D01*
X126020Y141329D01*
X125871Y141360D01*
X125728Y141370D01*
X127382Y142500D01*
X127389Y142361D01*
D02*
G37*
G36*
X138862Y130331D02*
X139001Y130213D01*
X139140Y130109D01*
X139279Y130018D01*
X139419Y129941D01*
X139558Y129879D01*
X139697Y129830D01*
X139836Y129795D01*
X139975Y129774D01*
X140115Y129768D01*
X138723Y128376D01*
X138716Y128515D01*
X138695Y128654D01*
X138660Y128793D01*
X138611Y128932D01*
X138549Y129072D01*
X138472Y129211D01*
X138382Y129350D01*
X138277Y129489D01*
X138159Y129628D01*
X138027Y129768D01*
X138723Y130464D01*
X138862Y130331D01*
D02*
G37*
G36*
X143391Y127223D02*
X143307Y127193D01*
X143233Y127144D01*
X143169Y127075D01*
X143115Y126986D01*
X143071Y126878D01*
X143036Y126750D01*
X143012Y126602D01*
X142997Y126435D01*
X142992Y126248D01*
X142008D01*
X142003Y126435D01*
X141988Y126602D01*
X141964Y126750D01*
X141929Y126878D01*
X141885Y126986D01*
X141831Y127075D01*
X141767Y127144D01*
X141693Y127193D01*
X141609Y127223D01*
X141516Y127233D01*
X143484D01*
X143391Y127223D01*
D02*
G37*
G36*
X142997Y125565D02*
X143012Y125398D01*
X143036Y125250D01*
X143071Y125122D01*
X143115Y125014D01*
X143169Y124925D01*
X143233Y124856D01*
X143307Y124807D01*
X143391Y124777D01*
X143484Y124767D01*
X141516D01*
X141609Y124777D01*
X141693Y124807D01*
X141767Y124856D01*
X141831Y124925D01*
X141885Y125014D01*
X141929Y125122D01*
X141964Y125250D01*
X141988Y125398D01*
X142003Y125565D01*
X142008Y125752D01*
X142992D01*
X142997Y125565D01*
D02*
G37*
G36*
X138723Y122636D02*
X138713Y122729D01*
X138683Y122813D01*
X138634Y122887D01*
X138565Y122951D01*
X138477Y123005D01*
X138368Y123049D01*
X138240Y123084D01*
X138093Y123108D01*
X137925Y123123D01*
X137738Y123128D01*
Y124112D01*
X137925Y124117D01*
X138093Y124132D01*
X138240Y124156D01*
X138368Y124191D01*
X138477Y124235D01*
X138565Y124289D01*
X138634Y124353D01*
X138683Y124427D01*
X138713Y124511D01*
X138723Y124604D01*
Y122636D01*
D02*
G37*
G36*
X136391Y124511D02*
X136421Y124427D01*
X136470Y124353D01*
X136539Y124289D01*
X136628Y124235D01*
X136736Y124191D01*
X136864Y124156D01*
X137012Y124132D01*
X137179Y124117D01*
X137366Y124112D01*
Y123128D01*
X137179Y123123D01*
X137012Y123108D01*
X136864Y123084D01*
X136736Y123049D01*
X136628Y123005D01*
X136539Y122951D01*
X136470Y122887D01*
X136421Y122813D01*
X136391Y122729D01*
X136382Y122636D01*
Y124604D01*
X136391Y124511D01*
D02*
G37*
G36*
X130618Y122636D02*
X130608Y122729D01*
X130579Y122813D01*
X130530Y122887D01*
X130461Y122951D01*
X130372Y123005D01*
X130264Y123049D01*
X130136Y123084D01*
X129988Y123108D01*
X129821Y123123D01*
X129634Y123128D01*
Y124112D01*
X129821Y124117D01*
X129988Y124132D01*
X130136Y124156D01*
X130264Y124191D01*
X130372Y124235D01*
X130461Y124289D01*
X130530Y124353D01*
X130579Y124427D01*
X130608Y124511D01*
X130618Y124604D01*
Y122636D01*
D02*
G37*
G36*
X126057Y124511D02*
X126086Y124427D01*
X126136Y124353D01*
X126205Y124289D01*
X126293Y124235D01*
X126401Y124191D01*
X126529Y124156D01*
X126677Y124132D01*
X126844Y124117D01*
X127031Y124112D01*
Y123128D01*
X126844Y123123D01*
X126677Y123108D01*
X126529Y123084D01*
X126401Y123049D01*
X126293Y123005D01*
X126205Y122951D01*
X126136Y122887D01*
X126086Y122813D01*
X126057Y122729D01*
X126047Y122636D01*
Y124604D01*
X126057Y124511D01*
D02*
G37*
G36*
X122345Y122374D02*
X122206Y122367D01*
X122066Y122346D01*
X121927Y122312D01*
X121788Y122263D01*
X121649Y122200D01*
X121510Y122124D01*
X121370Y122033D01*
X121231Y121929D01*
X121092Y121810D01*
X120953Y121678D01*
X120257Y122374D01*
X120389Y122513D01*
X120508Y122653D01*
X120612Y122792D01*
X120702Y122931D01*
X120779Y123070D01*
X120842Y123209D01*
X120890Y123349D01*
X120925Y123488D01*
X120946Y123627D01*
X120953Y123766D01*
X122345Y122374D01*
D02*
G37*
G36*
X60658Y84776D02*
X60648Y84869D01*
X60618Y84953D01*
X60569Y85027D01*
X60500Y85091D01*
X60412Y85145D01*
X60303Y85189D01*
X60175Y85223D01*
X60028Y85248D01*
X59860Y85263D01*
X59673Y85268D01*
Y86252D01*
X59860Y86257D01*
X60028Y86272D01*
X60175Y86296D01*
X60303Y86331D01*
X60412Y86375D01*
X60500Y86429D01*
X60569Y86493D01*
X60618Y86567D01*
X60648Y86651D01*
X60658Y86744D01*
Y84776D01*
D02*
G37*
G36*
X56754Y86651D02*
X56783Y86567D01*
X56832Y86493D01*
X56901Y86429D01*
X56990Y86375D01*
X57098Y86331D01*
X57226Y86296D01*
X57374Y86272D01*
X57541Y86257D01*
X57728Y86252D01*
Y85268D01*
X57541Y85263D01*
X57374Y85248D01*
X57226Y85223D01*
X57098Y85189D01*
X56990Y85145D01*
X56901Y85091D01*
X56832Y85027D01*
X56783Y84953D01*
X56754Y84869D01*
X56744Y84776D01*
Y86744D01*
X56754Y86651D01*
D02*
G37*
G36*
X72469Y84743D02*
X72378Y84727D01*
X72288Y84704D01*
X72199Y84673D01*
X72110Y84635D01*
X72021Y84590D01*
X71933Y84537D01*
X71846Y84477D01*
X71759Y84409D01*
X71672Y84334D01*
X71586Y84252D01*
X70777Y84835D01*
X70860Y84923D01*
X70932Y85011D01*
X70994Y85100D01*
X71045Y85188D01*
X71087Y85278D01*
X71118Y85367D01*
X71140Y85457D01*
X71151Y85548D01*
X71152Y85639D01*
X71142Y85731D01*
X72469Y84743D01*
D02*
G37*
G36*
X54651Y83892D02*
X54567Y83862D01*
X54493Y83813D01*
X54429Y83744D01*
X54375Y83656D01*
X54331Y83547D01*
X54296Y83420D01*
X54272Y83272D01*
X54257Y83104D01*
X54252Y82917D01*
X53268D01*
X53263Y83104D01*
X53248Y83272D01*
X53223Y83420D01*
X53189Y83547D01*
X53145Y83656D01*
X53091Y83744D01*
X53027Y83813D01*
X52953Y83862D01*
X52869Y83892D01*
X52776Y83902D01*
X54744D01*
X54651Y83892D01*
D02*
G37*
G36*
X54257Y76569D02*
X54272Y76401D01*
X54296Y76254D01*
X54331Y76126D01*
X54375Y76017D01*
X54429Y75929D01*
X54493Y75860D01*
X54567Y75811D01*
X54651Y75781D01*
X54744Y75771D01*
X52776D01*
X52869Y75781D01*
X52953Y75811D01*
X53027Y75860D01*
X53091Y75929D01*
X53145Y76017D01*
X53189Y76126D01*
X53223Y76254D01*
X53248Y76401D01*
X53263Y76569D01*
X53268Y76756D01*
X54252D01*
X54257Y76569D01*
D02*
G37*
G36*
X63105Y75771D02*
X62973Y75632D01*
X62855Y75493D01*
X62750Y75354D01*
X62660Y75215D01*
X62583Y75076D01*
X62521Y74936D01*
X62472Y74797D01*
X62437Y74658D01*
X62416Y74519D01*
X62409Y74379D01*
X61017Y75771D01*
X61156Y75778D01*
X61296Y75799D01*
X61435Y75834D01*
X61574Y75883D01*
X61713Y75946D01*
X61853Y76022D01*
X61992Y76113D01*
X62131Y76217D01*
X62270Y76335D01*
X62409Y76467D01*
X63105Y75771D01*
D02*
G37*
G36*
X54936Y72299D02*
X54957Y72159D01*
X54992Y72020D01*
X55040Y71881D01*
X55103Y71742D01*
X55180Y71603D01*
X55270Y71464D01*
X55374Y71324D01*
X55493Y71185D01*
X55625Y71046D01*
X54904Y70375D01*
X54765Y70507D01*
X54625Y70626D01*
X54486Y70730D01*
X54347Y70820D01*
X54208Y70897D01*
X54069Y70960D01*
X53929Y71008D01*
X53790Y71043D01*
X53651Y71064D01*
X53512Y71071D01*
X54929Y72438D01*
X54936Y72299D01*
D02*
G37*
G36*
X137833Y69232D02*
X137694Y69226D01*
X137555Y69205D01*
X137416Y69170D01*
X137276Y69121D01*
X137137Y69059D01*
X136998Y68982D01*
X136859Y68891D01*
X136720Y68787D01*
X136580Y68669D01*
X136441Y68537D01*
X135745Y69232D01*
X135877Y69372D01*
X135996Y69511D01*
X136100Y69650D01*
X136191Y69789D01*
X136267Y69928D01*
X136330Y70068D01*
X136379Y70207D01*
X136413Y70346D01*
X136434Y70485D01*
X136441Y70624D01*
X137833Y69232D01*
D02*
G37*
G36*
X117757Y70193D02*
X117897Y70075D01*
X118036Y69971D01*
X118175Y69880D01*
X118314Y69804D01*
X118454Y69741D01*
X118593Y69692D01*
X118732Y69658D01*
X118871Y69637D01*
X119010Y69630D01*
X117618Y68238D01*
X117611Y68377D01*
X117590Y68516D01*
X117556Y68655D01*
X117507Y68795D01*
X117444Y68934D01*
X117368Y69073D01*
X117277Y69212D01*
X117173Y69351D01*
X117055Y69490D01*
X116922Y69630D01*
X117618Y70326D01*
X117757Y70193D01*
D02*
G37*
G36*
X131892Y68623D02*
X131921Y68539D01*
X131970Y68466D01*
X132039Y68402D01*
X132128Y68347D01*
X132236Y68303D01*
X132364Y68269D01*
X132512Y68244D01*
X132679Y68229D01*
X132866Y68224D01*
Y67240D01*
X132679Y67235D01*
X132512Y67220D01*
X132364Y67196D01*
X132236Y67161D01*
X132128Y67117D01*
X132039Y67063D01*
X131970Y66999D01*
X131921Y66925D01*
X131892Y66842D01*
X131882Y66748D01*
Y68717D01*
X131892Y68623D01*
D02*
G37*
G36*
X126118Y66748D02*
X126109Y66842D01*
X126079Y66925D01*
X126030Y66999D01*
X125961Y67063D01*
X125872Y67117D01*
X125764Y67161D01*
X125636Y67196D01*
X125488Y67220D01*
X125321Y67235D01*
X125134Y67240D01*
Y68224D01*
X125321Y68229D01*
X125488Y68244D01*
X125636Y68269D01*
X125764Y68303D01*
X125872Y68347D01*
X125961Y68402D01*
X126030Y68466D01*
X126079Y68539D01*
X126109Y68623D01*
X126118Y68717D01*
Y66748D01*
D02*
G37*
G36*
X123391Y68623D02*
X123421Y68539D01*
X123470Y68466D01*
X123539Y68402D01*
X123628Y68347D01*
X123736Y68303D01*
X123864Y68269D01*
X124012Y68244D01*
X124179Y68229D01*
X124366Y68224D01*
Y67240D01*
X124179Y67235D01*
X124012Y67220D01*
X123864Y67196D01*
X123736Y67161D01*
X123628Y67117D01*
X123539Y67063D01*
X123470Y66999D01*
X123421Y66925D01*
X123391Y66842D01*
X123382Y66748D01*
Y68717D01*
X123391Y68623D01*
D02*
G37*
G36*
X121391Y65825D02*
X121307Y65795D01*
X121233Y65746D01*
X121169Y65677D01*
X121115Y65589D01*
X121071Y65481D01*
X121036Y65352D01*
X121012Y65205D01*
X120997Y65038D01*
X120992Y64851D01*
X120008D01*
X120003Y65038D01*
X119988Y65205D01*
X119964Y65352D01*
X119929Y65481D01*
X119885Y65589D01*
X119831Y65677D01*
X119767Y65746D01*
X119693Y65795D01*
X119609Y65825D01*
X119516Y65835D01*
X121484D01*
X121391Y65825D01*
D02*
G37*
G36*
X52591Y62594D02*
X52581Y62688D01*
X52551Y62772D01*
X52502Y62845D01*
X52433Y62910D01*
X52345Y62964D01*
X52236Y63008D01*
X52109Y63042D01*
X51961Y63067D01*
X51793Y63082D01*
X51607Y63087D01*
Y64071D01*
X51793Y64076D01*
X51961Y64091D01*
X52109Y64115D01*
X52236Y64150D01*
X52345Y64194D01*
X52433Y64248D01*
X52502Y64312D01*
X52551Y64386D01*
X52581Y64469D01*
X52591Y64563D01*
Y62594D01*
D02*
G37*
G36*
X120997Y61994D02*
X121012Y61827D01*
X121036Y61679D01*
X121071Y61551D01*
X121115Y61443D01*
X121169Y61354D01*
X121233Y61285D01*
X121307Y61236D01*
X121391Y61207D01*
X121484Y61197D01*
X119516D01*
X119609Y61207D01*
X119693Y61236D01*
X119767Y61285D01*
X119831Y61354D01*
X119885Y61443D01*
X119929Y61551D01*
X119964Y61679D01*
X119988Y61827D01*
X120003Y61994D01*
X120008Y62181D01*
X120992D01*
X120997Y61994D01*
D02*
G37*
G36*
X62416Y62481D02*
X62437Y62342D01*
X62472Y62203D01*
X62521Y62064D01*
X62583Y61924D01*
X62660Y61785D01*
X62750Y61646D01*
X62855Y61507D01*
X62973Y61368D01*
X63105Y61229D01*
X62409Y60533D01*
X62270Y60665D01*
X62131Y60783D01*
X61992Y60887D01*
X61853Y60978D01*
X61713Y61054D01*
X61574Y61117D01*
X61435Y61166D01*
X61296Y61201D01*
X61156Y61222D01*
X61017Y61229D01*
X62409Y62621D01*
X62416Y62481D01*
D02*
G37*
G36*
X117756Y58256D02*
X117746Y58349D01*
X117717Y58433D01*
X117667Y58507D01*
X117599Y58571D01*
X117510Y58625D01*
X117402Y58669D01*
X117274Y58704D01*
X117126Y58728D01*
X116959Y58743D01*
X116772Y58748D01*
Y59732D01*
X116959Y59737D01*
X117126Y59752D01*
X117274Y59777D01*
X117402Y59811D01*
X117510Y59855D01*
X117599Y59909D01*
X117667Y59973D01*
X117717Y60047D01*
X117746Y60131D01*
X117756Y60224D01*
Y58256D01*
D02*
G37*
G36*
X32343Y62655D02*
X32132Y62396D01*
X31944Y62063D01*
X31780Y61657D01*
X31638Y61177D01*
X31520Y60625D01*
X31425Y59999D01*
X31305Y58526D01*
X31277Y56761D01*
X25753Y62285D01*
X26672Y62287D01*
X28991Y62433D01*
X29617Y62528D01*
X30169Y62646D01*
X30649Y62787D01*
X31055Y62952D01*
X31388Y63140D01*
X31647Y63351D01*
X32343Y62655D01*
D02*
G37*
G36*
X97228Y53256D02*
X97219Y53349D01*
X97189Y53433D01*
X97140Y53507D01*
X97071Y53571D01*
X96983Y53625D01*
X96874Y53669D01*
X96746Y53704D01*
X96599Y53728D01*
X96431Y53743D01*
X96244Y53748D01*
Y54732D01*
X96431Y54737D01*
X96599Y54752D01*
X96746Y54777D01*
X96874Y54811D01*
X96983Y54855D01*
X97071Y54909D01*
X97140Y54973D01*
X97189Y55047D01*
X97219Y55131D01*
X97228Y55224D01*
Y53256D01*
D02*
G37*
G36*
X102625Y47929D02*
X102493Y47790D01*
X102374Y47651D01*
X102270Y47511D01*
X102180Y47372D01*
X102103Y47233D01*
X102040Y47094D01*
X101992Y46955D01*
X101957Y46815D01*
X101936Y46676D01*
X101929Y46537D01*
X100537Y47929D01*
X100676Y47936D01*
X100815Y47957D01*
X100955Y47992D01*
X101094Y48040D01*
X101233Y48103D01*
X101372Y48180D01*
X101511Y48270D01*
X101651Y48374D01*
X101790Y48493D01*
X101929Y48625D01*
X102625Y47929D01*
D02*
G37*
G36*
X97228Y45776D02*
X97219Y45869D01*
X97189Y45953D01*
X97140Y46027D01*
X97071Y46091D01*
X96983Y46145D01*
X96874Y46189D01*
X96746Y46223D01*
X96599Y46248D01*
X96431Y46263D01*
X96244Y46268D01*
Y47252D01*
X96431Y47257D01*
X96599Y47272D01*
X96746Y47296D01*
X96874Y47331D01*
X96983Y47375D01*
X97071Y47429D01*
X97140Y47493D01*
X97189Y47567D01*
X97219Y47651D01*
X97228Y47744D01*
Y45776D01*
D02*
G37*
G36*
X82117Y34075D02*
X82219Y33707D01*
X82390Y33303D01*
X82629Y32864D01*
X82936Y32389D01*
X83312Y31879D01*
X84268Y30753D01*
X85497Y29485D01*
X77684D01*
X78333Y30137D01*
X79869Y31879D01*
X80245Y32389D01*
X80552Y32864D01*
X80791Y33303D01*
X80962Y33707D01*
X81064Y34075D01*
X81098Y34407D01*
X82083D01*
X82117Y34075D01*
D02*
G37*
G36*
X54763Y129088D02*
X54706Y129014D01*
X54656Y128934D01*
X54613Y128849D01*
X54576Y128758D01*
X54546Y128661D01*
X54522Y128559D01*
X54505Y128451D01*
X54496Y128337D01*
X54492Y128218D01*
X53508D01*
X53505Y128337D01*
X53495Y128451D01*
X53478Y128559D01*
X53454Y128661D01*
X53424Y128758D01*
X53387Y128849D01*
X53344Y128934D01*
X53294Y129014D01*
X53237Y129088D01*
X53173Y129156D01*
X54827D01*
X54763Y129088D01*
D02*
G37*
G36*
X54497Y124541D02*
X54512Y124374D01*
X54536Y124226D01*
X54571Y124098D01*
X54615Y123990D01*
X54669Y123901D01*
X54733Y123832D01*
X54807Y123783D01*
X54891Y123754D01*
X54984Y123744D01*
X53016D01*
X53109Y123754D01*
X53193Y123783D01*
X53267Y123832D01*
X53331Y123901D01*
X53385Y123990D01*
X53429Y124098D01*
X53464Y124226D01*
X53488Y124374D01*
X53503Y124541D01*
X53508Y124728D01*
X54492D01*
X54497Y124541D01*
D02*
G37*
G36*
X55651Y118246D02*
X55567Y118217D01*
X55493Y118167D01*
X55429Y118099D01*
X55375Y118010D01*
X55331Y117902D01*
X55296Y117774D01*
X55272Y117626D01*
X55257Y117459D01*
X55252Y117272D01*
X54268D01*
X54263Y117459D01*
X54248Y117626D01*
X54223Y117774D01*
X54189Y117902D01*
X54145Y118010D01*
X54090Y118099D01*
X54027Y118167D01*
X53953Y118217D01*
X53869Y118246D01*
X53776Y118256D01*
X55744D01*
X55651Y118246D01*
D02*
G37*
G36*
X55257Y106966D02*
X55272Y106799D01*
X55296Y106651D01*
X55331Y106523D01*
X55375Y106415D01*
X55429Y106327D01*
X55493Y106258D01*
X55567Y106209D01*
X55651Y106179D01*
X55744Y106169D01*
X53776D01*
X53869Y106179D01*
X53953Y106209D01*
X54027Y106258D01*
X54090Y106327D01*
X54145Y106415D01*
X54189Y106523D01*
X54223Y106651D01*
X54248Y106799D01*
X54263Y106966D01*
X54268Y107153D01*
X55252D01*
X55257Y106966D01*
D02*
G37*
G36*
X64222Y100041D02*
X64138Y100012D01*
X64064Y99963D01*
X64000Y99894D01*
X63946Y99805D01*
X63902Y99697D01*
X63867Y99569D01*
X63842Y99422D01*
X63828Y99254D01*
X63823Y99067D01*
X62839D01*
X62834Y99254D01*
X62819Y99422D01*
X62794Y99569D01*
X62760Y99697D01*
X62716Y99805D01*
X62661Y99894D01*
X62597Y99963D01*
X62524Y100012D01*
X62440Y100041D01*
X62347Y100051D01*
X64315D01*
X64222Y100041D01*
D02*
G37*
G36*
X63828Y95994D02*
X63842Y95827D01*
X63867Y95679D01*
X63902Y95551D01*
X63946Y95443D01*
X64000Y95354D01*
X64064Y95285D01*
X64138Y95236D01*
X64222Y95206D01*
X64315Y95197D01*
X62347D01*
X62440Y95206D01*
X62524Y95236D01*
X62597Y95285D01*
X62661Y95354D01*
X62716Y95443D01*
X62760Y95551D01*
X62794Y95679D01*
X62819Y95827D01*
X62834Y95994D01*
X62839Y96181D01*
X63823D01*
X63828Y95994D01*
D02*
G37*
G36*
X125185Y85395D02*
X125197Y85302D01*
X125217Y85210D01*
X125247Y85119D01*
X125285Y85029D01*
X125333Y84939D01*
X125388Y84850D01*
X125453Y84762D01*
X125526Y84674D01*
X125608Y84588D01*
X124912Y83892D01*
X124826Y83974D01*
X124738Y84047D01*
X124650Y84112D01*
X124561Y84167D01*
X124471Y84215D01*
X124381Y84253D01*
X124290Y84282D01*
X124198Y84303D01*
X124105Y84316D01*
X124012Y84319D01*
X125181Y85488D01*
X125185Y85395D01*
D02*
G37*
G36*
X136441Y79516D02*
X136431Y79609D01*
X136402Y79693D01*
X136353Y79767D01*
X136284Y79831D01*
X136195Y79885D01*
X136087Y79929D01*
X135959Y79964D01*
X135811Y79988D01*
X135644Y80003D01*
X135457Y80008D01*
Y80992D01*
X135644Y80997D01*
X135811Y81012D01*
X135959Y81036D01*
X136087Y81071D01*
X136195Y81115D01*
X136284Y81169D01*
X136353Y81233D01*
X136402Y81307D01*
X136431Y81391D01*
X136441Y81484D01*
Y79516D01*
D02*
G37*
G36*
X143710Y81220D02*
X143737Y81148D01*
X143783Y81085D01*
X143846Y81031D01*
X143929Y80985D01*
X144029Y80947D01*
X144147Y80918D01*
X144284Y80897D01*
X144439Y80884D01*
X144612Y80880D01*
Y79896D01*
X144439Y79891D01*
X144284Y79879D01*
X144147Y79858D01*
X144029Y79828D01*
X143929Y79791D01*
X143846Y79744D01*
X143783Y79690D01*
X143737Y79627D01*
X143710Y79556D01*
X143701Y79476D01*
Y81299D01*
X143710Y81220D01*
D02*
G37*
G36*
X123254Y52651D02*
X123283Y52567D01*
X123333Y52493D01*
X123401Y52429D01*
X123490Y52375D01*
X123598Y52331D01*
X123726Y52296D01*
X123874Y52272D01*
X124041Y52257D01*
X124228Y52252D01*
Y51268D01*
X124041Y51263D01*
X123874Y51248D01*
X123726Y51223D01*
X123598Y51189D01*
X123490Y51145D01*
X123401Y51091D01*
X123333Y51027D01*
X123283Y50953D01*
X123254Y50869D01*
X123244Y50776D01*
Y52744D01*
X123254Y52651D01*
D02*
G37*
G36*
X117756Y49803D02*
X117746Y49842D01*
X117717Y49877D01*
X117667Y49908D01*
X117599Y49934D01*
X117510Y49957D01*
X117402Y49975D01*
X117274Y49990D01*
X116959Y50006D01*
X116772Y50008D01*
Y50992D01*
X116959Y50997D01*
X117126Y51012D01*
X117274Y51036D01*
X117402Y51071D01*
X117510Y51115D01*
X117599Y51169D01*
X117667Y51233D01*
X117717Y51307D01*
X117746Y51391D01*
X117756Y51484D01*
Y49803D01*
D02*
G37*
G36*
X111781Y51391D02*
X111811Y51307D01*
X111860Y51233D01*
X111929Y51169D01*
X112018Y51115D01*
X112126Y51071D01*
X112254Y51036D01*
X112401Y51012D01*
X112569Y50997D01*
X112756Y50992D01*
Y50008D01*
X112569Y50003D01*
X112401Y49988D01*
X112254Y49964D01*
X112126Y49929D01*
X112018Y49885D01*
X111929Y49831D01*
X111860Y49767D01*
X111811Y49693D01*
X111781Y49609D01*
X111772Y49516D01*
Y51484D01*
X111781Y51391D01*
D02*
G37*
D14*
X63831Y101221D02*
D03*
Y108780D02*
D03*
X55169Y105000D02*
D03*
D15*
X54000Y93240D02*
D03*
Y85760D02*
D03*
D16*
X109421Y46760D02*
D03*
Y50500D02*
D03*
Y54240D02*
D03*
X99579D02*
D03*
Y46760D02*
D03*
D17*
X63500Y93240D02*
D03*
Y85760D02*
D03*
D18*
X61240Y73421D02*
D03*
X57500D02*
D03*
X53760D02*
D03*
Y63579D02*
D03*
X57500D02*
D03*
X61240D02*
D03*
D19*
X140071Y80500D02*
D03*
Y85500D02*
D03*
Y75500D02*
D03*
Y70500D02*
D03*
X182000Y85500D02*
D03*
Y80500D02*
D03*
Y75500D02*
D03*
Y70500D02*
D03*
D20*
X120500Y51760D02*
D03*
Y59240D02*
D03*
X98000Y139740D02*
D03*
Y132260D02*
D03*
D21*
X95500Y172000D02*
D03*
X108886D02*
D03*
D22*
X62240Y121000D02*
D03*
X54760D02*
D03*
D23*
X211013Y84248D02*
D03*
Y72437D02*
D03*
D24*
X239291Y47500D02*
D03*
X250709D02*
D03*
X260291D02*
D03*
X271709D02*
D03*
X271709Y25500D02*
D03*
X260291D02*
D03*
X250709D02*
D03*
X239291D02*
D03*
D25*
X116028Y135760D02*
D03*
Y143240D02*
D03*
X106972Y139500D02*
D03*
D26*
X77689Y146500D02*
D03*
X71311D02*
D03*
X183811Y95000D02*
D03*
X190189D02*
D03*
D27*
X133500Y123189D02*
D03*
Y116811D02*
D03*
X190000Y124189D02*
D03*
Y117811D02*
D03*
X192753Y78090D02*
D03*
Y84468D02*
D03*
X129000Y67811D02*
D03*
Y74189D02*
D03*
D28*
X123500Y116260D02*
D03*
Y123740D02*
D03*
D29*
X199500Y124287D02*
D03*
Y117752D02*
D03*
X124500Y136732D02*
D03*
Y143268D02*
D03*
X202253Y78011D02*
D03*
Y84547D02*
D03*
X120500Y67732D02*
D03*
Y74268D02*
D03*
D30*
X108732Y128000D02*
D03*
X115268D02*
D03*
D31*
X62933Y136779D02*
D03*
Y134221D02*
D03*
X86067Y131661D02*
D03*
Y134221D02*
D03*
Y136779D02*
D03*
X62933Y139339D02*
D03*
Y131661D02*
D03*
X86067Y139339D02*
D03*
D32*
X142500Y118500D02*
D03*
Y133500D02*
D03*
Y128500D02*
D03*
Y123500D02*
D03*
X179602Y118500D02*
D03*
Y133500D02*
D03*
Y123500D02*
D03*
Y128500D02*
D03*
D33*
X26000Y99512D02*
D03*
Y138488D02*
D03*
D34*
X78957Y121000D02*
D03*
X86043D02*
D03*
D35*
X98000Y117957D02*
D03*
Y125004D02*
D03*
D36*
X180874Y106000D02*
D03*
X190126D02*
D03*
D37*
X231000Y84405D02*
D03*
Y72594D02*
D03*
D66*
X54000Y85760D02*
X63500D01*
X72309Y85671D02*
Y85913D01*
X61240Y74602D02*
X72309Y85671D01*
X61240Y73421D02*
Y74602D01*
X53760Y73421D02*
Y85520D01*
X54000Y85760D01*
X53760Y73421D02*
X54449Y72732D01*
Y71526D02*
Y72732D01*
Y71526D02*
X56475Y69500D01*
X78099D01*
X93359Y54240D01*
X99579D01*
X129000Y80500D02*
X140071D01*
X140183Y80388D02*
X144612D01*
X140071Y80500D02*
X140183Y80388D01*
X124000Y85500D02*
X129000Y80500D01*
X144612Y80388D02*
X148000Y77000D01*
Y62000D02*
Y77000D01*
X137760Y51760D02*
X148000Y62000D01*
X120500Y51760D02*
X137760D01*
X119240Y50500D02*
X120500Y51760D01*
X109421Y50500D02*
X119240D01*
X58500Y66500D02*
X59500Y67500D01*
X74000D01*
X94740Y46760D01*
X58500Y66475D02*
Y66500D01*
X58189Y64268D02*
Y66164D01*
X58500Y66475D01*
X94740Y46760D02*
X100760D01*
X57500Y63579D02*
X58189Y64268D01*
X284000Y103909D02*
Y119500D01*
X184362Y85500D02*
X202300D01*
X223095Y133500D02*
X251594Y105000D01*
X282909D01*
X234164Y86177D02*
Y87569D01*
X231000Y84405D02*
X232392D01*
X234164Y86177D01*
X179602Y133500D02*
X223095D01*
X234164Y87569D02*
X251594Y105000D01*
X282909D02*
X284000Y103909D01*
X202300Y85500D02*
X202753Y85047D01*
X182112Y118500D02*
X199252D01*
X250709Y47500D02*
X260291D01*
X271709Y47500D02*
X271709Y47500D01*
X271709Y25500D02*
Y47500D01*
X81591Y25500D02*
Y42047D01*
X61240Y62398D02*
X81591Y42047D01*
X61240Y62398D02*
Y63579D01*
X114500Y72748D02*
Y115921D01*
X122319Y123740D01*
X114500Y72748D02*
X119516Y67732D01*
X100760Y46760D02*
X104500Y50500D01*
Y55500D01*
X133500Y123620D02*
X142380D01*
X123620D02*
X133500D01*
X129000Y67732D02*
X134941D01*
X120500D02*
X129000D01*
X25697Y56705D02*
X32571Y63579D01*
X53760D01*
X63331Y93410D02*
X63500Y93240D01*
X63331Y93410D02*
Y101260D01*
X54669Y105000D02*
X54760Y105091D01*
Y121000D01*
X120500Y59240D02*
Y67732D01*
X119516D02*
X120500D01*
X122319Y123740D02*
X123500D01*
X124472Y143240D02*
X124500Y143268D01*
X116028Y143240D02*
X124472D01*
X124500Y143268D02*
X125484D01*
X126902Y141850D01*
Y141589D02*
Y141850D01*
Y141589D02*
X139990Y128500D01*
X142500D01*
Y123500D02*
Y128500D01*
X123500Y123740D02*
X123620Y123620D01*
X142380D02*
X142500Y123500D01*
X106972Y139500D02*
X108043D01*
X108732Y138811D01*
Y128000D02*
Y138811D01*
X98240Y139500D02*
X106972D01*
X98000Y139740D02*
X98240Y139500D01*
X98000Y125004D02*
Y132260D01*
X97213D02*
X98000D01*
X95252Y134221D02*
X97213Y132260D01*
X86067Y134221D02*
X95252D01*
X72000Y172000D02*
X95500D01*
X86067Y139339D02*
X98000D01*
X77689Y146500D02*
Y147386D01*
X71114Y153961D02*
X77689Y147386D01*
X71114Y153961D02*
Y171114D01*
X72000Y172000D01*
X104500Y55500D02*
X108240Y59240D01*
X120500D01*
X62240Y121000D02*
X62933Y121693D01*
Y131661D01*
X78927Y139339D02*
X83656D01*
X54000Y121760D02*
X54760Y121000D01*
X54000Y121760D02*
Y130000D01*
X83656Y139732D02*
X84049Y139339D01*
X83656Y139732D02*
Y140648D01*
X77689Y146614D02*
X83656Y140648D01*
X54000Y137000D02*
X54110Y136890D01*
X62823D02*
X62933Y136779D01*
X54110Y136890D02*
X62823D01*
X71250Y131661D02*
X78927Y139339D01*
X62933Y131661D02*
X71250D01*
X134941Y67732D02*
X137709Y70500D01*
X140071D01*
X86067Y134221D02*
Y136779D01*
X86043Y121000D02*
X86067Y121024D01*
Y131661D01*
X26000Y138488D02*
X26394D01*
X30661Y134221D01*
X62933D01*
X198516Y117752D02*
X199500D01*
X202253Y84547D02*
X210714D01*
X199252Y118500D02*
X199500Y118252D01*
X197098Y113465D02*
Y116335D01*
X198516Y117752D01*
X190126Y95063D02*
Y106000D01*
Y95063D02*
X190189Y95000D01*
X190126Y106000D02*
Y106492D01*
X210714Y84547D02*
X211013Y84248D01*
X182112Y118500D02*
X182900Y117713D01*
X179602Y118500D02*
X182112D01*
X177093Y133500D02*
X179602D01*
X172500Y123092D02*
Y128908D01*
X177093Y133500D01*
Y118500D02*
X179602D01*
X172500Y123092D02*
X177093Y118500D01*
X190126Y106492D02*
X197098Y113465D01*
X188673Y93484D02*
X190189Y95000D01*
X188673Y89811D02*
Y93484D01*
X184362Y85500D02*
X188673Y89811D01*
X182000Y85500D02*
X184362D01*
X183811Y94114D02*
Y95000D01*
X175500Y86689D02*
X181409Y92598D01*
X182295D01*
X175500Y84638D02*
Y86689D01*
X182295Y92598D02*
X183811Y94114D01*
X175500Y84638D02*
X179638Y80500D01*
X182000D01*
X250709Y25500D02*
X260291D01*
D67*
X230842Y57229D02*
X239291Y48779D01*
Y47500D02*
Y48779D01*
X183811Y95000D02*
Y95886D01*
X180874Y98823D02*
X183811Y95886D01*
X180874Y98823D02*
Y106000D01*
X199409Y25500D02*
X215000D01*
X230842Y57229D02*
Y72437D01*
X215000Y25500D02*
X239291D01*
X211013Y72437D02*
X230842D01*
X209930D02*
X211013D01*
X201494Y64000D02*
X209930Y72437D01*
X176500Y64000D02*
X201494D01*
X173000Y67500D02*
X176500Y64000D01*
X173000Y67500D02*
Y74000D01*
X174500Y75500D01*
X182000D01*
X214011Y78011D02*
X218500Y82500D01*
X202253Y78011D02*
X214011D01*
X218500Y82500D02*
Y106272D01*
X200484Y124287D02*
X218500Y106272D01*
X199500Y124287D02*
X200484D01*
X190352Y75688D02*
Y76574D01*
X182000Y70500D02*
X182787Y71287D01*
X185951D01*
X190352Y76574D02*
X191868Y78090D01*
X185951Y71287D02*
X190352Y75688D01*
X191868Y78090D02*
X192753D01*
X192753D02*
X202175D01*
X202253Y78011D01*
X179602Y123500D02*
Y128500D01*
Y123500D02*
X199213D01*
X199500Y123787D01*
D68*
X115500Y127858D02*
X115642Y128000D01*
Y128492D01*
D69*
X290551Y178500D02*
D03*
X17500Y18000D02*
D03*
Y178000D02*
D03*
X290551Y18500D02*
D03*
D70*
X270614Y99657D02*
D03*
X195158Y38886D02*
D03*
X39083Y76547D02*
D03*
X61748Y38886D02*
D03*
X76252Y158614D02*
D03*
D71*
X284000Y119500D02*
D03*
Y103909D02*
D03*
X215000Y25500D02*
D03*
X199409D02*
D03*
X25697Y56705D02*
D03*
Y72295D02*
D03*
X81591Y25500D02*
D03*
X66000D02*
D03*
X56409Y172000D02*
D03*
X72000D02*
D03*
D72*
X72309Y85913D02*
D03*
X124000Y85500D02*
D03*
X54000Y130000D02*
D03*
Y137000D02*
D03*
D73*
X71260Y65354D02*
D03*
X136220Y148031D02*
D03*
X142126Y112598D02*
D03*
X136220Y100787D02*
D03*
X142126Y65354D02*
D03*
X130315Y159842D02*
D03*
X124409Y148031D02*
D03*
X130315Y112598D02*
D03*
X124409Y100787D02*
D03*
X130315Y88976D02*
D03*
Y41732D02*
D03*
X118504Y183465D02*
D03*
Y159842D02*
D03*
X112598Y148031D02*
D03*
X118504Y112598D02*
D03*
X112598Y100787D02*
D03*
X118504Y88976D02*
D03*
X112598Y77165D02*
D03*
X118504Y41732D02*
D03*
X112598Y29921D02*
D03*
X118504Y18110D02*
D03*
X112598Y6299D02*
D03*
X106693Y183465D02*
D03*
Y159842D02*
D03*
X100787Y148031D02*
D03*
X106693Y112598D02*
D03*
X100787Y100787D02*
D03*
X106693Y88976D02*
D03*
X100787Y77165D02*
D03*
X106693Y65354D02*
D03*
Y41732D02*
D03*
X100787Y29921D02*
D03*
X106693Y18110D02*
D03*
X100787Y6299D02*
D03*
X94882Y183465D02*
D03*
Y159842D02*
D03*
X88976Y148031D02*
D03*
X94882Y112598D02*
D03*
X88976Y100787D02*
D03*
X94882Y88976D02*
D03*
X88976Y77165D02*
D03*
X94882Y65354D02*
D03*
Y41732D02*
D03*
X88976Y29921D02*
D03*
X94882Y18110D02*
D03*
X88976Y6299D02*
D03*
X83071Y183465D02*
D03*
Y159842D02*
D03*
Y112598D02*
D03*
X77165Y100787D02*
D03*
X83071Y88976D02*
D03*
X77165Y77165D02*
D03*
Y53543D02*
D03*
X83071Y18110D02*
D03*
X77165Y6299D02*
D03*
X71260Y183465D02*
D03*
X65354Y148031D02*
D03*
X71260Y136220D02*
D03*
Y112598D02*
D03*
X65354Y53543D02*
D03*
X71260Y41732D02*
D03*
Y18110D02*
D03*
X65354Y6299D02*
D03*
X59449Y183465D02*
D03*
Y159842D02*
D03*
X53543Y148031D02*
D03*
Y53543D02*
D03*
Y29921D02*
D03*
X59449Y18110D02*
D03*
X53543Y6299D02*
D03*
X47638Y183465D02*
D03*
X41732Y171653D02*
D03*
X47638Y159842D02*
D03*
X41732Y148031D02*
D03*
X47638Y136220D02*
D03*
X41732Y124409D02*
D03*
X47638Y112598D02*
D03*
X41732Y100787D02*
D03*
X47638Y88976D02*
D03*
X41732Y53543D02*
D03*
X47638Y41732D02*
D03*
X41732Y29921D02*
D03*
X47638Y18110D02*
D03*
X41732Y6299D02*
D03*
X35827Y183465D02*
D03*
X29921Y171653D02*
D03*
X35827Y159842D02*
D03*
X29921Y148031D02*
D03*
X35827Y136220D02*
D03*
X29921Y124409D02*
D03*
X35827Y112598D02*
D03*
Y88976D02*
D03*
Y41732D02*
D03*
X29921Y29921D02*
D03*
X35827Y18110D02*
D03*
X29921Y6299D02*
D03*
X24016Y159842D02*
D03*
X18110Y148031D02*
D03*
Y124409D02*
D03*
X24016Y112598D02*
D03*
X18110Y100787D02*
D03*
X24016Y88976D02*
D03*
X18110Y77165D02*
D03*
X24016Y41732D02*
D03*
X18110Y29921D02*
D03*
Y6299D02*
D03*
X6299Y171653D02*
D03*
X12205Y159842D02*
D03*
X6299Y148031D02*
D03*
X12205Y136220D02*
D03*
X6299Y124409D02*
D03*
X12205Y112598D02*
D03*
X6299Y100787D02*
D03*
X12205Y88976D02*
D03*
X6299Y77165D02*
D03*
X12205Y65354D02*
D03*
X6299Y53543D02*
D03*
X12205Y41732D02*
D03*
X6299Y29921D02*
D03*
M02*
