M48
;Layer_Color=9474304
;FILE_FORMAT=2:5
INCH
;TYPE=PLATED
T01F00S00C0.00787
T02F00S00C0.01181
T03F00S00C0.07441
T04F00S00C0.13189
%
T01
X0118110Y0106299
X0129921
X0141732
X0153543
X0147638Y0118110
X0135827
X0141732Y0129921
X0153543
X0147638Y0141732
X0135827
X0124016
X0112205
X0118110Y0129921
X0129921
X0106299
Y0153543
X0141732
X0153543
X0165354
X0177165
X0171260Y0141732
X0194882
X0206693
X0218504
X0230315
X0212598Y0129921
X0200787
X0188976
X0194882Y0118110
X0206693
X0218504
X0212598Y0106299
X0200787
X0188976
X0177165
X0165354
X0171260Y0118110
X0183071
X0159449
X0171260Y0165354
X0177165Y0177165
X0188976
X0200787
X0212598
X0218504Y0188976
X0230315
X0236220Y0200787
X0224409
X0212598
X0200787
X0188976
X0177165
X0183071Y0212598
X0194882
X0206693
X0218504
X0230315
X0242126
X0236220Y0248031
X0224409
X0212598
X0200787
X0188976
X0194882Y0259842
X0206693
X0218504
X0230315
X0218504Y0283465
X0206693
X0194882
X0183071
X0171260
X0159449
Y0259842
X0165354Y0248031
X0171260Y0236220
Y0212598
X0183071Y0188976
X0194882
X0206693
Y0165354
X0194882
X0242126
X0183071Y0259842
X0147638
X0135827
X0124016
X0112205
X0118110Y0248031
X0129921
X0141732
X0153543
X0147638Y0236220
X0135827
X0141732Y0224409
X0129921
X0118110
X0106299
X0112205Y0236220
X0106299Y0248031
Y0271654
X0129921
X0141732
X0147638Y0283465
X0135827
Y0212598
X0147638
X0141732Y0200787
X0147638Y0188976
X0135827
X0124016
X0112205
X0118110Y0200787
X0106299
X0112205Y0212598
X0124016
X0118110Y0177165
X0106299
X0112205Y0165354
T02
X0172309Y0185914
X0224000Y0185500
X0154000Y0230000
Y0237000
T03
X0166000Y0125500
X0181591
X0299409
X0315000
X0384000Y0203909
Y0219500
X0172000Y0272000
X0156409
X0125697Y0172295
Y0156705
T04
X0117500Y0118000
X0390551Y0118500
Y0278500
X0117500Y0278000
M30
