G04*
G04 #@! TF.GenerationSoftware,Altium Limited,Altium Designer,26.1.1 (7)*
G04*
G04 Layer_Physical_Order=2*
G04 Layer_Color=16711680*
%FSLAX25Y25*%
%MOIN*%
G70*
G04*
G04 #@! TF.SameCoordinates,7362D28E-EC93-4AAC-8203-6D5706C73221*
G04*
G04*
G04 #@! TF.FilePolarity,Positive*
G04*
G01*
G75*
%ADD66C,0.00984*%
%ADD69C,0.06000*%
%ADD70C,0.03661*%
%ADD71C,0.11161*%
%ADD72C,0.02362*%
%ADD73C,0.01772*%
G36*
X121169Y195697D02*
Y176293D01*
X121331Y174651D01*
X121810Y173073D01*
X122588Y171618D01*
X123634Y170343D01*
X152170Y141807D01*
Y58778D01*
X123634Y30243D01*
X122588Y28967D01*
X121810Y27513D01*
X121331Y25934D01*
X121169Y24293D01*
Y945D01*
X21999Y803D01*
X20611D01*
X17856Y1165D01*
X15172Y1885D01*
X12605Y2948D01*
X10198Y4337D01*
X7994Y6029D01*
X6029Y7994D01*
X4337Y10198D01*
X2948Y12605D01*
X1885Y15172D01*
X1166Y17856D01*
X803Y20611D01*
X803Y22000D01*
Y22000D01*
D01*
X803Y174500D01*
Y175889D01*
X1166Y178644D01*
X1885Y181328D01*
X2948Y183895D01*
X4337Y186302D01*
X6029Y188506D01*
X7994Y190471D01*
X10198Y192163D01*
X12605Y193552D01*
X15172Y194615D01*
X17856Y195334D01*
X20611Y195697D01*
X22000Y195697D01*
X121169D01*
D02*
G37*
%LPC*%
G36*
X57008Y178081D02*
X56659D01*
Y172250D01*
X62490D01*
Y172599D01*
X62256Y173774D01*
X61798Y174880D01*
X61133Y175876D01*
X60286Y176723D01*
X59290Y177389D01*
X58183Y177847D01*
X57008Y178081D01*
D02*
G37*
G36*
X56159D02*
X55810D01*
X54636Y177847D01*
X53529Y177389D01*
X52533Y176723D01*
X51686Y175876D01*
X51021Y174880D01*
X50562Y173774D01*
X50329Y172599D01*
Y172250D01*
X56159D01*
Y178081D01*
D02*
G37*
G36*
X18246Y185579D02*
X16754D01*
X15289Y185287D01*
X13910Y184716D01*
X12669Y183887D01*
X11613Y182831D01*
X10784Y181590D01*
X10212Y180211D01*
X9921Y178746D01*
Y177254D01*
X10212Y175789D01*
X10784Y174410D01*
X11613Y173169D01*
X12669Y172113D01*
X13910Y171284D01*
X15289Y170712D01*
X16754Y170421D01*
X18246D01*
X19711Y170712D01*
X21090Y171284D01*
X22331Y172113D01*
X23387Y173169D01*
X24216Y174410D01*
X24788Y175789D01*
X25079Y177254D01*
Y178746D01*
X24788Y180211D01*
X24216Y181590D01*
X23387Y182831D01*
X22331Y183887D01*
X21090Y184716D01*
X19711Y185287D01*
X18246Y185579D01*
D02*
G37*
G36*
X72599Y178081D02*
X71401D01*
X70226Y177847D01*
X69120Y177389D01*
X68124Y176723D01*
X67277Y175876D01*
X66611Y174880D01*
X66153Y173774D01*
X65919Y172599D01*
Y171401D01*
X66153Y170226D01*
X66611Y169120D01*
X67277Y168124D01*
X68124Y167277D01*
X69120Y166611D01*
X70226Y166153D01*
X71401Y165919D01*
X72599D01*
X73774Y166153D01*
X74880Y166611D01*
X75876Y167277D01*
X76723Y168124D01*
X77389Y169120D01*
X77847Y170226D01*
X78081Y171401D01*
Y172599D01*
X77847Y173774D01*
X77389Y174880D01*
X76723Y175876D01*
X75876Y176723D01*
X74880Y177389D01*
X73774Y177847D01*
X72599Y178081D01*
D02*
G37*
G36*
X62490Y171750D02*
X56659D01*
Y165919D01*
X57008D01*
X58183Y166153D01*
X59290Y166611D01*
X60286Y167277D01*
X61133Y168124D01*
X61798Y169120D01*
X62256Y170226D01*
X62490Y171401D01*
Y171750D01*
D02*
G37*
G36*
X56159D02*
X50329D01*
Y171401D01*
X50562Y170226D01*
X51021Y169120D01*
X51686Y168124D01*
X52533Y167277D01*
X53529Y166611D01*
X54636Y166153D01*
X55810Y165919D01*
X56159D01*
Y171750D01*
D02*
G37*
G36*
X76864Y163260D02*
X75640D01*
X74459Y162943D01*
X73400Y162332D01*
X72535Y161467D01*
X71923Y160407D01*
X71606Y159226D01*
Y158003D01*
X71923Y156821D01*
X72535Y155762D01*
X73400Y154897D01*
X74459Y154285D01*
X75640Y153969D01*
X76864D01*
X78045Y154285D01*
X79105Y154897D01*
X79969Y155762D01*
X80581Y156821D01*
X80898Y158003D01*
Y159226D01*
X80581Y160407D01*
X79969Y161467D01*
X79105Y162332D01*
X78045Y162943D01*
X76864Y163260D01*
D02*
G37*
G36*
X54334Y138681D02*
X53666D01*
X53048Y138425D01*
X52575Y137952D01*
X52319Y137334D01*
Y136666D01*
X52575Y136048D01*
X52743Y135880D01*
X52777Y135788D01*
X52823Y135738D01*
X52849Y135704D01*
X52873Y135667D01*
X52894Y135624D01*
X52914Y135576D01*
X52931Y135520D01*
X52946Y135457D01*
X52957Y135385D01*
X52964Y135306D01*
X52967Y135203D01*
X52988Y135154D01*
Y131846D01*
X52967Y131798D01*
X52964Y131694D01*
X52957Y131615D01*
X52946Y131543D01*
X52931Y131480D01*
X52914Y131424D01*
X52895Y131376D01*
X52873Y131333D01*
X52849Y131296D01*
X52823Y131262D01*
X52777Y131212D01*
X52743Y131120D01*
X52575Y130952D01*
X52319Y130334D01*
Y129666D01*
X52575Y129048D01*
X53048Y128575D01*
X53666Y128319D01*
X54334D01*
X54952Y128575D01*
X55425Y129048D01*
X55681Y129666D01*
Y130334D01*
X55425Y130952D01*
X55257Y131120D01*
X55223Y131212D01*
X55177Y131262D01*
X55151Y131296D01*
X55127Y131333D01*
X55106Y131376D01*
X55086Y131424D01*
X55069Y131480D01*
X55054Y131543D01*
X55043Y131615D01*
X55036Y131694D01*
X55033Y131798D01*
X55012Y131846D01*
Y135154D01*
X55033Y135203D01*
X55036Y135306D01*
X55043Y135385D01*
X55054Y135457D01*
X55069Y135520D01*
X55086Y135576D01*
X55106Y135624D01*
X55127Y135667D01*
X55151Y135704D01*
X55177Y135738D01*
X55223Y135788D01*
X55257Y135880D01*
X55425Y136048D01*
X55681Y136666D01*
Y137334D01*
X55425Y137952D01*
X54952Y138425D01*
X54334Y138681D01*
D02*
G37*
G36*
X72644Y87595D02*
X71975D01*
X71357Y87339D01*
X70884Y86866D01*
X70628Y86248D01*
Y85579D01*
X70884Y84961D01*
X71357Y84488D01*
X71975Y84232D01*
X72644D01*
X73261Y84488D01*
X73268Y84495D01*
X73292Y84499D01*
X73351Y84538D01*
X73396Y84563D01*
X73447Y84586D01*
X73502Y84607D01*
X73564Y84626D01*
X73632Y84642D01*
X73700Y84654D01*
X73882Y84671D01*
X73982Y84674D01*
X74031Y84695D01*
X122023D01*
X122041Y84684D01*
X122086Y84693D01*
X122128Y84674D01*
X122230Y84671D01*
X122303Y84663D01*
X122366Y84652D01*
X122417Y84638D01*
X122459Y84622D01*
X122492Y84606D01*
X122518Y84589D01*
X122540Y84571D01*
X122559Y84552D01*
X122596Y84504D01*
X122650Y84473D01*
X123048Y84075D01*
X123666Y83819D01*
X124334D01*
X124952Y84075D01*
X125425Y84548D01*
X125681Y85166D01*
Y85834D01*
X125425Y86452D01*
X124952Y86925D01*
X124334Y87181D01*
X123666D01*
X123048Y86925D01*
X123041Y86919D01*
X123017Y86914D01*
X122959Y86875D01*
X122913Y86850D01*
X122863Y86827D01*
X122807Y86806D01*
X122745Y86787D01*
X122677Y86771D01*
X122609Y86759D01*
X122427Y86742D01*
X122327Y86740D01*
X122278Y86718D01*
X74286D01*
X74269Y86730D01*
X74223Y86721D01*
X74181Y86740D01*
X74080Y86743D01*
X74006Y86751D01*
X73943Y86762D01*
X73892Y86776D01*
X73850Y86791D01*
X73817Y86808D01*
X73791Y86824D01*
X73769Y86842D01*
X73750Y86862D01*
X73713Y86910D01*
X73659Y86941D01*
X73261Y87339D01*
X72644Y87595D01*
D02*
G37*
G36*
X26296Y78376D02*
X25947D01*
Y72545D01*
X31778D01*
Y72894D01*
X31544Y74069D01*
X31086Y75176D01*
X30420Y76171D01*
X29573Y77018D01*
X28577Y77684D01*
X27470Y78142D01*
X26296Y78376D01*
D02*
G37*
G36*
X25447D02*
X25098D01*
X23923Y78142D01*
X22817Y77684D01*
X21821Y77018D01*
X20974Y76171D01*
X20308Y75176D01*
X19850Y74069D01*
X19616Y72894D01*
Y72545D01*
X25447D01*
Y78376D01*
D02*
G37*
G36*
X39694Y81193D02*
X38471D01*
X37290Y80876D01*
X36230Y80265D01*
X35365Y79400D01*
X34754Y78340D01*
X34437Y77159D01*
Y75936D01*
X34754Y74754D01*
X35365Y73695D01*
X36230Y72830D01*
X37290Y72218D01*
X38471Y71902D01*
X39694D01*
X40876Y72218D01*
X41935Y72830D01*
X42800Y73695D01*
X43412Y74754D01*
X43728Y75936D01*
Y77159D01*
X43412Y78340D01*
X42800Y79400D01*
X41935Y80265D01*
X40876Y80876D01*
X39694Y81193D01*
D02*
G37*
G36*
X31778Y72045D02*
X25947D01*
Y66215D01*
X26296D01*
X27470Y66448D01*
X28577Y66907D01*
X29573Y67572D01*
X30420Y68419D01*
X31086Y69415D01*
X31544Y70522D01*
X31778Y71696D01*
Y72045D01*
D02*
G37*
G36*
X25447D02*
X19616D01*
Y71696D01*
X19850Y70522D01*
X20308Y69415D01*
X20974Y68419D01*
X21821Y67572D01*
X22817Y66907D01*
X23923Y66448D01*
X25098Y66215D01*
X25447D01*
Y72045D01*
D02*
G37*
G36*
X26296Y62785D02*
X25098D01*
X23923Y62552D01*
X22817Y62093D01*
X21821Y61428D01*
X20974Y60581D01*
X20308Y59585D01*
X19850Y58478D01*
X19616Y57304D01*
Y56106D01*
X19850Y54931D01*
X20308Y53824D01*
X20974Y52829D01*
X21821Y51982D01*
X22817Y51316D01*
X23923Y50858D01*
X25098Y50624D01*
X26296D01*
X27470Y50858D01*
X28577Y51316D01*
X29573Y51982D01*
X30420Y52829D01*
X31086Y53824D01*
X31544Y54931D01*
X31778Y56106D01*
Y57304D01*
X31544Y58478D01*
X31086Y59585D01*
X30420Y60581D01*
X29573Y61428D01*
X28577Y62093D01*
X27470Y62552D01*
X26296Y62785D01*
D02*
G37*
G36*
X62360Y43532D02*
X61136D01*
X59955Y43215D01*
X58895Y42603D01*
X58031Y41738D01*
X57419Y40679D01*
X57102Y39497D01*
Y38274D01*
X57419Y37093D01*
X58031Y36033D01*
X58895Y35168D01*
X59955Y34557D01*
X61136Y34240D01*
X62360D01*
X63541Y34557D01*
X64600Y35168D01*
X65465Y36033D01*
X66077Y37093D01*
X66394Y38274D01*
Y39497D01*
X66077Y40679D01*
X65465Y41738D01*
X64600Y42603D01*
X63541Y43215D01*
X62360Y43532D01*
D02*
G37*
G36*
X66599Y31581D02*
X66250D01*
Y25750D01*
X72081D01*
Y26099D01*
X71847Y27274D01*
X71389Y28380D01*
X70723Y29376D01*
X69876Y30223D01*
X68880Y30889D01*
X67774Y31347D01*
X66599Y31581D01*
D02*
G37*
G36*
X65750D02*
X65401D01*
X64226Y31347D01*
X63120Y30889D01*
X62124Y30223D01*
X61277Y29376D01*
X60611Y28380D01*
X60153Y27274D01*
X59919Y26099D01*
Y25750D01*
X65750D01*
Y31581D01*
D02*
G37*
G36*
X82190D02*
X80992D01*
X79817Y31347D01*
X78710Y30889D01*
X77714Y30223D01*
X76867Y29376D01*
X76202Y28380D01*
X75744Y27274D01*
X75510Y26099D01*
Y24901D01*
X75744Y23726D01*
X76202Y22620D01*
X76867Y21624D01*
X77714Y20777D01*
X78710Y20111D01*
X79817Y19653D01*
X80992Y19419D01*
X82190D01*
X83364Y19653D01*
X84471Y20111D01*
X85467Y20777D01*
X86314Y21624D01*
X86979Y22620D01*
X87438Y23726D01*
X87671Y24901D01*
Y26099D01*
X87438Y27274D01*
X86979Y28380D01*
X86314Y29376D01*
X85467Y30223D01*
X84471Y30889D01*
X83364Y31347D01*
X82190Y31581D01*
D02*
G37*
G36*
X72081Y25250D02*
X66250D01*
Y19419D01*
X66599D01*
X67774Y19653D01*
X68880Y20111D01*
X69876Y20777D01*
X70723Y21624D01*
X71389Y22620D01*
X71847Y23726D01*
X72081Y24901D01*
Y25250D01*
D02*
G37*
G36*
X65750D02*
X59919D01*
Y24901D01*
X60153Y23726D01*
X60611Y22620D01*
X61277Y21624D01*
X62124Y20777D01*
X63120Y20111D01*
X64226Y19653D01*
X65401Y19419D01*
X65750D01*
Y25250D01*
D02*
G37*
G36*
X18246Y25579D02*
X16754D01*
X15289Y25288D01*
X13910Y24716D01*
X12669Y23887D01*
X11613Y22831D01*
X10784Y21590D01*
X10212Y20211D01*
X9921Y18746D01*
Y17254D01*
X10212Y15789D01*
X10784Y14410D01*
X11613Y13169D01*
X12669Y12113D01*
X13910Y11284D01*
X15289Y10712D01*
X16754Y10421D01*
X18246D01*
X19711Y10712D01*
X21090Y11284D01*
X22331Y12113D01*
X23387Y13169D01*
X24216Y14410D01*
X24788Y15789D01*
X25079Y17254D01*
Y18746D01*
X24788Y20211D01*
X24216Y21590D01*
X23387Y22831D01*
X22331Y23887D01*
X21090Y24716D01*
X19711Y25288D01*
X18246Y25579D01*
D02*
G37*
%LPD*%
G36*
X54763Y136088D02*
X54706Y136014D01*
X54656Y135934D01*
X54613Y135849D01*
X54576Y135758D01*
X54546Y135661D01*
X54522Y135559D01*
X54505Y135451D01*
X54496Y135337D01*
X54492Y135218D01*
X53508D01*
X53505Y135337D01*
X53495Y135451D01*
X53478Y135559D01*
X53454Y135661D01*
X53424Y135758D01*
X53387Y135849D01*
X53344Y135934D01*
X53294Y136014D01*
X53237Y136088D01*
X53173Y136156D01*
X54827D01*
X54763Y136088D01*
D02*
G37*
G36*
X54496Y131663D02*
X54505Y131549D01*
X54522Y131441D01*
X54546Y131339D01*
X54576Y131242D01*
X54613Y131151D01*
X54656Y131066D01*
X54706Y130986D01*
X54763Y130912D01*
X54827Y130843D01*
X53173D01*
X53237Y130912D01*
X53294Y130986D01*
X53344Y131066D01*
X53387Y131151D01*
X53424Y131242D01*
X53454Y131339D01*
X53478Y131441D01*
X53495Y131549D01*
X53505Y131663D01*
X53508Y131782D01*
X54492D01*
X54496Y131663D01*
D02*
G37*
G36*
X73340Y86507D02*
X73403Y86443D01*
X73473Y86386D01*
X73550Y86336D01*
X73634Y86294D01*
X73726Y86260D01*
X73825Y86233D01*
X73931Y86214D01*
X74044Y86203D01*
X74164Y86199D01*
X73970Y85215D01*
X73851Y85212D01*
X73627Y85191D01*
X73523Y85173D01*
X73423Y85149D01*
X73328Y85120D01*
X73237Y85086D01*
X73152Y85046D01*
X73071Y85002D01*
X72995Y84952D01*
X73284Y86580D01*
X73340Y86507D01*
D02*
G37*
G36*
X123025Y84834D02*
X122969Y84906D01*
X122906Y84971D01*
X122836Y85028D01*
X122759Y85078D01*
X122675Y85119D01*
X122583Y85154D01*
X122485Y85180D01*
X122379Y85199D01*
X122266Y85211D01*
X122145Y85215D01*
X122339Y86199D01*
X122458Y86202D01*
X122682Y86222D01*
X122786Y86241D01*
X122886Y86265D01*
X122981Y86294D01*
X123072Y86328D01*
X123157Y86367D01*
X123238Y86412D01*
X123314Y86462D01*
X123025Y84834D01*
D02*
G37*
D66*
X72309Y85913D02*
X72516Y85707D01*
X123793D01*
X124000Y85500D01*
X54000Y130500D02*
Y137000D01*
D69*
X290551Y178500D02*
D03*
X17500Y18000D02*
D03*
Y178000D02*
D03*
X290551Y18500D02*
D03*
D70*
X270614Y99657D02*
D03*
X195158Y38886D02*
D03*
X39083Y76547D02*
D03*
X61748Y38886D02*
D03*
X76252Y158614D02*
D03*
D71*
X284000Y119500D02*
D03*
Y103909D02*
D03*
X215000Y25500D02*
D03*
X199409D02*
D03*
X25697Y56705D02*
D03*
Y72295D02*
D03*
X81591Y25500D02*
D03*
X66000D02*
D03*
X56409Y172000D02*
D03*
X72000D02*
D03*
D72*
X72309Y85913D02*
D03*
X124000Y85500D02*
D03*
X54000Y130000D02*
D03*
Y137000D02*
D03*
D73*
X71260Y65354D02*
D03*
X136220Y148031D02*
D03*
X142126Y112598D02*
D03*
X136220Y100787D02*
D03*
X142126Y65354D02*
D03*
X130315Y159842D02*
D03*
X124409Y148031D02*
D03*
X130315Y112598D02*
D03*
X124409Y100787D02*
D03*
X130315Y88976D02*
D03*
Y41732D02*
D03*
X118504Y183465D02*
D03*
Y159842D02*
D03*
X112598Y148031D02*
D03*
X118504Y112598D02*
D03*
X112598Y100787D02*
D03*
X118504Y88976D02*
D03*
X112598Y77165D02*
D03*
X118504Y41732D02*
D03*
X112598Y29921D02*
D03*
X118504Y18110D02*
D03*
X112598Y6299D02*
D03*
X106693Y183465D02*
D03*
Y159842D02*
D03*
X100787Y148031D02*
D03*
X106693Y112598D02*
D03*
X100787Y100787D02*
D03*
X106693Y88976D02*
D03*
X100787Y77165D02*
D03*
X106693Y65354D02*
D03*
Y41732D02*
D03*
X100787Y29921D02*
D03*
X106693Y18110D02*
D03*
X100787Y6299D02*
D03*
X94882Y183465D02*
D03*
Y159842D02*
D03*
X88976Y148031D02*
D03*
X94882Y112598D02*
D03*
X88976Y100787D02*
D03*
X94882Y88976D02*
D03*
X88976Y77165D02*
D03*
X94882Y65354D02*
D03*
Y41732D02*
D03*
X88976Y29921D02*
D03*
X94882Y18110D02*
D03*
X88976Y6299D02*
D03*
X83071Y183465D02*
D03*
Y159842D02*
D03*
Y112598D02*
D03*
X77165Y100787D02*
D03*
X83071Y88976D02*
D03*
X77165Y77165D02*
D03*
Y53543D02*
D03*
X83071Y18110D02*
D03*
X77165Y6299D02*
D03*
X71260Y183465D02*
D03*
X65354Y148031D02*
D03*
X71260Y136220D02*
D03*
Y112598D02*
D03*
X65354Y53543D02*
D03*
X71260Y41732D02*
D03*
Y18110D02*
D03*
X65354Y6299D02*
D03*
X59449Y183465D02*
D03*
Y159842D02*
D03*
X53543Y148031D02*
D03*
Y53543D02*
D03*
Y29921D02*
D03*
X59449Y18110D02*
D03*
X53543Y6299D02*
D03*
X47638Y183465D02*
D03*
X41732Y171653D02*
D03*
X47638Y159842D02*
D03*
X41732Y148031D02*
D03*
X47638Y136220D02*
D03*
X41732Y124409D02*
D03*
X47638Y112598D02*
D03*
X41732Y100787D02*
D03*
X47638Y88976D02*
D03*
X41732Y53543D02*
D03*
X47638Y41732D02*
D03*
X41732Y29921D02*
D03*
X47638Y18110D02*
D03*
X41732Y6299D02*
D03*
X35827Y183465D02*
D03*
X29921Y171653D02*
D03*
X35827Y159842D02*
D03*
X29921Y148031D02*
D03*
X35827Y136220D02*
D03*
X29921Y124409D02*
D03*
X35827Y112598D02*
D03*
Y88976D02*
D03*
Y41732D02*
D03*
X29921Y29921D02*
D03*
X35827Y18110D02*
D03*
X29921Y6299D02*
D03*
X24016Y159842D02*
D03*
X18110Y148031D02*
D03*
Y124409D02*
D03*
X24016Y112598D02*
D03*
X18110Y100787D02*
D03*
X24016Y88976D02*
D03*
X18110Y77165D02*
D03*
X24016Y41732D02*
D03*
X18110Y29921D02*
D03*
Y6299D02*
D03*
X6299Y171653D02*
D03*
X12205Y159842D02*
D03*
X6299Y148031D02*
D03*
X12205Y136220D02*
D03*
X6299Y124409D02*
D03*
X12205Y112598D02*
D03*
X6299Y100787D02*
D03*
X12205Y88976D02*
D03*
X6299Y77165D02*
D03*
X12205Y65354D02*
D03*
X6299Y53543D02*
D03*
X12205Y41732D02*
D03*
X6299Y29921D02*
D03*
M02*
