G04*
G04 #@! TF.GenerationSoftware,Altium Limited,Altium Designer,26.1.1 (7)*
G04*
G04 Layer_Color=8388736*
%FSLAX25Y25*%
%MOIN*%
G70*
G04*
G04 #@! TF.SameCoordinates,03200FDD-A99C-4DC2-9D25-3EF49925F6DB*
G04*
G04*
G04 #@! TF.FilePolarity,Negative*
G04*
G01*
G75*
%ADD10C,0.01000*%
%ADD38R,0.05118X0.02953*%
%ADD39R,0.06102X0.04331*%
%ADD40R,0.05315X0.02953*%
%ADD41R,0.06299X0.04528*%
%ADD42R,0.02953X0.05315*%
%ADD43R,0.07874X0.03150*%
%ADD44R,0.06102X0.04528*%
%ADD45R,0.05315X0.03543*%
%ADD46R,0.04331X0.06102*%
%ADD47R,0.07284X0.05118*%
%ADD48R,0.05118X0.07677*%
%ADD49R,0.06102X0.02953*%
%ADD50R,0.04606X0.06378*%
%ADD51R,0.06378X0.04606*%
%ADD52R,0.05709X0.03347*%
%ADD53R,0.06378X0.04410*%
%ADD54R,0.04410X0.06378*%
%ADD55R,0.06398X0.02362*%
%ADD56R,0.08169X0.03150*%
%ADD57R,0.07284X0.06496*%
%ADD58R,0.05118X0.06299*%
G04:AMPARAMS|DCode=59|XSize=57.09mil|YSize=35.83mil|CornerRadius=6.69mil|HoleSize=0mil|Usage=FLASHONLY|Rotation=180.000|XOffset=0mil|YOffset=0mil|HoleType=Round|Shape=RoundedRectangle|*
%AMROUNDEDRECTD59*
21,1,0.05709,0.02244,0,0,180.0*
21,1,0.04370,0.03583,0,0,180.0*
1,1,0.01339,-0.02185,0.01122*
1,1,0.01339,0.02185,0.01122*
1,1,0.01339,0.02185,-0.01122*
1,1,0.01339,-0.02185,-0.01122*
%
%ADD59ROUNDEDRECTD59*%
%ADD60R,0.05118X0.06102*%
%ADD61R,0.11221X0.05118*%
%ADD62C,0.06591*%
%ADD63C,0.04252*%
%ADD64C,0.11752*%
%ADD65C,0.02953*%
D10*
X300394Y178500D02*
G03*
X300394Y178500I-9843J0D01*
G01*
X27343Y18000D02*
G03*
X27343Y18000I-9843J0D01*
G01*
Y178000D02*
G03*
X27343Y178000I-9843J0D01*
G01*
X300394Y18500D02*
G03*
X300394Y18500I-9843J0D01*
G01*
D38*
X63831Y101221D02*
D03*
Y108780D02*
D03*
X55169Y105000D02*
D03*
D39*
X54000Y93240D02*
D03*
Y85760D02*
D03*
D40*
X109421Y46760D02*
D03*
Y50500D02*
D03*
Y54240D02*
D03*
X99579D02*
D03*
Y46760D02*
D03*
D41*
X63500Y93240D02*
D03*
Y85760D02*
D03*
D42*
X61240Y73421D02*
D03*
X57500D02*
D03*
X53760D02*
D03*
Y63579D02*
D03*
X57500D02*
D03*
X61240D02*
D03*
D43*
X140071Y80500D02*
D03*
Y85500D02*
D03*
Y75500D02*
D03*
Y70500D02*
D03*
X182000Y85500D02*
D03*
Y80500D02*
D03*
Y75500D02*
D03*
Y70500D02*
D03*
D44*
X120500Y51760D02*
D03*
Y59240D02*
D03*
X98000Y139740D02*
D03*
Y132260D02*
D03*
D45*
X95500Y172000D02*
D03*
X108886D02*
D03*
D46*
X62240Y121000D02*
D03*
X54760D02*
D03*
D47*
X211013Y84248D02*
D03*
Y72437D02*
D03*
D48*
X239291Y47500D02*
D03*
X250709D02*
D03*
X260291D02*
D03*
X271709D02*
D03*
X271709Y25500D02*
D03*
X260291D02*
D03*
X250709D02*
D03*
X239291D02*
D03*
D49*
X116028Y135760D02*
D03*
Y143240D02*
D03*
X106972Y139500D02*
D03*
D50*
X77689Y146500D02*
D03*
X71311D02*
D03*
X183811Y95000D02*
D03*
X190189D02*
D03*
D51*
X133500Y123189D02*
D03*
Y116811D02*
D03*
X190000Y124189D02*
D03*
Y117811D02*
D03*
X192753Y78090D02*
D03*
Y84468D02*
D03*
X129000Y67811D02*
D03*
Y74189D02*
D03*
D52*
X123500Y116260D02*
D03*
Y123740D02*
D03*
D53*
X199500Y124287D02*
D03*
Y117752D02*
D03*
X124500Y136732D02*
D03*
Y143268D02*
D03*
X202253Y78011D02*
D03*
Y84547D02*
D03*
X120500Y67732D02*
D03*
Y74268D02*
D03*
D54*
X108732Y128000D02*
D03*
X115268D02*
D03*
D55*
X62933Y136779D02*
D03*
Y134221D02*
D03*
X86067Y131661D02*
D03*
Y134221D02*
D03*
Y136779D02*
D03*
X62933Y139339D02*
D03*
Y131661D02*
D03*
X86067Y139339D02*
D03*
D56*
X142500Y118500D02*
D03*
Y133500D02*
D03*
Y128500D02*
D03*
Y123500D02*
D03*
X179602Y118500D02*
D03*
Y133500D02*
D03*
Y123500D02*
D03*
Y128500D02*
D03*
D57*
X26000Y99512D02*
D03*
Y138488D02*
D03*
D58*
X78957Y121000D02*
D03*
X86043D02*
D03*
D59*
X98000Y117957D02*
D03*
Y125004D02*
D03*
D60*
X180874Y106000D02*
D03*
X190126D02*
D03*
D61*
X231000Y84405D02*
D03*
Y72594D02*
D03*
D62*
X290551Y178500D02*
D03*
X17500Y18000D02*
D03*
Y178000D02*
D03*
X290551Y18500D02*
D03*
D63*
X270614Y99657D02*
D03*
X195158Y38886D02*
D03*
X39083Y76547D02*
D03*
X61748Y38886D02*
D03*
X76252Y158614D02*
D03*
D64*
X284000Y119500D02*
D03*
Y103909D02*
D03*
X215000Y25500D02*
D03*
X199409D02*
D03*
X25697Y56705D02*
D03*
Y72295D02*
D03*
X81591Y25500D02*
D03*
X66000D02*
D03*
X56409Y172000D02*
D03*
X72000D02*
D03*
D65*
X72309Y85913D02*
D03*
X124000Y85500D02*
D03*
X54000Y130000D02*
D03*
Y137000D02*
D03*
M02*
