G04*
G04 #@! TF.GenerationSoftware,Altium Limited,Altium Designer,26.1.1 (7)*
G04*
G04 Layer_Color=32896*
%FSLAX25Y25*%
%MOIN*%
G70*
G04*
G04 #@! TF.SameCoordinates,03200FDD-A99C-4DC2-9D25-3EF49925F6DB*
G04*
G04*
G04 #@! TF.FilePolarity,Positive*
G04*
G01*
G75*
%ADD10C,0.01000*%
D10*
X169053Y145043D02*
G03*
X168904Y146570I-7875J0D01*
G01*
X168449Y148069D02*
G03*
X167732Y149409I-7271J-3026D01*
G01*
X168900Y146589D02*
G03*
X168459Y148045I-7722J-1546D01*
G01*
X167720Y149427D02*
G03*
X166757Y150601I-6542J-4385D01*
G01*
X168904Y53514D02*
G03*
X169053Y55043I-7726J1529D01*
G01*
X168458Y52039D02*
G03*
X168900Y53498I-7280J3004D01*
G01*
X167729Y50673D02*
G03*
X168450Y52019I-6552J4370D01*
G01*
X166753Y49481D02*
G03*
X167723Y50662I-5576J5562D01*
G01*
X122302Y176043D02*
G03*
X124609Y170474I7875J0D01*
G01*
X124602Y29605D02*
G03*
X122904Y27061I5576J-5562D01*
G01*
X122900Y27052D02*
G03*
X122454Y25583I7278J-3009D01*
G01*
X122453Y25575D02*
G03*
X122302Y24043I7725J-1532D01*
G01*
X167313Y139355D02*
X169053Y137614D01*
X167313Y133906D02*
X169053Y135646D01*
X167313Y133787D02*
X169053Y132046D01*
X167313Y113250D02*
Y138750D01*
X165458Y143187D02*
X168893Y146622D01*
X161689Y144985D02*
X167024Y150320D01*
X167300Y139461D02*
X169053Y141214D01*
X167313Y138750D02*
Y139398D01*
X166932Y140990D02*
X167268Y139738D01*
X167313Y122770D02*
X169053Y124511D01*
X167313Y122651D02*
X169053Y120911D01*
X167313Y128219D02*
X169053Y126479D01*
X167313Y117203D02*
X169053Y118943D01*
X167313Y117084D02*
X169053Y115343D01*
X167313Y112602D02*
Y113250D01*
Y128338D02*
X169053Y130079D01*
X167022Y111344D02*
X169053Y113375D01*
X166932Y111010D02*
X167268Y112262D01*
X164938Y108323D02*
X169053Y104207D01*
X160678Y107015D02*
X169053Y98640D01*
X167120Y111709D02*
X169053Y109775D01*
X160429Y144985D02*
X161725D01*
X162065Y144941D02*
X163317Y144605D01*
X158837D02*
X160089Y144941D01*
X157398Y143826D02*
X158521Y144474D01*
X165028Y143617D02*
X165945Y142701D01*
X166153Y142429D02*
X166801Y141306D01*
X163634Y144474D02*
X164756Y143826D01*
X156210Y142701D02*
X157126Y143617D01*
X155353Y141306D02*
X156001Y142429D01*
X154887Y139738D02*
X155222Y140990D01*
X154842Y113250D02*
Y138750D01*
X153302Y114391D02*
X154842Y112851D01*
Y138750D02*
Y139398D01*
X166153Y109571D02*
X166801Y110694D01*
X165028Y108383D02*
X165945Y109299D01*
X163634Y107526D02*
X164756Y108174D01*
X162065Y107059D02*
X163317Y107395D01*
X160429Y97985D02*
X161725D01*
X160429Y107015D02*
X161725D01*
X154887Y112262D02*
X155222Y111010D01*
X155353Y110694D02*
X156001Y109571D01*
X154842Y112602D02*
Y113250D01*
X157398Y108174D02*
X158521Y107526D01*
X158837Y107395D02*
X160089Y107059D01*
X156210Y109299D02*
X157126Y108383D01*
X167313Y83677D02*
X169053Y81936D01*
X167313Y78228D02*
X169053Y79969D01*
X167313Y89245D02*
X169053Y87504D01*
X167313Y83796D02*
X169053Y85537D01*
Y55043D02*
Y145043D01*
X167313Y72660D02*
X169053Y74401D01*
X167313Y78109D02*
X169053Y76368D01*
X164048Y97235D02*
X169053Y102240D01*
X166760Y94379D02*
X169053Y96672D01*
X158856Y97610D02*
X169053Y107808D01*
X167313Y63250D02*
Y91750D01*
Y89364D02*
X169053Y91104D01*
X167313Y91750D02*
Y92398D01*
Y67093D02*
X169053Y68833D01*
X167313Y66974D02*
X169053Y65233D01*
X167313Y62602D02*
Y63250D01*
X166982Y61194D02*
X169053Y63266D01*
X167096Y61622D02*
X169053Y59665D01*
X167313Y72541D02*
X169053Y70801D01*
X164874Y58277D02*
X169002Y54148D01*
X160568Y57015D02*
X167386Y50197D01*
X162065Y97941D02*
X163317Y97605D01*
X163634Y97474D02*
X164756Y96826D01*
X158837Y97605D02*
X160089Y97941D01*
X166153Y95429D02*
X166801Y94306D01*
X166932Y93990D02*
X167268Y92738D01*
X165028Y96617D02*
X165945Y95701D01*
X157398Y96826D02*
X158521Y97474D01*
X156210Y95701D02*
X157126Y96617D01*
X155353Y94306D02*
X156001Y95429D01*
X154887Y92738D02*
X155222Y93990D01*
X154842Y63250D02*
Y91750D01*
Y92398D01*
X166932Y61010D02*
X167268Y62262D01*
X166153Y59571D02*
X166801Y60694D01*
X165028Y58383D02*
X165945Y59299D01*
X163634Y57526D02*
X164756Y58174D01*
X162065Y57059D02*
X163317Y57395D01*
X160429Y57015D02*
X161725D01*
X154887Y62262D02*
X155222Y61010D01*
X155353Y60694D02*
X156001Y59571D01*
X154842Y62602D02*
Y63250D01*
X157398Y58174D02*
X158521Y57526D01*
X158837Y57395D02*
X160089Y57059D01*
X156210Y59299D02*
X157126Y58383D01*
X150325Y144757D02*
X161463Y155895D01*
X153109Y141974D02*
X164247Y153111D01*
X144758Y150325D02*
X155895Y161463D01*
X147541Y147541D02*
X158679Y158679D01*
X153302Y136662D02*
X154842Y135122D01*
X153302Y131031D02*
X154842Y132571D01*
X153302Y136599D02*
X154842Y138138D01*
X138053Y179305D02*
X166746Y150612D01*
X138053Y179305D02*
X166746Y150612D01*
X122302Y184365D02*
X161682Y144985D01*
X122302Y189933D02*
X169053Y143182D01*
X122302Y178797D02*
X157332Y143768D01*
X123268Y172263D02*
X155078Y140453D01*
X153302Y103192D02*
X157960Y107850D01*
X153302Y103255D02*
X158928Y97629D01*
X153302Y108760D02*
X155324Y110781D01*
X153302Y108823D02*
X169053Y93072D01*
X153302Y97624D02*
X162983Y107305D01*
X153302Y97687D02*
X155840Y95149D01*
X153302Y125463D02*
X154842Y127003D01*
X153302Y125526D02*
X154842Y123986D01*
X153302Y131094D02*
X154842Y129554D01*
X153302Y119958D02*
X154842Y118419D01*
X153302Y114328D02*
X154842Y115867D01*
X153302Y119896D02*
X154842Y121435D01*
X128285Y195086D02*
X138053Y185317D01*
X122717Y195086D02*
X138053Y179750D01*
X133853Y195086D02*
X138053Y190885D01*
X122302Y177980D02*
X138053Y193731D01*
X122907Y173017D02*
X138053Y188163D01*
Y179305D02*
Y195086D01*
X122302Y189115D02*
X128272Y195086D01*
X122302D02*
X138053D01*
X122302Y194683D02*
X122705Y195086D01*
X122302Y176043D02*
Y195086D01*
Y183548D02*
X133840Y195086D01*
X122302Y176043D02*
Y195086D01*
X130838Y164245D02*
X141976Y175382D01*
X133622Y161461D02*
X144760Y172598D01*
X128054Y167029D02*
X139192Y178166D01*
X139190Y155893D02*
X150327Y167031D01*
X141974Y153109D02*
X153111Y164247D01*
X136406Y158677D02*
X147544Y169815D01*
X122605Y173746D02*
X123198Y172312D01*
X124060Y171022D01*
X122302Y175267D02*
X122605Y173746D01*
X125270Y169812D02*
X138053Y182595D01*
X124609Y170474D02*
X153302Y141781D01*
Y69786D02*
X154842Y71325D01*
X153302Y69849D02*
X154842Y68309D01*
X153302Y75353D02*
X154842Y76893D01*
X153302Y75416D02*
X154842Y73877D01*
X153302Y64281D02*
X154842Y62741D01*
X153302Y58650D02*
X155351Y60699D01*
X153302Y64218D02*
X154842Y65758D01*
X153302Y92057D02*
X155217Y93972D01*
X153302Y86489D02*
X154842Y88029D01*
X153302Y92119D02*
X154842Y90580D01*
X153302Y80921D02*
X154842Y82461D01*
X153302Y80984D02*
X154842Y79444D01*
X153302Y86552D02*
X154842Y85012D01*
X153302Y58713D02*
X164644Y47371D01*
X150722Y55725D02*
X161860Y44587D01*
X147939Y52941D02*
X159076Y41804D01*
X145155Y50157D02*
X156292Y39020D01*
X138053Y20781D02*
X166746Y49474D01*
X142371Y47373D02*
X153508Y36236D01*
X122302Y22082D02*
X158029Y57810D01*
X138053Y20781D02*
X166746Y49474D01*
X124609Y29612D02*
X153302Y58305D01*
X122302Y10947D02*
X169053Y57698D01*
X122302Y5379D02*
X167956Y51032D01*
X122302Y16514D02*
X163133Y57346D01*
X153302Y58305D02*
Y141781D01*
Y58305D02*
Y141781D01*
X139587Y44589D02*
X150724Y33452D01*
X136803Y41806D02*
X147941Y30668D01*
X134019Y39022D02*
X145157Y27884D01*
X131235Y36238D02*
X142373Y25100D01*
X123198Y27773D02*
X124060Y29063D01*
X128451Y33454D02*
X139589Y22316D01*
X123158Y27612D02*
X138053Y12716D01*
X125667Y30670D02*
X138053Y18284D01*
X129628Y1569D02*
X138053Y9994D01*
X135203Y1577D02*
X138053Y4427D01*
Y1581D02*
Y20781D01*
X124052Y1561D02*
X138053Y15562D01*
X122302Y1558D02*
X138053Y1581D01*
X122302Y6196D02*
X126934Y1565D01*
X122302Y22900D02*
X138053Y7149D01*
X122302Y17332D02*
X138053Y1581D01*
X122302Y1558D02*
Y24043D01*
Y11764D02*
X132493Y1573D01*
X122302Y1558D02*
Y24043D01*
X115934Y28478D02*
X111912Y32928D01*
X114879Y35609D01*
X117104Y37620D02*
X118588Y38960D01*
X120000Y38889D01*
X121340Y37406D01*
X121269Y35994D01*
X119785Y34653D01*
X118373Y34725D01*
X117033Y36208D01*
X117104Y37620D01*
X123494Y38004D02*
X121483Y40229D01*
X121555Y41641D01*
X122967Y41570D01*
X123038Y42982D01*
X124450Y42910D01*
X126461Y40685D01*
X136032Y47986D02*
X135960Y46574D01*
X134477Y45234D01*
X133065Y45305D01*
X132395Y46047D01*
X132466Y47459D01*
X133949Y48799D01*
X134021Y50211D01*
X133351Y50953D01*
X131939Y51025D01*
X130455Y49684D01*
X130384Y48272D01*
X134164Y53035D02*
X135647Y54376D01*
X134906Y53706D01*
X137587Y50739D01*
X136845Y50068D01*
X144861Y54617D02*
X140840Y59067D01*
X138614Y57057D01*
X138543Y55645D01*
X139883Y54161D01*
X141295Y54090D01*
X143520Y56100D01*
X144548Y62419D02*
X143065Y61078D01*
X142993Y59666D01*
X144334Y58183D01*
X145746Y58111D01*
X147229Y59452D01*
X147301Y60864D01*
X146630Y61605D01*
X143663Y58924D01*
X145958Y13709D02*
X141800Y18032D01*
X143879Y15870D01*
X146761Y18643D01*
X148840Y16481D01*
X144682Y20804D01*
X146123Y22190D02*
X147564Y23576D01*
X146843Y22883D01*
X149615Y20002D01*
X148895Y19308D01*
X149779Y28482D02*
X150500Y29176D01*
X151913Y29148D01*
X155379Y25546D01*
X153217Y23467D01*
X151804Y23494D01*
X150418Y24935D01*
X150445Y26349D01*
X152606Y28428D01*
X158206Y25491D02*
X154047Y29814D01*
X156126Y27653D01*
X157540Y27625D01*
X158981Y29011D01*
X159008Y30425D01*
X156929Y32586D01*
X169039Y37301D02*
X169012Y35887D01*
X167571Y34501D01*
X166158Y34529D01*
X165465Y35249D01*
X165492Y36663D01*
X166933Y38049D01*
X166960Y39462D01*
X166267Y40183D01*
X164854Y40210D01*
X163413Y38824D01*
X163385Y37410D01*
X167015Y42289D02*
X168456Y43675D01*
X167735Y42982D01*
X170508Y40100D01*
X169787Y39407D01*
X177657Y44204D02*
X173499Y48527D01*
X171337Y46448D01*
X171310Y45034D01*
X172696Y43593D01*
X174110Y43566D01*
X176271Y45645D01*
X177101Y51992D02*
X175660Y50606D01*
X175633Y49192D01*
X177019Y47752D01*
X178432Y47724D01*
X179873Y49110D01*
X179901Y50524D01*
X179207Y51244D01*
X176326Y48472D01*
M02*
