G04*
G04 #@! TF.GenerationSoftware,Altium Limited,Altium Designer,26.1.1 (7)*
G04*
G04 Layer_Color=65535*
%FSLAX25Y25*%
%MOIN*%
G70*
G04*
G04 #@! TF.SameCoordinates,03200FDD-A99C-4DC2-9D25-3EF49925F6DB*
G04*
G04*
G04 #@! TF.FilePolarity,Positive*
G04*
G01*
G75*
%ADD10C,0.01000*%
%ADD11C,0.00787*%
%ADD12C,0.00394*%
%ADD13C,0.00591*%
G36*
X220082Y194228D02*
X220331D01*
Y194197D01*
X220549D01*
Y194166D01*
X220767D01*
Y194134D01*
X220923D01*
Y194103D01*
X221048D01*
Y194072D01*
X221173D01*
Y194041D01*
X221297D01*
Y194010D01*
X221422D01*
Y193979D01*
X221547D01*
Y193948D01*
X221640D01*
Y193916D01*
X221734D01*
Y193885D01*
X221827D01*
Y193854D01*
X221921D01*
Y193823D01*
X221983D01*
Y193792D01*
X222077D01*
Y193761D01*
X222139D01*
Y193729D01*
X222232D01*
Y193698D01*
X222295D01*
Y193667D01*
X222357D01*
Y193636D01*
X222419D01*
Y193605D01*
X222513D01*
Y193573D01*
X222575D01*
Y193542D01*
X222638D01*
Y193511D01*
X222700D01*
Y193480D01*
X222762D01*
Y193449D01*
X222825D01*
Y193418D01*
X222856D01*
Y193386D01*
X222918D01*
Y193355D01*
X222980D01*
Y193324D01*
X223043D01*
Y193293D01*
X223074D01*
Y193262D01*
X223136D01*
Y193231D01*
X223199D01*
Y193200D01*
X223230D01*
Y193168D01*
X223292D01*
Y193137D01*
X223354D01*
Y193106D01*
X223386D01*
Y193075D01*
X223448D01*
Y193044D01*
X223479D01*
Y193012D01*
X223510D01*
Y192981D01*
X223572D01*
Y192950D01*
X223635D01*
Y192919D01*
X223666D01*
Y192888D01*
X223697D01*
Y192857D01*
X223728D01*
Y192825D01*
X223791D01*
Y192794D01*
X223822D01*
Y192763D01*
X223853D01*
Y192732D01*
X223915D01*
Y192701D01*
X223946D01*
Y192670D01*
X223978D01*
Y192639D01*
X224009D01*
Y192607D01*
X224040D01*
Y192576D01*
X224102D01*
Y192545D01*
X224133D01*
Y192514D01*
X224165D01*
Y192483D01*
X224196D01*
Y192452D01*
X224227D01*
Y192420D01*
X224258D01*
Y192389D01*
X224289D01*
Y192358D01*
X224321D01*
Y192327D01*
X224352D01*
Y192296D01*
X224383D01*
Y192264D01*
X224414D01*
Y192233D01*
X224445D01*
Y192202D01*
X224476D01*
Y192171D01*
X224539D01*
Y192140D01*
X224570D01*
Y192109D01*
X224601D01*
Y192078D01*
X224632D01*
Y192046D01*
X224663D01*
Y192015D01*
X224694D01*
Y191953D01*
X224726D01*
Y191922D01*
X224757D01*
Y191891D01*
X224788D01*
Y191859D01*
X224819D01*
Y191828D01*
X224850D01*
Y191797D01*
X224882D01*
Y191766D01*
X224913D01*
Y191735D01*
X224944D01*
Y191672D01*
X224975D01*
Y191641D01*
X225006D01*
Y191610D01*
X225037D01*
Y191579D01*
X225068D01*
Y191516D01*
X225100D01*
Y191485D01*
X225131D01*
Y191454D01*
X225162D01*
Y191392D01*
X225193D01*
Y191361D01*
X225224D01*
Y191330D01*
X225255D01*
Y191267D01*
X225287D01*
Y191236D01*
X225318D01*
Y191205D01*
X225349D01*
Y191142D01*
X225380D01*
Y191111D01*
X225411D01*
Y191049D01*
X225443D01*
Y191018D01*
X225474D01*
Y190955D01*
X225505D01*
Y190893D01*
X225536D01*
Y190862D01*
X225567D01*
Y190800D01*
X225598D01*
Y190737D01*
X225629D01*
Y190706D01*
X225661D01*
Y190644D01*
X225692D01*
Y190582D01*
X225723D01*
Y190519D01*
X225754D01*
Y190457D01*
X225785D01*
Y190426D01*
X225816D01*
Y190363D01*
X225848D01*
Y190301D01*
X225879D01*
Y190208D01*
X225910D01*
Y190176D01*
X225941D01*
Y190083D01*
X225972D01*
Y190021D01*
X226004D01*
Y189958D01*
X226035D01*
Y189865D01*
X226066D01*
Y189802D01*
X226097D01*
Y189740D01*
X226128D01*
Y189646D01*
X226159D01*
Y189553D01*
X226190D01*
Y189491D01*
X226222D01*
Y189397D01*
X226253D01*
Y189272D01*
X226284D01*
Y189179D01*
X226315D01*
Y189085D01*
X226346D01*
Y188961D01*
X226378D01*
Y188805D01*
X226409D01*
Y188712D01*
X226440D01*
Y188556D01*
X226471D01*
Y188400D01*
X226502D01*
Y188182D01*
X226533D01*
Y187932D01*
X226565D01*
Y187558D01*
X226596D01*
Y187465D01*
X223199D01*
Y187714D01*
X223167D01*
Y187901D01*
X223136D01*
Y188026D01*
X223105D01*
Y188151D01*
X223074D01*
Y188244D01*
X223043D01*
Y188369D01*
X223011D01*
Y188431D01*
X222980D01*
Y188524D01*
X222949D01*
Y188587D01*
X222918D01*
Y188680D01*
X222887D01*
Y188743D01*
X222856D01*
Y188805D01*
X222825D01*
Y188867D01*
X222793D01*
Y188930D01*
X222762D01*
Y188992D01*
X222731D01*
Y189023D01*
X222700D01*
Y189085D01*
X222669D01*
Y189148D01*
X222638D01*
Y189179D01*
X222606D01*
Y189241D01*
X222575D01*
Y189272D01*
X222544D01*
Y189304D01*
X222513D01*
Y189366D01*
X222482D01*
Y189397D01*
X222450D01*
Y189428D01*
X222419D01*
Y189491D01*
X222388D01*
Y189522D01*
X222357D01*
Y189553D01*
X222326D01*
Y189615D01*
X222295D01*
Y189646D01*
X222264D01*
Y189678D01*
X222232D01*
Y189709D01*
X222201D01*
Y189740D01*
X222170D01*
Y189771D01*
X222139D01*
Y189802D01*
X222108D01*
Y189833D01*
X222077D01*
Y189865D01*
X222045D01*
Y189896D01*
X222014D01*
Y189927D01*
X221983D01*
Y189958D01*
X221921D01*
Y189989D01*
X221889D01*
Y190021D01*
X221858D01*
Y190052D01*
X221827D01*
Y190083D01*
X221796D01*
Y190114D01*
X221734D01*
Y190145D01*
X221703D01*
Y190176D01*
X221671D01*
Y190208D01*
X221609D01*
Y190239D01*
X221578D01*
Y190270D01*
X221515D01*
Y190301D01*
X221484D01*
Y190332D01*
X221422D01*
Y190363D01*
X221360D01*
Y190394D01*
X221297D01*
Y190426D01*
X221266D01*
Y190457D01*
X221204D01*
Y190488D01*
X221142D01*
Y190519D01*
X221079D01*
Y190550D01*
X221017D01*
Y190582D01*
X220923D01*
Y190613D01*
X220861D01*
Y190644D01*
X220767D01*
Y190675D01*
X220705D01*
Y190706D01*
X220612D01*
Y190737D01*
X220518D01*
Y190769D01*
X220362D01*
Y190800D01*
X220238D01*
Y190831D01*
X220082D01*
Y190862D01*
X219864D01*
Y190893D01*
X219801D01*
Y194228D01*
X219832D01*
Y194259D01*
X220082D01*
Y194228D01*
D02*
G37*
G36*
X219178Y190862D02*
X219022D01*
Y190831D01*
X218804D01*
Y190800D01*
X218679D01*
Y190769D01*
X218524D01*
Y190737D01*
X218399D01*
Y190706D01*
X218305D01*
Y190675D01*
X218212D01*
Y190644D01*
X218118D01*
Y190613D01*
X218025D01*
Y190582D01*
X217963D01*
Y190550D01*
X217900D01*
Y190519D01*
X217838D01*
Y190488D01*
X217776D01*
Y190457D01*
X217713D01*
Y190426D01*
X217651D01*
Y190394D01*
X217588D01*
Y190363D01*
X217526D01*
Y190332D01*
X217495D01*
Y190301D01*
X217433D01*
Y190270D01*
X217402D01*
Y190239D01*
X217339D01*
Y190208D01*
X217308D01*
Y190176D01*
X217246D01*
Y190145D01*
X217214D01*
Y190114D01*
X217152D01*
Y190083D01*
X217121D01*
Y190052D01*
X217090D01*
Y190021D01*
X217059D01*
Y189989D01*
X216996D01*
Y189958D01*
X216965D01*
Y189927D01*
X216934D01*
Y189896D01*
X216903D01*
Y189865D01*
X216872D01*
Y189833D01*
X216841D01*
Y189802D01*
X216809D01*
Y189771D01*
X216778D01*
Y189740D01*
X216747D01*
Y189709D01*
X216716D01*
Y189678D01*
X216685D01*
Y189646D01*
X216653D01*
Y189615D01*
X216622D01*
Y189584D01*
X216591D01*
Y189522D01*
X216560D01*
Y189491D01*
X216529D01*
Y189460D01*
X216498D01*
Y189428D01*
X216466D01*
Y189366D01*
X216435D01*
Y189335D01*
X216404D01*
Y189304D01*
X216373D01*
Y189241D01*
X216342D01*
Y189210D01*
X216311D01*
Y189148D01*
X216280D01*
Y189117D01*
X216248D01*
Y189054D01*
X216217D01*
Y188992D01*
X216186D01*
Y188961D01*
X216155D01*
Y188899D01*
X216124D01*
Y188836D01*
X216092D01*
Y188774D01*
X216061D01*
Y188712D01*
X216030D01*
Y188649D01*
X215999D01*
Y188556D01*
X215968D01*
Y188493D01*
X215937D01*
Y188400D01*
X215905D01*
Y188338D01*
X215874D01*
Y188244D01*
X215843D01*
Y188119D01*
X215812D01*
Y187995D01*
X215781D01*
Y187870D01*
X215750D01*
Y187714D01*
X215719D01*
Y187465D01*
X212352D01*
Y187496D01*
X212321D01*
Y187621D01*
X212352D01*
Y187963D01*
X212384D01*
Y188182D01*
X212415D01*
Y188369D01*
X212446D01*
Y188556D01*
X212477D01*
Y188712D01*
X212508D01*
Y188836D01*
X212540D01*
Y188961D01*
X212571D01*
Y189054D01*
X212602D01*
Y189179D01*
X212633D01*
Y189272D01*
X212664D01*
Y189366D01*
X212695D01*
Y189460D01*
X212726D01*
Y189553D01*
X212758D01*
Y189646D01*
X212789D01*
Y189709D01*
X212820D01*
Y189802D01*
X212851D01*
Y189865D01*
X212882D01*
Y189958D01*
X212913D01*
Y190021D01*
X212945D01*
Y190083D01*
X212976D01*
Y190145D01*
X213007D01*
Y190208D01*
X213038D01*
Y190270D01*
X213069D01*
Y190332D01*
X213101D01*
Y190394D01*
X213132D01*
Y190457D01*
X213163D01*
Y190519D01*
X213194D01*
Y190582D01*
X213225D01*
Y190613D01*
X213256D01*
Y190675D01*
X213287D01*
Y190737D01*
X213319D01*
Y190800D01*
X213350D01*
Y190831D01*
X213381D01*
Y190893D01*
X213412D01*
Y190955D01*
X213443D01*
Y190987D01*
X213474D01*
Y191018D01*
X213506D01*
Y191080D01*
X213537D01*
Y191111D01*
X213568D01*
Y191174D01*
X213599D01*
Y191205D01*
X213630D01*
Y191267D01*
X213662D01*
Y191298D01*
X213693D01*
Y191361D01*
X213724D01*
Y191392D01*
X213755D01*
Y191423D01*
X213786D01*
Y191485D01*
X213817D01*
Y191516D01*
X213848D01*
Y191548D01*
X213880D01*
Y191579D01*
X213911D01*
Y191641D01*
X213942D01*
Y191672D01*
X213973D01*
Y191703D01*
X214004D01*
Y191735D01*
X214036D01*
Y191766D01*
X214067D01*
Y191797D01*
X214098D01*
Y191828D01*
X214129D01*
Y191891D01*
X214160D01*
Y191922D01*
X214191D01*
Y191953D01*
X214223D01*
Y191984D01*
X214254D01*
Y192015D01*
X214285D01*
Y192046D01*
X214316D01*
Y192078D01*
X214347D01*
Y192109D01*
X214378D01*
Y192140D01*
X214409D01*
Y192171D01*
X214441D01*
Y192202D01*
X214472D01*
Y192233D01*
X214503D01*
Y192264D01*
X214534D01*
Y192296D01*
X214565D01*
Y192327D01*
X214597D01*
Y192358D01*
X214628D01*
Y192389D01*
X214659D01*
Y192420D01*
X214690D01*
Y192452D01*
X214752D01*
Y192483D01*
X214784D01*
Y192514D01*
X214815D01*
Y192545D01*
X214846D01*
Y192576D01*
X214877D01*
Y192607D01*
X214908D01*
Y192639D01*
X214970D01*
Y192670D01*
X215002D01*
Y192701D01*
X215033D01*
Y192732D01*
X215095D01*
Y192763D01*
X215126D01*
Y192794D01*
X215158D01*
Y192825D01*
X215189D01*
Y192857D01*
X215251D01*
Y192888D01*
X215282D01*
Y192919D01*
X215313D01*
Y192950D01*
X215376D01*
Y192981D01*
X215407D01*
Y193012D01*
X215469D01*
Y193044D01*
X215500D01*
Y193075D01*
X215563D01*
Y193106D01*
X215625D01*
Y193137D01*
X215656D01*
Y193168D01*
X215719D01*
Y193200D01*
X215750D01*
Y193231D01*
X215812D01*
Y193262D01*
X215874D01*
Y193293D01*
X215905D01*
Y193324D01*
X215968D01*
Y193355D01*
X216030D01*
Y193386D01*
X216092D01*
Y193418D01*
X216155D01*
Y193449D01*
X216217D01*
Y193480D01*
X216280D01*
Y193511D01*
X216342D01*
Y193542D01*
X216404D01*
Y193573D01*
X216466D01*
Y193605D01*
X216529D01*
Y193636D01*
X216591D01*
Y193667D01*
X216685D01*
Y193698D01*
X216747D01*
Y193729D01*
X216841D01*
Y193761D01*
X216903D01*
Y193792D01*
X216996D01*
Y193823D01*
X217059D01*
Y193854D01*
X217152D01*
Y193885D01*
X217277D01*
Y193916D01*
X217370D01*
Y193948D01*
X217464D01*
Y193979D01*
X217557D01*
Y194010D01*
X217713D01*
Y194041D01*
X217838D01*
Y194072D01*
X217963D01*
Y194103D01*
X218118D01*
Y194134D01*
X218305D01*
Y194166D01*
X218524D01*
Y194197D01*
X218804D01*
Y194228D01*
X219178D01*
Y190862D01*
D02*
G37*
G36*
X247883Y193480D02*
X247851D01*
Y193449D01*
X247820D01*
Y193386D01*
X247789D01*
Y193355D01*
X247758D01*
Y193293D01*
X247727D01*
Y193231D01*
X247695D01*
Y193200D01*
X247664D01*
Y193137D01*
X247633D01*
Y193106D01*
X247602D01*
Y193044D01*
X247571D01*
Y192981D01*
X247540D01*
Y192950D01*
X247509D01*
Y192888D01*
X247477D01*
Y192825D01*
X247446D01*
Y192794D01*
X247415D01*
Y192732D01*
X247384D01*
Y192701D01*
X247353D01*
Y192639D01*
X247322D01*
Y192576D01*
X247290D01*
Y192545D01*
X247259D01*
Y192483D01*
X247228D01*
Y192452D01*
X247197D01*
Y192389D01*
X247166D01*
Y192327D01*
X247134D01*
Y192296D01*
X247103D01*
Y192233D01*
X247072D01*
Y192202D01*
X247041D01*
Y192140D01*
X247010D01*
Y192078D01*
X246979D01*
Y192046D01*
X246948D01*
Y191984D01*
X246916D01*
Y191922D01*
X246885D01*
Y191891D01*
X246854D01*
Y191828D01*
X246823D01*
Y191797D01*
X246792D01*
Y191735D01*
X246761D01*
Y191672D01*
X246729D01*
Y191641D01*
X246698D01*
Y191579D01*
X246667D01*
Y191548D01*
X246636D01*
Y191485D01*
X246605D01*
Y191423D01*
X246573D01*
Y191392D01*
X246542D01*
Y191330D01*
X246511D01*
Y191298D01*
X246480D01*
Y191236D01*
X246449D01*
Y191174D01*
X246418D01*
Y191142D01*
X246387D01*
Y191080D01*
X246355D01*
Y191018D01*
X246324D01*
Y190987D01*
X246293D01*
Y190924D01*
X246262D01*
Y190893D01*
X246231D01*
Y190831D01*
X246199D01*
Y190769D01*
X246168D01*
Y190737D01*
X246137D01*
Y190675D01*
X246106D01*
Y190644D01*
X246075D01*
Y190582D01*
X246044D01*
Y190519D01*
X246012D01*
Y190488D01*
X245981D01*
Y190426D01*
X245950D01*
Y190363D01*
X245919D01*
Y190332D01*
X245888D01*
Y190270D01*
X245857D01*
Y190239D01*
X245826D01*
Y190176D01*
X245794D01*
Y190114D01*
X245763D01*
Y190083D01*
X245732D01*
Y190021D01*
X245701D01*
Y189989D01*
X245670D01*
Y189927D01*
X245638D01*
Y189865D01*
X245607D01*
Y189833D01*
X245576D01*
Y189771D01*
X245545D01*
Y189740D01*
X245514D01*
Y189678D01*
X245483D01*
Y189615D01*
X245451D01*
Y189584D01*
X245420D01*
Y189522D01*
X245389D01*
Y189460D01*
X245358D01*
Y189428D01*
X245327D01*
Y189366D01*
X245296D01*
Y189335D01*
X245265D01*
Y189272D01*
X245233D01*
Y189210D01*
X245202D01*
Y189179D01*
X245171D01*
Y189117D01*
X245140D01*
Y189085D01*
X245109D01*
Y189023D01*
X245077D01*
Y188961D01*
X245046D01*
Y188930D01*
X245015D01*
Y188867D01*
X244984D01*
Y188836D01*
X244953D01*
Y188774D01*
X244922D01*
Y188712D01*
X244890D01*
Y188680D01*
X244859D01*
Y188618D01*
X244828D01*
Y188556D01*
X244797D01*
Y188524D01*
X244766D01*
Y188462D01*
X244735D01*
Y188431D01*
X244704D01*
Y188369D01*
X244672D01*
Y188306D01*
X244641D01*
Y188275D01*
X244610D01*
Y188213D01*
X244579D01*
Y188182D01*
X244548D01*
Y188119D01*
X244516D01*
Y188057D01*
X244485D01*
Y188026D01*
X244454D01*
Y187963D01*
X244423D01*
Y187901D01*
X244392D01*
Y187870D01*
X244361D01*
Y187808D01*
X244330D01*
Y187777D01*
X244298D01*
Y187714D01*
X244267D01*
Y187652D01*
X244236D01*
Y187621D01*
X244205D01*
Y187558D01*
X244174D01*
Y187527D01*
X244143D01*
Y187465D01*
X244111D01*
Y187402D01*
X244080D01*
Y187371D01*
X244049D01*
Y187309D01*
X244018D01*
Y187278D01*
X243987D01*
Y187215D01*
X243955D01*
Y187153D01*
X243924D01*
Y187122D01*
X243893D01*
Y187060D01*
X243862D01*
Y186997D01*
X243831D01*
Y186966D01*
X243800D01*
Y186904D01*
X243769D01*
Y186873D01*
X243737D01*
Y186810D01*
X243706D01*
Y186748D01*
X243675D01*
Y186717D01*
X243644D01*
Y186686D01*
Y186654D01*
X243613D01*
Y186623D01*
X243582D01*
Y186561D01*
X243550D01*
Y186499D01*
X243519D01*
Y186468D01*
X243488D01*
Y186405D01*
X243457D01*
Y186374D01*
X243426D01*
Y186312D01*
X243394D01*
Y186249D01*
X243363D01*
Y186218D01*
X243332D01*
Y186156D01*
X243301D01*
Y186093D01*
X243270D01*
Y186062D01*
X243239D01*
Y186000D01*
X243208D01*
Y185969D01*
X243176D01*
Y185907D01*
X243145D01*
Y185844D01*
X243114D01*
Y185813D01*
X243083D01*
Y185751D01*
X243052D01*
Y185720D01*
X243021D01*
Y185657D01*
X242989D01*
Y185595D01*
X242958D01*
Y185564D01*
X242927D01*
Y185501D01*
X242896D01*
Y185439D01*
X242865D01*
Y185408D01*
X242833D01*
Y185345D01*
X242802D01*
Y185314D01*
X242771D01*
Y185252D01*
X242740D01*
Y185190D01*
X242709D01*
Y185159D01*
X242678D01*
Y185096D01*
X242647D01*
Y185065D01*
X242615D01*
Y185003D01*
X242584D01*
Y184940D01*
X242553D01*
Y184909D01*
X242522D01*
Y184847D01*
X242491D01*
Y184816D01*
X242460D01*
Y184753D01*
X242428D01*
Y184691D01*
X242397D01*
Y184660D01*
X242366D01*
Y184598D01*
X242335D01*
Y184535D01*
X242304D01*
Y184504D01*
X242272D01*
Y184442D01*
X242241D01*
Y184411D01*
X242210D01*
Y184348D01*
X242179D01*
Y184286D01*
X242148D01*
Y184255D01*
X242117D01*
Y184192D01*
X242086D01*
Y184161D01*
X242054D01*
Y184099D01*
X242023D01*
Y184037D01*
X241992D01*
Y184005D01*
X241961D01*
Y183943D01*
X241930D01*
Y183912D01*
X241898D01*
Y183850D01*
X241867D01*
Y183787D01*
X241836D01*
Y183756D01*
X241805D01*
Y183694D01*
X241774D01*
Y183631D01*
X241743D01*
Y183600D01*
X241711D01*
Y183538D01*
X241680D01*
Y183507D01*
X241649D01*
Y183444D01*
X241618D01*
Y183382D01*
X241587D01*
Y183351D01*
X241556D01*
Y183289D01*
X241525D01*
Y183257D01*
X241493D01*
Y183195D01*
X241462D01*
Y183133D01*
X241431D01*
Y183101D01*
X241400D01*
Y183039D01*
X241369D01*
Y182977D01*
X241337D01*
Y182946D01*
X241306D01*
Y182883D01*
X241275D01*
Y182852D01*
X241244D01*
Y182790D01*
X241213D01*
Y182728D01*
X241182D01*
Y182696D01*
X241150D01*
Y182634D01*
X241119D01*
Y182603D01*
X241088D01*
Y182541D01*
X241057D01*
Y182478D01*
X241026D01*
Y182447D01*
X240995D01*
Y182385D01*
X240964D01*
Y182353D01*
X240932D01*
Y182291D01*
X240901D01*
Y182229D01*
X240870D01*
Y182198D01*
X240839D01*
Y182135D01*
X240808D01*
Y182073D01*
X240776D01*
Y182042D01*
X240745D01*
Y181980D01*
X240714D01*
Y181948D01*
X240683D01*
Y181886D01*
X240652D01*
Y181824D01*
X240621D01*
Y181792D01*
X240589D01*
Y181730D01*
X240558D01*
Y181699D01*
X240527D01*
Y181637D01*
X240496D01*
Y181574D01*
X240465D01*
Y181543D01*
X240434D01*
Y181481D01*
X240403D01*
Y181450D01*
X240371D01*
Y181387D01*
X240340D01*
Y181325D01*
X240309D01*
Y181294D01*
X240278D01*
Y181231D01*
X240247D01*
Y181169D01*
X240215D01*
Y181138D01*
X240184D01*
Y181076D01*
X240153D01*
Y181044D01*
X240122D01*
Y180982D01*
X240091D01*
Y180920D01*
X240060D01*
Y180889D01*
X240029D01*
Y180826D01*
X239997D01*
Y180795D01*
X239966D01*
Y180733D01*
X235759D01*
Y180795D01*
X235728D01*
Y180826D01*
X235696D01*
Y180889D01*
X235665D01*
Y180920D01*
X235634D01*
Y180982D01*
X235603D01*
Y181044D01*
X235572D01*
Y181076D01*
X235541D01*
Y181138D01*
X235509D01*
Y181169D01*
X235478D01*
Y181231D01*
X235447D01*
Y181263D01*
X235416D01*
Y181325D01*
X235385D01*
Y181356D01*
X235353D01*
Y181419D01*
X235322D01*
Y181450D01*
X235291D01*
Y181512D01*
X235260D01*
Y181574D01*
X235229D01*
Y181606D01*
X235198D01*
Y181668D01*
X235167D01*
Y181699D01*
X235135D01*
Y181761D01*
X235104D01*
Y181792D01*
X235073D01*
Y181855D01*
X235042D01*
Y181886D01*
X235011D01*
Y181948D01*
X234980D01*
Y182011D01*
X234948D01*
Y182042D01*
X234917D01*
Y182104D01*
X234886D01*
Y182135D01*
X234855D01*
Y182198D01*
X234824D01*
Y182229D01*
X234792D01*
Y182291D01*
X234761D01*
Y182322D01*
X234730D01*
Y182385D01*
X234699D01*
Y182416D01*
X234668D01*
Y182478D01*
X234637D01*
Y182541D01*
X234606D01*
Y182572D01*
X234574D01*
Y182634D01*
X234543D01*
Y182665D01*
X234512D01*
Y182728D01*
X234481D01*
Y182759D01*
X234450D01*
Y182821D01*
X234419D01*
Y182852D01*
X234387D01*
Y182914D01*
X234356D01*
Y182946D01*
X234325D01*
Y183008D01*
X234294D01*
Y183070D01*
X234263D01*
Y183101D01*
X234231D01*
Y183164D01*
X234200D01*
Y183195D01*
X234169D01*
Y183257D01*
X234138D01*
Y183289D01*
X234107D01*
Y183351D01*
X234076D01*
Y183382D01*
X234045D01*
Y183444D01*
X234013D01*
Y183475D01*
X233982D01*
Y183538D01*
X233951D01*
Y183600D01*
X233920D01*
Y183631D01*
X233889D01*
Y183694D01*
X233857D01*
Y183725D01*
X233826D01*
Y183787D01*
X233795D01*
Y183818D01*
X233764D01*
Y183881D01*
X233733D01*
Y183912D01*
X233702D01*
Y183974D01*
X233670D01*
Y184005D01*
X233639D01*
Y184068D01*
X233608D01*
Y184130D01*
X233577D01*
Y184161D01*
X233546D01*
Y184223D01*
X233515D01*
Y184255D01*
X233484D01*
Y184317D01*
X233452D01*
Y184348D01*
X233421D01*
Y184411D01*
X233390D01*
Y184442D01*
X233359D01*
Y184504D01*
X233328D01*
Y184535D01*
X233296D01*
Y184598D01*
X233265D01*
Y184660D01*
X233234D01*
Y184691D01*
X233203D01*
Y184753D01*
X233172D01*
Y184784D01*
X233141D01*
Y184847D01*
X233109D01*
Y184878D01*
X233078D01*
Y184940D01*
X233047D01*
Y184971D01*
X233016D01*
Y185034D01*
X232985D01*
Y185096D01*
X232954D01*
Y185127D01*
X232923D01*
Y185190D01*
X232891D01*
Y185221D01*
X232860D01*
Y185283D01*
X232829D01*
Y185314D01*
X232798D01*
Y185377D01*
X232767D01*
Y185408D01*
X232735D01*
Y185470D01*
X232704D01*
Y185501D01*
X232673D01*
Y185564D01*
X232642D01*
Y185626D01*
X232611D01*
Y185657D01*
X232580D01*
Y185720D01*
X232548D01*
Y185751D01*
X232517D01*
Y185813D01*
X232486D01*
Y185844D01*
X232455D01*
Y185907D01*
X232424D01*
Y185938D01*
X232393D01*
Y186000D01*
X232362D01*
Y186031D01*
X232330D01*
Y186093D01*
X232299D01*
Y186156D01*
X232268D01*
Y186187D01*
X232237D01*
Y186249D01*
X232206D01*
Y186281D01*
X232174D01*
Y186343D01*
X232143D01*
Y186374D01*
X232112D01*
Y186436D01*
X232081D01*
Y186468D01*
X232050D01*
Y186530D01*
X232019D01*
Y186561D01*
X231988D01*
Y186623D01*
X231956D01*
Y186686D01*
X231925D01*
Y186717D01*
X231894D01*
Y186779D01*
X231863D01*
Y186810D01*
X231832D01*
Y186873D01*
X231801D01*
Y186904D01*
X231769D01*
Y186966D01*
X231738D01*
Y186997D01*
X231707D01*
Y187060D01*
X231676D01*
Y187091D01*
X231645D01*
Y187153D01*
X231613D01*
Y187215D01*
X231582D01*
Y187247D01*
X231551D01*
Y187309D01*
X231520D01*
Y187340D01*
X231489D01*
Y187402D01*
X231458D01*
Y187434D01*
X231427D01*
Y187496D01*
X231395D01*
Y187527D01*
X231364D01*
Y187590D01*
X231333D01*
Y187621D01*
X231302D01*
Y187683D01*
X231271D01*
Y187745D01*
X231240D01*
Y187777D01*
X231208D01*
Y187839D01*
X231177D01*
Y187870D01*
X231146D01*
Y187932D01*
X231115D01*
Y187963D01*
X231084D01*
Y188026D01*
X231052D01*
Y188057D01*
X231021D01*
Y188119D01*
X230990D01*
Y188151D01*
X230959D01*
Y188213D01*
X230928D01*
Y188275D01*
X230897D01*
Y188306D01*
X230866D01*
Y188369D01*
X230834D01*
Y188400D01*
X230803D01*
Y188462D01*
X230772D01*
Y188493D01*
X230741D01*
Y188556D01*
X230710D01*
Y188587D01*
X230679D01*
Y188649D01*
X230647D01*
Y188712D01*
X230616D01*
Y188743D01*
X230585D01*
Y188805D01*
X230554D01*
Y188836D01*
X230523D01*
Y188899D01*
X230491D01*
Y188930D01*
X230460D01*
Y188992D01*
X230429D01*
Y189023D01*
X230398D01*
Y189085D01*
X230367D01*
Y189117D01*
X230336D01*
Y189179D01*
X230305D01*
Y189241D01*
X230273D01*
Y189272D01*
X230242D01*
Y189335D01*
X230211D01*
Y189366D01*
X230180D01*
Y189428D01*
X230149D01*
Y189460D01*
X230118D01*
Y189522D01*
X230086D01*
Y189553D01*
X230055D01*
Y189615D01*
X230024D01*
Y189646D01*
X229993D01*
Y189709D01*
X229962D01*
Y189771D01*
X229930D01*
Y189802D01*
X229899D01*
Y189865D01*
X229868D01*
Y189896D01*
X229837D01*
Y189958D01*
X229806D01*
Y189989D01*
X229775D01*
Y190052D01*
X229744D01*
Y190083D01*
X229712D01*
Y190145D01*
X229681D01*
Y190176D01*
X229650D01*
Y190239D01*
X229619D01*
Y190301D01*
X229588D01*
Y190332D01*
X229556D01*
Y190394D01*
X229525D01*
Y190426D01*
X229494D01*
Y190488D01*
X229463D01*
Y190519D01*
X229432D01*
Y190582D01*
X229401D01*
Y190613D01*
X229369D01*
Y190675D01*
X229338D01*
Y190706D01*
X229307D01*
Y190769D01*
X229276D01*
Y190831D01*
X229245D01*
Y190862D01*
X229214D01*
Y190924D01*
X229183D01*
Y190955D01*
X229151D01*
Y191018D01*
X229120D01*
Y191049D01*
X229089D01*
Y191111D01*
X229058D01*
Y191142D01*
X229027D01*
Y191205D01*
X228995D01*
Y191236D01*
X228964D01*
Y191298D01*
X228933D01*
Y191361D01*
X228902D01*
Y191392D01*
X228871D01*
Y191454D01*
X228840D01*
Y191485D01*
X228808D01*
Y191548D01*
X228777D01*
Y191579D01*
X228746D01*
Y191641D01*
X228715D01*
Y191672D01*
X228684D01*
Y191735D01*
X228653D01*
Y191766D01*
X228622D01*
Y191828D01*
X228590D01*
Y191891D01*
X228559D01*
Y191922D01*
X228528D01*
Y191984D01*
X228497D01*
Y192015D01*
X228466D01*
Y192078D01*
X228434D01*
Y192109D01*
X228403D01*
Y192171D01*
X228372D01*
Y192202D01*
X228341D01*
Y192264D01*
X228310D01*
Y192327D01*
X228279D01*
Y192358D01*
X228247D01*
Y192420D01*
X228216D01*
Y192452D01*
X228185D01*
Y192514D01*
X228154D01*
Y192545D01*
X228123D01*
Y192607D01*
X228092D01*
Y192639D01*
X228061D01*
Y192701D01*
X228029D01*
Y192732D01*
X227998D01*
Y192794D01*
X227967D01*
Y192857D01*
X227936D01*
Y192888D01*
X227905D01*
Y192950D01*
X227873D01*
Y192981D01*
X227842D01*
Y193044D01*
X227811D01*
Y193075D01*
X227780D01*
Y193137D01*
X227749D01*
Y193168D01*
X227718D01*
Y193231D01*
X227687D01*
Y193262D01*
X227655D01*
Y193324D01*
X227624D01*
Y193386D01*
X227593D01*
Y193418D01*
X227562D01*
Y193480D01*
X227531D01*
Y193511D01*
X227500D01*
Y193542D01*
X232081D01*
Y193511D01*
X232112D01*
Y193449D01*
X232143D01*
Y193418D01*
X232174D01*
Y193355D01*
X232206D01*
Y193293D01*
X232237D01*
Y193262D01*
X232268D01*
Y193200D01*
X232299D01*
Y193137D01*
X232330D01*
Y193106D01*
X232362D01*
Y193044D01*
X232393D01*
Y192981D01*
X232424D01*
Y192919D01*
X232455D01*
Y192888D01*
X232486D01*
Y192825D01*
X232517D01*
Y192763D01*
X232548D01*
Y192732D01*
X232580D01*
Y192670D01*
X232611D01*
Y192607D01*
X232642D01*
Y192576D01*
X232673D01*
Y192514D01*
X232704D01*
Y192452D01*
X232735D01*
Y192420D01*
X232767D01*
Y192358D01*
X232798D01*
Y192296D01*
X232829D01*
Y192264D01*
X232860D01*
Y192202D01*
X232891D01*
Y192140D01*
X232923D01*
Y192109D01*
X232954D01*
Y192046D01*
X232985D01*
Y191984D01*
X233016D01*
Y191953D01*
X233047D01*
Y191891D01*
X233078D01*
Y191828D01*
X233109D01*
Y191797D01*
X233141D01*
Y191735D01*
X233172D01*
Y191672D01*
X233203D01*
Y191641D01*
X233234D01*
Y191579D01*
X233265D01*
Y191516D01*
X233296D01*
Y191454D01*
X233328D01*
Y191423D01*
X233359D01*
Y191361D01*
X233390D01*
Y191298D01*
X233421D01*
Y191267D01*
X233452D01*
Y191205D01*
X233484D01*
Y191142D01*
X233515D01*
Y191111D01*
X233546D01*
Y191049D01*
X233577D01*
Y190987D01*
X233608D01*
Y190955D01*
X233639D01*
Y190893D01*
X233670D01*
Y190831D01*
X233702D01*
Y190800D01*
X233733D01*
Y190737D01*
X233764D01*
Y190675D01*
X233795D01*
Y190644D01*
X233826D01*
Y190582D01*
X233857D01*
Y190519D01*
X233889D01*
Y190488D01*
X233920D01*
Y190426D01*
X233951D01*
Y190363D01*
X233982D01*
Y190332D01*
X234013D01*
Y190270D01*
X234045D01*
Y190208D01*
X234076D01*
Y190176D01*
X234107D01*
Y190114D01*
X234138D01*
Y190052D01*
X234169D01*
Y189989D01*
X234200D01*
Y189958D01*
X234231D01*
Y189896D01*
X234263D01*
Y189833D01*
X234294D01*
Y189802D01*
X234325D01*
Y189740D01*
X234356D01*
Y189678D01*
X234387D01*
Y189646D01*
X234419D01*
Y189584D01*
X234450D01*
Y189522D01*
X234481D01*
Y189491D01*
X234512D01*
Y189428D01*
X234543D01*
Y189366D01*
X234574D01*
Y189335D01*
X234606D01*
Y189272D01*
X234637D01*
Y189210D01*
X234668D01*
Y189179D01*
X234699D01*
Y189117D01*
X234730D01*
Y189054D01*
X234761D01*
Y189023D01*
X234792D01*
Y188961D01*
X234824D01*
Y188899D01*
X234855D01*
Y188867D01*
X234886D01*
Y188805D01*
X234917D01*
Y188743D01*
X234948D01*
Y188712D01*
X234980D01*
Y188649D01*
X235011D01*
Y188587D01*
X235042D01*
Y188524D01*
X235073D01*
Y188493D01*
X235104D01*
Y188431D01*
X235135D01*
Y188369D01*
X235167D01*
Y188338D01*
X235198D01*
Y188275D01*
X235229D01*
Y188213D01*
X235260D01*
Y188182D01*
X235291D01*
Y188119D01*
X235322D01*
Y188057D01*
X235353D01*
Y188026D01*
X235385D01*
Y187963D01*
X235416D01*
Y187901D01*
X235447D01*
Y187870D01*
X235478D01*
Y187808D01*
X235509D01*
Y187745D01*
X235541D01*
Y187714D01*
X235572D01*
Y187652D01*
X235603D01*
Y187590D01*
X235634D01*
Y187558D01*
X235665D01*
Y187496D01*
X235696D01*
Y187434D01*
X235728D01*
Y187402D01*
X235759D01*
Y187340D01*
X235790D01*
Y187278D01*
X235821D01*
Y187247D01*
X235852D01*
Y187184D01*
X235883D01*
Y187122D01*
X235914D01*
Y187060D01*
X235946D01*
Y187029D01*
X235977D01*
Y186966D01*
X236008D01*
Y186904D01*
X236039D01*
Y186873D01*
X236070D01*
Y186810D01*
X236102D01*
Y186748D01*
X236133D01*
Y186717D01*
X236164D01*
Y186654D01*
X236195D01*
Y186592D01*
X236226D01*
Y186561D01*
X236257D01*
Y186499D01*
X236288D01*
Y186436D01*
X236320D01*
Y186405D01*
X236351D01*
Y186343D01*
X236382D01*
Y186281D01*
X236413D01*
Y186249D01*
X236444D01*
Y186187D01*
X236475D01*
Y186125D01*
X236507D01*
Y186093D01*
X236538D01*
Y186031D01*
X236569D01*
Y185969D01*
X236600D01*
Y185938D01*
X236631D01*
Y185875D01*
X236663D01*
Y185813D01*
X236694D01*
Y185782D01*
X236725D01*
Y185720D01*
X236756D01*
Y185657D01*
X236787D01*
Y185595D01*
X236818D01*
Y185564D01*
X236849D01*
Y185501D01*
X236881D01*
Y185439D01*
X236912D01*
Y185408D01*
X236943D01*
Y185345D01*
X236974D01*
Y185283D01*
X237005D01*
Y185252D01*
X237036D01*
Y185190D01*
X237068D01*
Y185127D01*
X237099D01*
Y185096D01*
X237130D01*
Y185034D01*
X237161D01*
Y184971D01*
X237192D01*
Y184940D01*
X237224D01*
Y184878D01*
X237255D01*
Y184816D01*
X237286D01*
Y184784D01*
X237317D01*
Y184722D01*
X237348D01*
Y184660D01*
X237379D01*
Y184629D01*
X237410D01*
Y184566D01*
X237442D01*
Y184504D01*
X237473D01*
Y184473D01*
X237504D01*
Y184411D01*
X237535D01*
Y184348D01*
X237566D01*
Y184317D01*
X237597D01*
Y184255D01*
X237629D01*
Y184192D01*
X237660D01*
Y184130D01*
X237691D01*
Y184099D01*
X237722D01*
Y184037D01*
X237785D01*
Y184099D01*
X237816D01*
Y184130D01*
X237847D01*
Y184192D01*
X237878D01*
Y184223D01*
X237909D01*
Y184286D01*
X237940D01*
Y184348D01*
X237971D01*
Y184379D01*
X238003D01*
Y184442D01*
X238034D01*
Y184504D01*
X238065D01*
Y184535D01*
X238096D01*
Y184598D01*
X238127D01*
Y184629D01*
X238158D01*
Y184691D01*
X238190D01*
Y184753D01*
X238221D01*
Y184784D01*
X238252D01*
Y184847D01*
X238283D01*
Y184909D01*
X238314D01*
Y184940D01*
X238346D01*
Y185003D01*
X238377D01*
Y185034D01*
X238408D01*
Y185096D01*
X238439D01*
Y185159D01*
X238470D01*
Y185190D01*
X238501D01*
Y185252D01*
X238532D01*
Y185314D01*
X238564D01*
Y185345D01*
X238595D01*
Y185408D01*
X238626D01*
Y185439D01*
X238657D01*
Y185501D01*
X238688D01*
Y185564D01*
X238720D01*
Y185595D01*
X238751D01*
Y185657D01*
X238782D01*
Y185720D01*
X238813D01*
Y185751D01*
X238844D01*
Y185813D01*
X238875D01*
Y185844D01*
X238907D01*
Y185907D01*
X238938D01*
Y185969D01*
X238969D01*
Y186000D01*
X239000D01*
Y186062D01*
X239031D01*
Y186125D01*
X239062D01*
Y186156D01*
X239093D01*
Y186218D01*
X239125D01*
Y186249D01*
X239156D01*
Y186312D01*
X239187D01*
Y186374D01*
X239218D01*
Y186405D01*
X239249D01*
Y186468D01*
X239281D01*
Y186530D01*
X239312D01*
Y186561D01*
X239343D01*
Y186623D01*
X239374D01*
Y186654D01*
X239405D01*
Y186717D01*
X239436D01*
Y186779D01*
X239468D01*
Y186810D01*
X239499D01*
Y186873D01*
X239530D01*
Y186935D01*
X239561D01*
Y186966D01*
X239592D01*
Y187029D01*
X239623D01*
Y187060D01*
X239654D01*
Y187122D01*
X239686D01*
Y187184D01*
X239717D01*
Y187215D01*
X239748D01*
Y187278D01*
X239779D01*
Y187340D01*
X239810D01*
Y187371D01*
X239842D01*
Y187434D01*
X239873D01*
Y187465D01*
X239904D01*
Y187527D01*
X239935D01*
Y187590D01*
X239966D01*
Y187621D01*
X239997D01*
Y187683D01*
X240029D01*
Y187745D01*
X240060D01*
Y187777D01*
X240091D01*
Y187839D01*
X240122D01*
Y187870D01*
X240153D01*
Y187932D01*
X240184D01*
Y187995D01*
X240215D01*
Y188026D01*
X240247D01*
Y188088D01*
X240278D01*
Y188151D01*
X240309D01*
Y188182D01*
X240340D01*
Y188244D01*
X240371D01*
Y188275D01*
X240403D01*
Y188338D01*
X240434D01*
Y188400D01*
X240465D01*
Y188431D01*
X240496D01*
Y188493D01*
X240527D01*
Y188556D01*
X240558D01*
Y188587D01*
X240589D01*
Y188649D01*
X240621D01*
Y188680D01*
X240652D01*
Y188743D01*
X240683D01*
Y188805D01*
X240714D01*
Y188836D01*
X240745D01*
Y188899D01*
X240776D01*
Y188961D01*
X240808D01*
Y188992D01*
X240839D01*
Y189054D01*
X240870D01*
Y189085D01*
X240901D01*
Y189148D01*
X240932D01*
Y189210D01*
X240964D01*
Y189241D01*
X240995D01*
Y189304D01*
X241026D01*
Y189366D01*
X241057D01*
Y189397D01*
X241088D01*
Y189460D01*
X241119D01*
Y189491D01*
X241150D01*
Y189553D01*
X241182D01*
Y189615D01*
X241213D01*
Y189646D01*
X241244D01*
Y189709D01*
X241275D01*
Y189771D01*
X241306D01*
Y189802D01*
X241337D01*
Y189865D01*
X241369D01*
Y189896D01*
X241400D01*
Y189958D01*
X241431D01*
Y190021D01*
X241462D01*
Y190052D01*
X241493D01*
Y190114D01*
X241525D01*
Y190176D01*
X241556D01*
Y190208D01*
X241587D01*
Y190270D01*
X241618D01*
Y190301D01*
X241649D01*
Y190363D01*
X241680D01*
Y190426D01*
X241711D01*
Y190457D01*
X241743D01*
Y190519D01*
X241774D01*
Y190582D01*
X241805D01*
Y190613D01*
X241836D01*
Y190675D01*
X241867D01*
Y190706D01*
X241898D01*
Y190769D01*
X241930D01*
Y190831D01*
X241961D01*
Y190862D01*
X241992D01*
Y190924D01*
X242023D01*
Y190987D01*
X242054D01*
Y191018D01*
X242086D01*
Y191080D01*
X242117D01*
Y191111D01*
X242148D01*
Y191174D01*
X242179D01*
Y191236D01*
X242210D01*
Y191267D01*
X242241D01*
Y191330D01*
X242272D01*
Y191392D01*
X242304D01*
Y191423D01*
X242335D01*
Y191485D01*
X242366D01*
Y191516D01*
X242397D01*
Y191579D01*
X242428D01*
Y191641D01*
X242460D01*
Y191672D01*
X242491D01*
Y191735D01*
X242522D01*
Y191797D01*
X242553D01*
Y191828D01*
X242584D01*
Y191891D01*
X242615D01*
Y191922D01*
X242647D01*
Y191984D01*
X242678D01*
Y192046D01*
X242709D01*
Y192078D01*
X242740D01*
Y192140D01*
X242771D01*
Y192202D01*
X242802D01*
Y192233D01*
X242833D01*
Y192296D01*
X242865D01*
Y192327D01*
X242896D01*
Y192389D01*
X242927D01*
Y192452D01*
X242958D01*
Y192483D01*
X242989D01*
Y192545D01*
X243021D01*
Y192607D01*
X243052D01*
Y192639D01*
X243083D01*
Y192701D01*
X243114D01*
Y192732D01*
X243145D01*
Y192794D01*
X243176D01*
Y192857D01*
X243208D01*
Y192888D01*
X243239D01*
Y192950D01*
X243270D01*
Y193012D01*
X243301D01*
Y193044D01*
X243332D01*
Y193106D01*
X243363D01*
Y193137D01*
X243394D01*
Y193200D01*
X243426D01*
Y193262D01*
X243457D01*
Y193293D01*
X243488D01*
Y193355D01*
X243519D01*
Y193418D01*
X243550D01*
Y193449D01*
X243582D01*
Y193511D01*
X243613D01*
Y193542D01*
X247883D01*
Y193480D01*
D02*
G37*
G36*
X203906Y193573D02*
X204405D01*
Y193542D01*
X204748D01*
Y193511D01*
X205028D01*
Y193480D01*
X205278D01*
Y193449D01*
X205496D01*
Y193418D01*
X205683D01*
Y193386D01*
X205870D01*
Y193355D01*
X206026D01*
Y193324D01*
X206150D01*
Y193293D01*
X206275D01*
Y193262D01*
X206400D01*
Y193231D01*
X206524D01*
Y193200D01*
X206649D01*
Y193168D01*
X206743D01*
Y193137D01*
X206836D01*
Y193106D01*
X206929D01*
Y193075D01*
X207023D01*
Y193044D01*
X207117D01*
Y193012D01*
X207179D01*
Y192981D01*
X207272D01*
Y192950D01*
X207335D01*
Y192919D01*
X207428D01*
Y192888D01*
X207490D01*
Y192857D01*
X207553D01*
Y192825D01*
X207615D01*
Y192794D01*
X207678D01*
Y192763D01*
X207740D01*
Y192732D01*
X207802D01*
Y192701D01*
X207833D01*
Y192670D01*
X207896D01*
Y192639D01*
X207958D01*
Y192607D01*
X207989D01*
Y192576D01*
X208051D01*
Y192545D01*
X208083D01*
Y192514D01*
X208145D01*
Y192483D01*
X208176D01*
Y192452D01*
X208239D01*
Y192420D01*
X208270D01*
Y192389D01*
X208301D01*
Y192358D01*
X208332D01*
Y192327D01*
X208394D01*
Y192296D01*
X208425D01*
Y192264D01*
X208457D01*
Y192233D01*
X208488D01*
Y192202D01*
X208519D01*
Y192171D01*
X208550D01*
Y192140D01*
X208581D01*
Y192109D01*
X208612D01*
Y192078D01*
X208644D01*
Y192046D01*
X208675D01*
Y192015D01*
X208706D01*
Y191984D01*
X208737D01*
Y191953D01*
X208768D01*
Y191891D01*
X208800D01*
Y191859D01*
X208831D01*
Y191828D01*
X208862D01*
Y191797D01*
X208893D01*
Y191735D01*
X208924D01*
Y191703D01*
X208955D01*
Y191641D01*
X208986D01*
Y191610D01*
X209018D01*
Y191548D01*
X209049D01*
Y191485D01*
X209080D01*
Y191423D01*
X209111D01*
Y191361D01*
X209142D01*
Y191298D01*
X209173D01*
Y191236D01*
X209205D01*
Y191174D01*
X209236D01*
Y191111D01*
X209267D01*
Y191018D01*
X209298D01*
Y190924D01*
X209329D01*
Y190831D01*
X209361D01*
Y190706D01*
X209392D01*
Y190550D01*
X209423D01*
Y190363D01*
X209454D01*
Y190083D01*
X209485D01*
Y189460D01*
X209454D01*
Y189179D01*
X209423D01*
Y188992D01*
X209392D01*
Y188836D01*
X209361D01*
Y188743D01*
X209329D01*
Y188649D01*
X209298D01*
Y188556D01*
X209267D01*
Y188462D01*
X209236D01*
Y188400D01*
X209205D01*
Y188338D01*
X209173D01*
Y188244D01*
X209142D01*
Y188182D01*
X209111D01*
Y188151D01*
X209080D01*
Y188088D01*
X209049D01*
Y188026D01*
X209018D01*
Y187963D01*
X208986D01*
Y187932D01*
X208955D01*
Y187870D01*
X208924D01*
Y187839D01*
X208893D01*
Y187808D01*
X208862D01*
Y187745D01*
X208831D01*
Y187714D01*
X208800D01*
Y187683D01*
X208768D01*
Y187621D01*
X208737D01*
Y187590D01*
X208706D01*
Y187558D01*
X208675D01*
Y187527D01*
X208644D01*
Y187496D01*
X208612D01*
Y187465D01*
X208581D01*
Y187434D01*
X208550D01*
Y187402D01*
X208519D01*
Y187371D01*
X208488D01*
Y187340D01*
X208457D01*
Y187309D01*
X208425D01*
Y187278D01*
X208394D01*
Y187247D01*
X208363D01*
Y187215D01*
X208332D01*
Y187184D01*
X208270D01*
Y187153D01*
X208239D01*
Y187122D01*
X208207D01*
Y187091D01*
X208176D01*
Y187060D01*
X208114D01*
Y187029D01*
X208083D01*
Y186997D01*
X208020D01*
Y186966D01*
X207989D01*
Y186935D01*
X207927D01*
Y186904D01*
X207896D01*
Y186873D01*
X207833D01*
Y186841D01*
X207771D01*
Y186810D01*
X207740D01*
Y186779D01*
X207678D01*
Y186748D01*
X207615D01*
Y186717D01*
X207553D01*
Y186686D01*
X207490D01*
Y186654D01*
X207428D01*
Y186623D01*
X207366D01*
Y186592D01*
X207304D01*
Y186561D01*
X207210D01*
Y186530D01*
X207148D01*
Y186499D01*
X207054D01*
Y186468D01*
X206992D01*
Y186436D01*
X206898D01*
Y186405D01*
X206805D01*
Y186374D01*
X206680D01*
Y186343D01*
X206587D01*
Y186312D01*
X206462D01*
Y186281D01*
X206337D01*
Y186249D01*
X206213D01*
Y186218D01*
X206057D01*
Y186187D01*
X205901D01*
Y186156D01*
X205683D01*
Y186093D01*
X205714D01*
Y186062D01*
X205745D01*
Y186031D01*
X205776D01*
Y185969D01*
X205807D01*
Y185938D01*
X205839D01*
Y185907D01*
X205870D01*
Y185875D01*
X205901D01*
Y185844D01*
X205932D01*
Y185813D01*
X205963D01*
Y185782D01*
X205995D01*
Y185751D01*
X206026D01*
Y185688D01*
X206057D01*
Y185657D01*
X206088D01*
Y185626D01*
X206119D01*
Y185595D01*
X206150D01*
Y185564D01*
X206182D01*
Y185532D01*
X206213D01*
Y185501D01*
X206244D01*
Y185470D01*
X206275D01*
Y185408D01*
X206306D01*
Y185377D01*
X206337D01*
Y185345D01*
X206368D01*
Y185314D01*
X206400D01*
Y185283D01*
X206431D01*
Y185252D01*
X206462D01*
Y185221D01*
X206493D01*
Y185190D01*
X206524D01*
Y185127D01*
X206556D01*
Y185096D01*
X206587D01*
Y185065D01*
X206618D01*
Y185034D01*
X206649D01*
Y185003D01*
X206680D01*
Y184971D01*
X206711D01*
Y184940D01*
X206743D01*
Y184909D01*
X206774D01*
Y184847D01*
X206805D01*
Y184816D01*
X206836D01*
Y184784D01*
X206867D01*
Y184753D01*
X206898D01*
Y184722D01*
X206929D01*
Y184691D01*
X206961D01*
Y184660D01*
X206992D01*
Y184598D01*
X207023D01*
Y184566D01*
X207054D01*
Y184535D01*
X207085D01*
Y184504D01*
X207117D01*
Y184473D01*
X207148D01*
Y184442D01*
X207179D01*
Y184411D01*
X207210D01*
Y184379D01*
X207241D01*
Y184317D01*
X207272D01*
Y184286D01*
X207304D01*
Y184255D01*
X207335D01*
Y184223D01*
X207366D01*
Y184192D01*
X207397D01*
Y184161D01*
X207428D01*
Y184130D01*
X207459D01*
Y184099D01*
X207490D01*
Y184037D01*
X207522D01*
Y184005D01*
X207553D01*
Y183974D01*
X207584D01*
Y183943D01*
X207615D01*
Y183912D01*
X207646D01*
Y183881D01*
X207678D01*
Y183850D01*
X207709D01*
Y183818D01*
X207740D01*
Y183756D01*
X207771D01*
Y183725D01*
X207802D01*
Y183694D01*
X207833D01*
Y183662D01*
X207864D01*
Y183631D01*
X207896D01*
Y183600D01*
X207927D01*
Y183569D01*
X207958D01*
Y183538D01*
X207989D01*
Y183475D01*
X208020D01*
Y183444D01*
X208051D01*
Y183413D01*
X208083D01*
Y183382D01*
X208114D01*
Y183351D01*
X208145D01*
Y183320D01*
X208176D01*
Y183289D01*
X208207D01*
Y183257D01*
X208239D01*
Y183195D01*
X208270D01*
Y183164D01*
X208301D01*
Y183133D01*
X208332D01*
Y183101D01*
X208363D01*
Y183070D01*
X208394D01*
Y183039D01*
X208425D01*
Y183008D01*
X208457D01*
Y182946D01*
X208488D01*
Y182914D01*
X208519D01*
Y182883D01*
X208550D01*
Y182852D01*
X208581D01*
Y182821D01*
X208612D01*
Y182790D01*
X208644D01*
Y182759D01*
X208675D01*
Y182728D01*
X208706D01*
Y182665D01*
X208737D01*
Y182634D01*
X208768D01*
Y182603D01*
X208800D01*
Y182572D01*
X208831D01*
Y182541D01*
X208862D01*
Y182509D01*
X208893D01*
Y182478D01*
X208924D01*
Y182447D01*
X208955D01*
Y182385D01*
X208986D01*
Y182353D01*
X209018D01*
Y182322D01*
X209049D01*
Y182291D01*
X209080D01*
Y182260D01*
X209111D01*
Y182229D01*
X209142D01*
Y182198D01*
X209173D01*
Y182167D01*
X209205D01*
Y182104D01*
X209236D01*
Y182073D01*
X209267D01*
Y182042D01*
X209298D01*
Y182011D01*
X209329D01*
Y181980D01*
X209361D01*
Y181948D01*
X209392D01*
Y181917D01*
X209423D01*
Y181886D01*
X209454D01*
Y181824D01*
X209485D01*
Y181792D01*
X209516D01*
Y181761D01*
X209547D01*
Y181730D01*
X209579D01*
Y181699D01*
X209610D01*
Y181668D01*
X209641D01*
Y181637D01*
X209672D01*
Y181574D01*
X209703D01*
Y181543D01*
X209735D01*
Y181512D01*
X209766D01*
Y181481D01*
X209797D01*
Y181450D01*
X209828D01*
Y181419D01*
X209859D01*
Y181387D01*
X209890D01*
Y181356D01*
X209922D01*
Y181294D01*
X209953D01*
Y181263D01*
X209984D01*
Y181231D01*
X210015D01*
Y181200D01*
X210046D01*
Y181169D01*
X210077D01*
Y181138D01*
X210108D01*
Y181107D01*
X210140D01*
Y181076D01*
X210171D01*
Y181013D01*
X210202D01*
Y180982D01*
X210233D01*
Y180951D01*
X210264D01*
Y180920D01*
X210296D01*
Y180889D01*
X210327D01*
Y180858D01*
X210358D01*
Y180826D01*
X210389D01*
Y180795D01*
X205839D01*
Y180826D01*
X205807D01*
Y180858D01*
X205776D01*
Y180920D01*
X205745D01*
Y180951D01*
X205714D01*
Y180982D01*
X205683D01*
Y181013D01*
X205652D01*
Y181044D01*
X205621D01*
Y181107D01*
X205589D01*
Y181138D01*
X205558D01*
Y181169D01*
X205527D01*
Y181200D01*
X205496D01*
Y181231D01*
X205465D01*
Y181294D01*
X205434D01*
Y181325D01*
X205402D01*
Y181356D01*
X205371D01*
Y181387D01*
X205340D01*
Y181419D01*
X205309D01*
Y181481D01*
X205278D01*
Y181512D01*
X205246D01*
Y181543D01*
X205215D01*
Y181574D01*
X205184D01*
Y181637D01*
X205153D01*
Y181668D01*
X205122D01*
Y181699D01*
X205091D01*
Y181730D01*
X205060D01*
Y181761D01*
X205028D01*
Y181824D01*
X204997D01*
Y181855D01*
X204966D01*
Y181886D01*
X204935D01*
Y181917D01*
X204904D01*
Y181948D01*
X204872D01*
Y182011D01*
X204841D01*
Y182042D01*
X204810D01*
Y182073D01*
X204779D01*
Y182104D01*
X204748D01*
Y182135D01*
X204717D01*
Y182198D01*
X204685D01*
Y182229D01*
X204654D01*
Y182260D01*
X204623D01*
Y182291D01*
X204592D01*
Y182322D01*
X204561D01*
Y182385D01*
X204530D01*
Y182416D01*
X204499D01*
Y182447D01*
X204467D01*
Y182478D01*
X204436D01*
Y182509D01*
X204405D01*
Y182572D01*
X204374D01*
Y182603D01*
X204343D01*
Y182634D01*
X204311D01*
Y182665D01*
X204280D01*
Y182696D01*
X204249D01*
Y182759D01*
X204218D01*
Y182790D01*
X204187D01*
Y182821D01*
X204156D01*
Y182852D01*
X204124D01*
Y182883D01*
X204093D01*
Y182946D01*
X204062D01*
Y182977D01*
X204031D01*
Y183008D01*
X204000D01*
Y183039D01*
X203969D01*
Y183101D01*
X203938D01*
Y183133D01*
X203906D01*
Y183164D01*
X203875D01*
Y183195D01*
X203844D01*
Y183226D01*
X203813D01*
Y183289D01*
X203782D01*
Y183320D01*
X203750D01*
Y183351D01*
X203719D01*
Y183382D01*
X203688D01*
Y183413D01*
X203657D01*
Y183475D01*
X203626D01*
Y183507D01*
X203595D01*
Y183538D01*
X203563D01*
Y183569D01*
X203532D01*
Y183600D01*
X203501D01*
Y183662D01*
X203470D01*
Y183694D01*
X203439D01*
Y183725D01*
X203408D01*
Y183756D01*
X203377D01*
Y183787D01*
X203345D01*
Y183850D01*
X203314D01*
Y183881D01*
X203283D01*
Y183912D01*
X203252D01*
Y183943D01*
X203221D01*
Y183974D01*
X203189D01*
Y184037D01*
X203158D01*
Y184068D01*
X203127D01*
Y184099D01*
X203096D01*
Y184130D01*
X203065D01*
Y184161D01*
X203034D01*
Y184223D01*
X203003D01*
Y184255D01*
X202971D01*
Y184286D01*
X202940D01*
Y184317D01*
X202909D01*
Y184348D01*
X202878D01*
Y184411D01*
X202847D01*
Y184442D01*
X202816D01*
Y184473D01*
X202784D01*
Y184504D01*
X202753D01*
Y184566D01*
X202722D01*
Y184598D01*
X202691D01*
Y184629D01*
X202660D01*
Y184660D01*
X202628D01*
Y184691D01*
X202597D01*
Y184753D01*
X202566D01*
Y184784D01*
X202535D01*
Y184816D01*
X202504D01*
Y184847D01*
X202473D01*
Y184878D01*
X202442D01*
Y184940D01*
X202410D01*
Y184971D01*
X202379D01*
Y185003D01*
X202348D01*
Y185034D01*
X202317D01*
Y185065D01*
X202286D01*
Y185127D01*
X202255D01*
Y185159D01*
X202223D01*
Y185190D01*
X202192D01*
Y185221D01*
X202161D01*
Y185252D01*
X202130D01*
Y185314D01*
X202099D01*
Y185345D01*
X202067D01*
Y185377D01*
X202036D01*
Y185408D01*
X202005D01*
Y185439D01*
X201974D01*
Y185501D01*
X201943D01*
Y185532D01*
X201912D01*
Y185564D01*
X201881D01*
Y185595D01*
X201849D01*
Y185626D01*
X201818D01*
Y185688D01*
X201787D01*
Y185720D01*
X201756D01*
Y185751D01*
X201725D01*
Y185782D01*
X201694D01*
Y185813D01*
X201662D01*
Y185844D01*
X201631D01*
Y185907D01*
X201600D01*
Y185938D01*
X201569D01*
Y185969D01*
X201538D01*
Y186000D01*
X201506D01*
Y186031D01*
X201475D01*
Y186062D01*
X201444D01*
Y186125D01*
X201413D01*
Y186156D01*
X201382D01*
Y186187D01*
X201351D01*
Y186218D01*
X201320D01*
Y186249D01*
X201288D01*
Y186281D01*
X201257D01*
Y186343D01*
X201226D01*
Y186374D01*
X201195D01*
Y186405D01*
X201164D01*
Y186436D01*
X201132D01*
Y186468D01*
X201101D01*
Y186530D01*
X201070D01*
Y186561D01*
X201039D01*
Y186592D01*
X201008D01*
Y186623D01*
X200977D01*
Y186654D01*
X200945D01*
Y186686D01*
X200914D01*
Y186748D01*
X200883D01*
Y186779D01*
X200852D01*
Y186810D01*
X200821D01*
Y186841D01*
X200790D01*
Y186873D01*
X200759D01*
Y186935D01*
X200727D01*
Y186966D01*
X200696D01*
Y186997D01*
X200665D01*
Y187029D01*
X200634D01*
Y187060D01*
X200603D01*
Y187091D01*
X200571D01*
Y187153D01*
X200540D01*
Y187184D01*
X200509D01*
Y187215D01*
X200478D01*
Y187247D01*
X200447D01*
Y187278D01*
X200416D01*
Y187340D01*
X200384D01*
Y187371D01*
X200353D01*
Y187402D01*
X200322D01*
Y187434D01*
X200291D01*
Y187465D01*
X200260D01*
Y187496D01*
X200229D01*
Y187558D01*
X200198D01*
Y187590D01*
X200166D01*
Y187621D01*
X200135D01*
Y187652D01*
X200104D01*
Y187683D01*
X200073D01*
Y187745D01*
X200042D01*
Y187777D01*
X200010D01*
Y187808D01*
X199979D01*
Y187839D01*
X199948D01*
Y187870D01*
X199917D01*
Y187901D01*
X199886D01*
Y187963D01*
X199855D01*
Y187995D01*
X199823D01*
Y188026D01*
X199792D01*
Y188057D01*
X199761D01*
Y188088D01*
X202722D01*
Y188119D01*
X203034D01*
Y188151D01*
X203377D01*
Y188182D01*
X203626D01*
Y188213D01*
X203813D01*
Y188244D01*
X204000D01*
Y188275D01*
X204124D01*
Y188306D01*
X204249D01*
Y188338D01*
X204343D01*
Y188369D01*
X204467D01*
Y188400D01*
X204530D01*
Y188431D01*
X204623D01*
Y188462D01*
X204685D01*
Y188493D01*
X204748D01*
Y188524D01*
X204779D01*
Y188556D01*
X204841D01*
Y188587D01*
X204872D01*
Y188618D01*
X204935D01*
Y188649D01*
X204966D01*
Y188680D01*
X204997D01*
Y188712D01*
X205028D01*
Y188743D01*
X205060D01*
Y188774D01*
X205091D01*
Y188805D01*
X205122D01*
Y188836D01*
X205153D01*
Y188899D01*
X205184D01*
Y188930D01*
X205215D01*
Y188961D01*
X205246D01*
Y189023D01*
X205278D01*
Y189085D01*
X205309D01*
Y189179D01*
X205340D01*
Y189241D01*
X205371D01*
Y189366D01*
X205402D01*
Y189553D01*
X205434D01*
Y189865D01*
X205402D01*
Y190052D01*
X205371D01*
Y190176D01*
X205340D01*
Y190270D01*
X205309D01*
Y190332D01*
X205278D01*
Y190394D01*
X205246D01*
Y190457D01*
X205215D01*
Y190488D01*
X205184D01*
Y190550D01*
X205153D01*
Y190582D01*
X205122D01*
Y190613D01*
X205091D01*
Y190644D01*
X205060D01*
Y190675D01*
X205028D01*
Y190706D01*
X204997D01*
Y190737D01*
X204966D01*
Y190769D01*
X204904D01*
Y190800D01*
X204872D01*
Y190831D01*
X204841D01*
Y190862D01*
X204779D01*
Y190893D01*
X204717D01*
Y190924D01*
X204654D01*
Y190955D01*
X204561D01*
Y190987D01*
X204499D01*
Y191018D01*
X204405D01*
Y191049D01*
X204280D01*
Y191080D01*
X204156D01*
Y191111D01*
X204031D01*
Y191142D01*
X203875D01*
Y191174D01*
X203657D01*
Y191205D01*
X203408D01*
Y191236D01*
X203065D01*
Y191267D01*
X202442D01*
Y191298D01*
X198265D01*
Y191267D01*
X198078D01*
Y191236D01*
X197985D01*
Y191205D01*
X197891D01*
Y191174D01*
X197829D01*
Y191142D01*
X197766D01*
Y191111D01*
X197704D01*
Y191080D01*
X197642D01*
Y191049D01*
X197611D01*
Y191018D01*
X197548D01*
Y190987D01*
X197517D01*
Y190955D01*
X197486D01*
Y190924D01*
X197455D01*
Y190893D01*
X197424D01*
Y190862D01*
X197392D01*
Y190831D01*
X197361D01*
Y190800D01*
X197330D01*
Y190769D01*
X197299D01*
Y190737D01*
X197268D01*
Y190675D01*
X197237D01*
Y190644D01*
X197205D01*
Y190582D01*
X197174D01*
Y190519D01*
X197143D01*
Y190457D01*
X197112D01*
Y190394D01*
X197081D01*
Y190301D01*
X197050D01*
Y190208D01*
X197019D01*
Y190052D01*
X196987D01*
Y180795D01*
X192998D01*
Y193605D01*
X203906D01*
Y193573D01*
D02*
G37*
G36*
X183586D02*
X184302D01*
Y193542D01*
X184801D01*
Y193511D01*
X185175D01*
Y193480D01*
X185487D01*
Y193449D01*
X185705D01*
Y193418D01*
X185923D01*
Y193386D01*
X186110D01*
Y193355D01*
X186266D01*
Y193324D01*
X186422D01*
Y193293D01*
X186578D01*
Y193262D01*
X186702D01*
Y193231D01*
X186827D01*
Y193200D01*
X186952D01*
Y193168D01*
X187076D01*
Y193137D01*
X187170D01*
Y193106D01*
X187263D01*
Y193075D01*
X187357D01*
Y193044D01*
X187419D01*
Y193012D01*
X187513D01*
Y192981D01*
X187575D01*
Y192950D01*
X187669D01*
Y192919D01*
X187731D01*
Y192888D01*
X187793D01*
Y192857D01*
X187856D01*
Y192825D01*
X187918D01*
Y192794D01*
X187980D01*
Y192763D01*
X188042D01*
Y192732D01*
X188105D01*
Y192701D01*
X188167D01*
Y192670D01*
X188230D01*
Y192639D01*
X188292D01*
Y192607D01*
X188354D01*
Y192576D01*
X188385D01*
Y192545D01*
X188448D01*
Y192514D01*
X188510D01*
Y192483D01*
X188541D01*
Y192452D01*
X188603D01*
Y192420D01*
X188635D01*
Y192389D01*
X188697D01*
Y192358D01*
X188728D01*
Y192327D01*
X188759D01*
Y192296D01*
X188822D01*
Y192264D01*
X188853D01*
Y192233D01*
X188884D01*
Y192202D01*
X188946D01*
Y192171D01*
X188978D01*
Y192140D01*
X189009D01*
Y192109D01*
X189040D01*
Y192078D01*
X189071D01*
Y192046D01*
X189102D01*
Y192015D01*
X189164D01*
Y191984D01*
X189196D01*
Y191953D01*
X189227D01*
Y191922D01*
X189258D01*
Y191891D01*
X189289D01*
Y191859D01*
X189320D01*
Y191828D01*
X189351D01*
Y191766D01*
X189383D01*
Y191735D01*
X189414D01*
Y191703D01*
X189445D01*
Y191672D01*
X189476D01*
Y191641D01*
X189507D01*
Y191610D01*
X189539D01*
Y191548D01*
X189570D01*
Y191516D01*
X189601D01*
Y191485D01*
X189632D01*
Y191423D01*
X189663D01*
Y191392D01*
X189694D01*
Y191330D01*
X189725D01*
Y191267D01*
X189757D01*
Y191236D01*
X189788D01*
Y191174D01*
X189819D01*
Y191111D01*
X189850D01*
Y191049D01*
X189881D01*
Y190987D01*
X189912D01*
Y190924D01*
X189944D01*
Y190862D01*
X189975D01*
Y190769D01*
X190006D01*
Y190706D01*
X190037D01*
Y190613D01*
X190068D01*
Y190488D01*
X190100D01*
Y190394D01*
X190131D01*
Y190239D01*
X190162D01*
Y190083D01*
X190193D01*
Y189833D01*
X190224D01*
Y188992D01*
X190193D01*
Y188712D01*
X190162D01*
Y188556D01*
X190131D01*
Y188400D01*
X190100D01*
Y188275D01*
X190068D01*
Y188182D01*
X190037D01*
Y188088D01*
X190006D01*
Y187995D01*
X189975D01*
Y187932D01*
X189944D01*
Y187870D01*
Y187839D01*
X189912D01*
Y187777D01*
X189881D01*
Y187714D01*
X189850D01*
Y187652D01*
X189819D01*
Y187590D01*
X189788D01*
Y187558D01*
X189757D01*
Y187496D01*
X189725D01*
Y187434D01*
X189694D01*
Y187402D01*
X189663D01*
Y187371D01*
X189632D01*
Y187309D01*
X189601D01*
Y187278D01*
X189570D01*
Y187247D01*
X189539D01*
Y187215D01*
X189507D01*
Y187184D01*
X189476D01*
Y187153D01*
X189445D01*
Y187091D01*
X189414D01*
Y187060D01*
X189383D01*
Y187029D01*
X189351D01*
Y186997D01*
X189320D01*
Y186966D01*
X189289D01*
Y186935D01*
X189258D01*
Y186904D01*
X189227D01*
Y186873D01*
X189196D01*
Y186841D01*
X189164D01*
Y186810D01*
X189133D01*
Y186779D01*
X189071D01*
Y186748D01*
X189040D01*
Y186717D01*
X189009D01*
Y186686D01*
X188978D01*
Y186654D01*
X188946D01*
Y186623D01*
X188884D01*
Y186592D01*
X188853D01*
Y186561D01*
X188822D01*
Y186530D01*
X188759D01*
Y186499D01*
X188728D01*
Y186468D01*
X188666D01*
Y186436D01*
X188635D01*
Y186405D01*
X188572D01*
Y186374D01*
X188541D01*
Y186343D01*
X188479D01*
Y186312D01*
X188417D01*
Y186281D01*
X188385D01*
Y186249D01*
X188323D01*
Y186218D01*
X188261D01*
Y186187D01*
X188198D01*
Y186156D01*
X188136D01*
Y186125D01*
X188074D01*
Y186093D01*
X188011D01*
Y186062D01*
X187949D01*
Y186031D01*
X187887D01*
Y186000D01*
X187824D01*
Y185969D01*
X187731D01*
Y185938D01*
X187669D01*
Y185907D01*
X187575D01*
Y185875D01*
X187481D01*
Y185844D01*
X187419D01*
Y185813D01*
X187326D01*
Y185782D01*
X187232D01*
Y185751D01*
X187139D01*
Y185720D01*
X187014D01*
Y185688D01*
X186920D01*
Y185657D01*
X186796D01*
Y185626D01*
X186671D01*
Y185595D01*
X186547D01*
Y185564D01*
X186391D01*
Y185532D01*
X186235D01*
Y185501D01*
X186048D01*
Y185470D01*
X185861D01*
Y185439D01*
X185611D01*
Y185408D01*
X185300D01*
Y185377D01*
X184895D01*
Y185345D01*
X184396D01*
Y185314D01*
X183710D01*
Y185283D01*
X177352D01*
Y180795D01*
X173363D01*
Y193605D01*
X183586D01*
Y193573D01*
D02*
G37*
G36*
X263279Y191298D02*
X256297D01*
Y191267D01*
X255799D01*
Y191236D01*
X255487D01*
Y191205D01*
X255269D01*
Y191174D01*
X255082D01*
Y191142D01*
X254926D01*
Y191111D01*
X254802D01*
Y191080D01*
X254646D01*
Y191049D01*
X254552D01*
Y191018D01*
X254428D01*
Y190987D01*
X254334D01*
Y190955D01*
X254240D01*
Y190924D01*
X254178D01*
Y190893D01*
X254085D01*
Y190862D01*
X253991D01*
Y190831D01*
X253929D01*
Y190800D01*
X253867D01*
Y190769D01*
X253804D01*
Y190737D01*
X253742D01*
Y190706D01*
X253679D01*
Y190675D01*
X253617D01*
Y190644D01*
X253586D01*
Y190613D01*
X253524D01*
Y190582D01*
X253461D01*
Y190550D01*
X253430D01*
Y190519D01*
X253368D01*
Y190488D01*
X253337D01*
Y190457D01*
X253306D01*
Y190426D01*
X253243D01*
Y190394D01*
X253212D01*
Y190363D01*
X253181D01*
Y190332D01*
X253150D01*
Y190301D01*
X253118D01*
Y190270D01*
X253087D01*
Y190239D01*
X253056D01*
Y190208D01*
X253025D01*
Y190176D01*
X252994D01*
Y190145D01*
X252963D01*
Y190114D01*
X252931D01*
Y190083D01*
X252900D01*
Y190052D01*
X252869D01*
Y190021D01*
X252838D01*
Y189958D01*
X252807D01*
Y189927D01*
X252776D01*
Y189896D01*
X252745D01*
Y189833D01*
X252713D01*
Y189802D01*
X252682D01*
Y189740D01*
X252651D01*
Y189709D01*
X252620D01*
Y189646D01*
X252589D01*
Y189584D01*
X252557D01*
Y189522D01*
X252526D01*
Y189460D01*
X252495D01*
Y189397D01*
X252464D01*
Y189304D01*
X252433D01*
Y189241D01*
X252402D01*
Y189148D01*
X252371D01*
Y189054D01*
X252339D01*
Y188930D01*
X252308D01*
Y188805D01*
X252277D01*
Y188649D01*
X252246D01*
Y188462D01*
X252215D01*
Y188338D01*
X263279D01*
Y186093D01*
X252184D01*
Y185969D01*
X252215D01*
Y185532D01*
X252246D01*
Y185345D01*
X252277D01*
Y185190D01*
X252308D01*
Y185065D01*
X252339D01*
Y184940D01*
X252371D01*
Y184847D01*
X252402D01*
Y184784D01*
X252433D01*
Y184691D01*
X252464D01*
Y184629D01*
X252495D01*
Y184566D01*
X252526D01*
Y184504D01*
X252557D01*
Y184442D01*
X252589D01*
Y184379D01*
X252620D01*
Y184348D01*
X252651D01*
Y184286D01*
X252682D01*
Y184255D01*
X252713D01*
Y184192D01*
X252745D01*
Y184161D01*
X252776D01*
Y184130D01*
X252807D01*
Y184099D01*
X252838D01*
Y184068D01*
X252869D01*
Y184005D01*
X252900D01*
Y183974D01*
X252931D01*
Y183943D01*
X252994D01*
Y183912D01*
X253025D01*
Y183881D01*
X253056D01*
Y183850D01*
X253087D01*
Y183818D01*
X253118D01*
Y183787D01*
X253181D01*
Y183756D01*
X253212D01*
Y183725D01*
X253243D01*
Y183694D01*
X253306D01*
Y183662D01*
X253337D01*
Y183631D01*
X253399D01*
Y183600D01*
X253461D01*
Y183569D01*
X253524D01*
Y183538D01*
X253555D01*
Y183507D01*
X253648D01*
Y183475D01*
X253711D01*
Y183444D01*
X253773D01*
Y183413D01*
X253867D01*
Y183382D01*
X253929D01*
Y183351D01*
X254022D01*
Y183320D01*
X254116D01*
Y183289D01*
X254209D01*
Y183257D01*
X254334D01*
Y183226D01*
X254459D01*
Y183195D01*
X254583D01*
Y183164D01*
X254739D01*
Y183133D01*
X254895D01*
Y183101D01*
X255113D01*
Y183070D01*
X255363D01*
Y183039D01*
X255674D01*
Y183008D01*
X256235D01*
Y182977D01*
X263279D01*
Y180733D01*
X255082D01*
Y180764D01*
X254490D01*
Y180795D01*
X254147D01*
Y180826D01*
X253867D01*
Y180858D01*
X253617D01*
Y180889D01*
X253430D01*
Y180920D01*
X253243D01*
Y180951D01*
X253087D01*
Y180982D01*
X252931D01*
Y181013D01*
X252776D01*
Y181044D01*
X252651D01*
Y181076D01*
X252526D01*
Y181107D01*
X252402D01*
Y181138D01*
X252277D01*
Y181169D01*
X252184D01*
Y181200D01*
X252090D01*
Y181231D01*
X251996D01*
Y181263D01*
X251903D01*
Y181294D01*
X251810D01*
Y181325D01*
X251716D01*
Y181356D01*
X251654D01*
Y181387D01*
X251560D01*
Y181419D01*
X251498D01*
Y181450D01*
X251404D01*
Y181481D01*
X251342D01*
Y181512D01*
X251249D01*
Y181543D01*
X251186D01*
Y181574D01*
X251124D01*
Y181606D01*
X251062D01*
Y181637D01*
X250999D01*
Y181668D01*
X250937D01*
Y181699D01*
X250874D01*
Y181730D01*
X250812D01*
Y181761D01*
X250750D01*
Y181792D01*
X250688D01*
Y181824D01*
X250625D01*
Y181855D01*
X250563D01*
Y181886D01*
X250500D01*
Y181917D01*
X250469D01*
Y181948D01*
X250407D01*
Y181980D01*
X250345D01*
Y182011D01*
X250282D01*
Y182042D01*
X250251D01*
Y182073D01*
X250189D01*
Y182104D01*
X250158D01*
Y182135D01*
X250095D01*
Y182167D01*
X250064D01*
Y182198D01*
X250002D01*
Y182229D01*
X249971D01*
Y182260D01*
X249908D01*
Y182291D01*
X249877D01*
Y182322D01*
X249815D01*
Y182353D01*
X249784D01*
Y182385D01*
X249752D01*
Y182416D01*
X249690D01*
Y182447D01*
X249659D01*
Y182478D01*
X249628D01*
Y182509D01*
X249597D01*
Y182541D01*
X249534D01*
Y182572D01*
X249503D01*
Y182603D01*
X249472D01*
Y182634D01*
X249441D01*
Y182665D01*
X249410D01*
Y182696D01*
X249378D01*
Y182728D01*
X249347D01*
Y182759D01*
X249316D01*
Y182790D01*
X249285D01*
Y182821D01*
X249254D01*
Y182852D01*
X249223D01*
Y182883D01*
X249191D01*
Y182914D01*
X249160D01*
Y182946D01*
X249129D01*
Y182977D01*
X249098D01*
Y183008D01*
X249067D01*
Y183039D01*
X249036D01*
Y183070D01*
X249005D01*
Y183101D01*
X248973D01*
Y183133D01*
X248942D01*
Y183164D01*
X248911D01*
Y183195D01*
X248880D01*
Y183257D01*
X248849D01*
Y183289D01*
X248817D01*
Y183320D01*
X248786D01*
Y183351D01*
X248755D01*
Y183413D01*
X248724D01*
Y183444D01*
X248693D01*
Y183475D01*
X248662D01*
Y183538D01*
X248630D01*
Y183569D01*
X248599D01*
Y183631D01*
X248568D01*
Y183662D01*
X248537D01*
Y183725D01*
X248506D01*
Y183756D01*
X248475D01*
Y183818D01*
X248444D01*
Y183881D01*
X248412D01*
Y183912D01*
X248381D01*
Y183974D01*
X248350D01*
Y184037D01*
X248319D01*
Y184099D01*
X248288D01*
Y184161D01*
X248256D01*
Y184223D01*
X248225D01*
Y184286D01*
X248194D01*
Y184348D01*
X248163D01*
Y184411D01*
X248132D01*
Y184473D01*
X248101D01*
Y184566D01*
X248070D01*
Y184629D01*
X248038D01*
Y184722D01*
X248007D01*
Y184784D01*
X247976D01*
Y184878D01*
X247945D01*
Y185003D01*
X247914D01*
Y185096D01*
X247883D01*
Y185221D01*
X247851D01*
Y185345D01*
X247820D01*
Y185470D01*
X247789D01*
Y185626D01*
X247758D01*
Y185813D01*
X247727D01*
Y186031D01*
X247695D01*
Y186374D01*
X247664D01*
Y187496D01*
X247695D01*
Y187870D01*
X247727D01*
Y188151D01*
X247758D01*
Y188338D01*
X247789D01*
Y188524D01*
X247820D01*
Y188680D01*
X247851D01*
Y188805D01*
X247883D01*
Y188930D01*
X247914D01*
Y189054D01*
X247945D01*
Y189179D01*
X247976D01*
Y189272D01*
X248007D01*
Y189366D01*
X248038D01*
Y189460D01*
X248070D01*
Y189553D01*
X248101D01*
Y189615D01*
X248132D01*
Y189709D01*
X248163D01*
Y189771D01*
X248194D01*
Y189833D01*
X248225D01*
Y189927D01*
X248256D01*
Y189989D01*
X248288D01*
Y190052D01*
X248319D01*
Y190114D01*
X248350D01*
Y190176D01*
X248381D01*
Y190239D01*
X248412D01*
Y190270D01*
X248444D01*
Y190332D01*
X248475D01*
Y190394D01*
X248506D01*
Y190457D01*
X248537D01*
Y190488D01*
X248568D01*
Y190550D01*
X248599D01*
Y190582D01*
X248630D01*
Y190644D01*
X248662D01*
Y190675D01*
X248693D01*
Y190737D01*
X248724D01*
Y190769D01*
X248755D01*
Y190831D01*
X248786D01*
Y190862D01*
X248817D01*
Y190893D01*
X248849D01*
Y190955D01*
X248880D01*
Y190987D01*
X248911D01*
Y191018D01*
X248942D01*
Y191049D01*
X248973D01*
Y191111D01*
X249005D01*
Y191142D01*
X249036D01*
Y191174D01*
X249067D01*
Y191205D01*
X249098D01*
Y191236D01*
X249129D01*
Y191267D01*
X249160D01*
Y191298D01*
X249191D01*
Y191330D01*
X249223D01*
Y191361D01*
X249254D01*
Y191392D01*
X249285D01*
Y191423D01*
X249316D01*
Y191454D01*
X249347D01*
Y191485D01*
X249378D01*
Y191516D01*
X249410D01*
Y191548D01*
X249441D01*
Y191579D01*
X249472D01*
Y191610D01*
X249503D01*
Y191641D01*
X249534D01*
Y191672D01*
X249566D01*
Y191703D01*
X249597D01*
Y191735D01*
X249659D01*
Y191766D01*
X249690D01*
Y191797D01*
X249721D01*
Y191828D01*
X249752D01*
Y191859D01*
X249815D01*
Y191891D01*
X249846D01*
Y191922D01*
X249877D01*
Y191953D01*
X249939D01*
Y191984D01*
X249971D01*
Y192015D01*
X250002D01*
Y192046D01*
X250064D01*
Y192078D01*
X250095D01*
Y192109D01*
X250158D01*
Y192140D01*
X250220D01*
Y192171D01*
X250251D01*
Y192202D01*
X250313D01*
Y192233D01*
X250345D01*
Y192264D01*
X250407D01*
Y192296D01*
X250469D01*
Y192327D01*
X250532D01*
Y192358D01*
X250563D01*
Y192389D01*
X250625D01*
Y192420D01*
X250688D01*
Y192452D01*
X250750D01*
Y192483D01*
X250812D01*
Y192514D01*
X250874D01*
Y192545D01*
X250937D01*
Y192576D01*
X250999D01*
Y192607D01*
X251093D01*
Y192639D01*
X251155D01*
Y192670D01*
X251217D01*
Y192701D01*
X251311D01*
Y192732D01*
X251373D01*
Y192763D01*
X251467D01*
Y192794D01*
X251529D01*
Y192825D01*
X251623D01*
Y192857D01*
X251716D01*
Y192888D01*
X251810D01*
Y192919D01*
X251903D01*
Y192950D01*
X251996D01*
Y192981D01*
X252090D01*
Y193012D01*
X252215D01*
Y193044D01*
X252308D01*
Y193075D01*
X252433D01*
Y193106D01*
X252557D01*
Y193137D01*
X252682D01*
Y193168D01*
X252807D01*
Y193200D01*
X252963D01*
Y193231D01*
X253118D01*
Y193262D01*
X253274D01*
Y193293D01*
X253461D01*
Y193324D01*
X253648D01*
Y193355D01*
X253835D01*
Y193386D01*
X254085D01*
Y193418D01*
X254334D01*
Y193449D01*
X254646D01*
Y193480D01*
X255020D01*
Y193511D01*
X255550D01*
Y193542D01*
X263279D01*
Y191298D01*
D02*
G37*
G36*
X226565Y186468D02*
X226533D01*
Y186218D01*
X226502D01*
Y186031D01*
X226471D01*
Y185844D01*
X226440D01*
Y185688D01*
X226409D01*
Y185564D01*
X226378D01*
Y185408D01*
X226346D01*
Y185314D01*
X226315D01*
Y185190D01*
X226284D01*
Y185096D01*
X226253D01*
Y185003D01*
X226222D01*
Y184909D01*
X226190D01*
Y184816D01*
X226159D01*
Y184722D01*
X226128D01*
Y184629D01*
X226097D01*
Y184566D01*
X226066D01*
Y184473D01*
X226035D01*
Y184411D01*
X226004D01*
Y184348D01*
X225972D01*
Y184286D01*
X225941D01*
Y184192D01*
X225910D01*
Y184130D01*
X225879D01*
Y184068D01*
X225848D01*
Y184005D01*
X225816D01*
Y183943D01*
X225785D01*
Y183881D01*
X225754D01*
Y183818D01*
X225723D01*
Y183756D01*
X225692D01*
Y183725D01*
X225661D01*
Y183662D01*
X225629D01*
Y183600D01*
X225598D01*
Y183569D01*
X225567D01*
Y183507D01*
X225536D01*
Y183444D01*
X225505D01*
Y183413D01*
X225474D01*
Y183351D01*
X225443D01*
Y183320D01*
X225411D01*
Y183257D01*
X225380D01*
Y183195D01*
X225349D01*
Y183164D01*
X225318D01*
Y183133D01*
X225287D01*
Y183070D01*
X225255D01*
Y183039D01*
X225224D01*
Y182977D01*
X225193D01*
Y182946D01*
X225162D01*
Y182914D01*
X225131D01*
Y182852D01*
X225100D01*
Y182821D01*
X225068D01*
Y182790D01*
X225037D01*
Y182759D01*
X225006D01*
Y182696D01*
X224975D01*
Y182665D01*
X224944D01*
Y182634D01*
X224913D01*
Y182603D01*
X224882D01*
Y182572D01*
X224850D01*
Y182509D01*
X224819D01*
Y182478D01*
X224788D01*
Y182447D01*
X224757D01*
Y182416D01*
X224726D01*
Y182385D01*
X224694D01*
Y182353D01*
X224663D01*
Y182322D01*
X224632D01*
Y182291D01*
X224601D01*
Y182260D01*
X224570D01*
Y182229D01*
X224539D01*
Y182198D01*
X224507D01*
Y182167D01*
X224476D01*
Y182135D01*
X224445D01*
Y182104D01*
X224414D01*
Y182073D01*
X224383D01*
Y182042D01*
X224352D01*
Y182011D01*
X224321D01*
Y181980D01*
X224289D01*
Y181948D01*
X224258D01*
Y181917D01*
X224227D01*
Y181886D01*
X224196D01*
Y181855D01*
X224165D01*
Y181824D01*
X224102D01*
Y181792D01*
X224071D01*
Y181761D01*
X224040D01*
Y181730D01*
X224009D01*
Y181699D01*
X223978D01*
Y181668D01*
X223915D01*
Y181637D01*
X223884D01*
Y181606D01*
X223853D01*
Y181574D01*
X223822D01*
Y181543D01*
X223760D01*
Y181512D01*
X223728D01*
Y181481D01*
X223697D01*
Y181450D01*
X223635D01*
Y181419D01*
X223604D01*
Y181387D01*
X223572D01*
Y181356D01*
X223510D01*
Y181325D01*
X223479D01*
Y181294D01*
X223417D01*
Y181263D01*
X223386D01*
Y181231D01*
X223323D01*
Y181200D01*
X223292D01*
Y181169D01*
X223230D01*
Y181138D01*
X223167D01*
Y181107D01*
X223136D01*
Y181076D01*
X223074D01*
Y181044D01*
X223011D01*
Y181013D01*
X222949D01*
Y180982D01*
X222918D01*
Y180951D01*
X222856D01*
Y180920D01*
X222793D01*
Y180889D01*
X222731D01*
Y180858D01*
X222669D01*
Y180826D01*
X222606D01*
Y180795D01*
X222544D01*
Y180764D01*
X222482D01*
Y180733D01*
X222419D01*
Y180702D01*
X222357D01*
Y180670D01*
X222264D01*
Y180639D01*
X222201D01*
Y180608D01*
X222139D01*
Y180577D01*
X222045D01*
Y180546D01*
X221952D01*
Y180515D01*
X221889D01*
Y180483D01*
X221796D01*
Y180452D01*
X221703D01*
Y180421D01*
X221609D01*
Y180390D01*
X221484D01*
Y180359D01*
X221391D01*
Y180328D01*
X221297D01*
Y180297D01*
X221142D01*
Y180265D01*
X221017D01*
Y180234D01*
X220892D01*
Y180203D01*
X220736D01*
Y180172D01*
X220518D01*
Y180141D01*
X220300D01*
Y180110D01*
X220020D01*
Y180078D01*
X219832D01*
Y183444D01*
X219957D01*
Y183475D01*
X220144D01*
Y183507D01*
X220300D01*
Y183538D01*
X220456D01*
Y183569D01*
X220549D01*
Y183600D01*
X220643D01*
Y183631D01*
X220736D01*
Y183662D01*
X220830D01*
Y183694D01*
X220923D01*
Y183725D01*
X220986D01*
Y183756D01*
X221048D01*
Y183787D01*
X221110D01*
Y183818D01*
X221173D01*
Y183850D01*
X221235D01*
Y183881D01*
X221297D01*
Y183912D01*
X221360D01*
Y183943D01*
X221391D01*
Y183974D01*
X221453D01*
Y184005D01*
X221515D01*
Y184037D01*
X221547D01*
Y184068D01*
X221609D01*
Y184099D01*
X221640D01*
Y184130D01*
X221671D01*
Y184161D01*
X221734D01*
Y184192D01*
X221765D01*
Y184223D01*
X221796D01*
Y184255D01*
X221858D01*
Y184286D01*
X221889D01*
Y184317D01*
X221921D01*
Y184348D01*
X221952D01*
Y184379D01*
X221983D01*
Y184411D01*
X222014D01*
Y184442D01*
X222045D01*
Y184473D01*
X222077D01*
Y184504D01*
X222108D01*
Y184535D01*
X222139D01*
Y184566D01*
X222201D01*
Y184598D01*
X222232D01*
Y184660D01*
X222264D01*
Y184691D01*
X222295D01*
Y184722D01*
X222326D01*
Y184753D01*
X222357D01*
Y184784D01*
X222388D01*
Y184816D01*
X222419D01*
Y184878D01*
X222450D01*
Y184909D01*
X222482D01*
Y184940D01*
X222513D01*
Y185003D01*
X222544D01*
Y185034D01*
X222575D01*
Y185096D01*
X222606D01*
Y185127D01*
X222638D01*
Y185159D01*
X222669D01*
Y185221D01*
X222700D01*
Y185283D01*
X222731D01*
Y185314D01*
X222762D01*
Y185377D01*
X222793D01*
Y185439D01*
X222825D01*
Y185501D01*
X222856D01*
Y185564D01*
X222887D01*
Y185626D01*
X222918D01*
Y185688D01*
X222949D01*
Y185782D01*
X222980D01*
Y185844D01*
X223011D01*
Y185938D01*
X223043D01*
Y186031D01*
X223074D01*
Y186125D01*
X223105D01*
Y186249D01*
X223136D01*
Y186374D01*
X223167D01*
Y186530D01*
X223199D01*
Y186748D01*
X223230D01*
Y186810D01*
X226565D01*
Y186468D01*
D02*
G37*
G36*
X215719Y186592D02*
X215750D01*
Y186436D01*
X215781D01*
Y186312D01*
X215812D01*
Y186187D01*
X215843D01*
Y186062D01*
X215874D01*
Y185969D01*
X215905D01*
Y185907D01*
X215937D01*
Y185813D01*
X215968D01*
Y185720D01*
X215999D01*
Y185657D01*
X216030D01*
Y185595D01*
X216061D01*
Y185532D01*
X216092D01*
Y185470D01*
X216124D01*
Y185408D01*
X216155D01*
Y185345D01*
X216186D01*
Y185314D01*
X216217D01*
Y185252D01*
X216248D01*
Y185190D01*
X216280D01*
Y185159D01*
X216311D01*
Y185096D01*
X216342D01*
Y185065D01*
X216373D01*
Y185003D01*
X216404D01*
Y184971D01*
X216435D01*
Y184940D01*
X216466D01*
Y184878D01*
X216498D01*
Y184847D01*
X216529D01*
Y184816D01*
X216560D01*
Y184784D01*
X216591D01*
Y184722D01*
X216622D01*
Y184691D01*
X216653D01*
Y184660D01*
X216685D01*
Y184629D01*
X216716D01*
Y184598D01*
X216747D01*
Y184566D01*
X216778D01*
Y184535D01*
X216809D01*
Y184504D01*
X216841D01*
Y184473D01*
X216872D01*
Y184442D01*
X216903D01*
Y184411D01*
X216934D01*
Y184379D01*
X216965D01*
Y184348D01*
X217027D01*
Y184317D01*
X217059D01*
Y184286D01*
X217090D01*
Y184255D01*
X217121D01*
Y184223D01*
X217183D01*
Y184192D01*
X217214D01*
Y184161D01*
X217246D01*
Y184130D01*
X217308D01*
Y184099D01*
X217339D01*
Y184068D01*
X217402D01*
Y184037D01*
X217433D01*
Y184005D01*
X217495D01*
Y183974D01*
X217557D01*
Y183943D01*
X217588D01*
Y183912D01*
X217651D01*
Y183881D01*
X217713D01*
Y183850D01*
X217776D01*
Y183818D01*
X217838D01*
Y183787D01*
X217900D01*
Y183756D01*
X217963D01*
Y183725D01*
X218056D01*
Y183694D01*
X218118D01*
Y183662D01*
X218212D01*
Y183631D01*
X218305D01*
Y183600D01*
X218430D01*
Y183569D01*
X218524D01*
Y183538D01*
X218648D01*
Y183507D01*
X218804D01*
Y183475D01*
X219022D01*
Y183444D01*
X219178D01*
Y180078D01*
X218835D01*
Y180110D01*
X218524D01*
Y180141D01*
X218305D01*
Y180172D01*
X218149D01*
Y180203D01*
X217994D01*
Y180234D01*
X217838D01*
Y180265D01*
X217682D01*
Y180297D01*
X217588D01*
Y180328D01*
X217495D01*
Y180359D01*
X217339D01*
Y180390D01*
X217277D01*
Y180421D01*
X217183D01*
Y180452D01*
X217090D01*
Y180483D01*
X216996D01*
Y180515D01*
X216903D01*
Y180546D01*
X216841D01*
Y180577D01*
X216778D01*
Y180608D01*
X216685D01*
Y180639D01*
X216591D01*
Y180670D01*
X216529D01*
Y180702D01*
X216466D01*
Y180733D01*
X216404D01*
Y180764D01*
X216342D01*
Y180795D01*
X216280D01*
Y180826D01*
X216217D01*
Y180858D01*
X216155D01*
Y180889D01*
X216092D01*
Y180920D01*
X216030D01*
Y180951D01*
X215999D01*
Y180982D01*
X215937D01*
Y181013D01*
X215874D01*
Y181044D01*
X215812D01*
Y181076D01*
X215750D01*
Y181107D01*
X215719D01*
Y181138D01*
X215656D01*
Y181169D01*
X215625D01*
Y181200D01*
X215563D01*
Y181231D01*
X215531D01*
Y181263D01*
X215469D01*
Y181294D01*
X215438D01*
Y181325D01*
X215376D01*
Y181356D01*
X215345D01*
Y181387D01*
X215282D01*
Y181419D01*
X215251D01*
Y181450D01*
X215220D01*
Y181481D01*
X215158D01*
Y181512D01*
X215126D01*
Y181543D01*
X215095D01*
Y181574D01*
X215033D01*
Y181606D01*
X215002D01*
Y181637D01*
X214970D01*
Y181668D01*
X214939D01*
Y181699D01*
X214877D01*
Y181730D01*
X214846D01*
Y181761D01*
X214815D01*
Y181792D01*
X214784D01*
Y181824D01*
X214752D01*
Y181855D01*
X214721D01*
Y181886D01*
X214659D01*
Y181917D01*
X214628D01*
Y181948D01*
X214597D01*
Y181980D01*
X214565D01*
Y182011D01*
X214534D01*
Y182042D01*
X214503D01*
Y182073D01*
X214472D01*
Y182104D01*
X214441D01*
Y182135D01*
X214409D01*
Y182167D01*
X214378D01*
Y182198D01*
X214347D01*
Y182229D01*
X214316D01*
Y182260D01*
X214285D01*
Y182291D01*
X214254D01*
Y182322D01*
X214223D01*
Y182353D01*
X214191D01*
Y182385D01*
X214160D01*
Y182416D01*
X214129D01*
Y182447D01*
X214098D01*
Y182509D01*
X214067D01*
Y182541D01*
X214036D01*
Y182572D01*
X214004D01*
Y182603D01*
X213973D01*
Y182634D01*
X213942D01*
Y182665D01*
X213911D01*
Y182728D01*
X213880D01*
Y182759D01*
X213848D01*
Y182790D01*
X213817D01*
Y182852D01*
X213786D01*
Y182883D01*
X213755D01*
Y182914D01*
X213724D01*
Y182977D01*
X213693D01*
Y183008D01*
X213662D01*
Y183039D01*
X213630D01*
Y183101D01*
X213599D01*
Y183133D01*
X213568D01*
Y183164D01*
X213537D01*
Y183226D01*
X213506D01*
Y183289D01*
X213474D01*
Y183320D01*
X213443D01*
Y183382D01*
X213412D01*
Y183413D01*
X213381D01*
Y183475D01*
X213350D01*
Y183507D01*
X213319D01*
Y183569D01*
X213287D01*
Y183631D01*
X213256D01*
Y183694D01*
X213225D01*
Y183725D01*
X213194D01*
Y183787D01*
X213163D01*
Y183850D01*
X213132D01*
Y183912D01*
X213101D01*
Y183974D01*
X213069D01*
Y184037D01*
X213038D01*
Y184099D01*
X213007D01*
Y184161D01*
X212976D01*
Y184223D01*
X212945D01*
Y184286D01*
X212913D01*
Y184379D01*
X212882D01*
Y184442D01*
X212851D01*
Y184535D01*
X212820D01*
Y184598D01*
X212789D01*
Y184660D01*
X212758D01*
Y184753D01*
X212726D01*
Y184847D01*
X212695D01*
Y184940D01*
X212664D01*
Y185034D01*
X212633D01*
Y185127D01*
X212602D01*
Y185252D01*
X212571D01*
Y185377D01*
X212540D01*
Y185470D01*
X212508D01*
Y185626D01*
X212477D01*
Y185782D01*
X212446D01*
Y185938D01*
X212415D01*
Y186125D01*
X212384D01*
Y186374D01*
X212352D01*
Y186779D01*
X212321D01*
Y186810D01*
X215719D01*
Y186592D01*
D02*
G37*
G36*
X216778Y177398D02*
Y176837D01*
X215843D01*
Y177429D01*
X216778D01*
Y177398D01*
D02*
G37*
G36*
X259165Y176525D02*
X259290D01*
Y176494D01*
X259383D01*
Y176463D01*
X259445D01*
Y176432D01*
X259476D01*
Y176401D01*
X259539D01*
Y176370D01*
X259570D01*
Y176307D01*
X259601D01*
Y176276D01*
X259632D01*
Y176214D01*
X259664D01*
Y176089D01*
X259695D01*
Y175559D01*
X258853D01*
Y175964D01*
X258822D01*
Y175996D01*
X258791D01*
Y176027D01*
X258729D01*
Y176058D01*
X258199D01*
Y174157D01*
X257326D01*
Y174406D01*
Y174437D01*
Y176557D01*
X259165D01*
Y176525D01*
D02*
G37*
G36*
X246199D02*
X246324D01*
Y176494D01*
X246418D01*
Y176463D01*
X246480D01*
Y176432D01*
X246511D01*
Y176401D01*
X246573D01*
Y176370D01*
X246605D01*
Y176307D01*
X246636D01*
Y176276D01*
X246667D01*
Y176214D01*
X246698D01*
Y176089D01*
X246729D01*
Y175559D01*
X245888D01*
Y175964D01*
X245857D01*
Y175996D01*
X245826D01*
Y176027D01*
X245763D01*
Y176058D01*
X245233D01*
Y175840D01*
Y175809D01*
Y174157D01*
X244361D01*
Y176557D01*
X246199D01*
Y176525D01*
D02*
G37*
G36*
X178786D02*
X178911D01*
Y176494D01*
X179004D01*
Y176463D01*
X179067D01*
Y176432D01*
X179098D01*
Y176401D01*
X179160D01*
Y176370D01*
X179191D01*
Y176307D01*
X179222D01*
Y176276D01*
X179253D01*
Y176214D01*
X179285D01*
Y176089D01*
X179316D01*
Y175559D01*
X178474D01*
Y175964D01*
X178443D01*
Y175996D01*
X178412D01*
Y176027D01*
X178350D01*
Y176058D01*
X177820D01*
Y174157D01*
X176947D01*
Y174188D01*
Y176557D01*
X178786D01*
Y176525D01*
D02*
G37*
G36*
X208612D02*
X208581D01*
Y176463D01*
X208550D01*
Y176401D01*
X208519D01*
Y176370D01*
X208488D01*
Y176307D01*
X208457D01*
Y176245D01*
X208425D01*
Y176214D01*
X208394D01*
Y176151D01*
X208363D01*
Y176089D01*
X208332D01*
Y176058D01*
X208301D01*
Y175996D01*
X208270D01*
Y175933D01*
X208239D01*
Y175871D01*
X208207D01*
Y175840D01*
X208176D01*
Y175777D01*
X208145D01*
Y175715D01*
X208114D01*
Y175684D01*
X208083D01*
Y175621D01*
X208051D01*
Y175559D01*
X208020D01*
Y175528D01*
X207989D01*
Y175466D01*
X207958D01*
Y175403D01*
X207927D01*
Y175372D01*
X207896D01*
Y175310D01*
X207864D01*
Y175248D01*
X207833D01*
Y175216D01*
X207802D01*
Y175154D01*
X207771D01*
Y175092D01*
X207740D01*
Y175060D01*
X207709D01*
Y174998D01*
X207678D01*
Y174936D01*
X207646D01*
Y174873D01*
X207615D01*
Y174842D01*
X207584D01*
Y174780D01*
X207553D01*
Y174718D01*
X207522D01*
Y174687D01*
X207490D01*
Y174624D01*
X207459D01*
Y174562D01*
X207428D01*
Y174531D01*
X207397D01*
Y174468D01*
X207366D01*
Y174406D01*
X207335D01*
Y174375D01*
X207304D01*
Y174312D01*
X207272D01*
Y174250D01*
X207241D01*
Y174219D01*
X207210D01*
Y174157D01*
X206244D01*
Y174219D01*
X206213D01*
Y174250D01*
X206182D01*
Y174312D01*
X206150D01*
Y174375D01*
X206119D01*
Y174437D01*
X206088D01*
Y174468D01*
X206057D01*
Y174531D01*
X206026D01*
Y174593D01*
X205995D01*
Y174655D01*
X205963D01*
Y174718D01*
X205932D01*
Y174749D01*
X205901D01*
Y174811D01*
X205870D01*
Y174873D01*
X205839D01*
Y174936D01*
X205807D01*
Y174967D01*
X205776D01*
Y175029D01*
X205745D01*
Y175092D01*
X205714D01*
Y175154D01*
X205683D01*
Y175185D01*
X205652D01*
Y175248D01*
X205621D01*
Y175310D01*
X205589D01*
Y175372D01*
X205558D01*
Y175435D01*
X205527D01*
Y175466D01*
X205496D01*
Y175528D01*
X205465D01*
Y175590D01*
X205434D01*
Y175653D01*
X205402D01*
Y175684D01*
X205371D01*
Y175746D01*
X205340D01*
Y175809D01*
X205309D01*
Y175871D01*
X205278D01*
Y175902D01*
X205246D01*
Y175964D01*
X205215D01*
Y176027D01*
X205184D01*
Y176089D01*
X205153D01*
Y176120D01*
X205122D01*
Y176182D01*
X205091D01*
Y176245D01*
X205060D01*
Y176307D01*
X205028D01*
Y176370D01*
X204997D01*
Y176401D01*
X204966D01*
Y176463D01*
X204935D01*
Y176525D01*
X204904D01*
Y176557D01*
X205870D01*
Y176525D01*
X205901D01*
Y176463D01*
X205932D01*
Y176401D01*
X205963D01*
Y176338D01*
X205995D01*
Y176276D01*
X206026D01*
Y176214D01*
X206057D01*
Y176182D01*
X206088D01*
Y176120D01*
X206119D01*
Y176058D01*
X206150D01*
Y175996D01*
X206182D01*
Y175933D01*
X206213D01*
Y175871D01*
X206244D01*
Y175809D01*
X206275D01*
Y175746D01*
X206306D01*
Y175684D01*
X206337D01*
Y175621D01*
X206368D01*
Y175590D01*
X206400D01*
Y175528D01*
X206431D01*
Y175466D01*
X206462D01*
Y175403D01*
X206493D01*
Y175341D01*
X206524D01*
Y175279D01*
X206556D01*
Y175216D01*
X206587D01*
Y175154D01*
X206618D01*
Y175092D01*
X206649D01*
Y175029D01*
X206680D01*
Y174967D01*
X206711D01*
Y174936D01*
X206743D01*
Y174905D01*
X206774D01*
Y174967D01*
X206805D01*
Y174998D01*
X206836D01*
Y175060D01*
X206867D01*
Y175123D01*
X206898D01*
Y175185D01*
X206929D01*
Y175248D01*
X206961D01*
Y175279D01*
X206992D01*
Y175341D01*
X207023D01*
Y175403D01*
X207054D01*
Y175466D01*
X207085D01*
Y175497D01*
Y175528D01*
X207117D01*
Y175559D01*
X207148D01*
Y175621D01*
X207179D01*
Y175684D01*
X207210D01*
Y175746D01*
X207241D01*
Y175809D01*
X207272D01*
Y175840D01*
X207304D01*
Y175902D01*
X207335D01*
Y175964D01*
X207366D01*
Y176027D01*
X207397D01*
Y176089D01*
X207428D01*
Y176120D01*
X207459D01*
Y176182D01*
X207490D01*
Y176245D01*
X207522D01*
Y176307D01*
X207553D01*
Y176370D01*
X207584D01*
Y176401D01*
X207615D01*
Y176463D01*
X207646D01*
Y176525D01*
X207678D01*
Y176557D01*
X208612D01*
Y176525D01*
D02*
G37*
G36*
X263123Y173970D02*
X263092D01*
Y173845D01*
X263061D01*
Y173783D01*
X263030D01*
Y173720D01*
X262998D01*
Y173658D01*
X262967D01*
Y173627D01*
X262936D01*
Y173596D01*
X262905D01*
Y173565D01*
X262874D01*
Y173533D01*
X262842D01*
Y173502D01*
X262811D01*
Y173471D01*
X262749D01*
Y173440D01*
X262687D01*
Y173409D01*
X262624D01*
Y173378D01*
X262562D01*
Y173346D01*
X262437D01*
Y173315D01*
X262281D01*
Y173284D01*
X260256D01*
Y173814D01*
X261939D01*
Y173845D01*
X262063D01*
Y173876D01*
X262126D01*
Y173907D01*
X262188D01*
Y173939D01*
X262219D01*
Y174001D01*
X262250D01*
Y174126D01*
X262281D01*
Y174157D01*
X261097D01*
Y174188D01*
X260879D01*
Y174219D01*
X260754D01*
Y174250D01*
X260692D01*
Y174281D01*
X260598D01*
Y174312D01*
X260536D01*
Y174344D01*
X260505D01*
Y174375D01*
X260474D01*
Y174406D01*
X260412D01*
Y174437D01*
X260380D01*
Y174499D01*
X260349D01*
Y174531D01*
X260318D01*
Y174562D01*
X260287D01*
Y174624D01*
X260256D01*
Y174718D01*
X260225D01*
Y174842D01*
X260193D01*
Y176557D01*
X261035D01*
Y174998D01*
X261066D01*
Y174905D01*
X261097D01*
Y174842D01*
X261128D01*
Y174811D01*
X261159D01*
Y174780D01*
X261253D01*
Y174749D01*
X261378D01*
Y174718D01*
X262281D01*
Y176557D01*
X263123D01*
Y173970D01*
D02*
G37*
G36*
X195211D02*
X195180D01*
Y173845D01*
X195149D01*
Y173783D01*
X195117D01*
Y173720D01*
X195086D01*
Y173658D01*
X195055D01*
Y173627D01*
X195024D01*
Y173596D01*
X194993D01*
Y173565D01*
X194962D01*
Y173533D01*
X194930D01*
Y173502D01*
X194899D01*
Y173471D01*
X194837D01*
Y173440D01*
X194774D01*
Y173409D01*
X194712D01*
Y173378D01*
X194650D01*
Y173346D01*
X194525D01*
Y173315D01*
X194369D01*
Y173284D01*
X192343D01*
Y173814D01*
X194027D01*
Y173845D01*
X194151D01*
Y173876D01*
X194213D01*
Y173907D01*
X194276D01*
Y173939D01*
X194307D01*
Y174001D01*
X194338D01*
Y174126D01*
X194369D01*
Y174157D01*
X193185D01*
Y174188D01*
X192967D01*
Y174219D01*
X192842D01*
Y174250D01*
X192780D01*
Y174281D01*
X192686D01*
Y174312D01*
X192624D01*
Y174344D01*
X192593D01*
Y174375D01*
X192562D01*
Y174406D01*
X192499D01*
Y174437D01*
X192468D01*
Y174499D01*
X192437D01*
Y174531D01*
X192406D01*
Y174562D01*
X192375D01*
Y174624D01*
X192343D01*
Y174718D01*
X192312D01*
Y174842D01*
X192281D01*
Y176557D01*
X193123D01*
Y174998D01*
X193154D01*
Y174905D01*
X193185D01*
Y174842D01*
X193216D01*
Y174811D01*
X193247D01*
Y174780D01*
X193341D01*
Y174749D01*
X193465D01*
Y174718D01*
X194369D01*
Y176557D01*
X195211D01*
Y173970D01*
D02*
G37*
G36*
X252246Y176557D02*
X253150D01*
Y176058D01*
X252246D01*
Y174998D01*
X252277D01*
Y174873D01*
X252308D01*
Y174811D01*
X252339D01*
Y174780D01*
X252371D01*
Y174749D01*
X252402D01*
Y174718D01*
X252464D01*
Y174687D01*
X252589D01*
Y174655D01*
X253150D01*
Y174157D01*
X252059D01*
Y174188D01*
X251903D01*
Y174219D01*
X251810D01*
Y174250D01*
X251747D01*
Y174281D01*
X251716D01*
Y174312D01*
X251654D01*
Y174344D01*
X251623D01*
Y174375D01*
X251591D01*
Y174406D01*
X251560D01*
Y174437D01*
X251529D01*
Y174468D01*
X251498D01*
Y174531D01*
X251467D01*
Y174562D01*
X251435D01*
Y174655D01*
X251404D01*
Y176058D01*
X250781D01*
Y176557D01*
X251404D01*
Y177429D01*
X252246D01*
Y176557D01*
D02*
G37*
G36*
X249441Y176525D02*
X249597D01*
Y176494D01*
X249721D01*
Y176463D01*
X249815D01*
Y176432D01*
X249877D01*
Y176401D01*
X249939D01*
Y176370D01*
X250002D01*
Y176338D01*
X250033D01*
Y176307D01*
X250095D01*
Y176276D01*
X250127D01*
Y176245D01*
X250158D01*
Y176214D01*
X250189D01*
Y176182D01*
X250220D01*
Y176120D01*
X250251D01*
Y176058D01*
X250282D01*
Y175996D01*
X250313D01*
Y175902D01*
X250345D01*
Y174157D01*
X247727D01*
Y174188D01*
X247602D01*
Y174219D01*
X247509D01*
Y174250D01*
X247446D01*
Y174281D01*
X247384D01*
Y174312D01*
X247322D01*
Y174344D01*
X247290D01*
Y174375D01*
X247259D01*
Y174406D01*
X247228D01*
Y174437D01*
X247197D01*
Y174468D01*
X247166D01*
Y174531D01*
X247134D01*
Y174593D01*
X247103D01*
Y174655D01*
X247072D01*
Y175060D01*
X247103D01*
Y175154D01*
X247134D01*
Y175216D01*
X247166D01*
Y175279D01*
X247197D01*
Y175310D01*
X247228D01*
Y175341D01*
X247259D01*
Y175372D01*
X247290D01*
Y175403D01*
X247322D01*
Y175435D01*
X247353D01*
Y175466D01*
X247415D01*
Y175497D01*
X247477D01*
Y175528D01*
X247571D01*
Y175559D01*
X247695D01*
Y175590D01*
X247883D01*
Y175621D01*
X249472D01*
Y175746D01*
X249441D01*
Y175840D01*
X249410D01*
Y175871D01*
X249378D01*
Y175902D01*
X249347D01*
Y175933D01*
X249285D01*
Y175964D01*
X249191D01*
Y175996D01*
X249005D01*
Y176027D01*
X247290D01*
Y176557D01*
X249441D01*
Y176525D01*
D02*
G37*
G36*
X237785Y176557D02*
X238969D01*
Y176525D01*
X239187D01*
Y176494D01*
X239312D01*
Y176463D01*
X239405D01*
Y176432D01*
X239468D01*
Y176401D01*
X239530D01*
Y176370D01*
X239592D01*
Y176338D01*
X239654D01*
Y176307D01*
X239686D01*
Y176276D01*
X239717D01*
Y176245D01*
X239748D01*
Y176214D01*
X239810D01*
Y176182D01*
X239842D01*
Y176151D01*
X239873D01*
Y176089D01*
X239904D01*
Y176058D01*
X239935D01*
Y176027D01*
X239966D01*
Y175964D01*
X239997D01*
Y175933D01*
X240029D01*
Y175871D01*
X240060D01*
Y175809D01*
X240091D01*
Y175715D01*
X240122D01*
Y175528D01*
X240153D01*
Y175248D01*
X240122D01*
Y175060D01*
X240091D01*
Y174936D01*
X240060D01*
Y174873D01*
X240029D01*
Y174811D01*
X239997D01*
Y174749D01*
X239966D01*
Y174718D01*
X239935D01*
Y174655D01*
X239904D01*
Y174624D01*
X239873D01*
Y174593D01*
X239842D01*
Y174562D01*
X239810D01*
Y174531D01*
X239779D01*
Y174499D01*
X239748D01*
Y174468D01*
X239717D01*
Y174437D01*
X239654D01*
Y174406D01*
X239623D01*
Y174375D01*
X239561D01*
Y174344D01*
X239499D01*
Y174312D01*
X239436D01*
Y174281D01*
X239343D01*
Y174250D01*
X239249D01*
Y174219D01*
X239156D01*
Y174188D01*
X238969D01*
Y174157D01*
X236943D01*
Y177429D01*
X237785D01*
Y176557D01*
D02*
G37*
G36*
X235291Y176525D02*
X235447D01*
Y176494D01*
X235572D01*
Y176463D01*
X235665D01*
Y176432D01*
X235728D01*
Y176401D01*
X235790D01*
Y176370D01*
X235852D01*
Y176338D01*
X235883D01*
Y176307D01*
X235946D01*
Y176276D01*
X235977D01*
Y176245D01*
X236008D01*
Y176214D01*
X236039D01*
Y176182D01*
X236070D01*
Y176120D01*
X236102D01*
Y176058D01*
X236133D01*
Y175996D01*
X236164D01*
Y175902D01*
X236195D01*
Y174157D01*
X233577D01*
Y174188D01*
X233452D01*
Y174219D01*
X233359D01*
Y174250D01*
X233296D01*
Y174281D01*
X233234D01*
Y174312D01*
X233172D01*
Y174344D01*
X233141D01*
Y174375D01*
X233109D01*
Y174406D01*
X233078D01*
Y174437D01*
X233047D01*
Y174468D01*
X233016D01*
Y174531D01*
X232985D01*
Y174593D01*
X232954D01*
Y174655D01*
X232923D01*
Y175060D01*
X232954D01*
Y175154D01*
X232985D01*
Y175216D01*
X233016D01*
Y175279D01*
X233047D01*
Y175310D01*
X233078D01*
Y175341D01*
X233109D01*
Y175372D01*
X233141D01*
Y175403D01*
X233172D01*
Y175435D01*
X233203D01*
Y175466D01*
X233265D01*
Y175497D01*
X233328D01*
Y175528D01*
X233421D01*
Y175559D01*
X233546D01*
Y175590D01*
X233733D01*
Y175621D01*
X235322D01*
Y175746D01*
X235291D01*
Y175840D01*
X235260D01*
Y175871D01*
X235229D01*
Y175902D01*
X235198D01*
Y175933D01*
X235135D01*
Y175964D01*
X235042D01*
Y175996D01*
X234855D01*
Y176027D01*
X233141D01*
Y176557D01*
X235291D01*
Y176525D01*
D02*
G37*
G36*
X232362Y174655D02*
Y174624D01*
Y174157D01*
X231458D01*
Y177429D01*
X232362D01*
Y174655D01*
D02*
G37*
G36*
X228341Y176027D02*
X226533D01*
Y175996D01*
X226378D01*
Y175964D01*
X226315D01*
Y175933D01*
X226284D01*
Y175746D01*
X226315D01*
Y175715D01*
X226378D01*
Y175684D01*
X226471D01*
Y175653D01*
X227749D01*
Y175621D01*
X227905D01*
Y175590D01*
X228029D01*
Y175559D01*
X228092D01*
Y175528D01*
X228185D01*
Y175497D01*
X228216D01*
Y175466D01*
X228279D01*
Y175435D01*
X228310D01*
Y175403D01*
X228341D01*
Y175372D01*
X228372D01*
Y175341D01*
X228403D01*
Y175310D01*
X228434D01*
Y175248D01*
X228466D01*
Y175185D01*
X228497D01*
Y175092D01*
X228528D01*
Y174749D01*
X228497D01*
Y174655D01*
X228466D01*
Y174593D01*
X228434D01*
Y174531D01*
X228403D01*
Y174468D01*
X228372D01*
Y174437D01*
X228341D01*
Y174406D01*
X228310D01*
Y174375D01*
X228279D01*
Y174344D01*
X228247D01*
Y174312D01*
X228185D01*
Y174281D01*
X228154D01*
Y174250D01*
X228092D01*
Y174219D01*
X227998D01*
Y174188D01*
X227905D01*
Y174157D01*
X225443D01*
Y174687D01*
X227437D01*
Y174718D01*
X227531D01*
Y174749D01*
X227593D01*
Y174780D01*
X227655D01*
Y174873D01*
X227687D01*
Y174936D01*
X227655D01*
Y174998D01*
X227624D01*
Y175029D01*
X227593D01*
Y175060D01*
X227531D01*
Y175092D01*
X227375D01*
Y175123D01*
X226066D01*
Y175154D01*
X225879D01*
Y175185D01*
X225785D01*
Y175216D01*
X225692D01*
Y175248D01*
X225629D01*
Y175279D01*
X225598D01*
Y175310D01*
X225567D01*
Y175341D01*
X225536D01*
Y175372D01*
X225505D01*
Y175403D01*
X225474D01*
Y175466D01*
X225443D01*
Y175528D01*
X225411D01*
Y175653D01*
X225380D01*
Y175964D01*
X225411D01*
Y176089D01*
X225443D01*
Y176151D01*
X225474D01*
Y176214D01*
X225505D01*
Y176245D01*
X225536D01*
Y176307D01*
X225567D01*
Y176338D01*
X225629D01*
Y176370D01*
X225661D01*
Y176401D01*
X225723D01*
Y176432D01*
X225785D01*
Y176463D01*
X225848D01*
Y176494D01*
X225972D01*
Y176525D01*
X226128D01*
Y176557D01*
X228341D01*
Y176027D01*
D02*
G37*
G36*
X224975D02*
X223510D01*
Y175996D01*
X223354D01*
Y175964D01*
X223261D01*
Y175933D01*
X223199D01*
Y175902D01*
X223167D01*
Y175871D01*
X223136D01*
Y175840D01*
X223105D01*
Y175777D01*
X223074D01*
Y175684D01*
X223043D01*
Y175621D01*
X224975D01*
Y175092D01*
X223043D01*
Y175029D01*
X223074D01*
Y174905D01*
X223105D01*
Y174873D01*
X223136D01*
Y174811D01*
X223199D01*
Y174780D01*
X223230D01*
Y174749D01*
X223323D01*
Y174718D01*
X223510D01*
Y174687D01*
X224975D01*
Y174157D01*
X223292D01*
Y174188D01*
X223105D01*
Y174219D01*
X222949D01*
Y174250D01*
X222856D01*
Y174281D01*
X222793D01*
Y174312D01*
X222700D01*
Y174344D01*
X222638D01*
Y174375D01*
X222606D01*
Y174406D01*
X222544D01*
Y174437D01*
X222513D01*
Y174468D01*
X222450D01*
Y174499D01*
X222419D01*
Y174531D01*
X222388D01*
Y174562D01*
X222357D01*
Y174593D01*
X222326D01*
Y174655D01*
X222295D01*
Y174687D01*
X222264D01*
Y174718D01*
X222232D01*
Y174780D01*
X222201D01*
Y174842D01*
X222170D01*
Y174936D01*
X222139D01*
Y175060D01*
X222108D01*
Y175653D01*
X222139D01*
Y175777D01*
X222170D01*
Y175840D01*
X222201D01*
Y175933D01*
X222232D01*
Y175964D01*
X222264D01*
Y176027D01*
X222295D01*
Y176058D01*
X222326D01*
Y176089D01*
X222357D01*
Y176151D01*
X222388D01*
Y176182D01*
X222450D01*
Y176214D01*
X222482D01*
Y176245D01*
X222513D01*
Y176276D01*
X222544D01*
Y176307D01*
X222606D01*
Y176338D01*
X222669D01*
Y176370D01*
X222731D01*
Y176401D01*
X222793D01*
Y176432D01*
X222887D01*
Y176463D01*
X222980D01*
Y176494D01*
X223105D01*
Y176525D01*
X223292D01*
Y176557D01*
X224975D01*
Y176027D01*
D02*
G37*
G36*
X221578Y174157D02*
X220674D01*
Y176151D01*
Y176182D01*
Y177429D01*
X221578D01*
Y174157D01*
D02*
G37*
G36*
X220144Y176027D02*
X218898D01*
Y175996D01*
X218710D01*
Y175964D01*
X218586D01*
Y175933D01*
X218492D01*
Y175902D01*
X218430D01*
Y175871D01*
X218399D01*
Y175840D01*
X218368D01*
Y175809D01*
X218337D01*
Y175777D01*
X218305D01*
Y175746D01*
X218274D01*
Y175684D01*
X218243D01*
Y175590D01*
X218212D01*
Y175435D01*
X218181D01*
Y175279D01*
X218212D01*
Y175123D01*
X218243D01*
Y175029D01*
X218274D01*
Y174998D01*
X218305D01*
Y174936D01*
X218337D01*
Y174905D01*
X218368D01*
Y174873D01*
X218430D01*
Y174842D01*
X218461D01*
Y174811D01*
X218524D01*
Y174780D01*
X218586D01*
Y174749D01*
X218679D01*
Y174718D01*
X218835D01*
Y174687D01*
X220144D01*
Y174157D01*
X218524D01*
Y174188D01*
X218305D01*
Y174219D01*
X218181D01*
Y174250D01*
X218087D01*
Y174281D01*
X218025D01*
Y174312D01*
X217963D01*
Y174344D01*
X217900D01*
Y174375D01*
X217838D01*
Y174406D01*
X217807D01*
Y174437D01*
X217744D01*
Y174468D01*
X217713D01*
Y174499D01*
X217682D01*
Y174531D01*
X217651D01*
Y174562D01*
X217620D01*
Y174593D01*
X217588D01*
Y174624D01*
X217557D01*
Y174655D01*
X217526D01*
Y174718D01*
X217495D01*
Y174749D01*
X217464D01*
Y174811D01*
X217433D01*
Y174842D01*
X217402D01*
Y174936D01*
X217370D01*
Y174998D01*
X217339D01*
Y175092D01*
X217308D01*
Y175621D01*
X217339D01*
Y175715D01*
X217370D01*
Y175809D01*
X217402D01*
Y175871D01*
X217433D01*
Y175933D01*
X217464D01*
Y175964D01*
X217495D01*
Y176027D01*
X217526D01*
Y176058D01*
X217557D01*
Y176089D01*
X217588D01*
Y176120D01*
X217620D01*
Y176151D01*
X217651D01*
Y176182D01*
X217682D01*
Y176214D01*
X217713D01*
Y176245D01*
X217744D01*
Y176276D01*
X217776D01*
Y176307D01*
X217838D01*
Y176338D01*
X217900D01*
Y176370D01*
X217963D01*
Y176401D01*
X218025D01*
Y176432D01*
X218118D01*
Y176463D01*
X218212D01*
Y176494D01*
X218337D01*
Y176525D01*
X218524D01*
Y176557D01*
X220144D01*
Y176027D01*
D02*
G37*
G36*
X216778Y174157D02*
X215843D01*
Y175310D01*
Y175341D01*
Y176557D01*
X216778D01*
Y174157D01*
D02*
G37*
G36*
X213038Y176557D02*
X214223D01*
Y176525D01*
X214409D01*
Y176494D01*
X214534D01*
Y176463D01*
X214628D01*
Y176432D01*
X214721D01*
Y176401D01*
X214784D01*
Y176370D01*
X214815D01*
Y176338D01*
X214877D01*
Y176307D01*
X214908D01*
Y176276D01*
X214939D01*
Y176245D01*
X214970D01*
Y176214D01*
X215002D01*
Y176151D01*
X215033D01*
Y176089D01*
X215064D01*
Y176027D01*
X215095D01*
Y175933D01*
X215126D01*
Y174157D01*
X214254D01*
Y175746D01*
X214223D01*
Y175840D01*
X214191D01*
Y175871D01*
X214160D01*
Y175902D01*
X214129D01*
Y175933D01*
X214036D01*
Y175964D01*
X213911D01*
Y175996D01*
X213038D01*
Y174157D01*
X212165D01*
Y177429D01*
X213038D01*
Y176557D01*
D02*
G37*
G36*
X211667Y176027D02*
X210202D01*
Y175996D01*
X210046D01*
Y175964D01*
X209953D01*
Y175933D01*
X209890D01*
Y175902D01*
X209859D01*
Y175871D01*
X209828D01*
Y175840D01*
X209797D01*
Y175777D01*
X209766D01*
Y175684D01*
X209735D01*
Y175621D01*
X211667D01*
Y175092D01*
X209735D01*
Y175029D01*
X209766D01*
Y174905D01*
X209797D01*
Y174873D01*
X209828D01*
Y174811D01*
X209890D01*
Y174780D01*
X209922D01*
Y174749D01*
X210015D01*
Y174718D01*
X210202D01*
Y174687D01*
X211667D01*
Y174157D01*
X209984D01*
Y174188D01*
X209797D01*
Y174219D01*
X209641D01*
Y174250D01*
X209547D01*
Y174281D01*
X209485D01*
Y174312D01*
X209392D01*
Y174344D01*
X209329D01*
Y174375D01*
X209298D01*
Y174406D01*
X209236D01*
Y174437D01*
X209205D01*
Y174468D01*
X209142D01*
Y174499D01*
X209111D01*
Y174531D01*
X209080D01*
Y174562D01*
X209049D01*
Y174593D01*
X209018D01*
Y174655D01*
X208986D01*
Y174687D01*
X208955D01*
Y174718D01*
X208924D01*
Y174780D01*
X208893D01*
Y174842D01*
X208862D01*
Y174936D01*
X208831D01*
Y175060D01*
X208800D01*
Y175653D01*
X208831D01*
Y175777D01*
X208862D01*
Y175840D01*
X208893D01*
Y175933D01*
X208924D01*
Y175964D01*
X208955D01*
Y176027D01*
X208986D01*
Y176058D01*
X209018D01*
Y176089D01*
X209049D01*
Y176151D01*
X209080D01*
Y176182D01*
X209142D01*
Y176214D01*
X209173D01*
Y176245D01*
X209205D01*
Y176276D01*
X209236D01*
Y176307D01*
X209298D01*
Y176338D01*
X209361D01*
Y176370D01*
X209423D01*
Y176401D01*
X209485D01*
Y176432D01*
X209579D01*
Y176463D01*
X209672D01*
Y176494D01*
X209797D01*
Y176525D01*
X209984D01*
Y176557D01*
X211667D01*
Y176027D01*
D02*
G37*
G36*
X202379D02*
X200914D01*
Y175996D01*
X200759D01*
Y175964D01*
X200665D01*
Y175933D01*
X200603D01*
Y175902D01*
X200571D01*
Y175871D01*
X200540D01*
Y175840D01*
X200509D01*
Y175777D01*
X200478D01*
Y175684D01*
X200447D01*
Y175621D01*
X202379D01*
Y175092D01*
X200447D01*
Y175029D01*
X200478D01*
Y174905D01*
X200509D01*
Y174873D01*
X200540D01*
Y174811D01*
X200603D01*
Y174780D01*
X200634D01*
Y174749D01*
X200727D01*
Y174718D01*
X200914D01*
Y174687D01*
X202379D01*
Y174157D01*
X200696D01*
Y174188D01*
X200509D01*
Y174219D01*
X200353D01*
Y174250D01*
X200260D01*
Y174281D01*
X200198D01*
Y174312D01*
X200104D01*
Y174344D01*
X200042D01*
Y174375D01*
X200010D01*
Y174406D01*
X199948D01*
Y174437D01*
X199917D01*
Y174468D01*
X199855D01*
Y174499D01*
X199823D01*
Y174531D01*
X199792D01*
Y174562D01*
X199761D01*
Y174593D01*
X199730D01*
Y174655D01*
X199699D01*
Y174687D01*
X199668D01*
Y174718D01*
X199636D01*
Y174780D01*
X199605D01*
Y174842D01*
X199574D01*
Y174936D01*
X199543D01*
Y175060D01*
X199512D01*
Y175653D01*
X199543D01*
Y175777D01*
X199574D01*
Y175840D01*
X199605D01*
Y175933D01*
X199636D01*
Y175964D01*
X199668D01*
Y176027D01*
X199699D01*
Y176058D01*
X199730D01*
Y176089D01*
X199761D01*
Y176151D01*
X199792D01*
Y176182D01*
X199855D01*
Y176214D01*
X199886D01*
Y176245D01*
X199917D01*
Y176276D01*
X199948D01*
Y176307D01*
X200010D01*
Y176338D01*
X200073D01*
Y176370D01*
X200135D01*
Y176401D01*
X200198D01*
Y176432D01*
X200291D01*
Y176463D01*
X200384D01*
Y176494D01*
X200509D01*
Y176525D01*
X200696D01*
Y176557D01*
X202379D01*
Y176027D01*
D02*
G37*
G36*
X190910Y176557D02*
X191814D01*
Y176058D01*
X190910D01*
Y174998D01*
X190941D01*
Y174873D01*
X190972D01*
Y174811D01*
X191003D01*
Y174780D01*
X191034D01*
Y174749D01*
X191066D01*
Y174718D01*
X191128D01*
Y174687D01*
X191253D01*
Y174655D01*
X191814D01*
Y174157D01*
X190723D01*
Y174188D01*
X190567D01*
Y174219D01*
X190473D01*
Y174250D01*
X190411D01*
Y174281D01*
X190380D01*
Y174312D01*
X190318D01*
Y174344D01*
X190287D01*
Y174375D01*
X190255D01*
Y174406D01*
X190224D01*
Y174437D01*
X190193D01*
Y174468D01*
X190162D01*
Y174531D01*
X190131D01*
Y174562D01*
X190100D01*
Y174655D01*
X190068D01*
Y176058D01*
X189445D01*
Y176557D01*
X190068D01*
Y177429D01*
X190910D01*
Y176557D01*
D02*
G37*
G36*
X184677D02*
X185580D01*
Y176058D01*
X184677D01*
Y174998D01*
X184708D01*
Y174873D01*
X184739D01*
Y174811D01*
X184770D01*
Y174780D01*
X184801D01*
Y174749D01*
X184832D01*
Y174718D01*
X184895D01*
Y174687D01*
X185019D01*
Y174655D01*
X185580D01*
Y174157D01*
X184490D01*
Y174188D01*
X184334D01*
Y174219D01*
X184240D01*
Y174250D01*
X184178D01*
Y174281D01*
X184147D01*
Y174312D01*
X184084D01*
Y174344D01*
X184053D01*
Y174375D01*
X184022D01*
Y174406D01*
X183991D01*
Y174437D01*
X183960D01*
Y174468D01*
X183929D01*
Y174531D01*
X183897D01*
Y174562D01*
X183866D01*
Y174655D01*
X183835D01*
Y176058D01*
X183212D01*
Y176557D01*
X183835D01*
Y177429D01*
X184677D01*
Y176557D01*
D02*
G37*
G36*
X255518Y176588D02*
X255705D01*
Y176557D01*
X255861D01*
Y176525D01*
X255955D01*
Y176494D01*
X256048D01*
Y176463D01*
X256111D01*
Y176432D01*
X256173D01*
Y176401D01*
X256235D01*
Y176370D01*
X256266D01*
Y176338D01*
X256329D01*
Y176307D01*
X256391D01*
Y176276D01*
X256422D01*
Y176245D01*
X256453D01*
Y176214D01*
X256485D01*
Y176182D01*
X256516D01*
Y176151D01*
X256547D01*
Y176120D01*
X256578D01*
Y176089D01*
X256609D01*
Y176058D01*
X256640D01*
Y175996D01*
X256672D01*
Y175964D01*
X256703D01*
Y175902D01*
X256734D01*
Y175840D01*
X256765D01*
Y175746D01*
X256796D01*
Y175653D01*
X256827D01*
Y175092D01*
X256796D01*
Y174998D01*
X256765D01*
Y174905D01*
X256734D01*
Y174842D01*
X256703D01*
Y174780D01*
X256672D01*
Y174749D01*
X256640D01*
Y174687D01*
X256609D01*
Y174655D01*
X256578D01*
Y174624D01*
X256547D01*
Y174593D01*
X256516D01*
Y174562D01*
X256485D01*
Y174531D01*
X256453D01*
Y174499D01*
X256422D01*
Y174468D01*
X256360D01*
Y174437D01*
X256329D01*
Y174406D01*
X256266D01*
Y174375D01*
X256235D01*
Y174344D01*
X256173D01*
Y174312D01*
X256111D01*
Y174281D01*
X256048D01*
Y174250D01*
X255955D01*
Y174219D01*
X255861D01*
Y174188D01*
X255736D01*
Y174157D01*
X255550D01*
Y174126D01*
X254739D01*
Y174157D01*
X254552D01*
Y174188D01*
X254428D01*
Y174219D01*
X254303D01*
Y174250D01*
X254240D01*
Y174281D01*
X254147D01*
Y174312D01*
X254085D01*
Y174344D01*
X254053D01*
Y174375D01*
X253991D01*
Y174406D01*
X253929D01*
Y174437D01*
X253898D01*
Y174468D01*
X253835D01*
Y174499D01*
X253804D01*
Y174531D01*
X253773D01*
Y174562D01*
X253742D01*
Y174593D01*
X253711D01*
Y174624D01*
X253679D01*
Y174655D01*
X253648D01*
Y174687D01*
X253617D01*
Y174749D01*
X253586D01*
Y174780D01*
X253555D01*
Y174842D01*
X253524D01*
Y174905D01*
X253492D01*
Y174967D01*
X253461D01*
Y175092D01*
X253430D01*
Y175653D01*
X253461D01*
Y175777D01*
X253492D01*
Y175840D01*
X253524D01*
Y175902D01*
X253555D01*
Y175964D01*
X253586D01*
Y175996D01*
X253617D01*
Y176027D01*
X253648D01*
Y176089D01*
X253679D01*
Y176120D01*
X253711D01*
Y176151D01*
X253742D01*
Y176182D01*
X253773D01*
Y176214D01*
X253804D01*
Y176245D01*
X253867D01*
Y176276D01*
X253898D01*
Y176307D01*
X253929D01*
Y176338D01*
X253991D01*
Y176370D01*
X254053D01*
Y176401D01*
X254085D01*
Y176432D01*
X254147D01*
Y176463D01*
X254240D01*
Y176494D01*
X254303D01*
Y176525D01*
X254428D01*
Y176557D01*
X254552D01*
Y176588D01*
X254739D01*
Y176619D01*
X255518D01*
Y176588D01*
D02*
G37*
G36*
X242522D02*
X242709D01*
Y176557D01*
X242865D01*
Y176525D01*
X242958D01*
Y176494D01*
X243052D01*
Y176463D01*
X243114D01*
Y176432D01*
X243176D01*
Y176401D01*
X243239D01*
Y176370D01*
X243270D01*
Y176338D01*
X243332D01*
Y176307D01*
X243394D01*
Y176276D01*
X243426D01*
Y176245D01*
X243457D01*
Y176214D01*
X243488D01*
Y176182D01*
X243519D01*
Y176151D01*
X243550D01*
Y176120D01*
X243582D01*
Y176089D01*
X243613D01*
Y176058D01*
X243644D01*
Y175996D01*
X243675D01*
Y175964D01*
X243706D01*
Y175902D01*
X243737D01*
Y175840D01*
X243769D01*
Y175746D01*
X243800D01*
Y175653D01*
X243831D01*
Y175092D01*
X243800D01*
Y174998D01*
X243769D01*
Y174905D01*
X243737D01*
Y174842D01*
X243706D01*
Y174780D01*
X243675D01*
Y174749D01*
X243644D01*
Y174687D01*
X243613D01*
Y174655D01*
X243582D01*
Y174624D01*
X243550D01*
Y174593D01*
X243519D01*
Y174562D01*
X243488D01*
Y174531D01*
X243457D01*
Y174499D01*
X243426D01*
Y174468D01*
X243363D01*
Y174437D01*
X243332D01*
Y174406D01*
X243270D01*
Y174375D01*
X243239D01*
Y174344D01*
X243176D01*
Y174312D01*
X243114D01*
Y174281D01*
X243052D01*
Y174250D01*
X242958D01*
Y174219D01*
X242865D01*
Y174188D01*
X242740D01*
Y174157D01*
X242553D01*
Y174126D01*
X241743D01*
Y174157D01*
X241556D01*
Y174188D01*
X241431D01*
Y174219D01*
X241306D01*
Y174250D01*
X241244D01*
Y174281D01*
X241150D01*
Y174312D01*
X241088D01*
Y174344D01*
X241057D01*
Y174375D01*
X240995D01*
Y174406D01*
X240932D01*
Y174437D01*
X240901D01*
Y174468D01*
X240839D01*
Y174499D01*
X240808D01*
Y174531D01*
X240776D01*
Y174562D01*
X240745D01*
Y174593D01*
X240714D01*
Y174624D01*
X240683D01*
Y174655D01*
X240652D01*
Y174687D01*
X240621D01*
Y174749D01*
X240589D01*
Y174780D01*
X240558D01*
Y174811D01*
Y174842D01*
X240527D01*
Y174905D01*
X240496D01*
Y174967D01*
X240465D01*
Y175092D01*
X240434D01*
Y175653D01*
X240465D01*
Y175777D01*
X240496D01*
Y175840D01*
X240527D01*
Y175902D01*
X240558D01*
Y175964D01*
X240589D01*
Y175996D01*
X240621D01*
Y176027D01*
X240652D01*
Y176089D01*
X240683D01*
Y176120D01*
X240714D01*
Y176151D01*
X240745D01*
Y176182D01*
X240776D01*
Y176214D01*
X240808D01*
Y176245D01*
X240870D01*
Y176276D01*
X240901D01*
Y176307D01*
X240932D01*
Y176338D01*
X240995D01*
Y176370D01*
X241057D01*
Y176401D01*
X241088D01*
Y176432D01*
X241150D01*
Y176463D01*
X241244D01*
Y176494D01*
X241306D01*
Y176525D01*
X241431D01*
Y176557D01*
X241556D01*
Y176588D01*
X241743D01*
Y176619D01*
X242522D01*
Y176588D01*
D02*
G37*
G36*
X187949D02*
X188136D01*
Y176557D01*
X188292D01*
Y176525D01*
X188385D01*
Y176494D01*
X188479D01*
Y176463D01*
X188541D01*
Y176432D01*
X188603D01*
Y176401D01*
X188666D01*
Y176370D01*
X188697D01*
Y176338D01*
X188759D01*
Y176307D01*
X188822D01*
Y176276D01*
X188853D01*
Y176245D01*
X188884D01*
Y176214D01*
X188915D01*
Y176182D01*
X188946D01*
Y176151D01*
X188978D01*
Y176120D01*
X189009D01*
Y176089D01*
X189040D01*
Y176058D01*
X189071D01*
Y175996D01*
X189102D01*
Y175964D01*
X189133D01*
Y175902D01*
X189164D01*
Y175840D01*
X189196D01*
Y175746D01*
X189227D01*
Y175653D01*
X189258D01*
Y175092D01*
X189227D01*
Y174998D01*
X189196D01*
Y174905D01*
X189164D01*
Y174842D01*
X189133D01*
Y174780D01*
X189102D01*
Y174749D01*
X189071D01*
Y174687D01*
X189040D01*
Y174655D01*
X189009D01*
Y174624D01*
X188978D01*
Y174593D01*
X188946D01*
Y174562D01*
X188915D01*
Y174531D01*
X188884D01*
Y174499D01*
X188853D01*
Y174468D01*
X188791D01*
Y174437D01*
X188759D01*
Y174406D01*
X188697D01*
Y174375D01*
X188666D01*
Y174344D01*
X188603D01*
Y174312D01*
X188541D01*
Y174281D01*
X188479D01*
Y174250D01*
X188385D01*
Y174219D01*
X188292D01*
Y174188D01*
X188167D01*
Y174157D01*
X187980D01*
Y174126D01*
X187170D01*
Y174157D01*
X186983D01*
Y174188D01*
X186858D01*
Y174219D01*
X186733D01*
Y174250D01*
X186671D01*
Y174281D01*
X186578D01*
Y174312D01*
X186515D01*
Y174344D01*
X186484D01*
Y174375D01*
X186422D01*
Y174406D01*
X186360D01*
Y174437D01*
X186328D01*
Y174468D01*
X186266D01*
Y174499D01*
X186235D01*
Y174531D01*
X186204D01*
Y174562D01*
X186172D01*
Y174593D01*
X186141D01*
Y174624D01*
X186110D01*
Y174655D01*
X186079D01*
Y174687D01*
X186048D01*
Y174749D01*
X186017D01*
Y174780D01*
X185986D01*
Y174842D01*
X185954D01*
Y174905D01*
X185923D01*
Y174967D01*
X185892D01*
Y175092D01*
X185861D01*
Y175653D01*
X185892D01*
Y175777D01*
X185923D01*
Y175840D01*
X185954D01*
Y175902D01*
X185986D01*
Y175964D01*
X186017D01*
Y175996D01*
X186048D01*
Y176027D01*
X186079D01*
Y176089D01*
X186110D01*
Y176120D01*
X186141D01*
Y176151D01*
X186172D01*
Y176182D01*
X186204D01*
Y176214D01*
X186235D01*
Y176245D01*
X186297D01*
Y176276D01*
X186328D01*
Y176307D01*
X186360D01*
Y176338D01*
X186422D01*
Y176370D01*
X186484D01*
Y176401D01*
X186515D01*
Y176432D01*
X186578D01*
Y176463D01*
X186671D01*
Y176494D01*
X186733D01*
Y176525D01*
X186858D01*
Y176557D01*
X186983D01*
Y176588D01*
X187170D01*
Y176619D01*
X187949D01*
Y176588D01*
D02*
G37*
G36*
X181716D02*
X181903D01*
Y176557D01*
X182059D01*
Y176525D01*
X182152D01*
Y176494D01*
X182246D01*
Y176463D01*
X182308D01*
Y176432D01*
X182370D01*
Y176401D01*
X182432D01*
Y176370D01*
X182464D01*
Y176338D01*
X182526D01*
Y176307D01*
X182588D01*
Y176276D01*
X182620D01*
Y176245D01*
X182651D01*
Y176214D01*
X182682D01*
Y176182D01*
X182713D01*
Y176151D01*
X182744D01*
Y176120D01*
X182775D01*
Y176089D01*
X182807D01*
Y176058D01*
X182838D01*
Y175996D01*
X182869D01*
Y175964D01*
X182900D01*
Y175902D01*
X182931D01*
Y175840D01*
X182962D01*
Y175746D01*
X182993D01*
Y175653D01*
X183025D01*
Y175092D01*
X182993D01*
Y174998D01*
X182962D01*
Y174905D01*
X182931D01*
Y174842D01*
X182900D01*
Y174780D01*
X182869D01*
Y174749D01*
X182838D01*
Y174687D01*
X182807D01*
Y174655D01*
X182775D01*
Y174624D01*
X182744D01*
Y174593D01*
X182713D01*
Y174562D01*
X182682D01*
Y174531D01*
X182651D01*
Y174499D01*
X182620D01*
Y174468D01*
X182557D01*
Y174437D01*
X182526D01*
Y174406D01*
X182464D01*
Y174375D01*
X182432D01*
Y174344D01*
X182370D01*
Y174312D01*
X182308D01*
Y174281D01*
X182246D01*
Y174250D01*
X182152D01*
Y174219D01*
X182059D01*
Y174188D01*
X181934D01*
Y174157D01*
X181747D01*
Y174126D01*
X180937D01*
Y174157D01*
X180749D01*
Y174188D01*
X180625D01*
Y174219D01*
X180500D01*
Y174250D01*
X180438D01*
Y174281D01*
X180344D01*
Y174312D01*
X180282D01*
Y174344D01*
X180251D01*
Y174375D01*
X180189D01*
Y174406D01*
X180126D01*
Y174437D01*
X180095D01*
Y174468D01*
X180033D01*
Y174499D01*
X180001D01*
Y174531D01*
X179970D01*
Y174562D01*
X179939D01*
Y174593D01*
X179908D01*
Y174624D01*
X179877D01*
Y174655D01*
X179846D01*
Y174687D01*
X179815D01*
Y174749D01*
X179783D01*
Y174780D01*
X179752D01*
Y174842D01*
X179721D01*
Y174905D01*
X179690D01*
Y174967D01*
X179659D01*
Y175092D01*
X179628D01*
Y175653D01*
X179659D01*
Y175777D01*
X179690D01*
Y175840D01*
X179721D01*
Y175902D01*
X179752D01*
Y175964D01*
X179783D01*
Y175996D01*
X179815D01*
Y176027D01*
X179846D01*
Y176089D01*
X179877D01*
Y176120D01*
X179908D01*
Y176151D01*
X179939D01*
Y176182D01*
X179970D01*
Y176214D01*
X180001D01*
Y176245D01*
X180064D01*
Y176276D01*
X180095D01*
Y176307D01*
X180126D01*
Y176338D01*
X180189D01*
Y176370D01*
X180251D01*
Y176401D01*
X180282D01*
Y176432D01*
X180344D01*
Y176463D01*
X180438D01*
Y176494D01*
X180500D01*
Y176525D01*
X180625D01*
Y176557D01*
X180749D01*
Y176588D01*
X180937D01*
Y176619D01*
X181716D01*
Y176588D01*
D02*
G37*
G36*
X198016Y176525D02*
X198203D01*
Y176494D01*
X198328D01*
Y176463D01*
X198421D01*
Y176432D01*
X198483D01*
Y176401D01*
X198546D01*
Y176370D01*
X198608D01*
Y176338D01*
X198670D01*
Y176307D01*
X198702D01*
Y176276D01*
X198764D01*
Y176245D01*
X198795D01*
Y176214D01*
X198826D01*
Y176182D01*
X198857D01*
Y176151D01*
X198889D01*
Y176120D01*
X198920D01*
Y176089D01*
X198951D01*
Y176058D01*
X198982D01*
Y176027D01*
X199013D01*
Y175964D01*
X199044D01*
Y175902D01*
X199075D01*
Y175840D01*
X199107D01*
Y175777D01*
X199138D01*
Y175653D01*
X199169D01*
Y175466D01*
X199200D01*
Y175185D01*
X199169D01*
Y174998D01*
X199138D01*
Y174905D01*
X199107D01*
Y174842D01*
X199075D01*
Y174780D01*
X199044D01*
Y174718D01*
X199013D01*
Y174687D01*
X198982D01*
Y174655D01*
X198951D01*
Y174624D01*
X198920D01*
Y174593D01*
X198889D01*
Y174562D01*
X198857D01*
Y174531D01*
X198826D01*
Y174499D01*
X198795D01*
Y174468D01*
X198764D01*
Y174437D01*
X198733D01*
Y174406D01*
X198670D01*
Y174375D01*
X198639D01*
Y174344D01*
X198577D01*
Y174312D01*
X198514D01*
Y174281D01*
X198452D01*
Y174250D01*
X198359D01*
Y174219D01*
X198234D01*
Y174188D01*
X198016D01*
Y174157D01*
X196832D01*
Y173284D01*
X195990D01*
Y174281D01*
Y174312D01*
Y176557D01*
X198016D01*
Y176525D01*
D02*
G37*
G36*
X175295D02*
X175482D01*
Y176494D01*
X175607D01*
Y176463D01*
X175700D01*
Y176432D01*
X175763D01*
Y176401D01*
X175825D01*
Y176370D01*
X175888D01*
Y176338D01*
X175950D01*
Y176307D01*
X175981D01*
Y176276D01*
X176043D01*
Y176245D01*
X176075D01*
Y176214D01*
X176106D01*
Y176182D01*
X176137D01*
Y176151D01*
X176168D01*
Y176120D01*
X176199D01*
Y176089D01*
X176230D01*
Y176058D01*
X176261D01*
Y176027D01*
X176293D01*
Y175964D01*
X176324D01*
Y175902D01*
X176355D01*
Y175840D01*
X176386D01*
Y175777D01*
X176417D01*
Y175653D01*
X176449D01*
Y175466D01*
X176480D01*
Y175185D01*
X176449D01*
Y174998D01*
X176417D01*
Y174905D01*
X176386D01*
Y174842D01*
X176355D01*
Y174780D01*
X176324D01*
Y174718D01*
X176293D01*
Y174687D01*
X176261D01*
Y174655D01*
X176230D01*
Y174624D01*
X176199D01*
Y174593D01*
X176168D01*
Y174562D01*
X176137D01*
Y174531D01*
X176106D01*
Y174499D01*
X176075D01*
Y174468D01*
X176043D01*
Y174437D01*
X176012D01*
Y174406D01*
X175950D01*
Y174375D01*
X175919D01*
Y174344D01*
X175856D01*
Y174312D01*
X175794D01*
Y174281D01*
X175732D01*
Y174250D01*
X175638D01*
Y174219D01*
X175514D01*
Y174188D01*
X175295D01*
Y174157D01*
X174111D01*
Y173284D01*
X173269D01*
Y176557D01*
X175295D01*
Y176525D01*
D02*
G37*
%LPC*%
G36*
X182526Y191298D02*
X177352D01*
Y187870D01*
Y187839D01*
Y187558D01*
X182682D01*
Y187590D01*
X183212D01*
Y187621D01*
X183523D01*
Y187652D01*
X183741D01*
Y187683D01*
X183929D01*
Y187714D01*
X184084D01*
Y187745D01*
X184209D01*
Y187777D01*
X184334D01*
Y187808D01*
X184427D01*
Y187839D01*
X184521D01*
Y187870D01*
X184614D01*
Y187901D01*
X184708D01*
Y187932D01*
X184770D01*
Y187963D01*
X184832D01*
Y187995D01*
X184895D01*
Y188026D01*
X184957D01*
Y188057D01*
X185019D01*
Y188088D01*
X185050D01*
Y188119D01*
X185113D01*
Y188151D01*
X185144D01*
Y188182D01*
X185206D01*
Y188213D01*
X185238D01*
Y188244D01*
X185269D01*
Y188275D01*
X185300D01*
Y188306D01*
X185331D01*
Y188338D01*
X185362D01*
Y188369D01*
X185393D01*
Y188400D01*
X185424D01*
Y188431D01*
X185456D01*
Y188462D01*
X185487D01*
Y188493D01*
X185518D01*
Y188556D01*
X185549D01*
Y188587D01*
X185580D01*
Y188649D01*
X185611D01*
Y188712D01*
X185643D01*
Y188774D01*
X185674D01*
Y188836D01*
X185705D01*
Y188930D01*
X185736D01*
Y189054D01*
X185767D01*
Y189272D01*
X185799D01*
Y189584D01*
X185767D01*
Y189802D01*
X185736D01*
Y189958D01*
X185705D01*
Y190052D01*
X185674D01*
Y190114D01*
X185643D01*
Y190208D01*
X185611D01*
Y190270D01*
X185580D01*
Y190301D01*
X185549D01*
Y190363D01*
X185518D01*
Y190394D01*
X185487D01*
Y190457D01*
X185456D01*
Y190488D01*
X185424D01*
Y190519D01*
X185393D01*
Y190550D01*
X185362D01*
Y190582D01*
X185331D01*
Y190613D01*
X185300D01*
Y190644D01*
X185269D01*
Y190675D01*
X185206D01*
Y190706D01*
X185175D01*
Y190737D01*
X185144D01*
Y190769D01*
X185082D01*
Y190800D01*
X185019D01*
Y190831D01*
X184988D01*
Y190862D01*
X184926D01*
Y190893D01*
X184832D01*
Y190924D01*
X184770D01*
Y190955D01*
X184677D01*
Y190987D01*
X184583D01*
Y191018D01*
X184490D01*
Y191049D01*
X184365D01*
Y191080D01*
X184240D01*
Y191111D01*
X184084D01*
Y191142D01*
X183929D01*
Y191174D01*
X183710D01*
Y191205D01*
X183461D01*
Y191236D01*
X183118D01*
Y191267D01*
X182526D01*
Y191298D01*
D02*
G37*
G36*
X249472Y175123D02*
X248194D01*
Y175092D01*
X248070D01*
Y175060D01*
X248038D01*
Y175029D01*
X248007D01*
Y174998D01*
X247976D01*
Y174780D01*
X248007D01*
Y174749D01*
X248038D01*
Y174718D01*
X248163D01*
Y174687D01*
X249472D01*
Y174842D01*
Y174873D01*
Y175123D01*
D02*
G37*
G36*
X238564Y176027D02*
X237785D01*
Y174687D01*
X238626D01*
Y174718D01*
X238813D01*
Y174749D01*
X238907D01*
Y174780D01*
X238969D01*
Y174811D01*
X239031D01*
Y174842D01*
X239062D01*
Y174873D01*
X239093D01*
Y174905D01*
X239125D01*
Y174936D01*
X239156D01*
Y174998D01*
X239187D01*
Y175060D01*
X239218D01*
Y175185D01*
X239249D01*
Y175466D01*
X239218D01*
Y175621D01*
X239187D01*
Y175653D01*
Y175684D01*
X239156D01*
Y175746D01*
X239125D01*
Y175777D01*
X239093D01*
Y175809D01*
X239062D01*
Y175840D01*
X239031D01*
Y175871D01*
X239000D01*
Y175902D01*
X238938D01*
Y175933D01*
X238844D01*
Y175964D01*
X238751D01*
Y175996D01*
X238564D01*
Y176027D01*
D02*
G37*
G36*
X235322Y175123D02*
X234045D01*
Y175092D01*
X233920D01*
Y175060D01*
X233889D01*
Y175029D01*
X233857D01*
Y174998D01*
X233826D01*
Y174780D01*
X233857D01*
Y174749D01*
X233889D01*
Y174718D01*
X234013D01*
Y174687D01*
X235322D01*
Y175123D01*
D02*
G37*
G36*
X255300Y176089D02*
X254957D01*
Y176058D01*
X254802D01*
Y176027D01*
X254708D01*
Y175996D01*
X254646D01*
Y175964D01*
X254614D01*
Y175933D01*
X254552D01*
Y175902D01*
X254521D01*
Y175871D01*
X254490D01*
Y175840D01*
X254459D01*
Y175777D01*
X254428D01*
Y175746D01*
X254396D01*
Y175653D01*
X254365D01*
Y175559D01*
X254334D01*
Y175185D01*
X254365D01*
Y175092D01*
X254396D01*
Y174998D01*
X254428D01*
Y174967D01*
X254459D01*
Y174936D01*
X254490D01*
Y174873D01*
X254521D01*
Y174842D01*
X254583D01*
Y174811D01*
X254614D01*
Y174780D01*
X254677D01*
Y174749D01*
X254739D01*
Y174718D01*
X254802D01*
Y174687D01*
X254957D01*
Y174655D01*
X255331D01*
Y174687D01*
X255456D01*
Y174718D01*
X255550D01*
Y174749D01*
X255612D01*
Y174780D01*
X255643D01*
Y174811D01*
X255705D01*
Y174842D01*
X255736D01*
Y174873D01*
X255768D01*
Y174905D01*
X255799D01*
Y174936D01*
X255830D01*
Y174998D01*
X255861D01*
Y175060D01*
X255892D01*
Y175154D01*
X255924D01*
Y175590D01*
X255892D01*
Y175684D01*
X255861D01*
Y175746D01*
X255830D01*
Y175777D01*
X255799D01*
Y175840D01*
X255768D01*
Y175871D01*
X255736D01*
Y175902D01*
X255674D01*
Y175933D01*
X255643D01*
Y175964D01*
X255612D01*
Y175996D01*
X255518D01*
Y176027D01*
X255456D01*
Y176058D01*
X255300D01*
Y176089D01*
D02*
G37*
G36*
X242304D02*
X241961D01*
Y176058D01*
X241805D01*
Y176027D01*
X241711D01*
Y175996D01*
X241649D01*
Y175964D01*
X241618D01*
Y175933D01*
X241556D01*
Y175902D01*
X241525D01*
Y175871D01*
X241493D01*
Y175840D01*
X241462D01*
Y175777D01*
X241431D01*
Y175746D01*
X241400D01*
Y175653D01*
X241369D01*
Y175559D01*
X241337D01*
Y175185D01*
X241369D01*
Y175092D01*
X241400D01*
Y174998D01*
X241431D01*
Y174967D01*
X241462D01*
Y174936D01*
X241493D01*
Y174873D01*
X241525D01*
Y174842D01*
X241587D01*
Y174811D01*
X241618D01*
Y174780D01*
X241680D01*
Y174749D01*
X241743D01*
Y174718D01*
X241805D01*
Y174687D01*
X241961D01*
Y174655D01*
X242335D01*
Y174687D01*
X242460D01*
Y174718D01*
X242553D01*
Y174749D01*
X242615D01*
Y174780D01*
X242647D01*
Y174811D01*
X242709D01*
Y174842D01*
X242740D01*
Y174873D01*
X242771D01*
Y174905D01*
X242802D01*
Y174936D01*
X242833D01*
Y174998D01*
X242865D01*
Y175060D01*
X242896D01*
Y175154D01*
X242927D01*
Y175590D01*
X242896D01*
Y175684D01*
X242865D01*
Y175746D01*
X242833D01*
Y175777D01*
X242802D01*
Y175840D01*
X242771D01*
Y175871D01*
X242740D01*
Y175902D01*
X242678D01*
Y175933D01*
X242647D01*
Y175964D01*
X242615D01*
Y175996D01*
X242522D01*
Y176027D01*
X242460D01*
Y176058D01*
X242304D01*
Y176089D01*
D02*
G37*
G36*
X187731D02*
X187388D01*
Y176058D01*
X187232D01*
Y176027D01*
X187139D01*
Y175996D01*
X187076D01*
Y175964D01*
X187045D01*
Y175933D01*
X186983D01*
Y175902D01*
X186952D01*
Y175871D01*
X186920D01*
Y175840D01*
X186889D01*
Y175777D01*
X186858D01*
Y175746D01*
X186827D01*
Y175653D01*
X186796D01*
Y175559D01*
X186765D01*
Y175185D01*
X186796D01*
Y175092D01*
X186827D01*
Y174998D01*
X186858D01*
Y174967D01*
X186889D01*
Y174936D01*
X186920D01*
Y174873D01*
X186952D01*
Y174842D01*
X187014D01*
Y174811D01*
X187045D01*
Y174780D01*
X187108D01*
Y174749D01*
X187170D01*
Y174718D01*
X187232D01*
Y174687D01*
X187388D01*
Y174655D01*
X187762D01*
Y174687D01*
X187887D01*
Y174718D01*
X187980D01*
Y174749D01*
X188042D01*
Y174780D01*
X188074D01*
Y174811D01*
X188136D01*
Y174842D01*
X188167D01*
Y174873D01*
X188198D01*
Y174905D01*
X188230D01*
Y174936D01*
X188261D01*
Y174998D01*
X188292D01*
Y175060D01*
X188323D01*
Y175154D01*
X188354D01*
Y175590D01*
X188323D01*
Y175684D01*
X188292D01*
Y175746D01*
X188261D01*
Y175777D01*
X188230D01*
Y175840D01*
X188198D01*
Y175871D01*
X188167D01*
Y175902D01*
X188105D01*
Y175933D01*
X188074D01*
Y175964D01*
X188042D01*
Y175996D01*
X187949D01*
Y176027D01*
X187887D01*
Y176058D01*
X187731D01*
Y176089D01*
D02*
G37*
G36*
X181498D02*
X181155D01*
Y176058D01*
X180999D01*
Y176027D01*
X180905D01*
Y175996D01*
X180843D01*
Y175964D01*
X180812D01*
Y175933D01*
X180749D01*
Y175902D01*
X180718D01*
Y175871D01*
X180687D01*
Y175840D01*
X180656D01*
Y175777D01*
X180625D01*
Y175746D01*
X180594D01*
Y175653D01*
X180562D01*
Y175559D01*
X180531D01*
Y175185D01*
X180562D01*
Y175092D01*
X180594D01*
Y174998D01*
X180625D01*
Y174967D01*
X180656D01*
Y174936D01*
X180687D01*
Y174873D01*
X180718D01*
Y174842D01*
X180781D01*
Y174811D01*
X180812D01*
Y174780D01*
X180874D01*
Y174749D01*
X180937D01*
Y174718D01*
X180999D01*
Y174687D01*
X181155D01*
Y174655D01*
X181529D01*
Y174687D01*
X181653D01*
Y174718D01*
X181747D01*
Y174749D01*
X181809D01*
Y174780D01*
X181840D01*
Y174811D01*
X181903D01*
Y174842D01*
X181934D01*
Y174873D01*
X181965D01*
Y174905D01*
X181996D01*
Y174936D01*
X182027D01*
Y174998D01*
X182059D01*
Y175060D01*
X182090D01*
Y175154D01*
X182121D01*
Y175590D01*
X182090D01*
Y175684D01*
X182059D01*
Y175746D01*
X182027D01*
Y175777D01*
X181996D01*
Y175840D01*
X181965D01*
Y175871D01*
X181934D01*
Y175902D01*
X181871D01*
Y175933D01*
X181840D01*
Y175964D01*
X181809D01*
Y175996D01*
X181716D01*
Y176027D01*
X181653D01*
Y176058D01*
X181498D01*
Y176089D01*
D02*
G37*
G36*
X197704Y176027D02*
X196832D01*
Y174687D01*
X197611D01*
Y174718D01*
X197798D01*
Y174749D01*
X197922D01*
Y174780D01*
X197985D01*
Y174811D01*
X198047D01*
Y174842D01*
X198078D01*
Y174873D01*
X198109D01*
Y174905D01*
X198141D01*
Y174936D01*
X198172D01*
Y174967D01*
X198203D01*
Y175029D01*
X198234D01*
Y175092D01*
X198265D01*
Y175248D01*
X198296D01*
Y175528D01*
X198265D01*
Y175653D01*
X198234D01*
Y175746D01*
X198203D01*
Y175777D01*
X198172D01*
Y175809D01*
X198141D01*
Y175840D01*
X198109D01*
Y175871D01*
X198078D01*
Y175902D01*
X198047D01*
Y175933D01*
X197953D01*
Y175964D01*
X197860D01*
Y175996D01*
X197704D01*
Y176027D01*
D02*
G37*
G36*
X174984D02*
X174111D01*
Y174687D01*
X174890D01*
Y174718D01*
X175077D01*
Y174749D01*
X175202D01*
Y174780D01*
X175264D01*
Y174811D01*
X175327D01*
Y174842D01*
X175358D01*
Y174873D01*
X175389D01*
Y174905D01*
X175420D01*
Y174936D01*
X175451D01*
Y174967D01*
X175482D01*
Y175029D01*
X175514D01*
Y175092D01*
X175545D01*
Y175248D01*
X175576D01*
Y175528D01*
X175545D01*
Y175653D01*
X175514D01*
Y175746D01*
X175482D01*
Y175777D01*
X175451D01*
Y175809D01*
X175420D01*
Y175840D01*
X175389D01*
Y175871D01*
X175358D01*
Y175902D01*
X175327D01*
Y175933D01*
X175233D01*
Y175964D01*
X175139D01*
Y175996D01*
X174984D01*
Y176027D01*
D02*
G37*
%LPD*%
D10*
X168876Y145000D02*
G03*
X168726Y146527I-7875J0D01*
G01*
X168271Y148026D02*
G03*
X167554Y149366I-7271J-3026D01*
G01*
X168722Y146546D02*
G03*
X168281Y148002I-7722J-1546D01*
G01*
X167542Y149385D02*
G03*
X166579Y150559I-6542J-4385D01*
G01*
X168726Y53471D02*
G03*
X168876Y55000I-7726J1529D01*
G01*
X168280Y51996D02*
G03*
X168723Y53456I-7280J3004D01*
G01*
X167552Y50630D02*
G03*
X168272Y51977I-6552J4370D01*
G01*
X166576Y49438D02*
G03*
X167545Y50620I-5576J5562D01*
G01*
X122125Y176000D02*
G03*
X124431Y170431I7875J0D01*
G01*
X124424Y29562D02*
G03*
X122726Y27018I5576J-5562D01*
G01*
X122722Y27009D02*
G03*
X122277Y25541I7278J-3009D01*
G01*
X122275Y25532D02*
G03*
X122125Y24000I7725J-1532D01*
G01*
X167300Y139461D02*
X168876Y141037D01*
X167313Y139355D02*
X168876Y137792D01*
X167313Y133906D02*
X168876Y135469D01*
X167313Y138750D02*
Y139398D01*
Y113250D02*
Y138750D01*
X165458Y143187D02*
X168738Y146467D01*
X161689Y144985D02*
X166909Y150206D01*
X163634Y144474D02*
X164756Y143826D01*
X166153Y142429D02*
X166801Y141306D01*
X166932Y140990D02*
X167268Y139738D01*
X165028Y143617D02*
X165945Y142701D01*
X167313Y128219D02*
X168876Y126656D01*
X167313Y122770D02*
X168876Y124333D01*
X167313Y133787D02*
X168876Y132224D01*
X167313Y128338D02*
X168876Y129901D01*
X167313Y117203D02*
X168876Y118765D01*
X167313Y117084D02*
X168876Y115521D01*
X167313Y122651D02*
X168876Y121088D01*
X167313Y112602D02*
Y113250D01*
X167022Y111344D02*
X168876Y113198D01*
X167120Y111709D02*
X168876Y109953D01*
X166932Y111010D02*
X167268Y112262D01*
X166153Y109571D02*
X166801Y110694D01*
X164938Y108323D02*
X168876Y104385D01*
X160678Y107015D02*
X168876Y98817D01*
X165028Y108383D02*
X165945Y109299D01*
X160429Y144985D02*
X161725D01*
X162065Y144941D02*
X163317Y144605D01*
X158837D02*
X160089Y144941D01*
X157398Y143826D02*
X158521Y144474D01*
X156210Y142701D02*
X157126Y143617D01*
X155353Y141306D02*
X156001Y142429D01*
X154887Y139738D02*
X155222Y140990D01*
X154842Y113250D02*
Y138750D01*
X153124Y136839D02*
X154842Y135122D01*
X153124Y130853D02*
X154842Y132571D01*
Y138750D02*
Y139398D01*
X153124Y136421D02*
X154842Y138138D01*
X153124Y125285D02*
X154842Y127003D01*
X153124Y125704D02*
X154842Y123986D01*
X153124Y131272D02*
X154842Y129554D01*
X156210Y109299D02*
X157126Y108383D01*
X157398Y108174D02*
X158521Y107526D01*
X154887Y112262D02*
X155222Y111010D01*
X155353Y110694D02*
X156001Y109571D01*
X163634Y107526D02*
X164756Y108174D01*
X162065Y107059D02*
X163317Y107395D01*
X158837D02*
X160089Y107059D01*
X160429Y107015D02*
X161725D01*
X153124Y114150D02*
X154842Y115867D01*
X153124Y114568D02*
X154842Y112851D01*
X153124Y119718D02*
X154842Y121435D01*
X153124Y120136D02*
X154842Y118419D01*
X153124Y108582D02*
X155324Y110781D01*
X153124Y103015D02*
X157960Y107850D01*
X154842Y112602D02*
Y113250D01*
X167313Y83796D02*
X168876Y85359D01*
X167313Y83677D02*
X168876Y82114D01*
X167313Y89364D02*
X168876Y90927D01*
X167313Y89245D02*
X168876Y87682D01*
Y55000D02*
Y145000D01*
X167313Y78109D02*
X168876Y76546D01*
X167313Y63250D02*
Y91750D01*
Y78228D02*
X168876Y79791D01*
X164048Y97235D02*
X168876Y102062D01*
X166760Y94379D02*
X168876Y96494D01*
X158856Y97610D02*
X168876Y107630D01*
X166153Y95429D02*
X166801Y94306D01*
X153124Y109001D02*
X168876Y93250D01*
X167313Y91750D02*
Y92398D01*
X166932Y93990D02*
X167268Y92738D01*
X167313Y67093D02*
X168876Y68656D01*
X167313Y66974D02*
X168876Y65411D01*
X167313Y72660D02*
X168876Y74223D01*
X167313Y72541D02*
X168876Y70978D01*
X167313Y62602D02*
Y63250D01*
X166982Y61194D02*
X168876Y63088D01*
X167096Y61622D02*
X168876Y59843D01*
X166932Y61010D02*
X167268Y62262D01*
X166153Y59571D02*
X166801Y60694D01*
X164874Y58277D02*
X168845Y54306D01*
X160568Y57015D02*
X167304Y50279D01*
X160429Y97985D02*
X161725D01*
X162065Y97941D02*
X163317Y97605D01*
X158837D02*
X160089Y97941D01*
X157398Y96826D02*
X158521Y97474D01*
X163634D02*
X164756Y96826D01*
X165028Y96617D02*
X165945Y95701D01*
X156210D02*
X157126Y96617D01*
X155353Y94306D02*
X156001Y95429D01*
X153124Y97447D02*
X162983Y107305D01*
X153124Y103433D02*
X158928Y97629D01*
X153124Y97865D02*
X155840Y95149D01*
X154887Y92738D02*
X155222Y93990D01*
X153124Y58262D02*
Y141738D01*
X154842Y91750D02*
Y92398D01*
X153124Y58262D02*
Y141738D01*
X165028Y58383D02*
X165945Y59299D01*
X163634Y57526D02*
X164756Y58174D01*
X156210Y59299D02*
X157126Y58383D01*
X157398Y58174D02*
X158521Y57526D01*
X162065Y57059D02*
X163317Y57395D01*
X160429Y57015D02*
X161725D01*
X158837Y57395D02*
X160089Y57059D01*
X154842Y63250D02*
Y91750D01*
X153124Y81162D02*
X154842Y79444D01*
X153124Y92297D02*
X154842Y90580D01*
X153124Y86730D02*
X154842Y85012D01*
X154887Y62262D02*
X155222Y61010D01*
X155353Y60694D02*
X156001Y59571D01*
X154842Y62602D02*
Y63250D01*
X147431Y147431D02*
X158569Y158569D01*
X150215Y144647D02*
X161353Y155785D01*
X141864Y152999D02*
X153001Y164137D01*
X144647Y150215D02*
X155785Y161353D01*
X152999Y141863D02*
X164137Y153001D01*
X153124Y91879D02*
X155217Y93972D01*
X153124Y86311D02*
X154842Y88029D01*
X153124Y80743D02*
X154842Y82461D01*
X137875Y179262D02*
X166569Y150569D01*
X137875Y179262D02*
X166569Y150569D01*
X122125Y184543D02*
X161682Y144985D01*
X122125Y178975D02*
X157332Y143768D01*
X122125Y190111D02*
X168876Y143359D01*
X122864Y172667D02*
X155078Y140453D01*
X124431Y170431D02*
X153124Y141738D01*
Y69608D02*
X154842Y71325D01*
X153124Y70026D02*
X154842Y68309D01*
X153124Y75176D02*
X154842Y76893D01*
X153124Y75594D02*
X154842Y73877D01*
X153124Y58472D02*
X155351Y60699D01*
X153124Y58891D02*
X164576Y47439D01*
X153124Y64040D02*
X154842Y65758D01*
X153124Y64458D02*
X154842Y62741D01*
X150655Y55792D02*
X161793Y44655D01*
X147871Y53009D02*
X159009Y41871D01*
X145087Y50225D02*
X156225Y39087D01*
X142303Y47441D02*
X153441Y36303D01*
X124431Y29569D02*
X153124Y58262D01*
X130184Y29964D02*
X158029Y57810D01*
X139519Y44657D02*
X150657Y33519D01*
X122717Y195086D02*
X137875Y179927D01*
Y179262D02*
Y195086D01*
X133853D02*
X137875Y191063D01*
X128285Y195086D02*
X137875Y185495D01*
X125160Y169702D02*
X137875Y182418D01*
X127944Y166918D02*
X139082Y178056D01*
X122769Y172879D02*
X137875Y187985D01*
X122125Y183370D02*
X133840Y195086D01*
X122125D02*
X137875D01*
X122125Y194505D02*
X122705Y195086D01*
X122125Y188938D02*
X128272Y195086D01*
X122125Y176000D02*
Y195086D01*
Y177802D02*
X137875Y193553D01*
X122125Y176000D02*
Y195086D01*
X136296Y158567D02*
X147433Y169704D01*
X139080Y155783D02*
X150217Y166920D01*
X130728Y164134D02*
X141866Y175272D01*
X133512Y161351D02*
X144649Y172488D01*
X136735Y41873D02*
X147873Y30735D01*
X132248Y29556D02*
X133370Y28908D01*
X129429Y29964D02*
X130725D01*
X130865Y29945D02*
X132117Y29610D01*
X123021Y172270D02*
X123883Y170980D01*
X128037Y29610D02*
X129289Y29945D01*
X122125Y175224D02*
X122427Y173703D01*
X123021Y172270D01*
X128384Y33521D02*
X132488Y29418D01*
X126784Y28908D02*
X127907Y29556D01*
X125600Y30738D02*
X127193Y29144D01*
X135541Y24186D02*
X168876Y57520D01*
X137875Y20738D02*
X166569Y49431D01*
X137875Y20738D02*
X166569Y49431D01*
X135541Y24500D02*
Y25148D01*
Y18618D02*
X167549Y50626D01*
X137875Y1581D02*
Y20738D01*
X135541Y7000D02*
Y24500D01*
Y20796D02*
X137875Y18462D01*
X134046Y28258D02*
X163133Y57346D01*
X133951Y39089D02*
X145089Y27951D01*
X133483Y28822D02*
X134399Y27905D01*
X134485Y27793D02*
X135133Y26671D01*
X131168Y36305D02*
X142305Y25168D01*
X134995Y26910D02*
X139521Y22384D01*
X135187Y26540D02*
X135523Y25288D01*
X135541Y7482D02*
X137875Y9817D01*
X135541Y9661D02*
X137875Y7326D01*
X135541Y13050D02*
X137875Y15384D01*
X135541Y15228D02*
X137875Y12894D01*
X135013Y4621D02*
X137875Y1759D01*
X135203Y1577D02*
X137875Y4249D01*
X135541Y6352D02*
Y7000D01*
X135187Y4960D02*
X135523Y6212D01*
X134485Y3707D02*
X135133Y4829D01*
X133483Y2678D02*
X134399Y3595D01*
X132248Y1944D02*
X133370Y2592D01*
X132151Y1916D02*
X132493Y1573D01*
X130925Y1571D02*
X132117Y1890D01*
X130925Y1571D02*
X137875Y1581D01*
X129238Y1568D02*
X130925Y1571D01*
X125755Y27905D02*
X126672Y28822D01*
X125021Y26671D02*
X125669Y27793D01*
X123021Y27730D02*
X123883Y29020D01*
X123055Y27714D02*
X124811Y25958D01*
X124632Y25288D02*
X124967Y26540D01*
X124613Y24500D02*
Y25148D01*
Y7000D02*
Y24500D01*
X122125Y21904D02*
X124613Y24393D01*
X122125Y23077D02*
X124613Y20589D01*
X122125Y1558D02*
Y24000D01*
Y16337D02*
X124613Y18826D01*
X122125Y1558D02*
Y24000D01*
X125021Y4829D02*
X125669Y3707D01*
X125755Y3595D02*
X126672Y2678D01*
X124613Y6352D02*
Y7000D01*
X124632Y6212D02*
X124967Y4960D01*
X128037Y1890D02*
X129238Y1568D01*
X129429Y1536D02*
X130725D01*
X126784Y2592D02*
X127907Y1944D01*
X122125Y11942D02*
X124613Y9453D01*
X122125Y5201D02*
X124613Y7690D01*
X122125Y17510D02*
X124613Y15021D01*
X122125Y10769D02*
X124613Y13258D01*
X122125Y6374D02*
X126934Y1565D01*
X122125Y1558D02*
X129238Y1568D01*
X124052Y1561D02*
X125920Y3430D01*
X173500Y169928D02*
X174812D01*
X174156D01*
Y165992D01*
X173500D01*
X174812D01*
X176780D02*
Y168616D01*
X178748D01*
X179404Y167960D01*
Y165992D01*
X183339Y169928D02*
Y165992D01*
X181371D01*
X180716Y166648D01*
Y167960D01*
X181371Y168616D01*
X183339D01*
X184651Y165992D02*
X185963D01*
X185307D01*
Y168616D01*
X184651D01*
X190555D02*
X188587D01*
X187931Y167960D01*
Y166648D01*
X188587Y165992D01*
X190555D01*
X192523Y168616D02*
X193835D01*
X194491Y167960D01*
Y165992D01*
X192523D01*
X191867Y166648D01*
X192523Y167304D01*
X194491D01*
X196458Y169272D02*
Y168616D01*
X195802D01*
X197114D01*
X196458D01*
Y166648D01*
X197114Y165992D01*
X199738D02*
X201050D01*
X201706Y166648D01*
Y167960D01*
X201050Y168616D01*
X199738D01*
X199082Y167960D01*
Y166648D01*
X199738Y165992D01*
X203018Y168616D02*
Y165992D01*
Y167304D01*
X203674Y167960D01*
X204330Y168616D01*
X204986D01*
X210890Y165992D02*
Y169928D01*
X212857D01*
X213513Y169272D01*
Y167960D01*
X212857Y167304D01*
X210890D01*
X217449Y169272D02*
X216793Y169928D01*
X215481D01*
X214825Y169272D01*
Y166648D01*
X215481Y165992D01*
X216793D01*
X217449Y166648D01*
X218761Y169928D02*
Y165992D01*
X220729D01*
X221385Y166648D01*
Y167304D01*
X220729Y167960D01*
X218761D01*
X220729D01*
X221385Y168616D01*
Y169272D01*
X220729Y169928D01*
X218761D01*
X173500Y158870D02*
Y162805D01*
X175468D01*
X176124Y162149D01*
Y160837D01*
X175468Y160181D01*
X173500D01*
X174812D02*
X176124Y158870D01*
X180060Y162805D02*
X177436D01*
Y158870D01*
X180060D01*
X177436Y160837D02*
X178748D01*
X181371Y162805D02*
Y160181D01*
X182683Y158870D01*
X183995Y160181D01*
Y162805D01*
X187931Y158870D02*
X185307D01*
X187931Y161493D01*
Y162149D01*
X187275Y162805D01*
X185963D01*
X185307Y162149D01*
X194491Y158870D02*
X193179Y160181D01*
Y161493D01*
X194491Y162805D01*
X196458Y162149D02*
X197114Y162805D01*
X198426D01*
X199082Y162149D01*
Y159526D01*
X198426Y158870D01*
X197114D01*
X196458Y159526D01*
Y162149D01*
X200394D02*
X201050Y162805D01*
X202362D01*
X203018Y162149D01*
Y161493D01*
X202362Y160837D01*
X201706D01*
X202362D01*
X203018Y160181D01*
Y159526D01*
X202362Y158870D01*
X201050D01*
X200394Y159526D01*
X204330Y158870D02*
X206954Y161493D01*
X210890Y158870D02*
X208266D01*
X210890Y161493D01*
Y162149D01*
X210234Y162805D01*
X208922D01*
X208266Y162149D01*
X212201D02*
X212857Y162805D01*
X214169D01*
X214825Y162149D01*
Y159526D01*
X214169Y158870D01*
X212857D01*
X212201Y159526D01*
Y162149D01*
X218761Y158870D02*
X216137D01*
X218761Y161493D01*
Y162149D01*
X218105Y162805D01*
X216793D01*
X216137Y162149D01*
X222697Y162805D02*
X221385Y162149D01*
X220073Y160837D01*
Y159526D01*
X220729Y158870D01*
X222041D01*
X222697Y159526D01*
Y160181D01*
X222041Y160837D01*
X220073D01*
X224009Y158870D02*
X225321Y160181D01*
Y161493D01*
X224009Y162805D01*
X173500Y155682D02*
Y151747D01*
X175468D01*
X176124Y152403D01*
Y155026D01*
X175468Y155682D01*
X173500D01*
X179404Y151747D02*
X178092D01*
X177436Y152403D01*
Y153715D01*
X178092Y154370D01*
X179404D01*
X180060Y153715D01*
Y153059D01*
X177436D01*
X181371Y151747D02*
X183339D01*
X183995Y152403D01*
X183339Y153059D01*
X182027D01*
X181371Y153715D01*
X182027Y154370D01*
X183995D01*
X185307Y151747D02*
X186619D01*
X185963D01*
Y154370D01*
X185307D01*
X189899Y150435D02*
X190555D01*
X191211Y151091D01*
Y154370D01*
X189243D01*
X188587Y153715D01*
Y152403D01*
X189243Y151747D01*
X191211D01*
X192523D02*
Y154370D01*
X194491D01*
X195147Y153715D01*
Y151747D01*
X198426D02*
X197114D01*
X196458Y152403D01*
Y153715D01*
X197114Y154370D01*
X198426D01*
X199082Y153715D01*
Y153059D01*
X196458D01*
X203018Y155682D02*
Y151747D01*
X201050D01*
X200394Y152403D01*
Y153715D01*
X201050Y154370D01*
X203018D01*
X208266Y155682D02*
Y151747D01*
X210234D01*
X210890Y152403D01*
Y153059D01*
Y153715D01*
X210234Y154370D01*
X208266D01*
X212201D02*
Y152403D01*
X212857Y151747D01*
X214825D01*
Y151091D01*
X214169Y150435D01*
X213513D01*
X214825Y151747D02*
Y154370D01*
X173500Y147248D02*
Y143312D01*
Y145280D01*
X176124D01*
Y147248D01*
Y143312D01*
X179404D02*
X178092D01*
X177436Y143968D01*
Y145280D01*
X178092Y145936D01*
X179404D01*
X180060Y145280D01*
Y144624D01*
X177436D01*
X183995Y145936D02*
X182027D01*
X181371Y145280D01*
Y143968D01*
X182027Y143312D01*
X183995D01*
X185963Y146592D02*
Y145936D01*
X185307D01*
X186619D01*
X185963D01*
Y143968D01*
X186619Y143312D01*
X189243D02*
X190555D01*
X191211Y143968D01*
Y145280D01*
X190555Y145936D01*
X189243D01*
X188587Y145280D01*
Y143968D01*
X189243Y143312D01*
X192523Y145936D02*
Y143312D01*
Y144624D01*
X193179Y145280D01*
X193835Y145936D01*
X194491D01*
X200394Y147248D02*
Y143312D01*
X202362D01*
X203018Y143968D01*
Y146592D01*
X202362Y147248D01*
X200394D01*
X204330D02*
Y143312D01*
X206954D01*
X208266D02*
Y147248D01*
X210234D01*
X210890Y146592D01*
Y145280D01*
X210234Y144624D01*
X208266D01*
X209578D02*
X210890Y143312D01*
X212857Y142656D02*
X213513Y143312D01*
Y143968D01*
X212857D01*
Y143312D01*
X213513D01*
X212857Y142656D01*
X212201Y142000D01*
X220073Y143312D02*
Y147248D01*
X222041D01*
X222697Y146592D01*
Y145280D01*
X222041Y144624D01*
X220073D01*
X225976Y143312D02*
X224665D01*
X224009Y143968D01*
Y145280D01*
X224665Y145936D01*
X225976D01*
X226632Y145280D01*
Y144624D01*
X224009D01*
X227944Y145936D02*
Y143968D01*
X228600Y143312D01*
X230568D01*
Y142656D01*
X229912Y142000D01*
X229256D01*
X230568Y143312D02*
Y145936D01*
X232536Y146592D02*
Y145936D01*
X231880D01*
X233192D01*
X232536D01*
Y143968D01*
X233192Y143312D01*
X235816D02*
X237128D01*
X237784Y143968D01*
Y145280D01*
X237128Y145936D01*
X235816D01*
X235160Y145280D01*
Y143968D01*
X235816Y143312D01*
X239096D02*
Y145936D01*
X241063D01*
X241720Y145280D01*
Y143312D01*
X249591Y146592D02*
X248935Y147248D01*
X247623D01*
X246967Y146592D01*
Y143968D01*
X247623Y143312D01*
X248935D01*
X249591Y143968D01*
Y145280D01*
X248279D01*
X251559Y142656D02*
X252215Y143312D01*
Y143968D01*
X251559D01*
Y143312D01*
X252215D01*
X251559Y142656D01*
X250903Y142000D01*
X258774Y147248D02*
X261398Y143312D01*
Y147248D02*
X258774Y143312D01*
X263366Y145936D02*
X264678D01*
X265334Y145280D01*
Y143312D01*
X263366D01*
X262710Y143968D01*
X263366Y144624D01*
X265334D01*
X266646Y145936D02*
X267958Y143312D01*
X269270Y145936D01*
X270582Y143312D02*
X271894D01*
X271237D01*
Y145936D01*
X270582D01*
X275829Y143312D02*
X274517D01*
X273861Y143968D01*
Y145280D01*
X274517Y145936D01*
X275829D01*
X276485Y145280D01*
Y144624D01*
X273861D01*
X277797Y145936D02*
Y143312D01*
Y144624D01*
X278453Y145280D01*
X279109Y145936D01*
X279765D01*
X288292Y146592D02*
X287636Y147248D01*
X286325D01*
X285669Y146592D01*
Y143968D01*
X286325Y143312D01*
X287636D01*
X288292Y143968D01*
X70500Y100500D02*
Y102500D01*
X70000Y102999D01*
X69001D01*
X68501Y102500D01*
Y100500D01*
X69001Y100001D01*
X70000D01*
X69500Y101000D02*
X70500Y100001D01*
X70000D02*
X70500Y100500D01*
X71500Y100001D02*
X72499D01*
X72000D01*
Y102999D01*
X71500Y102500D01*
X63999Y47999D02*
X63499Y48499D01*
X62500D01*
X62000Y47999D01*
Y46000D01*
X62500Y45500D01*
X63499D01*
X63999Y46000D01*
Y46999D01*
X63000D01*
X64999Y45500D02*
Y48499D01*
X66998Y45500D01*
Y48499D01*
X67998D02*
Y45500D01*
X69498D01*
X69997Y46000D01*
Y47999D01*
X69498Y48499D01*
X67998D01*
X75995Y47999D02*
X75496Y48499D01*
X74496D01*
X73996Y47999D01*
Y46000D01*
X74496Y45500D01*
X75496D01*
X75995Y46000D01*
Y46999D01*
X74996D01*
X76995Y45500D02*
Y48499D01*
X78495D01*
X78995Y47999D01*
Y46999D01*
X78495Y46500D01*
X76995D01*
X77995D02*
X78995Y45500D01*
X81994Y48499D02*
X79994D01*
Y45500D01*
X81994D01*
X79994Y46999D02*
X80994D01*
X84993Y48499D02*
X82993D01*
Y45500D01*
X84993D01*
X82993Y46999D02*
X83993D01*
X85992Y45500D02*
Y48499D01*
X87992Y45500D01*
Y48499D01*
X49000Y54000D02*
X46001D01*
Y55500D01*
X46501Y55999D01*
X47501D01*
X48000Y55500D01*
Y54000D01*
Y55000D02*
X49000Y55999D01*
X46001Y58998D02*
Y56999D01*
X49000D01*
Y58998D01*
X47501Y56999D02*
Y57999D01*
X46001Y59998D02*
X49000D01*
Y61498D01*
X48500Y61997D01*
X46501D01*
X46001Y61498D01*
Y59998D01*
X46501Y67996D02*
X46001Y67496D01*
Y66496D01*
X46501Y65996D01*
X48500D01*
X49000Y66496D01*
Y67496D01*
X48500Y67996D01*
X47501D01*
Y66996D01*
X49000Y68995D02*
X46001D01*
X49000Y70995D01*
X46001D01*
Y71994D02*
X49000D01*
Y73494D01*
X48500Y73993D01*
X46501D01*
X46001Y73494D01*
Y71994D01*
X49499Y148999D02*
X49000Y149499D01*
X48000D01*
X47500Y148999D01*
Y147000D01*
X48000Y146500D01*
X49000D01*
X49499Y147000D01*
Y148000D01*
X48500D01*
X50499Y146500D02*
Y149499D01*
X52498Y146500D01*
Y149499D01*
X53498D02*
Y146500D01*
X54998D01*
X55497Y147000D01*
Y148999D01*
X54998Y149499D01*
X53498D01*
X59496Y146500D02*
X60496D01*
X59996D01*
Y149499D01*
X59496Y148999D01*
X63995Y146500D02*
X61995D01*
X63995Y148499D01*
Y148999D01*
X63495Y149499D01*
X62495D01*
X61995Y148999D01*
X64994Y149499D02*
Y147500D01*
X65994Y146500D01*
X66994Y147500D01*
Y149499D01*
X260998Y127000D02*
X255000D01*
X257999D01*
Y123001D01*
X260998D01*
X255000D01*
X260998Y121002D02*
X256999D01*
X255000Y119003D01*
X256999Y117003D01*
X260998D01*
X257999Y115004D02*
Y111005D01*
X255000Y103008D02*
X260998D01*
X258999Y101008D01*
X260998Y99009D01*
X255000D01*
X259998Y93011D02*
X260998Y94011D01*
Y96010D01*
X259998Y97010D01*
X256000D01*
X255000Y96010D01*
Y94011D01*
X256000Y93011D01*
X190000Y54498D02*
Y48500D01*
Y51499D01*
X193999D01*
Y54498D01*
Y48500D01*
X195998Y54498D02*
Y50499D01*
X197997Y48500D01*
X199997Y50499D01*
Y54498D01*
X201996Y51499D02*
X205995D01*
X203995Y53498D02*
Y49500D01*
X213992Y48500D02*
Y54498D01*
X215992Y52499D01*
X217991Y54498D01*
Y48500D01*
X223989Y53498D02*
X222989Y54498D01*
X220990D01*
X219990Y53498D01*
Y49500D01*
X220990Y48500D01*
X222989D01*
X223989Y49500D01*
X140946Y18649D02*
X145127Y14348D01*
X143037Y16499D01*
X145904Y19285D01*
X143814Y21436D01*
X147994Y17135D01*
X149428Y18528D02*
X150862Y19921D01*
X150145Y19225D01*
X147358Y22092D01*
X146641Y21396D01*
X155840Y21971D02*
X156557Y22668D01*
X156577Y24082D01*
X153094Y27666D01*
X150943Y25576D01*
X150923Y24162D01*
X152316Y22729D01*
X153730Y22708D01*
X155880Y24799D01*
X153134Y30493D02*
X157314Y26192D01*
X155224Y28343D01*
X155244Y29756D01*
X156678Y31150D01*
X158092Y31130D01*
X160182Y28979D01*
X165301Y40924D02*
X163887Y40944D01*
X162454Y39551D01*
X162433Y38137D01*
X163130Y37420D01*
X164544Y37400D01*
X165978Y38793D01*
X167391Y38773D01*
X168088Y38056D01*
X168068Y36643D01*
X166634Y35249D01*
X165220Y35269D01*
X170218Y38733D02*
X171652Y40126D01*
X170935Y39429D01*
X168149Y42297D01*
X167432Y41600D01*
X172490Y49305D02*
X176671Y45003D01*
X174520Y42913D01*
X173106Y42933D01*
X171713Y44367D01*
X171733Y45781D01*
X173884Y47871D01*
X180255Y48487D02*
X178821Y47093D01*
X177408Y47113D01*
X176014Y48547D01*
X176034Y49961D01*
X177468Y51354D01*
X178882Y51334D01*
X179578Y50617D01*
X176711Y47830D01*
X113259Y32155D02*
X117500Y27914D01*
X120327Y30742D01*
X122448Y32862D02*
X123862Y34276D01*
Y35690D01*
X122448Y37104D01*
X121034D01*
X119621Y35690D01*
Y34276D01*
X121034Y32862D01*
X122448D01*
X123155Y39224D02*
X125276Y37104D01*
X126689D01*
X126689Y38517D01*
X128103D01*
Y39931D01*
X125982Y42052D01*
X133758Y51241D02*
X132344D01*
X130931Y49827D01*
Y48414D01*
X131638Y47707D01*
X133051D01*
X134465Y49121D01*
X135879D01*
X136586Y48414D01*
Y47000D01*
X135172Y45586D01*
X133758D01*
X138706Y49121D02*
X140120Y50534D01*
X139413Y49827D01*
X136586Y52655D01*
X135879Y51948D01*
X140827Y59724D02*
X145068Y55483D01*
X142948Y53362D01*
X141534D01*
X140120Y54776D01*
Y56189D01*
X142241Y58310D01*
X148603Y59017D02*
X147189Y57603D01*
X145775D01*
X144361Y59017D01*
Y60431D01*
X145775Y61844D01*
X147189D01*
X147896Y61137D01*
X145068Y58310D01*
X132500Y11999D02*
X126502D01*
X129501Y9000D01*
Y12999D01*
X132500Y14998D02*
X128501D01*
Y15998D01*
X129501Y16997D01*
X132500D01*
X129501D01*
X128501Y17997D01*
X129501Y18997D01*
X132500D01*
Y20996D02*
X128501D01*
Y21996D01*
X129501Y22996D01*
X132500D01*
X129501D01*
X128501Y23995D01*
X129501Y24995D01*
X132500D01*
X114001Y173500D02*
X116000D01*
Y173000D01*
X114001Y171000D01*
Y170501D01*
X116000D01*
X117000D02*
X117999D01*
X117499D01*
Y173500D01*
X117000Y173000D01*
X83751Y147000D02*
X83251Y147500D01*
X82251D01*
X81751Y147000D01*
Y145000D01*
X82251Y144501D01*
X83251D01*
X83751Y145000D01*
X84750Y144501D02*
X85750D01*
X85250D01*
Y147500D01*
X84750Y147000D01*
X89249Y147500D02*
X87249D01*
Y146000D01*
X88249Y146500D01*
X88749D01*
X89249Y146000D01*
Y145000D01*
X88749Y144501D01*
X87749D01*
X87249Y145000D01*
X97100Y63599D02*
X98100D01*
X97600D01*
Y60600D01*
X97100D01*
X98100D01*
X101599Y63099D02*
X101099Y63599D01*
X100099D01*
X99599Y63099D01*
Y61100D01*
X100099Y60600D01*
X101099D01*
X101599Y61100D01*
X104098Y60600D02*
Y63599D01*
X102598Y62099D01*
X104598D01*
X66251Y69499D02*
X67251D01*
X66751D01*
Y66501D01*
X66251D01*
X67251D01*
X70750Y69000D02*
X70250Y69499D01*
X69250D01*
X68750Y69000D01*
Y67000D01*
X69250Y66501D01*
X70250D01*
X70750Y67000D01*
X73749Y69499D02*
X72749Y69000D01*
X71749Y68000D01*
Y67000D01*
X72249Y66501D01*
X73249D01*
X73749Y67000D01*
Y67500D01*
X73249Y68000D01*
X71749D01*
X104100Y152699D02*
X105100D01*
X104600D01*
Y149700D01*
X104100D01*
X105100D01*
X108598Y152199D02*
X108099Y152699D01*
X107099D01*
X106599Y152199D01*
Y150200D01*
X107099Y149700D01*
X108099D01*
X108598Y150200D01*
X111598Y149700D02*
X109598D01*
X111598Y151699D01*
Y152199D01*
X111098Y152699D01*
X110098D01*
X109598Y152199D01*
X68751Y88001D02*
Y91000D01*
X70251D01*
X70751Y90500D01*
Y89500D01*
X70251Y89000D01*
X68751D01*
X69751D02*
X70751Y88001D01*
X71750D02*
X72750D01*
X72250D01*
Y91000D01*
X71750Y90500D01*
X75749Y88001D02*
Y91000D01*
X74249Y89500D01*
X76249D01*
X54751Y113001D02*
Y115999D01*
X56251D01*
X56751Y115500D01*
Y114500D01*
X56251Y114000D01*
X54751D01*
X55751D02*
X56751Y113001D01*
X57750D02*
X58750D01*
X58250D01*
Y115999D01*
X57750Y115500D01*
X62249Y113001D02*
X60249D01*
X62249Y115000D01*
Y115500D01*
X61749Y115999D01*
X60749D01*
X60249Y115500D01*
X263501Y32000D02*
Y34999D01*
X265000D01*
X265500Y34500D01*
Y33500D01*
X265000Y33000D01*
X263501D01*
X264500D02*
X265500Y32000D01*
X266500Y34500D02*
X267000Y34999D01*
X267999D01*
X268499Y34500D01*
Y34000D01*
X267999Y33500D01*
X267499D01*
X267999D01*
X268499Y33000D01*
Y32500D01*
X267999Y32000D01*
X267000D01*
X266500Y32500D01*
X243500Y32100D02*
Y35099D01*
X245000D01*
X245500Y34599D01*
Y33599D01*
X245000Y33100D01*
X243500D01*
X244500D02*
X245500Y32100D01*
X246499D02*
X247499D01*
X246999D01*
Y35099D01*
X246499Y34599D01*
X236410Y5999D02*
X235410D01*
X235910D01*
Y3500D01*
X235410Y3001D01*
X234910D01*
X234410Y3500D01*
X239409Y5999D02*
X237409D01*
Y4500D01*
X238409Y5000D01*
X238909D01*
X239409Y4500D01*
Y3500D01*
X238909Y3001D01*
X237909D01*
X237409Y3500D01*
X128399Y82399D02*
X127900Y82899D01*
X126900D01*
X126400Y82399D01*
Y80400D01*
X126900Y79900D01*
X127900D01*
X128399Y80400D01*
X131398Y79900D02*
X129399D01*
X131398Y81899D01*
Y82399D01*
X130899Y82899D01*
X129899D01*
X129399Y82399D01*
X119899D02*
X119399Y82899D01*
X118400D01*
X117900Y82399D01*
Y80400D01*
X118400Y79900D01*
X119399D01*
X119899Y80400D01*
X120899Y79900D02*
X121899D01*
X121399D01*
Y82899D01*
X120899Y82399D01*
X189500Y130500D02*
X189000Y131000D01*
X188001D01*
X187501Y130500D01*
Y128500D01*
X188001Y128000D01*
X189000D01*
X189500Y128500D01*
X190500D02*
X191000Y128000D01*
X191999D01*
X192499Y128500D01*
Y130500D01*
X191999Y131000D01*
X191000D01*
X190500Y130500D01*
Y130000D01*
X191000Y129500D01*
X192499D01*
X197251Y130752D02*
X196751Y131252D01*
X195751D01*
X195251Y130752D01*
Y128752D01*
X195751Y128252D01*
X196751D01*
X197251Y128752D01*
X198250Y128252D02*
X199250D01*
X198750D01*
Y131252D01*
X198250Y130752D01*
X200749D02*
X201249Y131252D01*
X202249D01*
X202749Y130752D01*
Y128752D01*
X202249Y128252D01*
X201249D01*
X200749Y128752D01*
Y130752D01*
X302500Y84409D02*
X301501D01*
X302000D01*
Y81910D01*
X301501Y81410D01*
X301001D01*
X300501Y81910D01*
X305499Y84409D02*
X304500Y83909D01*
X303500Y82910D01*
Y81910D01*
X304000Y81410D01*
X304999D01*
X305499Y81910D01*
Y82410D01*
X304999Y82910D01*
X303500D01*
X263501Y54501D02*
Y57499D01*
X265000D01*
X265500Y57000D01*
Y56000D01*
X265000Y55500D01*
X263501D01*
X264500D02*
X265500Y54501D01*
X267999D02*
Y57499D01*
X266500Y56000D01*
X268499D01*
X242501Y54501D02*
Y57499D01*
X244000D01*
X244500Y57000D01*
Y56000D01*
X244000Y55500D01*
X242501D01*
X243500D02*
X244500Y54501D01*
X247499Y57499D02*
X246499Y57000D01*
X245500Y56000D01*
Y55000D01*
X246000Y54501D01*
X246999D01*
X247499Y55000D01*
Y55500D01*
X246999Y56000D01*
X245500D01*
X208501Y65000D02*
Y68000D01*
X210000D01*
X210500Y67500D01*
Y66500D01*
X210000Y66000D01*
X208501D01*
X209501D02*
X210500Y65000D01*
X211500Y68000D02*
X213499D01*
Y67500D01*
X211500Y65500D01*
Y65000D01*
X93751Y144241D02*
Y147240D01*
X95251D01*
X95751Y146740D01*
Y145740D01*
X95251Y145240D01*
X93751D01*
X94751D02*
X95751Y144241D01*
X96750D02*
X97750D01*
X97250D01*
Y147240D01*
X96750Y146740D01*
X99249D02*
X99749Y147240D01*
X100749D01*
X101249Y146740D01*
Y146240D01*
X100749Y145740D01*
X100249D01*
X100749D01*
X101249Y145240D01*
Y144740D01*
X100749Y144241D01*
X99749D01*
X99249Y144740D01*
X50251Y78000D02*
Y80999D01*
X51751D01*
X52251Y80500D01*
Y79500D01*
X51751Y79000D01*
X50251D01*
X51251D02*
X52251Y78000D01*
X53250D02*
X54250D01*
X53750D01*
Y80999D01*
X53250Y80500D01*
X57749Y80999D02*
X55749D01*
Y79500D01*
X56749Y80000D01*
X57249D01*
X57749Y79500D01*
Y78500D01*
X57249Y78000D01*
X56249D01*
X55749Y78500D01*
X197501Y104500D02*
Y107500D01*
X199000D01*
X199500Y107000D01*
Y106000D01*
X199000Y105500D01*
X197501D01*
X198501D02*
X199500Y104500D01*
X202499Y107500D02*
X200500D01*
Y106000D01*
X201500Y106500D01*
X201999D01*
X202499Y106000D01*
Y105000D01*
X201999Y104500D01*
X201000D01*
X200500Y105000D01*
X125501Y57500D02*
Y60500D01*
X127000D01*
X127500Y60000D01*
Y59000D01*
X127000Y58500D01*
X125501D01*
X126500D02*
X127500Y57500D01*
X130499D02*
X128500D01*
X130499Y59500D01*
Y60000D01*
X129999Y60500D01*
X129000D01*
X128500Y60000D01*
X3001Y150499D02*
Y147501D01*
X5001D01*
X7999Y150000D02*
X7500Y150499D01*
X6500D01*
X6000Y150000D01*
Y149500D01*
X6500Y149000D01*
X7500D01*
X7999Y148500D01*
Y148000D01*
X7500Y147501D01*
X6500D01*
X6000Y148000D01*
X8999Y147501D02*
X9999D01*
X9499D01*
Y150499D01*
X8999Y150000D01*
X5000Y36500D02*
X4000D01*
X4500D01*
Y34000D01*
X4000Y33500D01*
X3501D01*
X3001Y34000D01*
X7499Y33500D02*
Y36500D01*
X6000Y35000D01*
X7999D01*
X50591Y50999D02*
X49591D01*
X50091D01*
Y48500D01*
X49591Y48000D01*
X49091D01*
X48591Y48500D01*
X51590Y50500D02*
X52090Y50999D01*
X53090D01*
X53590Y50500D01*
Y50000D01*
X53090Y49500D01*
X52590D01*
X53090D01*
X53590Y49000D01*
Y48500D01*
X53090Y48000D01*
X52090D01*
X51590Y48500D01*
X93500Y154499D02*
X92500D01*
X93000D01*
Y152000D01*
X92500Y151500D01*
X92001D01*
X91501Y152000D01*
X94500Y151500D02*
X95499D01*
X94999D01*
Y154499D01*
X94500Y154000D01*
X66251Y126499D02*
X67251D01*
X66751D01*
Y123501D01*
X66251D01*
X67251D01*
X70750Y126000D02*
X70250Y126499D01*
X69250D01*
X68750Y126000D01*
Y124000D01*
X69250Y123501D01*
X70250D01*
X70750Y124000D01*
X73749Y126499D02*
X71749D01*
Y125000D01*
X72749Y125500D01*
X73249D01*
X73749Y125000D01*
Y124000D01*
X73249Y123501D01*
X72249D01*
X71749Y124000D01*
X138600Y144799D02*
X139600D01*
X139100D01*
Y141800D01*
X138600D01*
X139600D01*
X143098Y144299D02*
X142599Y144799D01*
X141599D01*
X141099Y144299D01*
Y142300D01*
X141599Y141800D01*
X142599D01*
X143098Y142300D01*
X144098Y144299D02*
X144598Y144799D01*
X145598D01*
X146098Y144299D01*
Y143799D01*
X145598Y143299D01*
X145098D01*
X145598D01*
X146098Y142800D01*
Y142300D01*
X145598Y141800D01*
X144598D01*
X144098Y142300D01*
X136300Y96799D02*
X137300D01*
X136800D01*
Y93800D01*
X136300D01*
X137300D01*
X140798Y96299D02*
X140299Y96799D01*
X139299D01*
X138799Y96299D01*
Y94300D01*
X139299Y93800D01*
X140299D01*
X140798Y94300D01*
X141798Y93800D02*
X142798D01*
X142298D01*
Y96799D01*
X141798Y96299D01*
X80751Y113000D02*
X80251Y113499D01*
X79251D01*
X78751Y113000D01*
Y111000D01*
X79251Y110501D01*
X80251D01*
X80751Y111000D01*
X81750Y110501D02*
X82750D01*
X82250D01*
Y113499D01*
X81750Y113000D01*
X85749Y110501D02*
Y113499D01*
X84249Y112000D01*
X86249D01*
X96251Y114000D02*
X95751Y114499D01*
X94751D01*
X94251Y114000D01*
Y112000D01*
X94751Y111501D01*
X95751D01*
X96251Y112000D01*
X97250Y111501D02*
X98250D01*
X97750D01*
Y114499D01*
X97250Y114000D01*
X99749D02*
X100249Y114499D01*
X101249D01*
X101749Y114000D01*
Y113500D01*
X101249Y113000D01*
X100749D01*
X101249D01*
X101749Y112500D01*
Y112000D01*
X101249Y111501D01*
X100249D01*
X99749Y112000D01*
X131751Y112500D02*
X131251Y112999D01*
X130251D01*
X129751Y112500D01*
Y110500D01*
X130251Y110001D01*
X131251D01*
X131751Y110500D01*
X132750Y110001D02*
X133750D01*
X133250D01*
Y112999D01*
X132750Y112500D01*
X137249Y110001D02*
X135249D01*
X137249Y112000D01*
Y112500D01*
X136749Y112999D01*
X135749D01*
X135249Y112500D01*
X122250D02*
X121751Y112999D01*
X120751D01*
X120251Y112500D01*
Y110500D01*
X120751Y110001D01*
X121751D01*
X122250Y110500D01*
X123250Y110001D02*
X124250D01*
X123750D01*
Y112999D01*
X123250Y112500D01*
X125749Y110001D02*
X126749D01*
X126249D01*
Y112999D01*
X125749Y112500D01*
X131500Y141000D02*
X131000Y141499D01*
X130001D01*
X129501Y141000D01*
Y139000D01*
X130001Y138500D01*
X131000D01*
X131500Y139000D01*
X132500Y141000D02*
X133000Y141499D01*
X133999D01*
X134499Y141000D01*
Y140500D01*
X133999Y140000D01*
X134499Y139500D01*
Y139000D01*
X133999Y138500D01*
X133000D01*
X132500Y139000D01*
Y139500D01*
X133000Y140000D01*
X132500Y140500D01*
Y141000D01*
X133000Y140000D02*
X133999D01*
X110500Y122500D02*
X110000Y123000D01*
X109001D01*
X108501Y122500D01*
Y120500D01*
X109001Y120001D01*
X110000D01*
X110500Y120500D01*
X111500Y123000D02*
X113499D01*
Y122500D01*
X111500Y120500D01*
Y120001D01*
X224999Y97399D02*
X224500Y97899D01*
X223500D01*
X223000Y97399D01*
Y95400D01*
X223500Y94900D01*
X224500D01*
X224999Y95400D01*
X227998Y97899D02*
X225999D01*
Y96399D01*
X226999Y96899D01*
X227499D01*
X227998Y96399D01*
Y95400D01*
X227499Y94900D01*
X226499D01*
X225999Y95400D01*
X196000Y96000D02*
X195500Y96500D01*
X194501D01*
X194001Y96000D01*
Y94000D01*
X194501Y93501D01*
X195500D01*
X196000Y94000D01*
X198999Y96500D02*
X198000Y96000D01*
X197000Y95000D01*
Y94000D01*
X197500Y93501D01*
X198499D01*
X198999Y94000D01*
Y94500D01*
X198499Y95000D01*
X197000D01*
X192199Y73199D02*
X191700Y73699D01*
X190700D01*
X190200Y73199D01*
Y71200D01*
X190700Y70700D01*
X191700D01*
X192199Y71200D01*
X194699Y70700D02*
Y73699D01*
X193199Y72199D01*
X195198D01*
X201699Y73099D02*
X201200Y73599D01*
X200200D01*
X199700Y73099D01*
Y71100D01*
X200200Y70600D01*
X201200D01*
X201699Y71100D01*
X202699Y73099D02*
X203199Y73599D01*
X204199D01*
X204698Y73099D01*
Y72599D01*
X204199Y72100D01*
X203699D01*
X204199D01*
X204698Y71600D01*
Y71100D01*
X204199Y70600D01*
X203199D01*
X202699Y71100D01*
D11*
X123106Y128268D02*
G03*
X123894Y128268I394J0D01*
G01*
D02*
G03*
X123106Y128268I-394J0D01*
G01*
X177232Y105606D02*
G03*
X177232Y106394I0J394D01*
G01*
D02*
G03*
X177232Y105606I0J-394D01*
G01*
X75807Y121000D02*
G03*
X75807Y121000I-197J0D01*
G01*
X231197Y68461D02*
G03*
X231197Y68461I-197J0D01*
G01*
X58811Y99291D02*
X60189D01*
X58811D02*
Y110709D01*
X60189D01*
Y99291D02*
Y110709D01*
X61567Y99055D02*
X66094D01*
X51933Y89500D02*
X56067D01*
X103319Y44791D02*
X105681D01*
X103319D02*
Y56209D01*
X105681D01*
Y44791D02*
Y56209D01*
X107059Y44594D02*
X111784D01*
X61382Y89500D02*
X65618D01*
X63209Y67319D02*
Y69681D01*
X51791Y67319D02*
X63209D01*
X51791D02*
Y69681D01*
X63209D01*
X63799Y71059D02*
Y75783D01*
X93138Y175051D02*
X107508D01*
X96878Y168949D02*
X107508D01*
X58500Y118933D02*
Y123067D01*
X208356Y78342D02*
X213671D01*
X245000Y44744D02*
Y50256D01*
X266000Y44744D02*
Y50256D01*
X266000Y22744D02*
Y28256D01*
X118433Y55500D02*
X122567D01*
X245000Y22744D02*
Y28256D01*
X111106Y133791D02*
X111894D01*
X111106D02*
Y145209D01*
X111894D01*
Y133791D02*
Y145209D01*
X113272Y133595D02*
X118783D01*
X121433Y120000D02*
X125567D01*
X67216Y141405D02*
X81783D01*
Y129595D02*
Y141405D01*
X67216Y129595D02*
X81783D01*
X67216D02*
Y141405D01*
X60031Y141602D02*
X65839D01*
X95933Y136000D02*
X100067D01*
X147665Y137516D02*
X174437D01*
Y114484D02*
Y137516D01*
X147665Y114484D02*
X174437D01*
X147665D02*
Y137516D01*
X138709Y136158D02*
X146287D01*
X145091Y66484D02*
X176980D01*
X145091D02*
Y89516D01*
X176980D01*
Y66484D02*
Y89516D01*
X178358Y67843D02*
X185642D01*
D12*
X306992Y89717D02*
Y133693D01*
X269197Y89717D02*
X306992D01*
X269197Y133693D02*
X306992D01*
X269197Y111705D02*
Y133693D01*
X185216Y2508D02*
X229193D01*
X185216D02*
Y40303D01*
X229193Y2508D02*
Y40303D01*
X207205D02*
X229193D01*
X2705Y42512D02*
Y86488D01*
X40500D01*
X2705Y42512D02*
X40500D01*
Y64500D01*
X51807Y2508D02*
X95784D01*
X51807D02*
Y40303D01*
X95784Y2508D02*
Y40303D01*
X73795D02*
X95784D01*
X42217Y194992D02*
X86193D01*
Y157197D02*
Y194992D01*
X42217Y157197D02*
Y194992D01*
Y157197D02*
X64205D01*
X6905Y99906D02*
X20095D01*
X6905D02*
Y138094D01*
X20095D01*
X31905Y99906D02*
X45094D01*
Y138094D01*
X31905D02*
X45094D01*
D13*
X100165Y120319D02*
Y122681D01*
X95835Y120319D02*
Y122681D01*
M02*
